<?xml version="1.0" encoding="UTF-8" standalone="no"?>
<!DOCTYPE svg PUBLIC "-//W3C//DTD SVG 1.1//EN"
 "http://www.w3.org/Graphics/SVG/1.1/DTD/svg11.dtd">
<!-- Generated by graphviz version 2.47.0 (20210316.0004)
 -->
<!-- Title: dependencies Pages: 1 -->
<svg width="2230pt" height="396pt"
 viewBox="0.00 0.00 2230.00 395.59" xmlns="http://www.w3.org/2000/svg" xmlns:xlink="http://www.w3.org/1999/xlink">
<g id="graph0" class="graph" transform="scale(1 1) rotate(0) translate(4 391.59)">
<title>dependencies</title>
<polygon fill="white" stroke="transparent" points="-4,4 -4,-391.59 2226,-391.59 2226,4 -4,4"/>
<text text-anchor="start" x="1090.01" y="-42.4" font-family="Times-12" font-weight="bold" font-size="14.00">Legend</text>
<polygon fill="#ffffb3" stroke="transparent" points="877,-10 877,-30 897,-30 897,-10 877,-10"/>
<text text-anchor="start" x="900.63" y="-15.4" font-family="Times-12" font-size="14.00"> &#160;Declarations</text>
<polygon fill="#8dd3c7" stroke="transparent" points="990,-10 990,-30 1010,-30 1010,-10 990,-10"/>
<text text-anchor="start" x="1013.73" y="-15.4" font-family="Times-12" font-size="14.00"> &#160;Module</text>
<polygon fill="#80b1d3" stroke="transparent" points="1076,-10 1076,-30 1096,-30 1096,-10 1076,-10"/>
<text text-anchor="start" x="1099.78" y="-15.4" font-family="Times-12" font-size="14.00"> &#160;Bootstrap</text>
<polygon fill="#fdb462" stroke="transparent" points="1173,-10 1173,-30 1193,-30 1193,-10 1173,-10"/>
<text text-anchor="start" x="1196.67" y="-15.4" font-family="Times-12" font-size="14.00"> &#160;Providers</text>
<polygon fill="#fb8072" stroke="transparent" points="1269,-10 1269,-30 1289,-30 1289,-10 1269,-10"/>
<text text-anchor="start" x="1292.73" y="-15.4" font-family="Times-12" font-size="14.00"> &#160;Exports</text>
<g id="clust1" class="cluster">
<title>cluster_SACBootstrap5StaticLabelModule</title>
<polygon fill="none" stroke="black" stroke-dasharray="1,5" points="8,-70 8,-379.59 2214,-379.59 2214,-70 8,-70"/>
</g>
<g id="clust3" class="cluster">
<title>cluster_SACBootstrap5StaticLabelModule_SacStaticFormContainerComponent_providers</title>
<polygon fill="none" stroke="black" points="418,-78 418,-241.59 2206,-241.59 2206,-78 418,-78"/>
</g>
<g id="clust6" class="cluster">
<title>cluster_SACBootstrap5StaticLabelModule_exports</title>
<polygon fill="none" stroke="black" points="116,-319.59 116,-371.59 541,-371.59 541,-319.59 116,-319.59"/>
</g>
<g id="clust5" class="cluster">
<title>cluster_SACBootstrap5StaticLabelModule_imports</title>
<polygon fill="none" stroke="black" points="206,-189.59 206,-241.59 410,-241.59 410,-189.59 206,-189.59"/>
</g>
<g id="clust2" class="cluster">
<title>cluster_SACBootstrap5StaticLabelModule_declarations</title>
<polygon fill="none" stroke="black" points="16,-189.59 16,-241.59 198,-241.59 198,-189.59 16,-189.59"/>
</g>
<!-- SacStaticFormContainerComponent -->
<g id="node1" class="node">
<title>SacStaticFormContainerComponent</title>
<polygon fill="#ffffb3" stroke="black" points="998.47,-233.59 779.53,-233.59 779.53,-197.59 998.47,-197.59 998.47,-233.59"/>
<text text-anchor="middle" x="889" y="-211.39" font-family="Times,serif" font-size="14.00">SacStaticFormContainerComponent</text>
</g>
<!-- SACBootstrap5StaticLabelModule -->
<g id="node3" class="node">
<title>SACBootstrap5StaticLabelModule</title>
<polygon fill="#8dd3c7" stroke="black" points="413.97,-298.59 410.97,-302.59 389.97,-302.59 386.97,-298.59 202.03,-298.59 202.03,-262.59 413.97,-262.59 413.97,-298.59"/>
<text text-anchor="middle" x="308" y="-276.39" font-family="Times,serif" font-size="14.00">SACBootstrap5StaticLabelModule</text>
</g>
<!-- SacStaticFormContainerComponent&#45;&gt;SACBootstrap5StaticLabelModule -->
<g id="edge1" class="edge">
<title>SacStaticFormContainerComponent&#45;&gt;SACBootstrap5StaticLabelModule</title>
<path fill="none" stroke="black" d="M779.24,-215.59C637.27,-215.59 407.96,-215.59 407.96,-215.59 407.96,-215.59 407.96,-252.48 407.96,-252.48"/>
<polygon fill="black" stroke="black" points="404.46,-252.48 407.96,-262.48 411.46,-252.48 404.46,-252.48"/>
</g>
<!-- SacStaticLabelComponent -->
<g id="node2" class="node">
<title>SacStaticLabelComponent</title>
<polygon fill="#ffffb3" stroke="black" points="189.8,-233.59 24.2,-233.59 24.2,-197.59 189.8,-197.59 189.8,-233.59"/>
<text text-anchor="middle" x="107" y="-211.39" font-family="Times,serif" font-size="14.00">SacStaticLabelComponent</text>
</g>
<!-- SacStaticLabelComponent&#45;&gt;SACBootstrap5StaticLabelModule -->
<g id="edge4" class="edge">
<title>SacStaticLabelComponent&#45;&gt;SACBootstrap5StaticLabelModule</title>
<path fill="none" stroke="black" d="M189.98,-215.59C200.7,-215.59 208.04,-215.59 208.04,-215.59 208.04,-215.59 208.04,-252.48 208.04,-252.48"/>
<polygon fill="black" stroke="black" points="204.54,-252.48 208.04,-262.48 211.54,-252.48 204.54,-252.48"/>
</g>
<!-- SacStaticFormContainerComponent  -->
<g id="node7" class="node">
<title>SacStaticFormContainerComponent </title>
<polygon fill="#fb8072" stroke="black" points="533.47,-363.59 310.53,-363.59 310.53,-327.59 533.47,-327.59 533.47,-363.59"/>
<text text-anchor="middle" x="422" y="-341.39" font-family="Times,serif" font-size="14.00">SacStaticFormContainerComponent </text>
</g>
<!-- SACBootstrap5StaticLabelModule&#45;&gt;SacStaticFormContainerComponent  -->
<g id="edge6" class="edge">
<title>SACBootstrap5StaticLabelModule&#45;&gt;SacStaticFormContainerComponent </title>
<path fill="none" stroke="black" stroke-dasharray="5,2" d="M362.38,-298.7C362.38,-298.7 362.38,-317.58 362.38,-317.58"/>
<polygon fill="black" stroke="black" points="358.88,-317.58 362.38,-327.58 365.88,-317.58 358.88,-317.58"/>
</g>
<!-- SacStaticLabelComponent  -->
<g id="node8" class="node">
<title>SacStaticLabelComponent </title>
<polygon fill="#fb8072" stroke="black" points="292.3,-363.59 123.7,-363.59 123.7,-327.59 292.3,-327.59 292.3,-363.59"/>
<text text-anchor="middle" x="208" y="-341.39" font-family="Times,serif" font-size="14.00">SacStaticLabelComponent </text>
</g>
<!-- SACBootstrap5StaticLabelModule&#45;&gt;SacStaticLabelComponent  -->
<g id="edge7" class="edge">
<title>SACBootstrap5StaticLabelModule&#45;&gt;SacStaticLabelComponent </title>
<path fill="none" stroke="black" stroke-dasharray="5,2" d="M247.21,-298.7C247.21,-298.7 247.21,-317.58 247.21,-317.58"/>
<polygon fill="black" stroke="black" points="243.71,-317.58 247.21,-327.58 250.71,-317.58 243.71,-317.58"/>
</g>
<!-- {
 &#160;&#160;&#160;provide: NG_VALUE_ACCESSOR, multi: true, useExisting: SacStaticFormContainerComponent,
} -->
<g id="node4" class="node">
<title>{
 &#160;&#160;&#160;provide: NG_VALUE_ACCESSOR, multi: true, useExisting: SacStaticFormContainerComponent,
}</title>
<ellipse fill="#fdb462" stroke="black" cx="1784" cy="-127.3" rx="414.29" ry="41.09"/>
<text text-anchor="middle" x="1784" y="-139.9" font-family="Times,serif" font-size="14.00">{</text>
<text text-anchor="middle" x="1784" y="-123.1" font-family="Times,serif" font-size="14.00"> &#160;&#160;&#160;provide: NG_VALUE_ACCESSOR, multi: true, useExisting: SacStaticFormContainerComponent,</text>
<text text-anchor="middle" x="1784" y="-106.3" font-family="Times,serif" font-size="14.00">}</text>
</g>
<!-- {
 &#160;&#160;&#160;provide: NG_VALUE_ACCESSOR, multi: true, useExisting: SacStaticFormContainerComponent,
}&#45;&gt;SacStaticFormContainerComponent -->
<g id="edge2" class="edge">
<title>{
 &#160;&#160;&#160;provide: NG_VALUE_ACCESSOR, multi: true, useExisting: SacStaticFormContainerComponent,
}&#45;&gt;SacStaticFormContainerComponent</title>
<path fill="none" stroke="black" d="M1784,-168.6C1784,-191.58 1784,-215.59 1784,-215.59 1784,-215.59 1008.74,-215.59 1008.74,-215.59"/>
<polygon fill="black" stroke="black" points="1008.74,-212.09 998.74,-215.59 1008.74,-219.09 1008.74,-212.09"/>
</g>
<!-- {
 &#160;&#160;&#160;provide: NG_VALIDATORS, multi: true, useExisting: forwardRef(() =&gt; SacStaticFormContainerComponent),
} -->
<g id="node5" class="node">
<title>{
 &#160;&#160;&#160;provide: NG_VALIDATORS, multi: true, useExisting: forwardRef(() =&gt; SacStaticFormContainerComponent),
}</title>
<ellipse fill="#fdb462" stroke="black" cx="889" cy="-127.3" rx="462.8" ry="41.09"/>
<text text-anchor="middle" x="889" y="-139.9" font-family="Times,serif" font-size="14.00">{</text>
<text text-anchor="middle" x="889" y="-123.1" font-family="Times,serif" font-size="14.00"> &#160;&#160;&#160;provide: NG_VALIDATORS, multi: true, useExisting: forwardRef(() =&gt; SacStaticFormContainerComponent),</text>
<text text-anchor="middle" x="889" y="-106.3" font-family="Times,serif" font-size="14.00">}</text>
</g>
<!-- {
 &#160;&#160;&#160;provide: NG_VALIDATORS, multi: true, useExisting: forwardRef(() =&gt; SacStaticFormContainerComponent),
}&#45;&gt;SacStaticFormContainerComponent -->
<g id="edge3" class="edge">
<title>{
 &#160;&#160;&#160;provide: NG_VALIDATORS, multi: true, useExisting: forwardRef(() =&gt; SacStaticFormContainerComponent),
}&#45;&gt;SacStaticFormContainerComponent</title>
<path fill="none" stroke="black" d="M889,-168.6C889,-168.6 889,-187.26 889,-187.26"/>
<polygon fill="black" stroke="black" points="885.5,-187.26 889,-197.26 892.5,-187.26 885.5,-187.26"/>
</g>
<!-- SACBootstrap5LayoutModule -->
<g id="node6" class="node">
<title>SACBootstrap5LayoutModule</title>
<polygon fill="#8dd3c7" stroke="black" points="401.87,-233.59 398.87,-237.59 377.87,-237.59 374.87,-233.59 214.13,-233.59 214.13,-197.59 401.87,-197.59 401.87,-233.59"/>
<text text-anchor="middle" x="308" y="-211.39" font-family="Times,serif" font-size="14.00">SACBootstrap5LayoutModule</text>
</g>
<!-- SACBootstrap5LayoutModule&#45;&gt;SACBootstrap5StaticLabelModule -->
<g id="edge5" class="edge">
<title>SACBootstrap5LayoutModule&#45;&gt;SACBootstrap5StaticLabelModule</title>
<path fill="none" stroke="black" d="M308,-233.7C308,-233.7 308,-252.58 308,-252.58"/>
<polygon fill="black" stroke="black" points="304.5,-252.58 308,-262.58 311.5,-252.58 304.5,-252.58"/>
</g>
</g>
</svg>
