<?xml version="1.0" encoding="UTF-8" standalone="no"?>
<!DOCTYPE svg PUBLIC "-//W3C//DTD SVG 1.1//EN"
 "http://www.w3.org/Graphics/SVG/1.1/DTD/svg11.dtd">
<!-- Generated by graphviz version 2.47.0 (20210316.0004)
 -->
<!-- Title: dependencies Pages: 1 -->
<svg width="2230pt" height="396pt"
 viewBox="0.00 0.00 2230.00 395.59" xmlns="http://www.w3.org/2000/svg" xmlns:xlink="http://www.w3.org/1999/xlink">
<g id="graph0" class="graph" transform="scale(1 1) rotate(0) translate(4 391.59)">
<title>dependencies</title>
<polygon fill="white" stroke="transparent" points="-4,4 -4,-391.59 2226,-391.59 2226,4 -4,4"/>
<text text-anchor="start" x="1090.01" y="-42.4" font-family="Times-12" font-weight="bold" font-size="14.00">Legend</text>
<polygon fill="#ffffb3" stroke="transparent" points="877,-10 877,-30 897,-30 897,-10 877,-10"/>
<text text-anchor="start" x="900.63" y="-15.4" font-family="Times-12" font-size="14.00"> &#160;Declarations</text>
<polygon fill="#8dd3c7" stroke="transparent" points="990,-10 990,-30 1010,-30 1010,-10 990,-10"/>
<text text-anchor="start" x="1013.73" y="-15.4" font-family="Times-12" font-size="14.00"> &#160;Module</text>
<polygon fill="#80b1d3" stroke="transparent" points="1076,-10 1076,-30 1096,-30 1096,-10 1076,-10"/>
<text text-anchor="start" x="1099.78" y="-15.4" font-family="Times-12" font-size="14.00"> &#160;Bootstrap</text>
<polygon fill="#fdb462" stroke="transparent" points="1173,-10 1173,-30 1193,-30 1193,-10 1173,-10"/>
<text text-anchor="start" x="1196.67" y="-15.4" font-family="Times-12" font-size="14.00"> &#160;Providers</text>
<polygon fill="#fb8072" stroke="transparent" points="1269,-10 1269,-30 1289,-30 1289,-10 1269,-10"/>
<text text-anchor="start" x="1292.73" y="-15.4" font-family="Times-12" font-size="14.00"> &#160;Exports</text>
<g id="clust1" class="cluster">
<title>cluster_SACBootstrap5StaticLabelModule</title>
<polygon fill="none" stroke="black" stroke-dasharray="1,5" points="8,-70 8,-379.59 2214,-379.59 2214,-70 8,-70"/>
</g>
<g id="clust5" class="cluster">
<title>cluster_SACBootstrap5StaticLabelModule_imports</title>
<polygon fill="none" stroke="black" points="2002,-189.59 2002,-241.59 2206,-241.59 2206,-189.59 2002,-189.59"/>
</g>
<g id="clust6" class="cluster">
<title>cluster_SACBootstrap5StaticLabelModule_exports</title>
<polygon fill="none" stroke="black" points="925,-319.59 925,-371.59 1350,-371.59 1350,-319.59 925,-319.59"/>
</g>
<g id="clust3" class="cluster">
<title>cluster_SACBootstrap5StaticLabelModule_SacStaticFormContainerComponent_providers</title>
<polygon fill="none" stroke="black" points="206,-78 206,-241.59 1994,-241.59 1994,-78 206,-78"/>
</g>
<g id="clust2" class="cluster">
<title>cluster_SACBootstrap5StaticLabelModule_declarations</title>
<polygon fill="none" stroke="black" points="16,-189.59 16,-241.59 198,-241.59 198,-189.59 16,-189.59"/>
</g>
<!-- SacStaticFormContainerComponent -->
<g id="node1" class="node">
<title>SacStaticFormContainerComponent</title>
<polygon fill="#ffffb3" stroke="black" points="1233.47,-233.59 1014.53,-233.59 1014.53,-197.59 1233.47,-197.59 1233.47,-233.59"/>
<text text-anchor="middle" x="1124" y="-211.39" font-family="Times,serif" font-size="14.00">SacStaticFormContainerComponent</text>
</g>
<!-- SACBootstrap5StaticLabelModule -->
<g id="node3" class="node">
<title>SACBootstrap5StaticLabelModule</title>
<polygon fill="#8dd3c7" stroke="black" points="1229.97,-298.59 1226.97,-302.59 1205.97,-302.59 1202.97,-298.59 1018.03,-298.59 1018.03,-262.59 1229.97,-262.59 1229.97,-298.59"/>
<text text-anchor="middle" x="1124" y="-276.39" font-family="Times,serif" font-size="14.00">SACBootstrap5StaticLabelModule</text>
</g>
<!-- SacStaticFormContainerComponent&#45;&gt;SACBootstrap5StaticLabelModule -->
<g id="edge1" class="edge">
<title>SacStaticFormContainerComponent&#45;&gt;SACBootstrap5StaticLabelModule</title>
<path fill="none" stroke="black" d="M1124,-233.7C1124,-233.7 1124,-252.58 1124,-252.58"/>
<polygon fill="black" stroke="black" points="1120.5,-252.58 1124,-262.58 1127.5,-252.58 1120.5,-252.58"/>
</g>
<!-- SacStaticLabelComponent -->
<g id="node2" class="node">
<title>SacStaticLabelComponent</title>
<polygon fill="#ffffb3" stroke="black" points="189.8,-233.59 24.2,-233.59 24.2,-197.59 189.8,-197.59 189.8,-233.59"/>
<text text-anchor="middle" x="107" y="-211.39" font-family="Times,serif" font-size="14.00">SacStaticLabelComponent</text>
</g>
<!-- SacStaticLabelComponent&#45;&gt;SACBootstrap5StaticLabelModule -->
<g id="edge4" class="edge">
<title>SacStaticLabelComponent&#45;&gt;SACBootstrap5StaticLabelModule</title>
<path fill="none" stroke="black" d="M107,-233.7C107,-252.93 107,-280.59 107,-280.59 107,-280.59 1007.56,-280.59 1007.56,-280.59"/>
<polygon fill="black" stroke="black" points="1007.56,-284.09 1017.56,-280.59 1007.56,-277.09 1007.56,-284.09"/>
</g>
<!-- SacStaticFormContainerComponent  -->
<g id="node7" class="node">
<title>SacStaticFormContainerComponent </title>
<polygon fill="#fb8072" stroke="black" points="1342.47,-363.59 1119.53,-363.59 1119.53,-327.59 1342.47,-327.59 1342.47,-363.59"/>
<text text-anchor="middle" x="1231" y="-341.39" font-family="Times,serif" font-size="14.00">SacStaticFormContainerComponent </text>
</g>
<!-- SACBootstrap5StaticLabelModule&#45;&gt;SacStaticFormContainerComponent  -->
<g id="edge6" class="edge">
<title>SACBootstrap5StaticLabelModule&#45;&gt;SacStaticFormContainerComponent </title>
<path fill="none" stroke="black" stroke-dasharray="5,2" d="M1174.88,-298.7C1174.88,-298.7 1174.88,-317.58 1174.88,-317.58"/>
<polygon fill="black" stroke="black" points="1171.38,-317.58 1174.88,-327.58 1178.38,-317.58 1171.38,-317.58"/>
</g>
<!-- SacStaticLabelComponent  -->
<g id="node8" class="node">
<title>SacStaticLabelComponent </title>
<polygon fill="#fb8072" stroke="black" points="1101.3,-363.59 932.7,-363.59 932.7,-327.59 1101.3,-327.59 1101.3,-363.59"/>
<text text-anchor="middle" x="1017" y="-341.39" font-family="Times,serif" font-size="14.00">SacStaticLabelComponent </text>
</g>
<!-- SACBootstrap5StaticLabelModule&#45;&gt;SacStaticLabelComponent  -->
<g id="edge7" class="edge">
<title>SACBootstrap5StaticLabelModule&#45;&gt;SacStaticLabelComponent </title>
<path fill="none" stroke="black" stroke-dasharray="5,2" d="M1059.71,-298.7C1059.71,-298.7 1059.71,-317.58 1059.71,-317.58"/>
<polygon fill="black" stroke="black" points="1056.21,-317.58 1059.71,-327.58 1063.21,-317.58 1056.21,-317.58"/>
</g>
<!-- {
 &#160;&#160;&#160;provide: NG_VALUE_ACCESSOR, multi: true, useExisting: SacStaticFormContainerComponent,
} -->
<g id="node4" class="node">
<title>{
 &#160;&#160;&#160;provide: NG_VALUE_ACCESSOR, multi: true, useExisting: SacStaticFormContainerComponent,
}</title>
<ellipse fill="#fdb462" stroke="black" cx="1572" cy="-127.3" rx="414.29" ry="41.09"/>
<text text-anchor="middle" x="1572" y="-139.9" font-family="Times,serif" font-size="14.00">{</text>
<text text-anchor="middle" x="1572" y="-123.1" font-family="Times,serif" font-size="14.00"> &#160;&#160;&#160;provide: NG_VALUE_ACCESSOR, multi: true, useExisting: SacStaticFormContainerComponent,</text>
<text text-anchor="middle" x="1572" y="-106.3" font-family="Times,serif" font-size="14.00">}</text>
</g>
<!-- {
 &#160;&#160;&#160;provide: NG_VALUE_ACCESSOR, multi: true, useExisting: SacStaticFormContainerComponent,
}&#45;&gt;SacStaticFormContainerComponent -->
<g id="edge2" class="edge">
<title>{
 &#160;&#160;&#160;provide: NG_VALUE_ACCESSOR, multi: true, useExisting: SacStaticFormContainerComponent,
}&#45;&gt;SacStaticFormContainerComponent</title>
<path fill="none" stroke="black" d="M1195.55,-144.74C1195.55,-144.74 1195.55,-187.58 1195.55,-187.58"/>
<polygon fill="black" stroke="black" points="1192.05,-187.58 1195.55,-197.58 1199.05,-187.58 1192.05,-187.58"/>
</g>
<!-- {
 &#160;&#160;&#160;provide: NG_VALIDATORS, multi: true, useExisting: forwardRef(() =&gt; SacStaticFormContainerComponent),
} -->
<g id="node5" class="node">
<title>{
 &#160;&#160;&#160;provide: NG_VALIDATORS, multi: true, useExisting: forwardRef(() =&gt; SacStaticFormContainerComponent),
}</title>
<ellipse fill="#fdb462" stroke="black" cx="677" cy="-127.3" rx="462.8" ry="41.09"/>
<text text-anchor="middle" x="677" y="-139.9" font-family="Times,serif" font-size="14.00">{</text>
<text text-anchor="middle" x="677" y="-123.1" font-family="Times,serif" font-size="14.00"> &#160;&#160;&#160;provide: NG_VALIDATORS, multi: true, useExisting: forwardRef(() =&gt; SacStaticFormContainerComponent),</text>
<text text-anchor="middle" x="677" y="-106.3" font-family="Times,serif" font-size="14.00">}</text>
</g>
<!-- {
 &#160;&#160;&#160;provide: NG_VALIDATORS, multi: true, useExisting: forwardRef(() =&gt; SacStaticFormContainerComponent),
}&#45;&gt;SacStaticFormContainerComponent -->
<g id="edge3" class="edge">
<title>{
 &#160;&#160;&#160;provide: NG_VALIDATORS, multi: true, useExisting: forwardRef(() =&gt; SacStaticFormContainerComponent),
}&#45;&gt;SacStaticFormContainerComponent</title>
<path fill="none" stroke="black" d="M1077.21,-148.22C1077.21,-148.22 1077.21,-187.5 1077.21,-187.5"/>
<polygon fill="black" stroke="black" points="1073.71,-187.5 1077.21,-197.5 1080.71,-187.5 1073.71,-187.5"/>
</g>
<!-- SACBootstrap5LayoutModule -->
<g id="node6" class="node">
<title>SACBootstrap5LayoutModule</title>
<polygon fill="#8dd3c7" stroke="black" points="2197.87,-233.59 2194.87,-237.59 2173.87,-237.59 2170.87,-233.59 2010.13,-233.59 2010.13,-197.59 2197.87,-197.59 2197.87,-233.59"/>
<text text-anchor="middle" x="2104" y="-211.39" font-family="Times,serif" font-size="14.00">SACBootstrap5LayoutModule</text>
</g>
<!-- SACBootstrap5LayoutModule&#45;&gt;SACBootstrap5StaticLabelModule -->
<g id="edge5" class="edge">
<title>SACBootstrap5LayoutModule&#45;&gt;SACBootstrap5StaticLabelModule</title>
<path fill="none" stroke="black" d="M2104,-233.7C2104,-252.93 2104,-280.59 2104,-280.59 2104,-280.59 1240.28,-280.59 1240.28,-280.59"/>
<polygon fill="black" stroke="black" points="1240.28,-277.09 1230.28,-280.59 1240.28,-284.09 1240.28,-277.09"/>
</g>
</g>
</svg>
