<?xml version="1.0" encoding="UTF-8" standalone="no"?>
<!DOCTYPE svg PUBLIC "-//W3C//DTD SVG 1.1//EN"
 "http://www.w3.org/Graphics/SVG/1.1/DTD/svg11.dtd">
<!-- Generated by graphviz version 2.47.0 (20210316.0004)
 -->
<!-- Title: dependencies Pages: 1 -->
<svg width="1250pt" height="284pt"
 viewBox="0.00 0.00 1250.00 284.00" xmlns="http://www.w3.org/2000/svg" xmlns:xlink="http://www.w3.org/1999/xlink">
<g id="graph0" class="graph" transform="scale(1 1) rotate(0) translate(4 280)">
<title>dependencies</title>
<polygon fill="white" stroke="transparent" points="-4,4 -4,-280 1246,-280 1246,4 -4,4"/>
<text text-anchor="start" x="600.01" y="-42.4" font-family="Times-12" font-weight="bold" font-size="14.00">Legend</text>
<polygon fill="#ffffb3" stroke="transparent" points="387,-10 387,-30 407,-30 407,-10 387,-10"/>
<text text-anchor="start" x="410.63" y="-15.4" font-family="Times-12" font-size="14.00"> &#160;Declarations</text>
<polygon fill="#8dd3c7" stroke="transparent" points="500,-10 500,-30 520,-30 520,-10 500,-10"/>
<text text-anchor="start" x="523.73" y="-15.4" font-family="Times-12" font-size="14.00"> &#160;Module</text>
<polygon fill="#80b1d3" stroke="transparent" points="586,-10 586,-30 606,-30 606,-10 586,-10"/>
<text text-anchor="start" x="609.78" y="-15.4" font-family="Times-12" font-size="14.00"> &#160;Bootstrap</text>
<polygon fill="#fdb462" stroke="transparent" points="683,-10 683,-30 703,-30 703,-10 683,-10"/>
<text text-anchor="start" x="706.67" y="-15.4" font-family="Times-12" font-size="14.00"> &#160;Providers</text>
<polygon fill="#fb8072" stroke="transparent" points="779,-10 779,-30 799,-30 799,-10 779,-10"/>
<text text-anchor="start" x="802.73" y="-15.4" font-family="Times-12" font-size="14.00"> &#160;Exports</text>
<g id="clust1" class="cluster">
<title>cluster_SACBootstrap4TinyMceModule</title>
<polygon fill="none" stroke="black" stroke-dasharray="1,5" points="8,-70 8,-268 1234,-268 1234,-70 8,-70"/>
</g>
<g id="clust5" class="cluster">
<title>cluster_SACBootstrap4TinyMceModule_exports</title>
<polygon fill="none" stroke="black" points="547,-208 547,-260 719,-260 719,-208 547,-208"/>
</g>
<g id="clust2" class="cluster">
<title>cluster_SACBootstrap4TinyMceModule_declarations</title>
<polygon fill="none" stroke="black" points="1058,-78 1058,-130 1226,-130 1226,-78 1058,-78"/>
</g>
<g id="clust4" class="cluster">
<title>cluster_SACBootstrap4TinyMceModule_imports</title>
<polygon fill="none" stroke="black" points="16,-78 16,-130 1050,-130 1050,-78 16,-78"/>
</g>
<!-- SacTinyMceComponent -->
<g id="node1" class="node">
<title>SacTinyMceComponent</title>
<polygon fill="#ffffb3" stroke="black" points="1218.36,-122 1065.64,-122 1065.64,-86 1218.36,-86 1218.36,-122"/>
<text text-anchor="middle" x="1142" y="-99.8" font-family="Times,serif" font-size="14.00">SacTinyMceComponent</text>
</g>
<!-- SACBootstrap4TinyMceModule -->
<g id="node2" class="node">
<title>SACBootstrap4TinyMceModule</title>
<polygon fill="#8dd3c7" stroke="black" points="732.53,-187 729.53,-191 708.53,-191 705.53,-187 533.47,-187 533.47,-151 732.53,-151 732.53,-187"/>
<text text-anchor="middle" x="633" y="-164.8" font-family="Times,serif" font-size="14.00">SACBootstrap4TinyMceModule</text>
</g>
<!-- SacTinyMceComponent&#45;&gt;SACBootstrap4TinyMceModule -->
<g id="edge1" class="edge">
<title>SacTinyMceComponent&#45;&gt;SACBootstrap4TinyMceModule</title>
<path fill="none" stroke="black" d="M1142,-122.28C1142,-143.32 1142,-175 1142,-175 1142,-175 742.65,-175 742.65,-175"/>
<polygon fill="black" stroke="black" points="742.65,-171.5 732.65,-175 742.65,-178.5 742.65,-171.5"/>
</g>
<!-- SacTinyMceComponent  -->
<g id="node8" class="node">
<title>SacTinyMceComponent </title>
<polygon fill="#fb8072" stroke="black" points="711.36,-252 554.64,-252 554.64,-216 711.36,-216 711.36,-252"/>
<text text-anchor="middle" x="633" y="-229.8" font-family="Times,serif" font-size="14.00">SacTinyMceComponent </text>
</g>
<!-- SACBootstrap4TinyMceModule&#45;&gt;SacTinyMceComponent  -->
<g id="edge7" class="edge">
<title>SACBootstrap4TinyMceModule&#45;&gt;SacTinyMceComponent </title>
<path fill="none" stroke="black" stroke-dasharray="5,2" d="M633,-187.11C633,-187.11 633,-205.99 633,-205.99"/>
<polygon fill="black" stroke="black" points="629.5,-205.99 633,-215.99 636.5,-205.99 629.5,-205.99"/>
</g>
<!-- SACBootstrap4BrowserModule -->
<g id="node3" class="node">
<title>SACBootstrap4BrowserModule</title>
<polygon fill="#8dd3c7" stroke="black" points="1041.64,-122 1038.64,-126 1017.64,-126 1014.64,-122 846.36,-122 846.36,-86 1041.64,-86 1041.64,-122"/>
<text text-anchor="middle" x="944" y="-99.8" font-family="Times,serif" font-size="14.00">SACBootstrap4BrowserModule</text>
</g>
<!-- SACBootstrap4BrowserModule&#45;&gt;SACBootstrap4TinyMceModule -->
<g id="edge2" class="edge">
<title>SACBootstrap4BrowserModule&#45;&gt;SACBootstrap4TinyMceModule</title>
<path fill="none" stroke="black" d="M944,-122.02C944,-139.37 944,-163 944,-163 944,-163 742.69,-163 742.69,-163"/>
<polygon fill="black" stroke="black" points="742.69,-159.5 732.69,-163 742.69,-166.5 742.69,-159.5"/>
</g>
<!-- SACBootstrap4ButtonModule -->
<g id="node4" class="node">
<title>SACBootstrap4ButtonModule</title>
<polygon fill="#8dd3c7" stroke="black" points="828.33,-122 825.33,-126 804.33,-126 801.33,-122 641.67,-122 641.67,-86 828.33,-86 828.33,-122"/>
<text text-anchor="middle" x="735" y="-99.8" font-family="Times,serif" font-size="14.00">SACBootstrap4ButtonModule</text>
</g>
<!-- SACBootstrap4ButtonModule&#45;&gt;SACBootstrap4TinyMceModule -->
<g id="edge3" class="edge">
<title>SACBootstrap4ButtonModule&#45;&gt;SACBootstrap4TinyMceModule</title>
<path fill="none" stroke="black" d="M687.3,-122.11C687.3,-122.11 687.3,-140.99 687.3,-140.99"/>
<polygon fill="black" stroke="black" points="683.8,-140.99 687.3,-150.99 690.8,-140.99 683.8,-140.99"/>
</g>
<!-- SACBootstrap4DialogModule -->
<g id="node5" class="node">
<title>SACBootstrap4DialogModule</title>
<polygon fill="#8dd3c7" stroke="black" points="624.32,-122 621.32,-126 600.32,-126 597.32,-122 437.68,-122 437.68,-86 624.32,-86 624.32,-122"/>
<text text-anchor="middle" x="531" y="-99.8" font-family="Times,serif" font-size="14.00">SACBootstrap4DialogModule</text>
</g>
<!-- SACBootstrap4DialogModule&#45;&gt;SACBootstrap4TinyMceModule -->
<g id="edge4" class="edge">
<title>SACBootstrap4DialogModule&#45;&gt;SACBootstrap4TinyMceModule</title>
<path fill="none" stroke="black" d="M578.7,-122.11C578.7,-122.11 578.7,-140.99 578.7,-140.99"/>
<polygon fill="black" stroke="black" points="575.2,-140.99 578.7,-150.99 582.2,-140.99 575.2,-140.99"/>
</g>
<!-- SACBootstrap4LayoutModule -->
<g id="node6" class="node">
<title>SACBootstrap4LayoutModule</title>
<polygon fill="#8dd3c7" stroke="black" points="419.87,-122 416.87,-126 395.87,-126 392.87,-122 232.13,-122 232.13,-86 419.87,-86 419.87,-122"/>
<text text-anchor="middle" x="326" y="-99.8" font-family="Times,serif" font-size="14.00">SACBootstrap4LayoutModule</text>
</g>
<!-- SACBootstrap4LayoutModule&#45;&gt;SACBootstrap4TinyMceModule -->
<g id="edge5" class="edge">
<title>SACBootstrap4LayoutModule&#45;&gt;SACBootstrap4TinyMceModule</title>
<path fill="none" stroke="black" d="M326,-122.02C326,-139.37 326,-163 326,-163 326,-163 523.33,-163 523.33,-163"/>
<polygon fill="black" stroke="black" points="523.33,-166.5 533.33,-163 523.33,-159.5 523.33,-166.5"/>
</g>
<!-- SACBootstrap4TooltipModule -->
<g id="node7" class="node">
<title>SACBootstrap4TooltipModule</title>
<polygon fill="#8dd3c7" stroke="black" points="213.94,-122 210.94,-126 189.94,-126 186.94,-122 24.06,-122 24.06,-86 213.94,-86 213.94,-122"/>
<text text-anchor="middle" x="119" y="-99.8" font-family="Times,serif" font-size="14.00">SACBootstrap4TooltipModule</text>
</g>
<!-- SACBootstrap4TooltipModule&#45;&gt;SACBootstrap4TinyMceModule -->
<g id="edge6" class="edge">
<title>SACBootstrap4TooltipModule&#45;&gt;SACBootstrap4TinyMceModule</title>
<path fill="none" stroke="black" d="M119,-122.28C119,-143.32 119,-175 119,-175 119,-175 523.29,-175 523.29,-175"/>
<polygon fill="black" stroke="black" points="523.29,-178.5 533.29,-175 523.29,-171.5 523.29,-178.5"/>
</g>
</g>
</svg>
