<?xml version="1.0" encoding="UTF-8" standalone="no"?>
<!DOCTYPE svg PUBLIC "-//W3C//DTD SVG 1.1//EN"
 "http://www.w3.org/Graphics/SVG/1.1/DTD/svg11.dtd">
<!-- Generated by graphviz version 2.47.0 (20210316.0004)
 -->
<!-- Title: dependencies Pages: 1 -->
<svg width="1250pt" height="284pt"
 viewBox="0.00 0.00 1250.00 284.00" xmlns="http://www.w3.org/2000/svg" xmlns:xlink="http://www.w3.org/1999/xlink">
<g id="graph0" class="graph" transform="scale(1 1) rotate(0) translate(4 280)">
<title>dependencies</title>
<polygon fill="white" stroke="transparent" points="-4,4 -4,-280 1246,-280 1246,4 -4,4"/>
<text text-anchor="start" x="600.01" y="-42.4" font-family="Times-12" font-weight="bold" font-size="14.00">Legend</text>
<polygon fill="#ffffb3" stroke="transparent" points="387,-10 387,-30 407,-30 407,-10 387,-10"/>
<text text-anchor="start" x="410.63" y="-15.4" font-family="Times-12" font-size="14.00"> &#160;Declarations</text>
<polygon fill="#8dd3c7" stroke="transparent" points="500,-10 500,-30 520,-30 520,-10 500,-10"/>
<text text-anchor="start" x="523.73" y="-15.4" font-family="Times-12" font-size="14.00"> &#160;Module</text>
<polygon fill="#80b1d3" stroke="transparent" points="586,-10 586,-30 606,-30 606,-10 586,-10"/>
<text text-anchor="start" x="609.78" y="-15.4" font-family="Times-12" font-size="14.00"> &#160;Bootstrap</text>
<polygon fill="#fdb462" stroke="transparent" points="683,-10 683,-30 703,-30 703,-10 683,-10"/>
<text text-anchor="start" x="706.67" y="-15.4" font-family="Times-12" font-size="14.00"> &#160;Providers</text>
<polygon fill="#fb8072" stroke="transparent" points="779,-10 779,-30 799,-30 799,-10 779,-10"/>
<text text-anchor="start" x="802.73" y="-15.4" font-family="Times-12" font-size="14.00"> &#160;Exports</text>
<g id="clust1" class="cluster">
<title>cluster_SACBootstrap4TinyMceModule</title>
<polygon fill="none" stroke="black" stroke-dasharray="1,5" points="8,-70 8,-268 1234,-268 1234,-70 8,-70"/>
</g>
<g id="clust5" class="cluster">
<title>cluster_SACBootstrap4TinyMceModule_exports</title>
<polygon fill="none" stroke="black" points="518,-208 518,-260 690,-260 690,-208 518,-208"/>
</g>
<g id="clust4" class="cluster">
<title>cluster_SACBootstrap4TinyMceModule_imports</title>
<polygon fill="none" stroke="black" points="192,-78 192,-130 1226,-130 1226,-78 192,-78"/>
</g>
<g id="clust2" class="cluster">
<title>cluster_SACBootstrap4TinyMceModule_declarations</title>
<polygon fill="none" stroke="black" points="16,-78 16,-130 184,-130 184,-78 16,-78"/>
</g>
<!-- SacTinyMceComponent -->
<g id="node1" class="node">
<title>SacTinyMceComponent</title>
<polygon fill="#ffffb3" stroke="black" points="176.36,-122 23.64,-122 23.64,-86 176.36,-86 176.36,-122"/>
<text text-anchor="middle" x="100" y="-99.8" font-family="Times,serif" font-size="14.00">SacTinyMceComponent</text>
</g>
<!-- SACBootstrap4TinyMceModule -->
<g id="node2" class="node">
<title>SACBootstrap4TinyMceModule</title>
<polygon fill="#8dd3c7" stroke="black" points="703.53,-187 700.53,-191 679.53,-191 676.53,-187 504.47,-187 504.47,-151 703.53,-151 703.53,-187"/>
<text text-anchor="middle" x="604" y="-164.8" font-family="Times,serif" font-size="14.00">SACBootstrap4TinyMceModule</text>
</g>
<!-- SacTinyMceComponent&#45;&gt;SACBootstrap4TinyMceModule -->
<g id="edge1" class="edge">
<title>SacTinyMceComponent&#45;&gt;SACBootstrap4TinyMceModule</title>
<path fill="none" stroke="black" d="M100,-122.28C100,-143.32 100,-175 100,-175 100,-175 494.43,-175 494.43,-175"/>
<polygon fill="black" stroke="black" points="494.43,-178.5 504.43,-175 494.43,-171.5 494.43,-178.5"/>
</g>
<!-- SacTinyMceComponent  -->
<g id="node8" class="node">
<title>SacTinyMceComponent </title>
<polygon fill="#fb8072" stroke="black" points="682.36,-252 525.64,-252 525.64,-216 682.36,-216 682.36,-252"/>
<text text-anchor="middle" x="604" y="-229.8" font-family="Times,serif" font-size="14.00">SacTinyMceComponent </text>
</g>
<!-- SACBootstrap4TinyMceModule&#45;&gt;SacTinyMceComponent  -->
<g id="edge7" class="edge">
<title>SACBootstrap4TinyMceModule&#45;&gt;SacTinyMceComponent </title>
<path fill="none" stroke="black" stroke-dasharray="5,2" d="M604,-187.11C604,-187.11 604,-205.99 604,-205.99"/>
<polygon fill="black" stroke="black" points="600.5,-205.99 604,-215.99 607.5,-205.99 600.5,-205.99"/>
</g>
<!-- SACBootstrap4BrowserModule -->
<g id="node3" class="node">
<title>SACBootstrap4BrowserModule</title>
<polygon fill="#8dd3c7" stroke="black" points="1217.64,-122 1214.64,-126 1193.64,-126 1190.64,-122 1022.36,-122 1022.36,-86 1217.64,-86 1217.64,-122"/>
<text text-anchor="middle" x="1120" y="-99.8" font-family="Times,serif" font-size="14.00">SACBootstrap4BrowserModule</text>
</g>
<!-- SACBootstrap4BrowserModule&#45;&gt;SACBootstrap4TinyMceModule -->
<g id="edge2" class="edge">
<title>SACBootstrap4BrowserModule&#45;&gt;SACBootstrap4TinyMceModule</title>
<path fill="none" stroke="black" d="M1120,-122.28C1120,-143.32 1120,-175 1120,-175 1120,-175 713.8,-175 713.8,-175"/>
<polygon fill="black" stroke="black" points="713.8,-171.5 703.8,-175 713.8,-178.5 713.8,-171.5"/>
</g>
<!-- SACBootstrap4ButtonModule -->
<g id="node4" class="node">
<title>SACBootstrap4ButtonModule</title>
<polygon fill="#8dd3c7" stroke="black" points="1004.33,-122 1001.33,-126 980.33,-126 977.33,-122 817.67,-122 817.67,-86 1004.33,-86 1004.33,-122"/>
<text text-anchor="middle" x="911" y="-99.8" font-family="Times,serif" font-size="14.00">SACBootstrap4ButtonModule</text>
</g>
<!-- SACBootstrap4ButtonModule&#45;&gt;SACBootstrap4TinyMceModule -->
<g id="edge3" class="edge">
<title>SACBootstrap4ButtonModule&#45;&gt;SACBootstrap4TinyMceModule</title>
<path fill="none" stroke="black" d="M911,-122.02C911,-139.37 911,-163 911,-163 911,-163 713.67,-163 713.67,-163"/>
<polygon fill="black" stroke="black" points="713.67,-159.5 703.67,-163 713.67,-166.5 713.67,-159.5"/>
</g>
<!-- SACBootstrap4DialogModule -->
<g id="node5" class="node">
<title>SACBootstrap4DialogModule</title>
<polygon fill="#8dd3c7" stroke="black" points="800.32,-122 797.32,-126 776.32,-126 773.32,-122 613.68,-122 613.68,-86 800.32,-86 800.32,-122"/>
<text text-anchor="middle" x="707" y="-99.8" font-family="Times,serif" font-size="14.00">SACBootstrap4DialogModule</text>
</g>
<!-- SACBootstrap4DialogModule&#45;&gt;SACBootstrap4TinyMceModule -->
<g id="edge4" class="edge">
<title>SACBootstrap4DialogModule&#45;&gt;SACBootstrap4TinyMceModule</title>
<path fill="none" stroke="black" d="M658.8,-122.11C658.8,-122.11 658.8,-140.99 658.8,-140.99"/>
<polygon fill="black" stroke="black" points="655.3,-140.99 658.8,-150.99 662.3,-140.99 655.3,-140.99"/>
</g>
<!-- SACBootstrap4LayoutModule -->
<g id="node6" class="node">
<title>SACBootstrap4LayoutModule</title>
<polygon fill="#8dd3c7" stroke="black" points="595.87,-122 592.87,-126 571.87,-126 568.87,-122 408.13,-122 408.13,-86 595.87,-86 595.87,-122"/>
<text text-anchor="middle" x="502" y="-99.8" font-family="Times,serif" font-size="14.00">SACBootstrap4LayoutModule</text>
</g>
<!-- SACBootstrap4LayoutModule&#45;&gt;SACBootstrap4TinyMceModule -->
<g id="edge5" class="edge">
<title>SACBootstrap4LayoutModule&#45;&gt;SACBootstrap4TinyMceModule</title>
<path fill="none" stroke="black" d="M550.09,-122.11C550.09,-122.11 550.09,-140.99 550.09,-140.99"/>
<polygon fill="black" stroke="black" points="546.59,-140.99 550.09,-150.99 553.59,-140.99 546.59,-140.99"/>
</g>
<!-- SACBootstrap4TooltipModule -->
<g id="node7" class="node">
<title>SACBootstrap4TooltipModule</title>
<polygon fill="#8dd3c7" stroke="black" points="389.94,-122 386.94,-126 365.94,-126 362.94,-122 200.06,-122 200.06,-86 389.94,-86 389.94,-122"/>
<text text-anchor="middle" x="295" y="-99.8" font-family="Times,serif" font-size="14.00">SACBootstrap4TooltipModule</text>
</g>
<!-- SACBootstrap4TooltipModule&#45;&gt;SACBootstrap4TinyMceModule -->
<g id="edge6" class="edge">
<title>SACBootstrap4TooltipModule&#45;&gt;SACBootstrap4TinyMceModule</title>
<path fill="none" stroke="black" d="M295,-122.02C295,-139.37 295,-163 295,-163 295,-163 494.1,-163 494.1,-163"/>
<polygon fill="black" stroke="black" points="494.1,-166.5 504.1,-163 494.1,-159.5 494.1,-166.5"/>
</g>
</g>
</svg>
