<?xml version="1.0" encoding="UTF-8" standalone="no"?>
<!DOCTYPE svg PUBLIC "-//W3C//DTD SVG 1.1//EN"
 "http://www.w3.org/Graphics/SVG/1.1/DTD/svg11.dtd">
<!-- Generated by graphviz version 2.47.0 (20210316.0004)
 -->
<!-- Title: dependencies Pages: 1 -->
<svg width="808pt" height="284pt"
 viewBox="0.00 0.00 808.00 284.00" xmlns="http://www.w3.org/2000/svg" xmlns:xlink="http://www.w3.org/1999/xlink">
<g id="graph0" class="graph" transform="scale(1 1) rotate(0) translate(4 280)">
<title>dependencies</title>
<polygon fill="white" stroke="transparent" points="-4,4 -4,-280 804,-280 804,4 -4,4"/>
<text text-anchor="start" x="379.01" y="-42.4" font-family="Times-12" font-weight="bold" font-size="14.00">Legend</text>
<polygon fill="#ffffb3" stroke="transparent" points="166,-10 166,-30 186,-30 186,-10 166,-10"/>
<text text-anchor="start" x="189.63" y="-15.4" font-family="Times-12" font-size="14.00"> &#160;Declarations</text>
<polygon fill="#8dd3c7" stroke="transparent" points="279,-10 279,-30 299,-30 299,-10 279,-10"/>
<text text-anchor="start" x="302.73" y="-15.4" font-family="Times-12" font-size="14.00"> &#160;Module</text>
<polygon fill="#80b1d3" stroke="transparent" points="365,-10 365,-30 385,-30 385,-10 365,-10"/>
<text text-anchor="start" x="388.78" y="-15.4" font-family="Times-12" font-size="14.00"> &#160;Bootstrap</text>
<polygon fill="#fdb462" stroke="transparent" points="462,-10 462,-30 482,-30 482,-10 462,-10"/>
<text text-anchor="start" x="485.67" y="-15.4" font-family="Times-12" font-size="14.00"> &#160;Providers</text>
<polygon fill="#fb8072" stroke="transparent" points="558,-10 558,-30 578,-30 578,-10 558,-10"/>
<text text-anchor="start" x="581.73" y="-15.4" font-family="Times-12" font-size="14.00"> &#160;Exports</text>
<g id="clust1" class="cluster">
<title>cluster_SACBootstrap4ListModule</title>
<polygon fill="none" stroke="black" stroke-dasharray="1,5" points="8,-70 8,-268 792,-268 792,-70 8,-70"/>
</g>
<g id="clust2" class="cluster">
<title>cluster_SACBootstrap4ListModule_declarations</title>
<polygon fill="none" stroke="black" points="436,-78 436,-130 784,-130 784,-78 436,-78"/>
</g>
<g id="clust6" class="cluster">
<title>cluster_SACBootstrap4ListModule_exports</title>
<polygon fill="none" stroke="black" points="240,-208 240,-260 596,-260 596,-208 240,-208"/>
</g>
<g id="clust5" class="cluster">
<title>cluster_SACBootstrap4ListModule_imports</title>
<polygon fill="none" stroke="black" points="16,-78 16,-130 428,-130 428,-78 16,-78"/>
</g>
<!-- SacListboxComponent -->
<g id="node1" class="node">
<title>SacListboxComponent</title>
<polygon fill="#ffffb3" stroke="black" points="776.32,-122 631.68,-122 631.68,-86 776.32,-86 776.32,-122"/>
<text text-anchor="middle" x="704" y="-99.8" font-family="Times,serif" font-size="14.00">SacListboxComponent</text>
</g>
<!-- SACBootstrap4ListModule -->
<g id="node3" class="node">
<title>SACBootstrap4ListModule</title>
<polygon fill="#8dd3c7" stroke="black" points="508.99,-187 505.99,-191 484.99,-191 481.99,-187 339.01,-187 339.01,-151 508.99,-151 508.99,-187"/>
<text text-anchor="middle" x="424" y="-164.8" font-family="Times,serif" font-size="14.00">SACBootstrap4ListModule</text>
</g>
<!-- SacListboxComponent&#45;&gt;SACBootstrap4ListModule -->
<g id="edge1" class="edge">
<title>SacListboxComponent&#45;&gt;SACBootstrap4ListModule</title>
<path fill="none" stroke="black" d="M704,-122.11C704,-141.34 704,-169 704,-169 704,-169 519.15,-169 519.15,-169"/>
<polygon fill="black" stroke="black" points="519.15,-165.5 509.15,-169 519.15,-172.5 519.15,-165.5"/>
</g>
<!-- SacListboxOptionDirective -->
<g id="node2" class="node">
<title>SacListboxOptionDirective</title>
<polygon fill="#ffffb3" stroke="black" points="613.96,-122 444.04,-122 444.04,-86 613.96,-86 613.96,-122"/>
<text text-anchor="middle" x="529" y="-99.8" font-family="Times,serif" font-size="14.00">SacListboxOptionDirective</text>
</g>
<!-- SacListboxOptionDirective&#45;&gt;SACBootstrap4ListModule -->
<g id="edge2" class="edge">
<title>SacListboxOptionDirective&#45;&gt;SACBootstrap4ListModule</title>
<path fill="none" stroke="black" d="M476.51,-122.11C476.51,-122.11 476.51,-140.99 476.51,-140.99"/>
<polygon fill="black" stroke="black" points="473.01,-140.99 476.51,-150.99 480.01,-140.99 473.01,-140.99"/>
</g>
<!-- SacListboxComponent  -->
<g id="node6" class="node">
<title>SacListboxComponent </title>
<polygon fill="#fb8072" stroke="black" points="587.82,-252 440.18,-252 440.18,-216 587.82,-216 587.82,-252"/>
<text text-anchor="middle" x="514" y="-229.8" font-family="Times,serif" font-size="14.00">SacListboxComponent </text>
</g>
<!-- SACBootstrap4ListModule&#45;&gt;SacListboxComponent  -->
<g id="edge5" class="edge">
<title>SACBootstrap4ListModule&#45;&gt;SacListboxComponent </title>
<path fill="none" stroke="black" stroke-dasharray="5,2" d="M474.54,-187.11C474.54,-187.11 474.54,-205.99 474.54,-205.99"/>
<polygon fill="black" stroke="black" points="471.04,-205.99 474.54,-215.99 478.04,-205.99 471.04,-205.99"/>
</g>
<!-- SacListboxOptionDirective  -->
<g id="node7" class="node">
<title>SacListboxOptionDirective </title>
<polygon fill="#fb8072" stroke="black" points="421.96,-252 248.04,-252 248.04,-216 421.96,-216 421.96,-252"/>
<text text-anchor="middle" x="335" y="-229.8" font-family="Times,serif" font-size="14.00">SacListboxOptionDirective </text>
</g>
<!-- SACBootstrap4ListModule&#45;&gt;SacListboxOptionDirective  -->
<g id="edge6" class="edge">
<title>SACBootstrap4ListModule&#45;&gt;SacListboxOptionDirective </title>
<path fill="none" stroke="black" stroke-dasharray="5,2" d="M380.37,-187.11C380.37,-187.11 380.37,-205.99 380.37,-205.99"/>
<polygon fill="black" stroke="black" points="376.87,-205.99 380.37,-215.99 383.87,-205.99 376.87,-205.99"/>
</g>
<!-- SACBootstrap4LayoutModule -->
<g id="node4" class="node">
<title>SACBootstrap4LayoutModule</title>
<polygon fill="#8dd3c7" stroke="black" points="419.87,-122 416.87,-126 395.87,-126 392.87,-122 232.13,-122 232.13,-86 419.87,-86 419.87,-122"/>
<text text-anchor="middle" x="326" y="-99.8" font-family="Times,serif" font-size="14.00">SACBootstrap4LayoutModule</text>
</g>
<!-- SACBootstrap4LayoutModule&#45;&gt;SACBootstrap4ListModule -->
<g id="edge3" class="edge">
<title>SACBootstrap4LayoutModule&#45;&gt;SACBootstrap4ListModule</title>
<path fill="none" stroke="black" d="M379.47,-122.11C379.47,-122.11 379.47,-140.99 379.47,-140.99"/>
<polygon fill="black" stroke="black" points="375.97,-140.99 379.47,-150.99 382.97,-140.99 375.97,-140.99"/>
</g>
<!-- SACBootstrap4TooltipModule -->
<g id="node5" class="node">
<title>SACBootstrap4TooltipModule</title>
<polygon fill="#8dd3c7" stroke="black" points="213.94,-122 210.94,-126 189.94,-126 186.94,-122 24.06,-122 24.06,-86 213.94,-86 213.94,-122"/>
<text text-anchor="middle" x="119" y="-99.8" font-family="Times,serif" font-size="14.00">SACBootstrap4TooltipModule</text>
</g>
<!-- SACBootstrap4TooltipModule&#45;&gt;SACBootstrap4ListModule -->
<g id="edge4" class="edge">
<title>SACBootstrap4TooltipModule&#45;&gt;SACBootstrap4ListModule</title>
<path fill="none" stroke="black" d="M119,-122.11C119,-141.34 119,-169 119,-169 119,-169 328.63,-169 328.63,-169"/>
<polygon fill="black" stroke="black" points="328.63,-172.5 338.63,-169 328.63,-165.5 328.63,-172.5"/>
</g>
</g>
</svg>
