<?xml version="1.0" encoding="UTF-8" standalone="no"?>
<!DOCTYPE svg PUBLIC "-//W3C//DTD SVG 1.1//EN"
 "http://www.w3.org/Graphics/SVG/1.1/DTD/svg11.dtd">
<!-- Generated by graphviz version 2.47.0 (20210316.0004)
 -->
<!-- Title: dependencies Pages: 1 -->
<svg width="2010pt" height="284pt"
 viewBox="0.00 0.00 2010.00 284.00" xmlns="http://www.w3.org/2000/svg" xmlns:xlink="http://www.w3.org/1999/xlink">
<g id="graph0" class="graph" transform="scale(1 1) rotate(0) translate(4 280)">
<title>dependencies</title>
<polygon fill="white" stroke="transparent" points="-4,4 -4,-280 2006,-280 2006,4 -4,4"/>
<text text-anchor="start" x="980.01" y="-42.4" font-family="Times-12" font-weight="bold" font-size="14.00">Legend</text>
<polygon fill="#ffffb3" stroke="transparent" points="767,-10 767,-30 787,-30 787,-10 767,-10"/>
<text text-anchor="start" x="790.63" y="-15.4" font-family="Times-12" font-size="14.00"> &#160;Declarations</text>
<polygon fill="#8dd3c7" stroke="transparent" points="880,-10 880,-30 900,-30 900,-10 880,-10"/>
<text text-anchor="start" x="903.73" y="-15.4" font-family="Times-12" font-size="14.00"> &#160;Module</text>
<polygon fill="#80b1d3" stroke="transparent" points="966,-10 966,-30 986,-30 986,-10 966,-10"/>
<text text-anchor="start" x="989.78" y="-15.4" font-family="Times-12" font-size="14.00"> &#160;Bootstrap</text>
<polygon fill="#fdb462" stroke="transparent" points="1063,-10 1063,-30 1083,-30 1083,-10 1063,-10"/>
<text text-anchor="start" x="1086.67" y="-15.4" font-family="Times-12" font-size="14.00"> &#160;Providers</text>
<polygon fill="#fb8072" stroke="transparent" points="1159,-10 1159,-30 1179,-30 1179,-10 1159,-10"/>
<text text-anchor="start" x="1182.73" y="-15.4" font-family="Times-12" font-size="14.00"> &#160;Exports</text>
<g id="clust1" class="cluster">
<title>cluster_SACBootstrap5MultilanguageModule</title>
<polygon fill="none" stroke="black" stroke-dasharray="1,5" points="8,-70 8,-268 1994,-268 1994,-70 8,-70"/>
</g>
<g id="clust10" class="cluster">
<title>cluster_SACBootstrap5MultilanguageModule_exports</title>
<polygon fill="none" stroke="black" points="754,-208 754,-260 1248,-260 1248,-208 754,-208"/>
</g>
<g id="clust2" class="cluster">
<title>cluster_SACBootstrap5MultilanguageModule_declarations</title>
<polygon fill="none" stroke="black" points="436,-78 436,-130 1986,-130 1986,-78 436,-78"/>
</g>
<g id="clust9" class="cluster">
<title>cluster_SACBootstrap5MultilanguageModule_imports</title>
<polygon fill="none" stroke="black" points="16,-78 16,-130 428,-130 428,-78 16,-78"/>
</g>
<!-- SacMultilanguageInputAreaComponent -->
<g id="node1" class="node">
<title>SacMultilanguageInputAreaComponent</title>
<polygon fill="#ffffb3" stroke="black" points="1977.94,-122 1738.06,-122 1738.06,-86 1977.94,-86 1977.94,-122"/>
<text text-anchor="middle" x="1858" y="-99.8" font-family="Times,serif" font-size="14.00">SacMultilanguageInputAreaComponent</text>
</g>
<!-- SACBootstrap5MultilanguageModule -->
<g id="node7" class="node">
<title>SACBootstrap5MultilanguageModule</title>
<polygon fill="#8dd3c7" stroke="black" points="1108.86,-187 1105.86,-191 1084.86,-191 1081.86,-187 879.14,-187 879.14,-151 1108.86,-151 1108.86,-187"/>
<text text-anchor="middle" x="994" y="-164.8" font-family="Times,serif" font-size="14.00">SACBootstrap5MultilanguageModule</text>
</g>
<!-- SacMultilanguageInputAreaComponent&#45;&gt;SACBootstrap5MultilanguageModule -->
<g id="edge1" class="edge">
<title>SacMultilanguageInputAreaComponent&#45;&gt;SACBootstrap5MultilanguageModule</title>
<path fill="none" stroke="black" d="M1858,-122.29C1858,-144.21 1858,-178 1858,-178 1858,-178 1119.18,-178 1119.18,-178"/>
<polygon fill="black" stroke="black" points="1119.18,-174.5 1109.18,-178 1119.18,-181.5 1119.18,-174.5"/>
</g>
<!-- SacMultilanguageInputComponent -->
<g id="node2" class="node">
<title>SacMultilanguageInputComponent</title>
<polygon fill="#ffffb3" stroke="black" points="1720.25,-122 1507.75,-122 1507.75,-86 1720.25,-86 1720.25,-122"/>
<text text-anchor="middle" x="1614" y="-99.8" font-family="Times,serif" font-size="14.00">SacMultilanguageInputComponent</text>
</g>
<!-- SacMultilanguageInputComponent&#45;&gt;SACBootstrap5MultilanguageModule -->
<g id="edge2" class="edge">
<title>SacMultilanguageInputComponent&#45;&gt;SACBootstrap5MultilanguageModule</title>
<path fill="none" stroke="black" d="M1614,-122.11C1614,-141.34 1614,-169 1614,-169 1614,-169 1119.16,-169 1119.16,-169"/>
<polygon fill="black" stroke="black" points="1119.16,-165.5 1109.16,-169 1119.16,-172.5 1119.16,-165.5"/>
</g>
<!-- SacMultilanguagemenuAnchorDirective -->
<g id="node3" class="node">
<title>SacMultilanguagemenuAnchorDirective</title>
<polygon fill="#ffffb3" stroke="black" points="1489.53,-122 1246.47,-122 1246.47,-86 1489.53,-86 1489.53,-122"/>
<text text-anchor="middle" x="1368" y="-99.8" font-family="Times,serif" font-size="14.00">SacMultilanguagemenuAnchorDirective</text>
</g>
<!-- SacMultilanguagemenuAnchorDirective&#45;&gt;SACBootstrap5MultilanguageModule -->
<g id="edge3" class="edge">
<title>SacMultilanguagemenuAnchorDirective&#45;&gt;SACBootstrap5MultilanguageModule</title>
<path fill="none" stroke="black" d="M1368,-122.03C1368,-138.4 1368,-160 1368,-160 1368,-160 1119.01,-160 1119.01,-160"/>
<polygon fill="black" stroke="black" points="1119.01,-156.5 1109.01,-160 1119.01,-163.5 1119.01,-156.5"/>
</g>
<!-- SacMultilanguagemenuComponent -->
<g id="node4" class="node">
<title>SacMultilanguagemenuComponent</title>
<polygon fill="#ffffb3" stroke="black" points="1228.3,-122 1013.7,-122 1013.7,-86 1228.3,-86 1228.3,-122"/>
<text text-anchor="middle" x="1121" y="-99.8" font-family="Times,serif" font-size="14.00">SacMultilanguagemenuComponent</text>
</g>
<!-- SacMultilanguagemenuComponent&#45;&gt;SACBootstrap5MultilanguageModule -->
<g id="edge4" class="edge">
<title>SacMultilanguagemenuComponent&#45;&gt;SACBootstrap5MultilanguageModule</title>
<path fill="none" stroke="black" d="M1061.39,-122.11C1061.39,-122.11 1061.39,-140.99 1061.39,-140.99"/>
<polygon fill="black" stroke="black" points="1057.89,-140.99 1061.39,-150.99 1064.89,-140.99 1057.89,-140.99"/>
</g>
<!-- SacMultilanguagemenuContainerDirective -->
<g id="node5" class="node">
<title>SacMultilanguagemenuContainerDirective</title>
<polygon fill="#ffffb3" stroke="black" points="996.26,-122 739.74,-122 739.74,-86 996.26,-86 996.26,-122"/>
<text text-anchor="middle" x="868" y="-99.8" font-family="Times,serif" font-size="14.00">SacMultilanguagemenuContainerDirective</text>
</g>
<!-- SacMultilanguagemenuContainerDirective&#45;&gt;SACBootstrap5MultilanguageModule -->
<g id="edge5" class="edge">
<title>SacMultilanguagemenuContainerDirective&#45;&gt;SACBootstrap5MultilanguageModule</title>
<path fill="none" stroke="black" d="M937.6,-122.11C937.6,-122.11 937.6,-140.99 937.6,-140.99"/>
<polygon fill="black" stroke="black" points="934.1,-140.99 937.6,-150.99 941.1,-140.99 934.1,-140.99"/>
</g>
<!-- SacMultilanguagemenuItemButtonComponent -->
<g id="node6" class="node">
<title>SacMultilanguagemenuItemButtonComponent</title>
<polygon fill="#ffffb3" stroke="black" points="722.07,-122 443.93,-122 443.93,-86 722.07,-86 722.07,-122"/>
<text text-anchor="middle" x="583" y="-99.8" font-family="Times,serif" font-size="14.00">SacMultilanguagemenuItemButtonComponent</text>
</g>
<!-- SacMultilanguagemenuItemButtonComponent&#45;&gt;SACBootstrap5MultilanguageModule -->
<g id="edge6" class="edge">
<title>SacMultilanguagemenuItemButtonComponent&#45;&gt;SACBootstrap5MultilanguageModule</title>
<path fill="none" stroke="black" d="M583,-122.03C583,-138.4 583,-160 583,-160 583,-160 868.97,-160 868.97,-160"/>
<polygon fill="black" stroke="black" points="868.97,-163.5 878.97,-160 868.97,-156.5 868.97,-163.5"/>
</g>
<!-- SacMultilanguageInputAreaComponent  -->
<g id="node10" class="node">
<title>SacMultilanguageInputAreaComponent </title>
<polygon fill="#fb8072" stroke="black" points="1239.94,-252 996.06,-252 996.06,-216 1239.94,-216 1239.94,-252"/>
<text text-anchor="middle" x="1118" y="-229.8" font-family="Times,serif" font-size="14.00">SacMultilanguageInputAreaComponent </text>
</g>
<!-- SACBootstrap5MultilanguageModule&#45;&gt;SacMultilanguageInputAreaComponent  -->
<g id="edge9" class="edge">
<title>SACBootstrap5MultilanguageModule&#45;&gt;SacMultilanguageInputAreaComponent </title>
<path fill="none" stroke="black" stroke-dasharray="5,2" d="M1052.61,-187.11C1052.61,-187.11 1052.61,-205.99 1052.61,-205.99"/>
<polygon fill="black" stroke="black" points="1049.11,-205.99 1052.61,-215.99 1056.11,-205.99 1049.11,-205.99"/>
</g>
<!-- SacMultilanguageInputComponent  -->
<g id="node11" class="node">
<title>SacMultilanguageInputComponent </title>
<polygon fill="#fb8072" stroke="black" points="978.25,-252 761.75,-252 761.75,-216 978.25,-216 978.25,-252"/>
<text text-anchor="middle" x="870" y="-229.8" font-family="Times,serif" font-size="14.00">SacMultilanguageInputComponent </text>
</g>
<!-- SACBootstrap5MultilanguageModule&#45;&gt;SacMultilanguageInputComponent  -->
<g id="edge10" class="edge">
<title>SACBootstrap5MultilanguageModule&#45;&gt;SacMultilanguageInputComponent </title>
<path fill="none" stroke="black" stroke-dasharray="5,2" d="M928.6,-187.11C928.6,-187.11 928.6,-205.99 928.6,-205.99"/>
<polygon fill="black" stroke="black" points="925.1,-205.99 928.6,-215.99 932.1,-205.99 925.1,-205.99"/>
</g>
<!-- SACBootstrap5LayoutModule -->
<g id="node8" class="node">
<title>SACBootstrap5LayoutModule</title>
<polygon fill="#8dd3c7" stroke="black" points="419.87,-122 416.87,-126 395.87,-126 392.87,-122 232.13,-122 232.13,-86 419.87,-86 419.87,-122"/>
<text text-anchor="middle" x="326" y="-99.8" font-family="Times,serif" font-size="14.00">SACBootstrap5LayoutModule</text>
</g>
<!-- SACBootstrap5LayoutModule&#45;&gt;SACBootstrap5MultilanguageModule -->
<g id="edge7" class="edge">
<title>SACBootstrap5LayoutModule&#45;&gt;SACBootstrap5MultilanguageModule</title>
<path fill="none" stroke="black" d="M326,-122.11C326,-141.34 326,-169 326,-169 326,-169 868.79,-169 868.79,-169"/>
<polygon fill="black" stroke="black" points="868.79,-172.5 878.79,-169 868.79,-165.5 868.79,-172.5"/>
</g>
<!-- SACBootstrap5TooltipModule -->
<g id="node9" class="node">
<title>SACBootstrap5TooltipModule</title>
<polygon fill="#8dd3c7" stroke="black" points="213.94,-122 210.94,-126 189.94,-126 186.94,-122 24.06,-122 24.06,-86 213.94,-86 213.94,-122"/>
<text text-anchor="middle" x="119" y="-99.8" font-family="Times,serif" font-size="14.00">SACBootstrap5TooltipModule</text>
</g>
<!-- SACBootstrap5TooltipModule&#45;&gt;SACBootstrap5MultilanguageModule -->
<g id="edge8" class="edge">
<title>SACBootstrap5TooltipModule&#45;&gt;SACBootstrap5MultilanguageModule</title>
<path fill="none" stroke="black" d="M119,-122.29C119,-144.21 119,-178 119,-178 119,-178 868.71,-178 868.71,-178"/>
<polygon fill="black" stroke="black" points="868.71,-181.5 878.71,-178 868.71,-174.5 868.71,-181.5"/>
</g>
</g>
</svg>
