<?xml version="1.0" encoding="UTF-8" standalone="no"?>
<!DOCTYPE svg PUBLIC "-//W3C//DTD SVG 1.1//EN"
 "http://www.w3.org/Graphics/SVG/1.1/DTD/svg11.dtd">
<!-- Generated by graphviz version 2.47.0 (20210316.0004)
 -->
<!-- Title: dependencies Pages: 1 -->
<svg width="843pt" height="284pt"
 viewBox="0.00 0.00 843.00 284.00" xmlns="http://www.w3.org/2000/svg" xmlns:xlink="http://www.w3.org/1999/xlink">
<g id="graph0" class="graph" transform="scale(1 1) rotate(0) translate(4 280)">
<title>dependencies</title>
<polygon fill="white" stroke="transparent" points="-4,4 -4,-280 839,-280 839,4 -4,4"/>
<text text-anchor="start" x="396.51" y="-42.4" font-family="Times-12" font-weight="bold" font-size="14.00">Legend</text>
<polygon fill="#ffffb3" stroke="transparent" points="183.5,-10 183.5,-30 203.5,-30 203.5,-10 183.5,-10"/>
<text text-anchor="start" x="207.13" y="-15.4" font-family="Times-12" font-size="14.00"> &#160;Declarations</text>
<polygon fill="#8dd3c7" stroke="transparent" points="296.5,-10 296.5,-30 316.5,-30 316.5,-10 296.5,-10"/>
<text text-anchor="start" x="320.23" y="-15.4" font-family="Times-12" font-size="14.00"> &#160;Module</text>
<polygon fill="#80b1d3" stroke="transparent" points="382.5,-10 382.5,-30 402.5,-30 402.5,-10 382.5,-10"/>
<text text-anchor="start" x="406.28" y="-15.4" font-family="Times-12" font-size="14.00"> &#160;Bootstrap</text>
<polygon fill="#fdb462" stroke="transparent" points="479.5,-10 479.5,-30 499.5,-30 499.5,-10 479.5,-10"/>
<text text-anchor="start" x="503.17" y="-15.4" font-family="Times-12" font-size="14.00"> &#160;Providers</text>
<polygon fill="#fb8072" stroke="transparent" points="575.5,-10 575.5,-30 595.5,-30 595.5,-10 575.5,-10"/>
<text text-anchor="start" x="599.23" y="-15.4" font-family="Times-12" font-size="14.00"> &#160;Exports</text>
<g id="clust1" class="cluster">
<title>cluster_SACBootstrap5DropdownModule</title>
<polygon fill="none" stroke="black" stroke-dasharray="1,5" points="8,-70 8,-268 827,-268 827,-70 8,-70"/>
</g>
<g id="clust2" class="cluster">
<title>cluster_SACBootstrap5DropdownModule_declarations</title>
<polygon fill="none" stroke="black" points="436,-78 436,-130 819,-130 819,-78 436,-78"/>
</g>
<g id="clust5" class="cluster">
<title>cluster_SACBootstrap5DropdownModule_imports</title>
<polygon fill="none" stroke="black" points="16,-78 16,-130 428,-130 428,-78 16,-78"/>
</g>
<g id="clust6" class="cluster">
<title>cluster_SACBootstrap5DropdownModule_exports</title>
<polygon fill="none" stroke="black" points="231,-208 231,-260 620,-260 620,-208 231,-208"/>
</g>
<!-- SacDropdownComponent -->
<g id="node1" class="node">
<title>SacDropdownComponent</title>
<polygon fill="#ffffb3" stroke="black" points="810.92,-122 649.08,-122 649.08,-86 810.92,-86 810.92,-122"/>
<text text-anchor="middle" x="730" y="-99.8" font-family="Times,serif" font-size="14.00">SacDropdownComponent</text>
</g>
<!-- SACBootstrap5DropdownModule -->
<g id="node3" class="node">
<title>SACBootstrap5DropdownModule</title>
<polygon fill="#8dd3c7" stroke="black" points="536.09,-187 533.09,-191 512.09,-191 509.09,-187 327.91,-187 327.91,-151 536.09,-151 536.09,-187"/>
<text text-anchor="middle" x="432" y="-164.8" font-family="Times,serif" font-size="14.00">SACBootstrap5DropdownModule</text>
</g>
<!-- SacDropdownComponent&#45;&gt;SACBootstrap5DropdownModule -->
<g id="edge1" class="edge">
<title>SacDropdownComponent&#45;&gt;SACBootstrap5DropdownModule</title>
<path fill="none" stroke="black" d="M730,-122.11C730,-141.34 730,-169 730,-169 730,-169 546.23,-169 546.23,-169"/>
<polygon fill="black" stroke="black" points="546.23,-165.5 536.23,-169 546.23,-172.5 546.23,-165.5"/>
</g>
<!-- SacDropdownOptionDirective -->
<g id="node2" class="node">
<title>SacDropdownOptionDirective</title>
<polygon fill="#ffffb3" stroke="black" points="631.56,-122 444.44,-122 444.44,-86 631.56,-86 631.56,-122"/>
<text text-anchor="middle" x="538" y="-99.8" font-family="Times,serif" font-size="14.00">SacDropdownOptionDirective</text>
</g>
<!-- SacDropdownOptionDirective&#45;&gt;SACBootstrap5DropdownModule -->
<g id="edge2" class="edge">
<title>SacDropdownOptionDirective&#45;&gt;SACBootstrap5DropdownModule</title>
<path fill="none" stroke="black" d="M490.26,-122.11C490.26,-122.11 490.26,-140.99 490.26,-140.99"/>
<polygon fill="black" stroke="black" points="486.76,-140.99 490.26,-150.99 493.76,-140.99 486.76,-140.99"/>
</g>
<!-- SacDropdownComponent  -->
<g id="node6" class="node">
<title>SacDropdownComponent </title>
<polygon fill="#fb8072" stroke="black" points="612.42,-252 447.58,-252 447.58,-216 612.42,-216 612.42,-252"/>
<text text-anchor="middle" x="530" y="-229.8" font-family="Times,serif" font-size="14.00">SacDropdownComponent </text>
</g>
<!-- SACBootstrap5DropdownModule&#45;&gt;SacDropdownComponent  -->
<g id="edge5" class="edge">
<title>SACBootstrap5DropdownModule&#45;&gt;SacDropdownComponent </title>
<path fill="none" stroke="black" stroke-dasharray="5,2" d="M491.79,-187.11C491.79,-187.11 491.79,-205.99 491.79,-205.99"/>
<polygon fill="black" stroke="black" points="488.29,-205.99 491.79,-215.99 495.29,-205.99 488.29,-205.99"/>
</g>
<!-- SacDropdownOptionDirective  -->
<g id="node7" class="node">
<title>SacDropdownOptionDirective </title>
<polygon fill="#fb8072" stroke="black" points="429.06,-252 238.94,-252 238.94,-216 429.06,-216 429.06,-252"/>
<text text-anchor="middle" x="334" y="-229.8" font-family="Times,serif" font-size="14.00">SacDropdownOptionDirective </text>
</g>
<!-- SACBootstrap5DropdownModule&#45;&gt;SacDropdownOptionDirective  -->
<g id="edge6" class="edge">
<title>SACBootstrap5DropdownModule&#45;&gt;SacDropdownOptionDirective </title>
<path fill="none" stroke="black" stroke-dasharray="5,2" d="M378.62,-187.11C378.62,-187.11 378.62,-205.99 378.62,-205.99"/>
<polygon fill="black" stroke="black" points="375.12,-205.99 378.62,-215.99 382.12,-205.99 375.12,-205.99"/>
</g>
<!-- SACBootstrap5LayoutModule -->
<g id="node4" class="node">
<title>SACBootstrap5LayoutModule</title>
<polygon fill="#8dd3c7" stroke="black" points="419.87,-122 416.87,-126 395.87,-126 392.87,-122 232.13,-122 232.13,-86 419.87,-86 419.87,-122"/>
<text text-anchor="middle" x="326" y="-99.8" font-family="Times,serif" font-size="14.00">SACBootstrap5LayoutModule</text>
</g>
<!-- SACBootstrap5LayoutModule&#45;&gt;SACBootstrap5DropdownModule -->
<g id="edge3" class="edge">
<title>SACBootstrap5LayoutModule&#45;&gt;SACBootstrap5DropdownModule</title>
<path fill="none" stroke="black" d="M373.95,-122.11C373.95,-122.11 373.95,-140.99 373.95,-140.99"/>
<polygon fill="black" stroke="black" points="370.45,-140.99 373.95,-150.99 377.45,-140.99 370.45,-140.99"/>
</g>
<!-- SACBootstrap5TooltipModule -->
<g id="node5" class="node">
<title>SACBootstrap5TooltipModule</title>
<polygon fill="#8dd3c7" stroke="black" points="213.94,-122 210.94,-126 189.94,-126 186.94,-122 24.06,-122 24.06,-86 213.94,-86 213.94,-122"/>
<text text-anchor="middle" x="119" y="-99.8" font-family="Times,serif" font-size="14.00">SACBootstrap5TooltipModule</text>
</g>
<!-- SACBootstrap5TooltipModule&#45;&gt;SACBootstrap5DropdownModule -->
<g id="edge4" class="edge">
<title>SACBootstrap5TooltipModule&#45;&gt;SACBootstrap5DropdownModule</title>
<path fill="none" stroke="black" d="M119,-122.11C119,-141.34 119,-169 119,-169 119,-169 317.78,-169 317.78,-169"/>
<polygon fill="black" stroke="black" points="317.78,-172.5 327.78,-169 317.78,-165.5 317.78,-172.5"/>
</g>
</g>
</svg>
