<?xml version="1.0" encoding="UTF-8" standalone="no"?>
<!DOCTYPE svg PUBLIC "-//W3C//DTD SVG 1.1//EN"
 "http://www.w3.org/Graphics/SVG/1.1/DTD/svg11.dtd">
<!-- Generated by graphviz version 2.47.0 (20210316.0004)
 -->
<!-- Title: dependencies Pages: 1 -->
<svg width="1684pt" height="284pt"
 viewBox="0.00 0.00 1684.00 284.00" xmlns="http://www.w3.org/2000/svg" xmlns:xlink="http://www.w3.org/1999/xlink">
<g id="graph0" class="graph" transform="scale(1 1) rotate(0) translate(4 280)">
<title>dependencies</title>
<polygon fill="white" stroke="transparent" points="-4,4 -4,-280 1680,-280 1680,4 -4,4"/>
<text text-anchor="start" x="817.01" y="-42.4" font-family="Times-12" font-weight="bold" font-size="14.00">Legend</text>
<polygon fill="#ffffb3" stroke="transparent" points="604,-10 604,-30 624,-30 624,-10 604,-10"/>
<text text-anchor="start" x="627.63" y="-15.4" font-family="Times-12" font-size="14.00"> &#160;Declarations</text>
<polygon fill="#8dd3c7" stroke="transparent" points="717,-10 717,-30 737,-30 737,-10 717,-10"/>
<text text-anchor="start" x="740.73" y="-15.4" font-family="Times-12" font-size="14.00"> &#160;Module</text>
<polygon fill="#80b1d3" stroke="transparent" points="803,-10 803,-30 823,-30 823,-10 803,-10"/>
<text text-anchor="start" x="826.78" y="-15.4" font-family="Times-12" font-size="14.00"> &#160;Bootstrap</text>
<polygon fill="#fdb462" stroke="transparent" points="900,-10 900,-30 920,-30 920,-10 900,-10"/>
<text text-anchor="start" x="923.67" y="-15.4" font-family="Times-12" font-size="14.00"> &#160;Providers</text>
<polygon fill="#fb8072" stroke="transparent" points="996,-10 996,-30 1016,-30 1016,-10 996,-10"/>
<text text-anchor="start" x="1019.73" y="-15.4" font-family="Times-12" font-size="14.00"> &#160;Exports</text>
<g id="clust1" class="cluster">
<title>cluster_SACBootstrap3InputModule</title>
<polygon fill="none" stroke="black" stroke-dasharray="1,5" points="8,-70 8,-268 1668,-268 1668,-70 8,-70"/>
</g>
<g id="clust4" class="cluster">
<title>cluster_SACBootstrap3InputModule_exports</title>
<polygon fill="none" stroke="black" points="84,-208 84,-260 1593,-260 1593,-208 84,-208"/>
</g>
<g id="clust3" class="cluster">
<title>cluster_SACBootstrap3InputModule_imports</title>
<polygon fill="none" stroke="black" points="16,-78 16,-130 1660,-130 1660,-78 16,-78"/>
</g>
<!-- SacInputAreaComponent -->
<g id="node1" class="node">
<title>SacInputAreaComponent</title>
<polygon fill="#8dd3c7" stroke="black" points="1652.29,-122 1649.29,-126 1628.29,-126 1625.29,-122 1493.71,-122 1493.71,-86 1652.29,-86 1652.29,-122"/>
<text text-anchor="middle" x="1573" y="-99.8" font-family="Times,serif" font-size="14.00">SacInputAreaComponent</text>
</g>
<!-- SACBootstrap3InputModule -->
<g id="node10" class="node">
<title>SACBootstrap3InputModule</title>
<polygon fill="#8dd3c7" stroke="black" points="934.76,-187 931.76,-191 910.76,-191 907.76,-187 757.24,-187 757.24,-151 934.76,-151 934.76,-187"/>
<text text-anchor="middle" x="846" y="-164.8" font-family="Times,serif" font-size="14.00">SACBootstrap3InputModule</text>
</g>
<!-- SacInputAreaComponent&#45;&gt;SACBootstrap3InputModule -->
<g id="edge1" class="edge">
<title>SacInputAreaComponent&#45;&gt;SACBootstrap3InputModule</title>
<path fill="none" stroke="black" d="M1539.38,-122.11C1539.38,-141.34 1539.38,-169 1539.38,-169 1539.38,-169 944.87,-169 944.87,-169"/>
<polygon fill="black" stroke="black" points="944.87,-165.5 934.87,-169 944.87,-172.5 944.87,-165.5"/>
</g>
<!-- SacInputComponent -->
<g id="node2" class="node">
<title>SacInputComponent</title>
<polygon fill="#8dd3c7" stroke="black" points="1475.6,-122 1472.6,-126 1451.6,-126 1448.6,-122 1344.4,-122 1344.4,-86 1475.6,-86 1475.6,-122"/>
<text text-anchor="middle" x="1410" y="-99.8" font-family="Times,serif" font-size="14.00">SacInputComponent</text>
</g>
<!-- SacInputComponent&#45;&gt;SACBootstrap3InputModule -->
<g id="edge2" class="edge">
<title>SacInputComponent&#45;&gt;SACBootstrap3InputModule</title>
<path fill="none" stroke="black" d="M1374.88,-122.3C1374.88,-140.27 1374.88,-165 1374.88,-165 1374.88,-165 944.82,-165 944.82,-165"/>
<polygon fill="black" stroke="black" points="944.82,-161.5 934.82,-165 944.82,-168.5 944.82,-161.5"/>
</g>
<!-- SacInputCurrencyComponent -->
<g id="node3" class="node">
<title>SacInputCurrencyComponent</title>
<polygon fill="#8dd3c7" stroke="black" points="1326.68,-122 1323.68,-126 1302.68,-126 1299.68,-122 1143.32,-122 1143.32,-86 1326.68,-86 1326.68,-122"/>
<text text-anchor="middle" x="1235" y="-99.8" font-family="Times,serif" font-size="14.00">SacInputCurrencyComponent</text>
</g>
<!-- SacInputCurrencyComponent&#45;&gt;SACBootstrap3InputModule -->
<g id="edge3" class="edge">
<title>SacInputCurrencyComponent&#45;&gt;SACBootstrap3InputModule</title>
<path fill="none" stroke="black" d="M1197.88,-122.03C1197.88,-138.4 1197.88,-160 1197.88,-160 1197.88,-160 944.79,-160 944.79,-160"/>
<polygon fill="black" stroke="black" points="944.79,-156.5 934.79,-160 944.79,-163.5 944.79,-156.5"/>
</g>
<!-- SacInputDecimalComponent -->
<g id="node4" class="node">
<title>SacInputDecimalComponent</title>
<polygon fill="#8dd3c7" stroke="black" points="1125.02,-122 1122.02,-126 1101.02,-126 1098.02,-122 946.98,-122 946.98,-86 1125.02,-86 1125.02,-122"/>
<text text-anchor="middle" x="1036" y="-99.8" font-family="Times,serif" font-size="14.00">SacInputDecimalComponent</text>
</g>
<!-- SacInputDecimalComponent&#45;&gt;SACBootstrap3InputModule -->
<g id="edge4" class="edge">
<title>SacInputDecimalComponent&#45;&gt;SACBootstrap3InputModule</title>
<path fill="none" stroke="black" d="M997.38,-122.19C997.38,-137.18 997.38,-156 997.38,-156 997.38,-156 944.93,-156 944.93,-156"/>
<polygon fill="black" stroke="black" points="944.93,-152.5 934.93,-156 944.93,-159.5 944.93,-152.5"/>
</g>
<!-- SacInputEmailComponent -->
<g id="node5" class="node">
<title>SacInputEmailComponent</title>
<polygon fill="#8dd3c7" stroke="black" points="928.04,-122 925.04,-126 904.04,-126 901.04,-122 763.96,-122 763.96,-86 928.04,-86 928.04,-122"/>
<text text-anchor="middle" x="846" y="-99.8" font-family="Times,serif" font-size="14.00">SacInputEmailComponent</text>
</g>
<!-- SacInputEmailComponent&#45;&gt;SACBootstrap3InputModule -->
<g id="edge5" class="edge">
<title>SacInputEmailComponent&#45;&gt;SACBootstrap3InputModule</title>
<path fill="none" stroke="black" d="M846,-122.11C846,-122.11 846,-140.99 846,-140.99"/>
<polygon fill="black" stroke="black" points="842.5,-140.99 846,-150.99 849.5,-140.99 842.5,-140.99"/>
</g>
<!-- SacInputIntegerComponent -->
<g id="node6" class="node">
<title>SacInputIntegerComponent</title>
<polygon fill="#8dd3c7" stroke="black" points="745.24,-122 742.24,-126 721.24,-126 718.24,-122 574.76,-122 574.76,-86 745.24,-86 745.24,-122"/>
<text text-anchor="middle" x="660" y="-99.8" font-family="Times,serif" font-size="14.00">SacInputIntegerComponent</text>
</g>
<!-- SacInputIntegerComponent&#45;&gt;SACBootstrap3InputModule -->
<g id="edge6" class="edge">
<title>SacInputIntegerComponent&#45;&gt;SACBootstrap3InputModule</title>
<path fill="none" stroke="black" d="M712.68,-122.19C712.68,-137.18 712.68,-156 712.68,-156 712.68,-156 747.07,-156 747.07,-156"/>
<polygon fill="black" stroke="black" points="747.07,-159.5 757.07,-156 747.07,-152.5 747.07,-159.5"/>
</g>
<!-- SacInputPasswordComponent -->
<g id="node7" class="node">
<title>SacInputPasswordComponent</title>
<polygon fill="#8dd3c7" stroke="black" points="556.25,-122 553.25,-126 532.25,-126 529.25,-122 371.75,-122 371.75,-86 556.25,-86 556.25,-122"/>
<text text-anchor="middle" x="464" y="-99.8" font-family="Times,serif" font-size="14.00">SacInputPasswordComponent</text>
</g>
<!-- SacInputPasswordComponent&#45;&gt;SACBootstrap3InputModule -->
<g id="edge7" class="edge">
<title>SacInputPasswordComponent&#45;&gt;SACBootstrap3InputModule</title>
<path fill="none" stroke="black" d="M522.13,-122.03C522.13,-138.4 522.13,-160 522.13,-160 522.13,-160 747.07,-160 747.07,-160"/>
<polygon fill="black" stroke="black" points="747.07,-163.5 757.07,-160 747.07,-156.5 747.07,-163.5"/>
</g>
<!-- SacInputSearchComponent -->
<g id="node8" class="node">
<title>SacInputSearchComponent</title>
<polygon fill="#8dd3c7" stroke="black" points="353.68,-122 350.68,-126 329.68,-126 326.68,-122 184.32,-122 184.32,-86 353.68,-86 353.68,-122"/>
<text text-anchor="middle" x="269" y="-99.8" font-family="Times,serif" font-size="14.00">SacInputSearchComponent</text>
</g>
<!-- SacInputSearchComponent&#45;&gt;SACBootstrap3InputModule -->
<g id="edge8" class="edge">
<title>SacInputSearchComponent&#45;&gt;SACBootstrap3InputModule</title>
<path fill="none" stroke="black" d="M317.73,-122.3C317.73,-140.27 317.73,-165 317.73,-165 317.73,-165 746.98,-165 746.98,-165"/>
<polygon fill="black" stroke="black" points="746.98,-168.5 756.98,-165 746.98,-161.5 746.98,-168.5"/>
</g>
<!-- SacTooltipComponent -->
<g id="node9" class="node">
<title>SacTooltipComponent</title>
<polygon fill="#8dd3c7" stroke="black" points="166.27,-122 163.27,-126 142.27,-126 139.27,-122 23.73,-122 23.73,-86 166.27,-86 166.27,-122"/>
<text text-anchor="middle" x="95" y="-99.8" font-family="Times,serif" font-size="14.00">SacTooltipComponent</text>
</g>
<!-- SacTooltipComponent&#45;&gt;SACBootstrap3InputModule -->
<g id="edge9" class="edge">
<title>SacTooltipComponent&#45;&gt;SACBootstrap3InputModule</title>
<path fill="none" stroke="black" d="M129.02,-122.11C129.02,-141.34 129.02,-169 129.02,-169 129.02,-169 747,-169 747,-169"/>
<polygon fill="black" stroke="black" points="747,-172.5 757,-169 747,-165.5 747,-172.5"/>
</g>
<!-- SacInputAreaComponent  -->
<g id="node11" class="node">
<title>SacInputAreaComponent </title>
<polygon fill="#fb8072" stroke="black" points="1584.79,-252 1423.21,-252 1423.21,-216 1584.79,-216 1584.79,-252"/>
<text text-anchor="middle" x="1504" y="-229.8" font-family="Times,serif" font-size="14.00">SacInputAreaComponent </text>
</g>
<!-- SACBootstrap3InputModule&#45;&gt;SacInputAreaComponent  -->
<g id="edge10" class="edge">
<title>SACBootstrap3InputModule&#45;&gt;SacInputAreaComponent </title>
<path fill="none" stroke="black" stroke-dasharray="5,2" d="M935.02,-174C1102.85,-174 1449.33,-174 1449.33,-174 1449.33,-174 1449.33,-206 1449.33,-206"/>
<polygon fill="black" stroke="black" points="1445.83,-206 1449.33,-216 1452.83,-206 1445.83,-206"/>
</g>
<!-- SacInputComponent  -->
<g id="node12" class="node">
<title>SacInputComponent </title>
<polygon fill="#fb8072" stroke="black" points="1405.1,-252 1270.9,-252 1270.9,-216 1405.1,-216 1405.1,-252"/>
<text text-anchor="middle" x="1338" y="-229.8" font-family="Times,serif" font-size="14.00">SacInputComponent </text>
</g>
<!-- SACBootstrap3InputModule&#45;&gt;SacInputComponent  -->
<g id="edge11" class="edge">
<title>SACBootstrap3InputModule&#45;&gt;SacInputComponent </title>
<path fill="none" stroke="black" stroke-dasharray="5,2" d="M934.89,-178C1066.71,-178 1298.65,-178 1298.65,-178 1298.65,-178 1298.65,-205.97 1298.65,-205.97"/>
<polygon fill="black" stroke="black" points="1295.15,-205.97 1298.65,-215.97 1302.15,-205.97 1295.15,-205.97"/>
</g>
<!-- SacInputCurrencyComponent  -->
<g id="node13" class="node">
<title>SacInputCurrencyComponent </title>
<polygon fill="#fb8072" stroke="black" points="1252.18,-252 1065.82,-252 1065.82,-216 1252.18,-216 1252.18,-252"/>
<text text-anchor="middle" x="1159" y="-229.8" font-family="Times,serif" font-size="14.00">SacInputCurrencyComponent </text>
</g>
<!-- SACBootstrap3InputModule&#45;&gt;SacInputCurrencyComponent  -->
<g id="edge12" class="edge">
<title>SACBootstrap3InputModule&#45;&gt;SacInputCurrencyComponent </title>
<path fill="none" stroke="black" stroke-dasharray="5,2" d="M935,-183C1006.64,-183 1095.46,-183 1095.46,-183 1095.46,-183 1095.46,-205.88 1095.46,-205.88"/>
<polygon fill="black" stroke="black" points="1091.96,-205.88 1095.46,-215.88 1098.96,-205.88 1091.96,-205.88"/>
</g>
<!-- SacInputDecimalComponent  -->
<g id="node14" class="node">
<title>SacInputDecimalComponent </title>
<polygon fill="#fb8072" stroke="black" points="1048.02,-252 865.98,-252 865.98,-216 1048.02,-216 1048.02,-252"/>
<text text-anchor="middle" x="957" y="-229.8" font-family="Times,serif" font-size="14.00">SacInputDecimalComponent </text>
</g>
<!-- SACBootstrap3InputModule&#45;&gt;SacInputDecimalComponent  -->
<g id="edge13" class="edge">
<title>SACBootstrap3InputModule&#45;&gt;SacInputDecimalComponent </title>
<path fill="none" stroke="black" stroke-dasharray="5,2" d="M900.44,-187.11C900.44,-187.11 900.44,-205.99 900.44,-205.99"/>
<polygon fill="black" stroke="black" points="896.94,-205.99 900.44,-215.99 903.94,-205.99 896.94,-205.99"/>
</g>
<!-- SacInputEmailComponent  -->
<g id="node15" class="node">
<title>SacInputEmailComponent </title>
<polygon fill="#fb8072" stroke="black" points="848.03,-252 679.97,-252 679.97,-216 848.03,-216 848.03,-252"/>
<text text-anchor="middle" x="764" y="-229.8" font-family="Times,serif" font-size="14.00">SacInputEmailComponent </text>
</g>
<!-- SACBootstrap3InputModule&#45;&gt;SacInputEmailComponent  -->
<g id="edge14" class="edge">
<title>SACBootstrap3InputModule&#45;&gt;SacInputEmailComponent </title>
<path fill="none" stroke="black" stroke-dasharray="5,2" d="M802.57,-187.11C802.57,-187.11 802.57,-205.99 802.57,-205.99"/>
<polygon fill="black" stroke="black" points="799.07,-205.99 802.57,-215.99 806.07,-205.99 799.07,-205.99"/>
</g>
<!-- SacInputIntegerComponent  -->
<g id="node16" class="node">
<title>SacInputIntegerComponent </title>
<polygon fill="#fb8072" stroke="black" points="662.24,-252 487.76,-252 487.76,-216 662.24,-216 662.24,-252"/>
<text text-anchor="middle" x="575" y="-229.8" font-family="Times,serif" font-size="14.00">SacInputIntegerComponent </text>
</g>
<!-- SACBootstrap3InputModule&#45;&gt;SacInputIntegerComponent  -->
<g id="edge15" class="edge">
<title>SACBootstrap3InputModule&#45;&gt;SacInputIntegerComponent </title>
<path fill="none" stroke="black" stroke-dasharray="5,2" d="M757.02,-183C693.17,-183 618.38,-183 618.38,-183 618.38,-183 618.38,-205.88 618.38,-205.88"/>
<polygon fill="black" stroke="black" points="614.88,-205.88 618.38,-215.88 621.88,-205.88 614.88,-205.88"/>
</g>
<!-- SacInputPasswordComponent  -->
<g id="node17" class="node">
<title>SacInputPasswordComponent </title>
<polygon fill="#fb8072" stroke="black" points="470.25,-252 281.75,-252 281.75,-216 470.25,-216 470.25,-252"/>
<text text-anchor="middle" x="376" y="-229.8" font-family="Times,serif" font-size="14.00">SacInputPasswordComponent </text>
</g>
<!-- SACBootstrap3InputModule&#45;&gt;SacInputPasswordComponent  -->
<g id="edge16" class="edge">
<title>SACBootstrap3InputModule&#45;&gt;SacInputPasswordComponent </title>
<path fill="none" stroke="black" stroke-dasharray="5,2" d="M757.14,-178C632.51,-178 420.88,-178 420.88,-178 420.88,-178 420.88,-205.97 420.88,-205.97"/>
<polygon fill="black" stroke="black" points="417.38,-205.97 420.88,-215.97 424.38,-205.97 417.38,-205.97"/>
</g>
<!-- SacInputSearchComponent  -->
<g id="node18" class="node">
<title>SacInputSearchComponent </title>
<polygon fill="#fb8072" stroke="black" points="264.18,-252 91.82,-252 91.82,-216 264.18,-216 264.18,-252"/>
<text text-anchor="middle" x="178" y="-229.8" font-family="Times,serif" font-size="14.00">SacInputSearchComponent </text>
</g>
<!-- SACBootstrap3InputModule&#45;&gt;SacInputSearchComponent  -->
<g id="edge17" class="edge">
<title>SACBootstrap3InputModule&#45;&gt;SacInputSearchComponent </title>
<path fill="none" stroke="black" stroke-dasharray="5,2" d="M756.94,-174C585.05,-174 224.38,-174 224.38,-174 224.38,-174 224.38,-206 224.38,-206"/>
<polygon fill="black" stroke="black" points="220.88,-206 224.38,-216 227.88,-206 220.88,-206"/>
</g>
</g>
</svg>
