<?xml version="1.0" encoding="UTF-8" standalone="no"?>
<!DOCTYPE svg PUBLIC "-//W3C//DTD SVG 1.1//EN"
 "http://www.w3.org/Graphics/SVG/1.1/DTD/svg11.dtd">
<!-- Generated by graphviz version 2.47.0 (20210316.0004)
 -->
<!-- Title: dependencies Pages: 1 -->
<svg width="4305pt" height="396pt"
 viewBox="0.00 0.00 4305.00 395.59" xmlns="http://www.w3.org/2000/svg" xmlns:xlink="http://www.w3.org/1999/xlink">
<g id="graph0" class="graph" transform="scale(1 1) rotate(0) translate(4 391.59)">
<title>dependencies</title>
<polygon fill="white" stroke="transparent" points="-4,4 -4,-391.59 4301,-391.59 4301,4 -4,4"/>
<text text-anchor="start" x="2127.51" y="-42.4" font-family="Times-12" font-weight="bold" font-size="14.00">Legend</text>
<polygon fill="#ffffb3" stroke="transparent" points="1914.5,-10 1914.5,-30 1934.5,-30 1934.5,-10 1914.5,-10"/>
<text text-anchor="start" x="1938.13" y="-15.4" font-family="Times-12" font-size="14.00"> &#160;Declarations</text>
<polygon fill="#8dd3c7" stroke="transparent" points="2027.5,-10 2027.5,-30 2047.5,-30 2047.5,-10 2027.5,-10"/>
<text text-anchor="start" x="2051.23" y="-15.4" font-family="Times-12" font-size="14.00"> &#160;Module</text>
<polygon fill="#80b1d3" stroke="transparent" points="2113.5,-10 2113.5,-30 2133.5,-30 2133.5,-10 2113.5,-10"/>
<text text-anchor="start" x="2137.28" y="-15.4" font-family="Times-12" font-size="14.00"> &#160;Bootstrap</text>
<polygon fill="#fdb462" stroke="transparent" points="2210.5,-10 2210.5,-30 2230.5,-30 2230.5,-10 2210.5,-10"/>
<text text-anchor="start" x="2234.17" y="-15.4" font-family="Times-12" font-size="14.00"> &#160;Providers</text>
<polygon fill="#fb8072" stroke="transparent" points="2306.5,-10 2306.5,-30 2326.5,-30 2326.5,-10 2306.5,-10"/>
<text text-anchor="start" x="2330.23" y="-15.4" font-family="Times-12" font-size="14.00"> &#160;Exports</text>
<g id="clust1" class="cluster">
<title>cluster_SACBootstrap5UploadModule</title>
<polygon fill="none" stroke="black" stroke-dasharray="1,5" points="8,-70 8,-379.59 4289,-379.59 4289,-70 8,-70"/>
</g>
<g id="clust4" class="cluster">
<title>cluster_SACBootstrap5UploadModule_SacDropzoneSingleComponent_providers</title>
<polygon fill="none" stroke="black" points="2567,-78 2567,-241.59 4281,-241.59 4281,-78 2567,-78"/>
</g>
<g id="clust3" class="cluster">
<title>cluster_SACBootstrap5UploadModule_SacDropzoneMultipleComponent_providers</title>
<polygon fill="none" stroke="black" points="811,-78 811,-241.59 2559,-241.59 2559,-78 811,-78"/>
</g>
<g id="clust8" class="cluster">
<title>cluster_SACBootstrap5UploadModule_exports</title>
<polygon fill="none" stroke="black" points="210,-319.59 210,-371.59 1024,-371.59 1024,-319.59 210,-319.59"/>
</g>
<g id="clust7" class="cluster">
<title>cluster_SACBootstrap5UploadModule_imports</title>
<polygon fill="none" stroke="black" points="391,-189.59 391,-241.59 803,-241.59 803,-189.59 391,-189.59"/>
</g>
<g id="clust2" class="cluster">
<title>cluster_SACBootstrap5UploadModule_declarations</title>
<polygon fill="none" stroke="black" points="16,-189.59 16,-241.59 383,-241.59 383,-189.59 16,-189.59"/>
</g>
<!-- SacDropzoneMultipleComponent -->
<g id="node1" class="node">
<title>SacDropzoneMultipleComponent</title>
<polygon fill="#ffffb3" stroke="black" points="1374.46,-233.59 1169.54,-233.59 1169.54,-197.59 1374.46,-197.59 1374.46,-233.59"/>
<text text-anchor="middle" x="1272" y="-211.39" font-family="Times,serif" font-size="14.00">SacDropzoneMultipleComponent</text>
</g>
<!-- SACBootstrap5UploadModule -->
<g id="node5" class="node">
<title>SACBootstrap5UploadModule</title>
<polygon fill="#8dd3c7" stroke="black" points="691.93,-298.59 688.93,-302.59 667.93,-302.59 664.93,-298.59 502.07,-298.59 502.07,-262.59 691.93,-262.59 691.93,-298.59"/>
<text text-anchor="middle" x="597" y="-276.39" font-family="Times,serif" font-size="14.00">SACBootstrap5UploadModule</text>
</g>
<!-- SacDropzoneMultipleComponent&#45;&gt;SACBootstrap5UploadModule -->
<g id="edge1" class="edge">
<title>SacDropzoneMultipleComponent&#45;&gt;SACBootstrap5UploadModule</title>
<path fill="none" stroke="black" d="M1272,-233.62C1272,-249.99 1272,-271.59 1272,-271.59 1272,-271.59 701.92,-271.59 701.92,-271.59"/>
<polygon fill="black" stroke="black" points="701.92,-268.09 691.92,-271.59 701.92,-275.09 701.92,-268.09"/>
</g>
<!-- SacDropzoneSingleComponent -->
<g id="node2" class="node">
<title>SacDropzoneSingleComponent</title>
<polygon fill="#ffffb3" stroke="black" points="3115.02,-233.59 2922.98,-233.59 2922.98,-197.59 3115.02,-197.59 3115.02,-233.59"/>
<text text-anchor="middle" x="3019" y="-211.39" font-family="Times,serif" font-size="14.00">SacDropzoneSingleComponent</text>
</g>
<!-- SacDropzoneSingleComponent&#45;&gt;SACBootstrap5UploadModule -->
<g id="edge4" class="edge">
<title>SacDropzoneSingleComponent&#45;&gt;SACBootstrap5UploadModule</title>
<path fill="none" stroke="black" d="M3019,-233.7C3019,-252.93 3019,-280.59 3019,-280.59 3019,-280.59 701.95,-280.59 701.95,-280.59"/>
<polygon fill="black" stroke="black" points="701.95,-277.09 691.95,-280.59 701.95,-284.09 701.95,-277.09"/>
</g>
<!-- SacUploadComponent -->
<g id="node3" class="node">
<title>SacUploadComponent</title>
<polygon fill="#ffffb3" stroke="black" points="375.26,-233.59 232.74,-233.59 232.74,-197.59 375.26,-197.59 375.26,-233.59"/>
<text text-anchor="middle" x="304" y="-211.39" font-family="Times,serif" font-size="14.00">SacUploadComponent</text>
</g>
<!-- SacUploadComponent&#45;&gt;SACBootstrap5UploadModule -->
<g id="edge7" class="edge">
<title>SacUploadComponent&#45;&gt;SACBootstrap5UploadModule</title>
<path fill="none" stroke="black" d="M304,-233.62C304,-249.99 304,-271.59 304,-271.59 304,-271.59 492.28,-271.59 492.28,-271.59"/>
<polygon fill="black" stroke="black" points="492.28,-275.09 502.28,-271.59 492.28,-268.09 492.28,-275.09"/>
</g>
<!-- SacUploadMultipleComponent -->
<g id="node4" class="node">
<title>SacUploadMultipleComponent</title>
<polygon fill="#ffffb3" stroke="black" points="214.48,-233.59 23.52,-233.59 23.52,-197.59 214.48,-197.59 214.48,-233.59"/>
<text text-anchor="middle" x="119" y="-211.39" font-family="Times,serif" font-size="14.00">SacUploadMultipleComponent</text>
</g>
<!-- SacUploadMultipleComponent&#45;&gt;SACBootstrap5UploadModule -->
<g id="edge8" class="edge">
<title>SacUploadMultipleComponent&#45;&gt;SACBootstrap5UploadModule</title>
<path fill="none" stroke="black" d="M119,-233.7C119,-252.93 119,-280.59 119,-280.59 119,-280.59 492.28,-280.59 492.28,-280.59"/>
<polygon fill="black" stroke="black" points="492.28,-284.09 502.28,-280.59 492.28,-277.09 492.28,-284.09"/>
</g>
<!-- SacDropzoneMultipleComponent  -->
<g id="node12" class="node">
<title>SacDropzoneMultipleComponent </title>
<polygon fill="#fb8072" stroke="black" points="1016.46,-363.59 807.54,-363.59 807.54,-327.59 1016.46,-327.59 1016.46,-363.59"/>
<text text-anchor="middle" x="912" y="-341.39" font-family="Times,serif" font-size="14.00">SacDropzoneMultipleComponent </text>
</g>
<!-- SACBootstrap5UploadModule&#45;&gt;SacDropzoneMultipleComponent  -->
<g id="edge11" class="edge">
<title>SACBootstrap5UploadModule&#45;&gt;SacDropzoneMultipleComponent </title>
<path fill="none" stroke="black" stroke-dasharray="5,2" d="M691.91,-289.59C750.05,-289.59 813.39,-289.59 813.39,-289.59 813.39,-289.59 813.39,-317.56 813.39,-317.56"/>
<polygon fill="black" stroke="black" points="809.89,-317.56 813.39,-327.56 816.89,-317.56 809.89,-317.56"/>
</g>
<!-- SacDropzoneSingleComponent  -->
<g id="node13" class="node">
<title>SacDropzoneSingleComponent </title>
<polygon fill="#fb8072" stroke="black" points="790.02,-363.59 593.98,-363.59 593.98,-327.59 790.02,-327.59 790.02,-363.59"/>
<text text-anchor="middle" x="692" y="-341.39" font-family="Times,serif" font-size="14.00">SacDropzoneSingleComponent </text>
</g>
<!-- SACBootstrap5UploadModule&#45;&gt;SacDropzoneSingleComponent  -->
<g id="edge12" class="edge">
<title>SACBootstrap5UploadModule&#45;&gt;SacDropzoneSingleComponent </title>
<path fill="none" stroke="black" stroke-dasharray="5,2" d="M642.85,-298.7C642.85,-298.7 642.85,-317.58 642.85,-317.58"/>
<polygon fill="black" stroke="black" points="639.35,-317.58 642.85,-327.58 646.35,-317.58 639.35,-317.58"/>
</g>
<!-- SacUploadComponent  -->
<g id="node14" class="node">
<title>SacUploadComponent </title>
<polygon fill="#fb8072" stroke="black" points="576.26,-363.59 429.74,-363.59 429.74,-327.59 576.26,-327.59 576.26,-363.59"/>
<text text-anchor="middle" x="503" y="-341.39" font-family="Times,serif" font-size="14.00">SacUploadComponent </text>
</g>
<!-- SACBootstrap5UploadModule&#45;&gt;SacUploadComponent  -->
<g id="edge13" class="edge">
<title>SACBootstrap5UploadModule&#45;&gt;SacUploadComponent </title>
<path fill="none" stroke="black" stroke-dasharray="5,2" d="M539.21,-298.7C539.21,-298.7 539.21,-317.58 539.21,-317.58"/>
<polygon fill="black" stroke="black" points="535.71,-317.58 539.21,-327.58 542.71,-317.58 535.71,-317.58"/>
</g>
<!-- SacUploadMultipleComponent  -->
<g id="node15" class="node">
<title>SacUploadMultipleComponent </title>
<polygon fill="#fb8072" stroke="black" points="412.48,-363.59 217.52,-363.59 217.52,-327.59 412.48,-327.59 412.48,-363.59"/>
<text text-anchor="middle" x="315" y="-341.39" font-family="Times,serif" font-size="14.00">SacUploadMultipleComponent </text>
</g>
<!-- SACBootstrap5UploadModule&#45;&gt;SacUploadMultipleComponent  -->
<g id="edge14" class="edge">
<title>SACBootstrap5UploadModule&#45;&gt;SacUploadMultipleComponent </title>
<path fill="none" stroke="black" stroke-dasharray="5,2" d="M502.22,-289.59C454.13,-289.59 405.76,-289.59 405.76,-289.59 405.76,-289.59 405.76,-317.56 405.76,-317.56"/>
<polygon fill="black" stroke="black" points="402.26,-317.56 405.76,-327.56 409.26,-317.56 402.26,-317.56"/>
</g>
<!-- {
 &#160;&#160;&#160;provide: NG_VALUE_ACCESSOR, multi: true, useExisting: SacDropzoneMultipleComponent,
} -->
<g id="node6" class="node">
<title>{
 &#160;&#160;&#160;provide: NG_VALUE_ACCESSOR, multi: true, useExisting: SacDropzoneMultipleComponent,
}</title>
<ellipse fill="#fdb462" stroke="black" cx="2147" cy="-127.3" rx="404.48" ry="41.09"/>
<text text-anchor="middle" x="2147" y="-139.9" font-family="Times,serif" font-size="14.00">{</text>
<text text-anchor="middle" x="2147" y="-123.1" font-family="Times,serif" font-size="14.00"> &#160;&#160;&#160;provide: NG_VALUE_ACCESSOR, multi: true, useExisting: SacDropzoneMultipleComponent,</text>
<text text-anchor="middle" x="2147" y="-106.3" font-family="Times,serif" font-size="14.00">}</text>
</g>
<!-- {
 &#160;&#160;&#160;provide: NG_VALUE_ACCESSOR, multi: true, useExisting: SacDropzoneMultipleComponent,
}&#45;&gt;SacDropzoneMultipleComponent -->
<g id="edge2" class="edge">
<title>{
 &#160;&#160;&#160;provide: NG_VALUE_ACCESSOR, multi: true, useExisting: SacDropzoneMultipleComponent,
}&#45;&gt;SacDropzoneMultipleComponent</title>
<path fill="none" stroke="black" d="M2147,-168.6C2147,-191.58 2147,-215.59 2147,-215.59 2147,-215.59 1384.52,-215.59 1384.52,-215.59"/>
<polygon fill="black" stroke="black" points="1384.52,-212.09 1374.52,-215.59 1384.52,-219.09 1384.52,-212.09"/>
</g>
<!-- {
 &#160;&#160;&#160;provide: NG_VALIDATORS, multi: true, useExisting: forwardRef(() =&gt; SacDropzoneMultipleComponent),
} -->
<g id="node7" class="node">
<title>{
 &#160;&#160;&#160;provide: NG_VALIDATORS, multi: true, useExisting: forwardRef(() =&gt; SacDropzoneMultipleComponent),
}</title>
<ellipse fill="#fdb462" stroke="black" cx="1272" cy="-127.3" rx="452.99" ry="41.09"/>
<text text-anchor="middle" x="1272" y="-139.9" font-family="Times,serif" font-size="14.00">{</text>
<text text-anchor="middle" x="1272" y="-123.1" font-family="Times,serif" font-size="14.00"> &#160;&#160;&#160;provide: NG_VALIDATORS, multi: true, useExisting: forwardRef(() =&gt; SacDropzoneMultipleComponent),</text>
<text text-anchor="middle" x="1272" y="-106.3" font-family="Times,serif" font-size="14.00">}</text>
</g>
<!-- {
 &#160;&#160;&#160;provide: NG_VALIDATORS, multi: true, useExisting: forwardRef(() =&gt; SacDropzoneMultipleComponent),
}&#45;&gt;SacDropzoneMultipleComponent -->
<g id="edge3" class="edge">
<title>{
 &#160;&#160;&#160;provide: NG_VALIDATORS, multi: true, useExisting: forwardRef(() =&gt; SacDropzoneMultipleComponent),
}&#45;&gt;SacDropzoneMultipleComponent</title>
<path fill="none" stroke="black" d="M1272,-168.6C1272,-168.6 1272,-187.26 1272,-187.26"/>
<polygon fill="black" stroke="black" points="1268.5,-187.26 1272,-197.26 1275.5,-187.26 1268.5,-187.26"/>
</g>
<!-- {
 &#160;&#160;&#160;provide: NG_VALUE_ACCESSOR, multi: true, useExisting: SacDropzoneSingleComponent,
} -->
<g id="node8" class="node">
<title>{
 &#160;&#160;&#160;provide: NG_VALUE_ACCESSOR, multi: true, useExisting: SacDropzoneSingleComponent,
}</title>
<ellipse fill="#fdb462" stroke="black" cx="3877" cy="-127.3" rx="395.88" ry="41.09"/>
<text text-anchor="middle" x="3877" y="-139.9" font-family="Times,serif" font-size="14.00">{</text>
<text text-anchor="middle" x="3877" y="-123.1" font-family="Times,serif" font-size="14.00"> &#160;&#160;&#160;provide: NG_VALUE_ACCESSOR, multi: true, useExisting: SacDropzoneSingleComponent,</text>
<text text-anchor="middle" x="3877" y="-106.3" font-family="Times,serif" font-size="14.00">}</text>
</g>
<!-- {
 &#160;&#160;&#160;provide: NG_VALUE_ACCESSOR, multi: true, useExisting: SacDropzoneSingleComponent,
}&#45;&gt;SacDropzoneSingleComponent -->
<g id="edge5" class="edge">
<title>{
 &#160;&#160;&#160;provide: NG_VALUE_ACCESSOR, multi: true, useExisting: SacDropzoneSingleComponent,
}&#45;&gt;SacDropzoneSingleComponent</title>
<path fill="none" stroke="black" d="M3877,-168.6C3877,-191.58 3877,-215.59 3877,-215.59 3877,-215.59 3125.34,-215.59 3125.34,-215.59"/>
<polygon fill="black" stroke="black" points="3125.34,-212.09 3115.34,-215.59 3125.34,-219.09 3125.34,-212.09"/>
</g>
<!-- {
 &#160;&#160;&#160;provide: NG_VALIDATORS, multi: true, useExisting: forwardRef(() =&gt; SacDropzoneSingleComponent),
} -->
<g id="node9" class="node">
<title>{
 &#160;&#160;&#160;provide: NG_VALIDATORS, multi: true, useExisting: forwardRef(() =&gt; SacDropzoneSingleComponent),
}</title>
<ellipse fill="#fdb462" stroke="black" cx="3019" cy="-127.3" rx="444.4" ry="41.09"/>
<text text-anchor="middle" x="3019" y="-139.9" font-family="Times,serif" font-size="14.00">{</text>
<text text-anchor="middle" x="3019" y="-123.1" font-family="Times,serif" font-size="14.00"> &#160;&#160;&#160;provide: NG_VALIDATORS, multi: true, useExisting: forwardRef(() =&gt; SacDropzoneSingleComponent),</text>
<text text-anchor="middle" x="3019" y="-106.3" font-family="Times,serif" font-size="14.00">}</text>
</g>
<!-- {
 &#160;&#160;&#160;provide: NG_VALIDATORS, multi: true, useExisting: forwardRef(() =&gt; SacDropzoneSingleComponent),
}&#45;&gt;SacDropzoneSingleComponent -->
<g id="edge6" class="edge">
<title>{
 &#160;&#160;&#160;provide: NG_VALIDATORS, multi: true, useExisting: forwardRef(() =&gt; SacDropzoneSingleComponent),
}&#45;&gt;SacDropzoneSingleComponent</title>
<path fill="none" stroke="black" d="M3019,-168.6C3019,-168.6 3019,-187.26 3019,-187.26"/>
<polygon fill="black" stroke="black" points="3015.5,-187.26 3019,-197.26 3022.5,-187.26 3015.5,-187.26"/>
</g>
<!-- SACBootstrap5LayoutModule -->
<g id="node10" class="node">
<title>SACBootstrap5LayoutModule</title>
<polygon fill="#8dd3c7" stroke="black" points="794.87,-233.59 791.87,-237.59 770.87,-237.59 767.87,-233.59 607.13,-233.59 607.13,-197.59 794.87,-197.59 794.87,-233.59"/>
<text text-anchor="middle" x="701" y="-211.39" font-family="Times,serif" font-size="14.00">SACBootstrap5LayoutModule</text>
</g>
<!-- SACBootstrap5LayoutModule&#45;&gt;SACBootstrap5UploadModule -->
<g id="edge9" class="edge">
<title>SACBootstrap5LayoutModule&#45;&gt;SACBootstrap5UploadModule</title>
<path fill="none" stroke="black" d="M649.39,-233.7C649.39,-233.7 649.39,-252.58 649.39,-252.58"/>
<polygon fill="black" stroke="black" points="645.89,-252.58 649.39,-262.58 652.89,-252.58 645.89,-252.58"/>
</g>
<!-- SACBootstrap5TooltipModule -->
<g id="node11" class="node">
<title>SACBootstrap5TooltipModule</title>
<polygon fill="#8dd3c7" stroke="black" points="588.94,-233.59 585.94,-237.59 564.94,-237.59 561.94,-233.59 399.06,-233.59 399.06,-197.59 588.94,-197.59 588.94,-233.59"/>
<text text-anchor="middle" x="494" y="-211.39" font-family="Times,serif" font-size="14.00">SACBootstrap5TooltipModule</text>
</g>
<!-- SACBootstrap5TooltipModule&#45;&gt;SACBootstrap5UploadModule -->
<g id="edge10" class="edge">
<title>SACBootstrap5TooltipModule&#45;&gt;SACBootstrap5UploadModule</title>
<path fill="none" stroke="black" d="M545.5,-233.7C545.5,-233.7 545.5,-252.58 545.5,-252.58"/>
<polygon fill="black" stroke="black" points="542,-252.58 545.5,-262.58 549,-252.58 542,-252.58"/>
</g>
</g>
</svg>
