<?xml version="1.0" encoding="UTF-8" standalone="no"?>
<!DOCTYPE svg PUBLIC "-//W3C//DTD SVG 1.1//EN"
 "http://www.w3.org/Graphics/SVG/1.1/DTD/svg11.dtd">
<!-- Generated by graphviz version 2.47.0 (20210316.0004)
 -->
<!-- Title: dependencies Pages: 1 -->
<svg width="3510pt" height="396pt"
 viewBox="0.00 0.00 3510.00 395.59" xmlns="http://www.w3.org/2000/svg" xmlns:xlink="http://www.w3.org/1999/xlink">
<g id="graph0" class="graph" transform="scale(1 1) rotate(0) translate(4 391.59)">
<title>dependencies</title>
<polygon fill="white" stroke="transparent" points="-4,4 -4,-391.59 3506,-391.59 3506,4 -4,4"/>
<text text-anchor="start" x="1730.01" y="-42.4" font-family="Times-12" font-weight="bold" font-size="14.00">Legend</text>
<polygon fill="#ffffb3" stroke="transparent" points="1517,-10 1517,-30 1537,-30 1537,-10 1517,-10"/>
<text text-anchor="start" x="1540.63" y="-15.4" font-family="Times-12" font-size="14.00"> &#160;Declarations</text>
<polygon fill="#8dd3c7" stroke="transparent" points="1630,-10 1630,-30 1650,-30 1650,-10 1630,-10"/>
<text text-anchor="start" x="1653.73" y="-15.4" font-family="Times-12" font-size="14.00"> &#160;Module</text>
<polygon fill="#80b1d3" stroke="transparent" points="1716,-10 1716,-30 1736,-30 1736,-10 1716,-10"/>
<text text-anchor="start" x="1739.78" y="-15.4" font-family="Times-12" font-size="14.00"> &#160;Bootstrap</text>
<polygon fill="#fdb462" stroke="transparent" points="1813,-10 1813,-30 1833,-30 1833,-10 1813,-10"/>
<text text-anchor="start" x="1836.67" y="-15.4" font-family="Times-12" font-size="14.00"> &#160;Providers</text>
<polygon fill="#fb8072" stroke="transparent" points="1909,-10 1909,-30 1929,-30 1929,-10 1909,-10"/>
<text text-anchor="start" x="1932.73" y="-15.4" font-family="Times-12" font-size="14.00"> &#160;Exports</text>
<g id="clust1" class="cluster">
<title>cluster_SACBootstrap5UploadModule</title>
<polygon fill="none" stroke="black" stroke-dasharray="1,5" points="8,-70 8,-379.59 3494,-379.59 3494,-70 8,-70"/>
</g>
<g id="clust7" class="cluster">
<title>cluster_SACBootstrap5UploadModule_imports</title>
<polygon fill="none" stroke="black" points="2008,-189.59 2008,-241.59 2420,-241.59 2420,-189.59 2008,-189.59"/>
</g>
<g id="clust2" class="cluster">
<title>cluster_SACBootstrap5UploadModule_declarations</title>
<polygon fill="none" stroke="black" points="1199,-189.59 1199,-241.59 2000,-241.59 2000,-189.59 1199,-189.59"/>
</g>
<g id="clust4" class="cluster">
<title>cluster_SACBootstrap5UploadModule_SacDropzoneSingleComponent_providers</title>
<polygon fill="none" stroke="black" points="1772,-78 1772,-176.59 3486,-176.59 3486,-78 1772,-78"/>
</g>
<g id="clust8" class="cluster">
<title>cluster_SACBootstrap5UploadModule_exports</title>
<polygon fill="none" stroke="black" points="1400,-319.59 1400,-371.59 2214,-371.59 2214,-319.59 1400,-319.59"/>
</g>
<g id="clust3" class="cluster">
<title>cluster_SACBootstrap5UploadModule_SacDropzoneMultipleComponent_providers</title>
<polygon fill="none" stroke="black" points="16,-78 16,-176.59 1764,-176.59 1764,-78 16,-78"/>
</g>
<!-- SacDropzoneMultipleComponent -->
<g id="node1" class="node">
<title>SacDropzoneMultipleComponent</title>
<polygon fill="#ffffb3" stroke="black" points="1781.46,-233.59 1576.54,-233.59 1576.54,-197.59 1781.46,-197.59 1781.46,-233.59"/>
<text text-anchor="middle" x="1679" y="-211.39" font-family="Times,serif" font-size="14.00">SacDropzoneMultipleComponent</text>
</g>
<!-- SACBootstrap5UploadModule -->
<g id="node5" class="node">
<title>SACBootstrap5UploadModule</title>
<polygon fill="#8dd3c7" stroke="black" points="1881.93,-298.59 1878.93,-302.59 1857.93,-302.59 1854.93,-298.59 1692.07,-298.59 1692.07,-262.59 1881.93,-262.59 1881.93,-298.59"/>
<text text-anchor="middle" x="1787" y="-276.39" font-family="Times,serif" font-size="14.00">SACBootstrap5UploadModule</text>
</g>
<!-- SacDropzoneMultipleComponent&#45;&gt;SACBootstrap5UploadModule -->
<g id="edge1" class="edge">
<title>SacDropzoneMultipleComponent&#45;&gt;SACBootstrap5UploadModule</title>
<path fill="none" stroke="black" d="M1736.88,-233.7C1736.88,-233.7 1736.88,-252.58 1736.88,-252.58"/>
<polygon fill="black" stroke="black" points="1733.38,-252.58 1736.88,-262.58 1740.38,-252.58 1733.38,-252.58"/>
</g>
<!-- SacDropzoneSingleComponent -->
<g id="node2" class="node">
<title>SacDropzoneSingleComponent</title>
<polygon fill="#ffffb3" stroke="black" points="1992.02,-233.59 1799.98,-233.59 1799.98,-197.59 1992.02,-197.59 1992.02,-233.59"/>
<text text-anchor="middle" x="1896" y="-211.39" font-family="Times,serif" font-size="14.00">SacDropzoneSingleComponent</text>
</g>
<!-- SacDropzoneSingleComponent&#45;&gt;SACBootstrap5UploadModule -->
<g id="edge4" class="edge">
<title>SacDropzoneSingleComponent&#45;&gt;SACBootstrap5UploadModule</title>
<path fill="none" stroke="black" d="M1840.73,-233.7C1840.73,-233.7 1840.73,-252.58 1840.73,-252.58"/>
<polygon fill="black" stroke="black" points="1837.23,-252.58 1840.73,-262.58 1844.23,-252.58 1837.23,-252.58"/>
</g>
<!-- SacUploadComponent -->
<g id="node3" class="node">
<title>SacUploadComponent</title>
<polygon fill="#ffffb3" stroke="black" points="1558.26,-233.59 1415.74,-233.59 1415.74,-197.59 1558.26,-197.59 1558.26,-233.59"/>
<text text-anchor="middle" x="1487" y="-211.39" font-family="Times,serif" font-size="14.00">SacUploadComponent</text>
</g>
<!-- SacUploadComponent&#45;&gt;SACBootstrap5UploadModule -->
<g id="edge7" class="edge">
<title>SacUploadComponent&#45;&gt;SACBootstrap5UploadModule</title>
<path fill="none" stroke="black" d="M1487,-233.62C1487,-249.99 1487,-271.59 1487,-271.59 1487,-271.59 1682.08,-271.59 1682.08,-271.59"/>
<polygon fill="black" stroke="black" points="1682.08,-275.09 1692.08,-271.59 1682.08,-268.09 1682.08,-275.09"/>
</g>
<!-- SacUploadMultipleComponent -->
<g id="node4" class="node">
<title>SacUploadMultipleComponent</title>
<polygon fill="#ffffb3" stroke="black" points="1397.48,-233.59 1206.52,-233.59 1206.52,-197.59 1397.48,-197.59 1397.48,-233.59"/>
<text text-anchor="middle" x="1302" y="-211.39" font-family="Times,serif" font-size="14.00">SacUploadMultipleComponent</text>
</g>
<!-- SacUploadMultipleComponent&#45;&gt;SACBootstrap5UploadModule -->
<g id="edge8" class="edge">
<title>SacUploadMultipleComponent&#45;&gt;SACBootstrap5UploadModule</title>
<path fill="none" stroke="black" d="M1302,-233.7C1302,-252.93 1302,-280.59 1302,-280.59 1302,-280.59 1682.05,-280.59 1682.05,-280.59"/>
<polygon fill="black" stroke="black" points="1682.05,-284.09 1692.05,-280.59 1682.05,-277.09 1682.05,-284.09"/>
</g>
<!-- SacDropzoneMultipleComponent  -->
<g id="node12" class="node">
<title>SacDropzoneMultipleComponent </title>
<polygon fill="#fb8072" stroke="black" points="2206.46,-363.59 1997.54,-363.59 1997.54,-327.59 2206.46,-327.59 2206.46,-363.59"/>
<text text-anchor="middle" x="2102" y="-341.39" font-family="Times,serif" font-size="14.00">SacDropzoneMultipleComponent </text>
</g>
<!-- SACBootstrap5UploadModule&#45;&gt;SacDropzoneMultipleComponent  -->
<g id="edge11" class="edge">
<title>SACBootstrap5UploadModule&#45;&gt;SacDropzoneMultipleComponent </title>
<path fill="none" stroke="black" stroke-dasharray="5,2" d="M1881.91,-289.59C1941.46,-289.59 2007.03,-289.59 2007.03,-289.59 2007.03,-289.59 2007.03,-317.56 2007.03,-317.56"/>
<polygon fill="black" stroke="black" points="2003.53,-317.56 2007.03,-327.56 2010.53,-317.56 2003.53,-317.56"/>
</g>
<!-- SacDropzoneSingleComponent  -->
<g id="node13" class="node">
<title>SacDropzoneSingleComponent </title>
<polygon fill="#fb8072" stroke="black" points="1980.02,-363.59 1783.98,-363.59 1783.98,-327.59 1980.02,-327.59 1980.02,-363.59"/>
<text text-anchor="middle" x="1882" y="-341.39" font-family="Times,serif" font-size="14.00">SacDropzoneSingleComponent </text>
</g>
<!-- SACBootstrap5UploadModule&#45;&gt;SacDropzoneSingleComponent  -->
<g id="edge12" class="edge">
<title>SACBootstrap5UploadModule&#45;&gt;SacDropzoneSingleComponent </title>
<path fill="none" stroke="black" stroke-dasharray="5,2" d="M1832.85,-298.7C1832.85,-298.7 1832.85,-317.58 1832.85,-317.58"/>
<polygon fill="black" stroke="black" points="1829.35,-317.58 1832.85,-327.58 1836.35,-317.58 1829.35,-317.58"/>
</g>
<!-- SacUploadComponent  -->
<g id="node14" class="node">
<title>SacUploadComponent </title>
<polygon fill="#fb8072" stroke="black" points="1766.26,-363.59 1619.74,-363.59 1619.74,-327.59 1766.26,-327.59 1766.26,-363.59"/>
<text text-anchor="middle" x="1693" y="-341.39" font-family="Times,serif" font-size="14.00">SacUploadComponent </text>
</g>
<!-- SACBootstrap5UploadModule&#45;&gt;SacUploadComponent  -->
<g id="edge13" class="edge">
<title>SACBootstrap5UploadModule&#45;&gt;SacUploadComponent </title>
<path fill="none" stroke="black" stroke-dasharray="5,2" d="M1729.21,-298.7C1729.21,-298.7 1729.21,-317.58 1729.21,-317.58"/>
<polygon fill="black" stroke="black" points="1725.71,-317.58 1729.21,-327.58 1732.71,-317.58 1725.71,-317.58"/>
</g>
<!-- SacUploadMultipleComponent  -->
<g id="node15" class="node">
<title>SacUploadMultipleComponent </title>
<polygon fill="#fb8072" stroke="black" points="1602.48,-363.59 1407.52,-363.59 1407.52,-327.59 1602.48,-327.59 1602.48,-363.59"/>
<text text-anchor="middle" x="1505" y="-341.39" font-family="Times,serif" font-size="14.00">SacUploadMultipleComponent </text>
</g>
<!-- SACBootstrap5UploadModule&#45;&gt;SacUploadMultipleComponent  -->
<g id="edge14" class="edge">
<title>SACBootstrap5UploadModule&#45;&gt;SacUploadMultipleComponent </title>
<path fill="none" stroke="black" stroke-dasharray="5,2" d="M1692.03,-289.59C1643.14,-289.59 1593.67,-289.59 1593.67,-289.59 1593.67,-289.59 1593.67,-317.56 1593.67,-317.56"/>
<polygon fill="black" stroke="black" points="1590.17,-317.56 1593.67,-327.56 1597.17,-317.56 1590.17,-317.56"/>
</g>
<!-- {
 &#160;&#160;&#160;provide: NG_VALUE_ACCESSOR, multi: true, useExisting: SacDropzoneMultipleComponent,
} -->
<g id="node6" class="node">
<title>{
 &#160;&#160;&#160;provide: NG_VALUE_ACCESSOR, multi: true, useExisting: SacDropzoneMultipleComponent,
}</title>
<ellipse fill="#fdb462" stroke="black" cx="1352" cy="-127.3" rx="404.48" ry="41.09"/>
<text text-anchor="middle" x="1352" y="-139.9" font-family="Times,serif" font-size="14.00">{</text>
<text text-anchor="middle" x="1352" y="-123.1" font-family="Times,serif" font-size="14.00"> &#160;&#160;&#160;provide: NG_VALUE_ACCESSOR, multi: true, useExisting: SacDropzoneMultipleComponent,</text>
<text text-anchor="middle" x="1352" y="-106.3" font-family="Times,serif" font-size="14.00">}</text>
</g>
<!-- {
 &#160;&#160;&#160;provide: NG_VALUE_ACCESSOR, multi: true, useExisting: SacDropzoneMultipleComponent,
}&#45;&gt;SacDropzoneMultipleComponent -->
<g id="edge2" class="edge">
<title>{
 &#160;&#160;&#160;provide: NG_VALUE_ACCESSOR, multi: true, useExisting: SacDropzoneMultipleComponent,
}&#45;&gt;SacDropzoneMultipleComponent</title>
<path fill="none" stroke="black" d="M1666.5,-153.31C1666.5,-153.31 1666.5,-187.59 1666.5,-187.59"/>
<polygon fill="black" stroke="black" points="1663,-187.59 1666.5,-197.59 1670,-187.59 1663,-187.59"/>
</g>
<!-- {
 &#160;&#160;&#160;provide: NG_VALIDATORS, multi: true, useExisting: forwardRef(() =&gt; SacDropzoneMultipleComponent),
} -->
<g id="node7" class="node">
<title>{
 &#160;&#160;&#160;provide: NG_VALIDATORS, multi: true, useExisting: forwardRef(() =&gt; SacDropzoneMultipleComponent),
}</title>
<ellipse fill="#fdb462" stroke="black" cx="477" cy="-127.3" rx="452.99" ry="41.09"/>
<text text-anchor="middle" x="477" y="-139.9" font-family="Times,serif" font-size="14.00">{</text>
<text text-anchor="middle" x="477" y="-123.1" font-family="Times,serif" font-size="14.00"> &#160;&#160;&#160;provide: NG_VALIDATORS, multi: true, useExisting: forwardRef(() =&gt; SacDropzoneMultipleComponent),</text>
<text text-anchor="middle" x="477" y="-106.3" font-family="Times,serif" font-size="14.00">}</text>
</g>
<!-- {
 &#160;&#160;&#160;provide: NG_VALIDATORS, multi: true, useExisting: forwardRef(() =&gt; SacDropzoneMultipleComponent),
}&#45;&gt;SacDropzoneMultipleComponent -->
<g id="edge3" class="edge">
<title>{
 &#160;&#160;&#160;provide: NG_VALIDATORS, multi: true, useExisting: forwardRef(() =&gt; SacDropzoneMultipleComponent),
}&#45;&gt;SacDropzoneMultipleComponent</title>
<path fill="none" stroke="black" d="M477,-168.62C477,-202.05 477,-243.59 477,-243.59 477,-243.59 1585.09,-243.59 1585.09,-243.59 1585.09,-243.59 1585.09,-242.61 1585.09,-242.61"/>
<polygon fill="black" stroke="black" points="1588.59,-243.8 1585.09,-233.8 1581.59,-243.8 1588.59,-243.8"/>
</g>
<!-- {
 &#160;&#160;&#160;provide: NG_VALUE_ACCESSOR, multi: true, useExisting: SacDropzoneSingleComponent,
} -->
<g id="node8" class="node">
<title>{
 &#160;&#160;&#160;provide: NG_VALUE_ACCESSOR, multi: true, useExisting: SacDropzoneSingleComponent,
}</title>
<ellipse fill="#fdb462" stroke="black" cx="3082" cy="-127.3" rx="395.88" ry="41.09"/>
<text text-anchor="middle" x="3082" y="-139.9" font-family="Times,serif" font-size="14.00">{</text>
<text text-anchor="middle" x="3082" y="-123.1" font-family="Times,serif" font-size="14.00"> &#160;&#160;&#160;provide: NG_VALUE_ACCESSOR, multi: true, useExisting: SacDropzoneSingleComponent,</text>
<text text-anchor="middle" x="3082" y="-106.3" font-family="Times,serif" font-size="14.00">}</text>
</g>
<!-- {
 &#160;&#160;&#160;provide: NG_VALUE_ACCESSOR, multi: true, useExisting: SacDropzoneSingleComponent,
}&#45;&gt;SacDropzoneSingleComponent -->
<g id="edge5" class="edge">
<title>{
 &#160;&#160;&#160;provide: NG_VALUE_ACCESSOR, multi: true, useExisting: SacDropzoneSingleComponent,
}&#45;&gt;SacDropzoneSingleComponent</title>
<path fill="none" stroke="black" d="M3082,-168.65C3082,-205.48 3082,-253.59 3082,-253.59 3082,-253.59 1986.13,-253.59 1986.13,-253.59 1986.13,-253.59 1986.13,-243.7 1986.13,-243.7"/>
<polygon fill="black" stroke="black" points="1989.63,-243.7 1986.13,-233.7 1982.63,-243.7 1989.63,-243.7"/>
</g>
<!-- {
 &#160;&#160;&#160;provide: NG_VALIDATORS, multi: true, useExisting: forwardRef(() =&gt; SacDropzoneSingleComponent),
} -->
<g id="node9" class="node">
<title>{
 &#160;&#160;&#160;provide: NG_VALIDATORS, multi: true, useExisting: forwardRef(() =&gt; SacDropzoneSingleComponent),
}</title>
<ellipse fill="#fdb462" stroke="black" cx="2224" cy="-127.3" rx="444.4" ry="41.09"/>
<text text-anchor="middle" x="2224" y="-139.9" font-family="Times,serif" font-size="14.00">{</text>
<text text-anchor="middle" x="2224" y="-123.1" font-family="Times,serif" font-size="14.00"> &#160;&#160;&#160;provide: NG_VALIDATORS, multi: true, useExisting: forwardRef(() =&gt; SacDropzoneSingleComponent),</text>
<text text-anchor="middle" x="2224" y="-106.3" font-family="Times,serif" font-size="14.00">}</text>
</g>
<!-- {
 &#160;&#160;&#160;provide: NG_VALIDATORS, multi: true, useExisting: forwardRef(() =&gt; SacDropzoneSingleComponent),
}&#45;&gt;SacDropzoneSingleComponent -->
<g id="edge6" class="edge">
<title>{
 &#160;&#160;&#160;provide: NG_VALIDATORS, multi: true, useExisting: forwardRef(() =&gt; SacDropzoneSingleComponent),
}&#45;&gt;SacDropzoneSingleComponent</title>
<path fill="none" stroke="black" d="M1896,-155.23C1896,-155.23 1896,-187.56 1896,-187.56"/>
<polygon fill="black" stroke="black" points="1892.5,-187.56 1896,-197.56 1899.5,-187.56 1892.5,-187.56"/>
</g>
<!-- SACBootstrap5LayoutModule -->
<g id="node10" class="node">
<title>SACBootstrap5LayoutModule</title>
<polygon fill="#8dd3c7" stroke="black" points="2411.87,-233.59 2408.87,-237.59 2387.87,-237.59 2384.87,-233.59 2224.13,-233.59 2224.13,-197.59 2411.87,-197.59 2411.87,-233.59"/>
<text text-anchor="middle" x="2318" y="-211.39" font-family="Times,serif" font-size="14.00">SACBootstrap5LayoutModule</text>
</g>
<!-- SACBootstrap5LayoutModule&#45;&gt;SACBootstrap5UploadModule -->
<g id="edge9" class="edge">
<title>SACBootstrap5LayoutModule&#45;&gt;SACBootstrap5UploadModule</title>
<path fill="none" stroke="black" d="M2318,-233.7C2318,-252.93 2318,-280.59 2318,-280.59 2318,-280.59 1891.93,-280.59 1891.93,-280.59"/>
<polygon fill="black" stroke="black" points="1891.93,-277.09 1881.93,-280.59 1891.93,-284.09 1891.93,-277.09"/>
</g>
<!-- SACBootstrap5TooltipModule -->
<g id="node11" class="node">
<title>SACBootstrap5TooltipModule</title>
<polygon fill="#8dd3c7" stroke="black" points="2205.94,-233.59 2202.94,-237.59 2181.94,-237.59 2178.94,-233.59 2016.06,-233.59 2016.06,-197.59 2205.94,-197.59 2205.94,-233.59"/>
<text text-anchor="middle" x="2111" y="-211.39" font-family="Times,serif" font-size="14.00">SACBootstrap5TooltipModule</text>
</g>
<!-- SACBootstrap5TooltipModule&#45;&gt;SACBootstrap5UploadModule -->
<g id="edge10" class="edge">
<title>SACBootstrap5TooltipModule&#45;&gt;SACBootstrap5UploadModule</title>
<path fill="none" stroke="black" d="M2111,-233.62C2111,-249.99 2111,-271.59 2111,-271.59 2111,-271.59 1892.02,-271.59 1892.02,-271.59"/>
<polygon fill="black" stroke="black" points="1892.02,-268.09 1882.02,-271.59 1892.02,-275.09 1892.02,-268.09"/>
</g>
</g>
</svg>
