<?xml version="1.0" encoding="UTF-8" standalone="no"?>
<!DOCTYPE svg PUBLIC "-//W3C//DTD SVG 1.1//EN"
 "http://www.w3.org/Graphics/SVG/1.1/DTD/svg11.dtd">
<!-- Generated by graphviz version 2.47.0 (20210316.0004)
 -->
<!-- Title: dependencies Pages: 1 -->
<svg width="827pt" height="284pt"
 viewBox="0.00 0.00 827.00 284.00" xmlns="http://www.w3.org/2000/svg" xmlns:xlink="http://www.w3.org/1999/xlink">
<g id="graph0" class="graph" transform="scale(1 1) rotate(0) translate(4 280)">
<title>dependencies</title>
<polygon fill="white" stroke="transparent" points="-4,4 -4,-280 823,-280 823,4 -4,4"/>
<text text-anchor="start" x="388.51" y="-42.4" font-family="Times-12" font-weight="bold" font-size="14.00">Legend</text>
<polygon fill="#ffffb3" stroke="transparent" points="175.5,-10 175.5,-30 195.5,-30 195.5,-10 175.5,-10"/>
<text text-anchor="start" x="199.13" y="-15.4" font-family="Times-12" font-size="14.00"> &#160;Declarations</text>
<polygon fill="#8dd3c7" stroke="transparent" points="288.5,-10 288.5,-30 308.5,-30 308.5,-10 288.5,-10"/>
<text text-anchor="start" x="312.23" y="-15.4" font-family="Times-12" font-size="14.00"> &#160;Module</text>
<polygon fill="#80b1d3" stroke="transparent" points="374.5,-10 374.5,-30 394.5,-30 394.5,-10 374.5,-10"/>
<text text-anchor="start" x="398.28" y="-15.4" font-family="Times-12" font-size="14.00"> &#160;Bootstrap</text>
<polygon fill="#fdb462" stroke="transparent" points="471.5,-10 471.5,-30 491.5,-30 491.5,-10 471.5,-10"/>
<text text-anchor="start" x="495.17" y="-15.4" font-family="Times-12" font-size="14.00"> &#160;Providers</text>
<polygon fill="#fb8072" stroke="transparent" points="567.5,-10 567.5,-30 587.5,-30 587.5,-10 567.5,-10"/>
<text text-anchor="start" x="591.23" y="-15.4" font-family="Times-12" font-size="14.00"> &#160;Exports</text>
<g id="clust1" class="cluster">
<title>cluster_SACBootstrap3UploadModule</title>
<polygon fill="none" stroke="black" stroke-dasharray="1,5" points="8,-70 8,-268 811,-268 811,-70 8,-70"/>
</g>
<g id="clust5" class="cluster">
<title>cluster_SACBootstrap3UploadModule_imports</title>
<polygon fill="none" stroke="black" points="391,-78 391,-130 803,-130 803,-78 391,-78"/>
</g>
<g id="clust2" class="cluster">
<title>cluster_SACBootstrap3UploadModule_declarations</title>
<polygon fill="none" stroke="black" points="16,-78 16,-130 383,-130 383,-78 16,-78"/>
</g>
<g id="clust6" class="cluster">
<title>cluster_SACBootstrap3UploadModule_exports</title>
<polygon fill="none" stroke="black" points="200,-208 200,-260 574,-260 574,-208 200,-208"/>
</g>
<!-- SacUploadComponent -->
<g id="node1" class="node">
<title>SacUploadComponent</title>
<polygon fill="#ffffb3" stroke="black" points="375.26,-122 232.74,-122 232.74,-86 375.26,-86 375.26,-122"/>
<text text-anchor="middle" x="304" y="-99.8" font-family="Times,serif" font-size="14.00">SacUploadComponent</text>
</g>
<!-- SACBootstrap3UploadModule -->
<g id="node3" class="node">
<title>SACBootstrap3UploadModule</title>
<polygon fill="#8dd3c7" stroke="black" points="493.93,-187 490.93,-191 469.93,-191 466.93,-187 304.07,-187 304.07,-151 493.93,-151 493.93,-187"/>
<text text-anchor="middle" x="399" y="-164.8" font-family="Times,serif" font-size="14.00">SACBootstrap3UploadModule</text>
</g>
<!-- SacUploadComponent&#45;&gt;SACBootstrap3UploadModule -->
<g id="edge1" class="edge">
<title>SacUploadComponent&#45;&gt;SACBootstrap3UploadModule</title>
<path fill="none" stroke="black" d="M339.83,-122.11C339.83,-122.11 339.83,-140.99 339.83,-140.99"/>
<polygon fill="black" stroke="black" points="336.33,-140.99 339.83,-150.99 343.33,-140.99 336.33,-140.99"/>
</g>
<!-- SacUploadMultipleComponent -->
<g id="node2" class="node">
<title>SacUploadMultipleComponent</title>
<polygon fill="#ffffb3" stroke="black" points="214.48,-122 23.52,-122 23.52,-86 214.48,-86 214.48,-122"/>
<text text-anchor="middle" x="119" y="-99.8" font-family="Times,serif" font-size="14.00">SacUploadMultipleComponent</text>
</g>
<!-- SacUploadMultipleComponent&#45;&gt;SACBootstrap3UploadModule -->
<g id="edge2" class="edge">
<title>SacUploadMultipleComponent&#45;&gt;SACBootstrap3UploadModule</title>
<path fill="none" stroke="black" d="M115.64,-122.11C115.64,-141.34 115.64,-169 115.64,-169 115.64,-169 294.25,-169 294.25,-169"/>
<polygon fill="black" stroke="black" points="294.25,-172.5 304.25,-169 294.25,-165.5 294.25,-172.5"/>
</g>
<!-- SacUploadComponent  -->
<g id="node6" class="node">
<title>SacUploadComponent </title>
<polygon fill="#fb8072" stroke="black" points="566.26,-252 419.74,-252 419.74,-216 566.26,-216 566.26,-252"/>
<text text-anchor="middle" x="493" y="-229.8" font-family="Times,serif" font-size="14.00">SacUploadComponent </text>
</g>
<!-- SACBootstrap3UploadModule&#45;&gt;SacUploadComponent  -->
<g id="edge5" class="edge">
<title>SACBootstrap3UploadModule&#45;&gt;SacUploadComponent </title>
<path fill="none" stroke="black" stroke-dasharray="5,2" d="M456.79,-187.11C456.79,-187.11 456.79,-205.99 456.79,-205.99"/>
<polygon fill="black" stroke="black" points="453.29,-205.99 456.79,-215.99 460.29,-205.99 453.29,-205.99"/>
</g>
<!-- SacUploadMultipleComponent  -->
<g id="node7" class="node">
<title>SacUploadMultipleComponent </title>
<polygon fill="#fb8072" stroke="black" points="402.48,-252 207.52,-252 207.52,-216 402.48,-216 402.48,-252"/>
<text text-anchor="middle" x="305" y="-229.8" font-family="Times,serif" font-size="14.00">SacUploadMultipleComponent </text>
</g>
<!-- SACBootstrap3UploadModule&#45;&gt;SacUploadMultipleComponent  -->
<g id="edge6" class="edge">
<title>SACBootstrap3UploadModule&#45;&gt;SacUploadMultipleComponent </title>
<path fill="none" stroke="black" stroke-dasharray="5,2" d="M353.26,-187.11C353.26,-187.11 353.26,-205.99 353.26,-205.99"/>
<polygon fill="black" stroke="black" points="349.76,-205.99 353.26,-215.99 356.76,-205.99 349.76,-205.99"/>
</g>
<!-- SACBootstrap3LayoutModule -->
<g id="node4" class="node">
<title>SACBootstrap3LayoutModule</title>
<polygon fill="#8dd3c7" stroke="black" points="794.87,-122 791.87,-126 770.87,-126 767.87,-122 607.13,-122 607.13,-86 794.87,-86 794.87,-122"/>
<text text-anchor="middle" x="701" y="-99.8" font-family="Times,serif" font-size="14.00">SACBootstrap3LayoutModule</text>
</g>
<!-- SACBootstrap3LayoutModule&#45;&gt;SACBootstrap3UploadModule -->
<g id="edge3" class="edge">
<title>SACBootstrap3LayoutModule&#45;&gt;SACBootstrap3UploadModule</title>
<path fill="none" stroke="black" d="M701,-122.11C701,-141.34 701,-169 701,-169 701,-169 503.73,-169 503.73,-169"/>
<polygon fill="black" stroke="black" points="503.73,-165.5 493.73,-169 503.73,-172.5 503.73,-165.5"/>
</g>
<!-- SACBootstrap3TooltipModule -->
<g id="node5" class="node">
<title>SACBootstrap3TooltipModule</title>
<polygon fill="#8dd3c7" stroke="black" points="588.94,-122 585.94,-126 564.94,-126 561.94,-122 399.06,-122 399.06,-86 588.94,-86 588.94,-122"/>
<text text-anchor="middle" x="494" y="-99.8" font-family="Times,serif" font-size="14.00">SACBootstrap3TooltipModule</text>
</g>
<!-- SACBootstrap3TooltipModule&#45;&gt;SACBootstrap3UploadModule -->
<g id="edge4" class="edge">
<title>SACBootstrap3TooltipModule&#45;&gt;SACBootstrap3UploadModule</title>
<path fill="none" stroke="black" d="M446.5,-122.11C446.5,-122.11 446.5,-140.99 446.5,-140.99"/>
<polygon fill="black" stroke="black" points="443,-140.99 446.5,-150.99 450,-140.99 443,-140.99"/>
</g>
</g>
</svg>
