<?xml version="1.0" encoding="UTF-8" standalone="no"?>
<!DOCTYPE svg PUBLIC "-//W3C//DTD SVG 1.1//EN"
 "http://www.w3.org/Graphics/SVG/1.1/DTD/svg11.dtd">
<!-- Generated by graphviz version 2.47.0 (20210316.0004)
 -->
<!-- Title: dependencies Pages: 1 -->
<svg width="827pt" height="284pt"
 viewBox="0.00 0.00 827.00 284.00" xmlns="http://www.w3.org/2000/svg" xmlns:xlink="http://www.w3.org/1999/xlink">
<g id="graph0" class="graph" transform="scale(1 1) rotate(0) translate(4 280)">
<title>dependencies</title>
<polygon fill="white" stroke="transparent" points="-4,4 -4,-280 823,-280 823,4 -4,4"/>
<text text-anchor="start" x="388.51" y="-42.4" font-family="Times-12" font-weight="bold" font-size="14.00">Legend</text>
<polygon fill="#ffffb3" stroke="transparent" points="175.5,-10 175.5,-30 195.5,-30 195.5,-10 175.5,-10"/>
<text text-anchor="start" x="199.13" y="-15.4" font-family="Times-12" font-size="14.00"> &#160;Declarations</text>
<polygon fill="#8dd3c7" stroke="transparent" points="288.5,-10 288.5,-30 308.5,-30 308.5,-10 288.5,-10"/>
<text text-anchor="start" x="312.23" y="-15.4" font-family="Times-12" font-size="14.00"> &#160;Module</text>
<polygon fill="#80b1d3" stroke="transparent" points="374.5,-10 374.5,-30 394.5,-30 394.5,-10 374.5,-10"/>
<text text-anchor="start" x="398.28" y="-15.4" font-family="Times-12" font-size="14.00"> &#160;Bootstrap</text>
<polygon fill="#fdb462" stroke="transparent" points="471.5,-10 471.5,-30 491.5,-30 491.5,-10 471.5,-10"/>
<text text-anchor="start" x="495.17" y="-15.4" font-family="Times-12" font-size="14.00"> &#160;Providers</text>
<polygon fill="#fb8072" stroke="transparent" points="567.5,-10 567.5,-30 587.5,-30 587.5,-10 567.5,-10"/>
<text text-anchor="start" x="591.23" y="-15.4" font-family="Times-12" font-size="14.00"> &#160;Exports</text>
<g id="clust1" class="cluster">
<title>cluster_SACBootstrap3UploadModule</title>
<polygon fill="none" stroke="black" stroke-dasharray="1,5" points="8,-70 8,-268 811,-268 811,-70 8,-70"/>
</g>
<g id="clust2" class="cluster">
<title>cluster_SACBootstrap3UploadModule_declarations</title>
<polygon fill="none" stroke="black" points="436,-78 436,-130 803,-130 803,-78 436,-78"/>
</g>
<g id="clust5" class="cluster">
<title>cluster_SACBootstrap3UploadModule_imports</title>
<polygon fill="none" stroke="black" points="16,-78 16,-130 428,-130 428,-78 16,-78"/>
</g>
<g id="clust6" class="cluster">
<title>cluster_SACBootstrap3UploadModule_exports</title>
<polygon fill="none" stroke="black" points="231,-208 231,-260 605,-260 605,-208 231,-208"/>
</g>
<!-- SacUploadComponent -->
<g id="node1" class="node">
<title>SacUploadComponent</title>
<polygon fill="#ffffb3" stroke="black" points="795.26,-122 652.74,-122 652.74,-86 795.26,-86 795.26,-122"/>
<text text-anchor="middle" x="724" y="-99.8" font-family="Times,serif" font-size="14.00">SacUploadComponent</text>
</g>
<!-- SACBootstrap3UploadModule -->
<g id="node3" class="node">
<title>SACBootstrap3UploadModule</title>
<polygon fill="#8dd3c7" stroke="black" points="524.93,-187 521.93,-191 500.93,-191 497.93,-187 335.07,-187 335.07,-151 524.93,-151 524.93,-187"/>
<text text-anchor="middle" x="430" y="-164.8" font-family="Times,serif" font-size="14.00">SACBootstrap3UploadModule</text>
</g>
<!-- SacUploadComponent&#45;&gt;SACBootstrap3UploadModule -->
<g id="edge1" class="edge">
<title>SacUploadComponent&#45;&gt;SACBootstrap3UploadModule</title>
<path fill="none" stroke="black" d="M724,-122.11C724,-141.34 724,-169 724,-169 724,-169 535.05,-169 535.05,-169"/>
<polygon fill="black" stroke="black" points="535.05,-165.5 525.05,-169 535.05,-172.5 535.05,-165.5"/>
</g>
<!-- SacUploadMultipleComponent -->
<g id="node2" class="node">
<title>SacUploadMultipleComponent</title>
<polygon fill="#ffffb3" stroke="black" points="634.48,-122 443.52,-122 443.52,-86 634.48,-86 634.48,-122"/>
<text text-anchor="middle" x="539" y="-99.8" font-family="Times,serif" font-size="14.00">SacUploadMultipleComponent</text>
</g>
<!-- SacUploadMultipleComponent&#45;&gt;SACBootstrap3UploadModule -->
<g id="edge2" class="edge">
<title>SacUploadMultipleComponent&#45;&gt;SACBootstrap3UploadModule</title>
<path fill="none" stroke="black" d="M484.11,-122.11C484.11,-122.11 484.11,-140.99 484.11,-140.99"/>
<polygon fill="black" stroke="black" points="480.61,-140.99 484.11,-150.99 487.61,-140.99 480.61,-140.99"/>
</g>
<!-- SacUploadComponent  -->
<g id="node6" class="node">
<title>SacUploadComponent </title>
<polygon fill="#fb8072" stroke="black" points="597.26,-252 450.74,-252 450.74,-216 597.26,-216 597.26,-252"/>
<text text-anchor="middle" x="524" y="-229.8" font-family="Times,serif" font-size="14.00">SacUploadComponent </text>
</g>
<!-- SACBootstrap3UploadModule&#45;&gt;SacUploadComponent  -->
<g id="edge5" class="edge">
<title>SACBootstrap3UploadModule&#45;&gt;SacUploadComponent </title>
<path fill="none" stroke="black" stroke-dasharray="5,2" d="M487.79,-187.11C487.79,-187.11 487.79,-205.99 487.79,-205.99"/>
<polygon fill="black" stroke="black" points="484.29,-205.99 487.79,-215.99 491.29,-205.99 484.29,-205.99"/>
</g>
<!-- SacUploadMultipleComponent  -->
<g id="node7" class="node">
<title>SacUploadMultipleComponent </title>
<polygon fill="#fb8072" stroke="black" points="433.48,-252 238.52,-252 238.52,-216 433.48,-216 433.48,-252"/>
<text text-anchor="middle" x="336" y="-229.8" font-family="Times,serif" font-size="14.00">SacUploadMultipleComponent </text>
</g>
<!-- SACBootstrap3UploadModule&#45;&gt;SacUploadMultipleComponent  -->
<g id="edge6" class="edge">
<title>SACBootstrap3UploadModule&#45;&gt;SacUploadMultipleComponent </title>
<path fill="none" stroke="black" stroke-dasharray="5,2" d="M384.26,-187.11C384.26,-187.11 384.26,-205.99 384.26,-205.99"/>
<polygon fill="black" stroke="black" points="380.76,-205.99 384.26,-215.99 387.76,-205.99 380.76,-205.99"/>
</g>
<!-- SACBootstrap3LayoutModule -->
<g id="node4" class="node">
<title>SACBootstrap3LayoutModule</title>
<polygon fill="#8dd3c7" stroke="black" points="419.87,-122 416.87,-126 395.87,-126 392.87,-122 232.13,-122 232.13,-86 419.87,-86 419.87,-122"/>
<text text-anchor="middle" x="326" y="-99.8" font-family="Times,serif" font-size="14.00">SACBootstrap3LayoutModule</text>
</g>
<!-- SACBootstrap3LayoutModule&#45;&gt;SACBootstrap3UploadModule -->
<g id="edge3" class="edge">
<title>SACBootstrap3LayoutModule&#45;&gt;SACBootstrap3UploadModule</title>
<path fill="none" stroke="black" d="M377.61,-122.11C377.61,-122.11 377.61,-140.99 377.61,-140.99"/>
<polygon fill="black" stroke="black" points="374.11,-140.99 377.61,-150.99 381.11,-140.99 374.11,-140.99"/>
</g>
<!-- SACBootstrap3TooltipModule -->
<g id="node5" class="node">
<title>SACBootstrap3TooltipModule</title>
<polygon fill="#8dd3c7" stroke="black" points="213.94,-122 210.94,-126 189.94,-126 186.94,-122 24.06,-122 24.06,-86 213.94,-86 213.94,-122"/>
<text text-anchor="middle" x="119" y="-99.8" font-family="Times,serif" font-size="14.00">SACBootstrap3TooltipModule</text>
</g>
<!-- SACBootstrap3TooltipModule&#45;&gt;SACBootstrap3UploadModule -->
<g id="edge4" class="edge">
<title>SACBootstrap3TooltipModule&#45;&gt;SACBootstrap3UploadModule</title>
<path fill="none" stroke="black" d="M119,-122.11C119,-141.34 119,-169 119,-169 119,-169 325,-169 325,-169"/>
<polygon fill="black" stroke="black" points="325,-172.5 335,-169 325,-165.5 325,-172.5"/>
</g>
</g>
</svg>
