<?xml version="1.0" encoding="UTF-8" standalone="no"?>
<!DOCTYPE svg PUBLIC "-//W3C//DTD SVG 1.1//EN"
 "http://www.w3.org/Graphics/SVG/1.1/DTD/svg11.dtd">
<!-- Generated by graphviz version 2.47.0 (20210316.0004)
 -->
<!-- Title: dependencies Pages: 1 -->
<svg width="568pt" height="284pt"
 viewBox="0.00 0.00 568.00 284.00" xmlns="http://www.w3.org/2000/svg" xmlns:xlink="http://www.w3.org/1999/xlink">
<g id="graph0" class="graph" transform="scale(1 1) rotate(0) translate(4 280)">
<title>dependencies</title>
<polygon fill="white" stroke="transparent" points="-4,4 -4,-280 564,-280 564,4 -4,4"/>
<text text-anchor="start" x="259.01" y="-42.4" font-family="Times-12" font-weight="bold" font-size="14.00">Legend</text>
<polygon fill="#ffffb3" stroke="transparent" points="46,-10 46,-30 66,-30 66,-10 46,-10"/>
<text text-anchor="start" x="69.63" y="-15.4" font-family="Times-12" font-size="14.00"> &#160;Declarations</text>
<polygon fill="#8dd3c7" stroke="transparent" points="159,-10 159,-30 179,-30 179,-10 159,-10"/>
<text text-anchor="start" x="182.73" y="-15.4" font-family="Times-12" font-size="14.00"> &#160;Module</text>
<polygon fill="#80b1d3" stroke="transparent" points="245,-10 245,-30 265,-30 265,-10 245,-10"/>
<text text-anchor="start" x="268.78" y="-15.4" font-family="Times-12" font-size="14.00"> &#160;Bootstrap</text>
<polygon fill="#fdb462" stroke="transparent" points="342,-10 342,-30 362,-30 362,-10 342,-10"/>
<text text-anchor="start" x="365.67" y="-15.4" font-family="Times-12" font-size="14.00"> &#160;Providers</text>
<polygon fill="#fb8072" stroke="transparent" points="438,-10 438,-30 458,-30 458,-10 438,-10"/>
<text text-anchor="start" x="461.73" y="-15.4" font-family="Times-12" font-size="14.00"> &#160;Exports</text>
<g id="clust1" class="cluster">
<title>cluster_SACBootstrap3UploadModule</title>
<polygon fill="none" stroke="black" stroke-dasharray="1,5" points="8,-70 8,-268 552,-268 552,-70 8,-70"/>
</g>
<g id="clust4" class="cluster">
<title>cluster_SACBootstrap3UploadModule_exports</title>
<polygon fill="none" stroke="black" points="93,-208 93,-260 467,-260 467,-208 93,-208"/>
</g>
<g id="clust3" class="cluster">
<title>cluster_SACBootstrap3UploadModule_imports</title>
<polygon fill="none" stroke="black" points="16,-78 16,-130 544,-130 544,-78 16,-78"/>
</g>
<!-- SacTooltipComponent -->
<g id="node1" class="node">
<title>SacTooltipComponent</title>
<polygon fill="#8dd3c7" stroke="black" points="536.27,-122 533.27,-126 512.27,-126 509.27,-122 393.73,-122 393.73,-86 536.27,-86 536.27,-122"/>
<text text-anchor="middle" x="465" y="-99.8" font-family="Times,serif" font-size="14.00">SacTooltipComponent</text>
</g>
<!-- SACBootstrap3UploadModule -->
<g id="node4" class="node">
<title>SACBootstrap3UploadModule</title>
<polygon fill="#8dd3c7" stroke="black" points="398.93,-187 395.93,-191 374.93,-191 371.93,-187 209.07,-187 209.07,-151 398.93,-151 398.93,-187"/>
<text text-anchor="middle" x="304" y="-164.8" font-family="Times,serif" font-size="14.00">SACBootstrap3UploadModule</text>
</g>
<!-- SacTooltipComponent&#45;&gt;SACBootstrap3UploadModule -->
<g id="edge1" class="edge">
<title>SacTooltipComponent&#45;&gt;SACBootstrap3UploadModule</title>
<path fill="none" stroke="black" d="M393.42,-104C387.95,-104 384.5,-104 384.5,-104 384.5,-104 384.5,-140.89 384.5,-140.89"/>
<polygon fill="black" stroke="black" points="381,-140.89 384.5,-150.89 388,-140.89 381,-140.89"/>
</g>
<!-- SacUploadComponent -->
<g id="node2" class="node">
<title>SacUploadComponent</title>
<polygon fill="#8dd3c7" stroke="black" points="375.26,-122 372.26,-126 351.26,-126 348.26,-122 232.74,-122 232.74,-86 375.26,-86 375.26,-122"/>
<text text-anchor="middle" x="304" y="-99.8" font-family="Times,serif" font-size="14.00">SacUploadComponent</text>
</g>
<!-- SacUploadComponent&#45;&gt;SACBootstrap3UploadModule -->
<g id="edge2" class="edge">
<title>SacUploadComponent&#45;&gt;SACBootstrap3UploadModule</title>
<path fill="none" stroke="black" d="M304,-122.11C304,-122.11 304,-140.99 304,-140.99"/>
<polygon fill="black" stroke="black" points="300.5,-140.99 304,-150.99 307.5,-140.99 300.5,-140.99"/>
</g>
<!-- SacUploadMultipleComponent -->
<g id="node3" class="node">
<title>SacUploadMultipleComponent</title>
<polygon fill="#8dd3c7" stroke="black" points="214.48,-122 211.48,-126 190.48,-126 187.48,-122 23.52,-122 23.52,-86 214.48,-86 214.48,-122"/>
<text text-anchor="middle" x="119" y="-99.8" font-family="Times,serif" font-size="14.00">SacUploadMultipleComponent</text>
</g>
<!-- SacUploadMultipleComponent&#45;&gt;SACBootstrap3UploadModule -->
<g id="edge3" class="edge">
<title>SacUploadMultipleComponent&#45;&gt;SACBootstrap3UploadModule</title>
<path fill="none" stroke="black" d="M214.64,-104C220.18,-104 223.56,-104 223.56,-104 223.56,-104 223.56,-140.89 223.56,-140.89"/>
<polygon fill="black" stroke="black" points="220.06,-140.89 223.56,-150.89 227.06,-140.89 220.06,-140.89"/>
</g>
<!-- SacUploadComponent  -->
<g id="node5" class="node">
<title>SacUploadComponent </title>
<polygon fill="#fb8072" stroke="black" points="459.26,-252 312.74,-252 312.74,-216 459.26,-216 459.26,-252"/>
<text text-anchor="middle" x="386" y="-229.8" font-family="Times,serif" font-size="14.00">SacUploadComponent </text>
</g>
<!-- SACBootstrap3UploadModule&#45;&gt;SacUploadComponent  -->
<g id="edge4" class="edge">
<title>SACBootstrap3UploadModule&#45;&gt;SacUploadComponent </title>
<path fill="none" stroke="black" stroke-dasharray="5,2" d="M355.79,-187.11C355.79,-187.11 355.79,-205.99 355.79,-205.99"/>
<polygon fill="black" stroke="black" points="352.29,-205.99 355.79,-215.99 359.29,-205.99 352.29,-205.99"/>
</g>
<!-- SacUploadMultipleComponent  -->
<g id="node6" class="node">
<title>SacUploadMultipleComponent </title>
<polygon fill="#fb8072" stroke="black" points="295.48,-252 100.52,-252 100.52,-216 295.48,-216 295.48,-252"/>
<text text-anchor="middle" x="198" y="-229.8" font-family="Times,serif" font-size="14.00">SacUploadMultipleComponent </text>
</g>
<!-- SACBootstrap3UploadModule&#45;&gt;SacUploadMultipleComponent  -->
<g id="edge5" class="edge">
<title>SACBootstrap3UploadModule&#45;&gt;SacUploadMultipleComponent </title>
<path fill="none" stroke="black" stroke-dasharray="5,2" d="M252.26,-187.11C252.26,-187.11 252.26,-205.99 252.26,-205.99"/>
<polygon fill="black" stroke="black" points="248.76,-205.99 252.26,-215.99 255.76,-205.99 248.76,-205.99"/>
</g>
</g>
</svg>
