<?xml version="1.0" encoding="UTF-8" standalone="no"?>
<!DOCTYPE svg PUBLIC "-//W3C//DTD SVG 1.1//EN"
 "http://www.w3.org/Graphics/SVG/1.1/DTD/svg11.dtd">
<!-- Generated by graphviz version 2.47.0 (20210316.0004)
 -->
<!-- Title: dependencies Pages: 1 -->
<svg width="2010pt" height="284pt"
 viewBox="0.00 0.00 2010.00 284.00" xmlns="http://www.w3.org/2000/svg" xmlns:xlink="http://www.w3.org/1999/xlink">
<g id="graph0" class="graph" transform="scale(1 1) rotate(0) translate(4 280)">
<title>dependencies</title>
<polygon fill="white" stroke="transparent" points="-4,4 -4,-280 2006,-280 2006,4 -4,4"/>
<text text-anchor="start" x="980.01" y="-42.4" font-family="Times-12" font-weight="bold" font-size="14.00">Legend</text>
<polygon fill="#ffffb3" stroke="transparent" points="767,-10 767,-30 787,-30 787,-10 767,-10"/>
<text text-anchor="start" x="790.63" y="-15.4" font-family="Times-12" font-size="14.00"> &#160;Declarations</text>
<polygon fill="#8dd3c7" stroke="transparent" points="880,-10 880,-30 900,-30 900,-10 880,-10"/>
<text text-anchor="start" x="903.73" y="-15.4" font-family="Times-12" font-size="14.00"> &#160;Module</text>
<polygon fill="#80b1d3" stroke="transparent" points="966,-10 966,-30 986,-30 986,-10 966,-10"/>
<text text-anchor="start" x="989.78" y="-15.4" font-family="Times-12" font-size="14.00"> &#160;Bootstrap</text>
<polygon fill="#fdb462" stroke="transparent" points="1063,-10 1063,-30 1083,-30 1083,-10 1063,-10"/>
<text text-anchor="start" x="1086.67" y="-15.4" font-family="Times-12" font-size="14.00"> &#160;Providers</text>
<polygon fill="#fb8072" stroke="transparent" points="1159,-10 1159,-30 1179,-30 1179,-10 1159,-10"/>
<text text-anchor="start" x="1182.73" y="-15.4" font-family="Times-12" font-size="14.00"> &#160;Exports</text>
<g id="clust1" class="cluster">
<title>cluster_SACBootstrap4MultilanguageModule</title>
<polygon fill="none" stroke="black" stroke-dasharray="1,5" points="8,-70 8,-268 1994,-268 1994,-70 8,-70"/>
</g>
<g id="clust9" class="cluster">
<title>cluster_SACBootstrap4MultilanguageModule_imports</title>
<polygon fill="none" stroke="black" points="1574,-78 1574,-130 1986,-130 1986,-78 1574,-78"/>
</g>
<g id="clust2" class="cluster">
<title>cluster_SACBootstrap4MultilanguageModule_declarations</title>
<polygon fill="none" stroke="black" points="16,-78 16,-130 1566,-130 1566,-78 16,-78"/>
</g>
<g id="clust10" class="cluster">
<title>cluster_SACBootstrap4MultilanguageModule_exports</title>
<polygon fill="none" stroke="black" points="831,-208 831,-260 1325,-260 1325,-208 831,-208"/>
</g>
<!-- SacMultilanguageInputAreaComponent -->
<g id="node1" class="node">
<title>SacMultilanguageInputAreaComponent</title>
<polygon fill="#ffffb3" stroke="black" points="1557.94,-122 1318.06,-122 1318.06,-86 1557.94,-86 1557.94,-122"/>
<text text-anchor="middle" x="1438" y="-99.8" font-family="Times,serif" font-size="14.00">SacMultilanguageInputAreaComponent</text>
</g>
<!-- SACBootstrap4MultilanguageModule -->
<g id="node7" class="node">
<title>SACBootstrap4MultilanguageModule</title>
<polygon fill="#8dd3c7" stroke="black" points="1185.86,-187 1182.86,-191 1161.86,-191 1158.86,-187 956.14,-187 956.14,-151 1185.86,-151 1185.86,-187"/>
<text text-anchor="middle" x="1071" y="-164.8" font-family="Times,serif" font-size="14.00">SACBootstrap4MultilanguageModule</text>
</g>
<!-- SacMultilanguageInputAreaComponent&#45;&gt;SACBootstrap4MultilanguageModule -->
<g id="edge1" class="edge">
<title>SacMultilanguageInputAreaComponent&#45;&gt;SACBootstrap4MultilanguageModule</title>
<path fill="none" stroke="black" d="M1438,-122.03C1438,-138.4 1438,-160 1438,-160 1438,-160 1196.11,-160 1196.11,-160"/>
<polygon fill="black" stroke="black" points="1196.11,-156.5 1186.11,-160 1196.11,-163.5 1196.11,-156.5"/>
</g>
<!-- SacMultilanguageInputComponent -->
<g id="node2" class="node">
<title>SacMultilanguageInputComponent</title>
<polygon fill="#ffffb3" stroke="black" points="1300.25,-122 1087.75,-122 1087.75,-86 1300.25,-86 1300.25,-122"/>
<text text-anchor="middle" x="1194" y="-99.8" font-family="Times,serif" font-size="14.00">SacMultilanguageInputComponent</text>
</g>
<!-- SacMultilanguageInputComponent&#45;&gt;SACBootstrap4MultilanguageModule -->
<g id="edge2" class="edge">
<title>SacMultilanguageInputComponent&#45;&gt;SACBootstrap4MultilanguageModule</title>
<path fill="none" stroke="black" d="M1136.78,-122.11C1136.78,-122.11 1136.78,-140.99 1136.78,-140.99"/>
<polygon fill="black" stroke="black" points="1133.28,-140.99 1136.78,-150.99 1140.28,-140.99 1133.28,-140.99"/>
</g>
<!-- SacMultilanguagemenuAnchorDirective -->
<g id="node3" class="node">
<title>SacMultilanguagemenuAnchorDirective</title>
<polygon fill="#ffffb3" stroke="black" points="1069.53,-122 826.47,-122 826.47,-86 1069.53,-86 1069.53,-122"/>
<text text-anchor="middle" x="948" y="-99.8" font-family="Times,serif" font-size="14.00">SacMultilanguagemenuAnchorDirective</text>
</g>
<!-- SacMultilanguagemenuAnchorDirective&#45;&gt;SACBootstrap4MultilanguageModule -->
<g id="edge3" class="edge">
<title>SacMultilanguagemenuAnchorDirective&#45;&gt;SACBootstrap4MultilanguageModule</title>
<path fill="none" stroke="black" d="M1012.79,-122.11C1012.79,-122.11 1012.79,-140.99 1012.79,-140.99"/>
<polygon fill="black" stroke="black" points="1009.29,-140.99 1012.79,-150.99 1016.29,-140.99 1009.29,-140.99"/>
</g>
<!-- SacMultilanguagemenuComponent -->
<g id="node4" class="node">
<title>SacMultilanguagemenuComponent</title>
<polygon fill="#ffffb3" stroke="black" points="808.3,-122 593.7,-122 593.7,-86 808.3,-86 808.3,-122"/>
<text text-anchor="middle" x="701" y="-99.8" font-family="Times,serif" font-size="14.00">SacMultilanguagemenuComponent</text>
</g>
<!-- SacMultilanguagemenuComponent&#45;&gt;SACBootstrap4MultilanguageModule -->
<g id="edge4" class="edge">
<title>SacMultilanguagemenuComponent&#45;&gt;SACBootstrap4MultilanguageModule</title>
<path fill="none" stroke="black" d="M701,-122.03C701,-138.4 701,-160 701,-160 701,-160 945.96,-160 945.96,-160"/>
<polygon fill="black" stroke="black" points="945.96,-163.5 955.96,-160 945.96,-156.5 945.96,-163.5"/>
</g>
<!-- SacMultilanguagemenuContainerDirective -->
<g id="node5" class="node">
<title>SacMultilanguagemenuContainerDirective</title>
<polygon fill="#ffffb3" stroke="black" points="576.26,-122 319.74,-122 319.74,-86 576.26,-86 576.26,-122"/>
<text text-anchor="middle" x="448" y="-99.8" font-family="Times,serif" font-size="14.00">SacMultilanguagemenuContainerDirective</text>
</g>
<!-- SacMultilanguagemenuContainerDirective&#45;&gt;SACBootstrap4MultilanguageModule -->
<g id="edge5" class="edge">
<title>SacMultilanguagemenuContainerDirective&#45;&gt;SACBootstrap4MultilanguageModule</title>
<path fill="none" stroke="black" d="M448,-122.11C448,-141.34 448,-169 448,-169 448,-169 946.01,-169 946.01,-169"/>
<polygon fill="black" stroke="black" points="946.01,-172.5 956.01,-169 946.01,-165.5 946.01,-172.5"/>
</g>
<!-- SacMultilanguagemenuItemButtonComponent -->
<g id="node6" class="node">
<title>SacMultilanguagemenuItemButtonComponent</title>
<polygon fill="#ffffb3" stroke="black" points="302.07,-122 23.93,-122 23.93,-86 302.07,-86 302.07,-122"/>
<text text-anchor="middle" x="163" y="-99.8" font-family="Times,serif" font-size="14.00">SacMultilanguagemenuItemButtonComponent</text>
</g>
<!-- SacMultilanguagemenuItemButtonComponent&#45;&gt;SACBootstrap4MultilanguageModule -->
<g id="edge6" class="edge">
<title>SacMultilanguagemenuItemButtonComponent&#45;&gt;SACBootstrap4MultilanguageModule</title>
<path fill="none" stroke="black" d="M163,-122.29C163,-144.21 163,-178 163,-178 163,-178 946,-178 946,-178"/>
<polygon fill="black" stroke="black" points="946,-181.5 956,-178 946,-174.5 946,-181.5"/>
</g>
<!-- SacMultilanguageInputAreaComponent  -->
<g id="node10" class="node">
<title>SacMultilanguageInputAreaComponent </title>
<polygon fill="#fb8072" stroke="black" points="1316.94,-252 1073.06,-252 1073.06,-216 1316.94,-216 1316.94,-252"/>
<text text-anchor="middle" x="1195" y="-229.8" font-family="Times,serif" font-size="14.00">SacMultilanguageInputAreaComponent </text>
</g>
<!-- SACBootstrap4MultilanguageModule&#45;&gt;SacMultilanguageInputAreaComponent  -->
<g id="edge9" class="edge">
<title>SACBootstrap4MultilanguageModule&#45;&gt;SacMultilanguageInputAreaComponent </title>
<path fill="none" stroke="black" stroke-dasharray="5,2" d="M1129.61,-187.11C1129.61,-187.11 1129.61,-205.99 1129.61,-205.99"/>
<polygon fill="black" stroke="black" points="1126.11,-205.99 1129.61,-215.99 1133.11,-205.99 1126.11,-205.99"/>
</g>
<!-- SacMultilanguageInputComponent  -->
<g id="node11" class="node">
<title>SacMultilanguageInputComponent </title>
<polygon fill="#fb8072" stroke="black" points="1055.25,-252 838.75,-252 838.75,-216 1055.25,-216 1055.25,-252"/>
<text text-anchor="middle" x="947" y="-229.8" font-family="Times,serif" font-size="14.00">SacMultilanguageInputComponent </text>
</g>
<!-- SACBootstrap4MultilanguageModule&#45;&gt;SacMultilanguageInputComponent  -->
<g id="edge10" class="edge">
<title>SACBootstrap4MultilanguageModule&#45;&gt;SacMultilanguageInputComponent </title>
<path fill="none" stroke="black" stroke-dasharray="5,2" d="M1005.6,-187.11C1005.6,-187.11 1005.6,-205.99 1005.6,-205.99"/>
<polygon fill="black" stroke="black" points="1002.1,-205.99 1005.6,-215.99 1009.1,-205.99 1002.1,-205.99"/>
</g>
<!-- SACBootstrap4LayoutModule -->
<g id="node8" class="node">
<title>SACBootstrap4LayoutModule</title>
<polygon fill="#8dd3c7" stroke="black" points="1977.87,-122 1974.87,-126 1953.87,-126 1950.87,-122 1790.13,-122 1790.13,-86 1977.87,-86 1977.87,-122"/>
<text text-anchor="middle" x="1884" y="-99.8" font-family="Times,serif" font-size="14.00">SACBootstrap4LayoutModule</text>
</g>
<!-- SACBootstrap4LayoutModule&#45;&gt;SACBootstrap4MultilanguageModule -->
<g id="edge7" class="edge">
<title>SACBootstrap4LayoutModule&#45;&gt;SACBootstrap4MultilanguageModule</title>
<path fill="none" stroke="black" d="M1884,-122.29C1884,-144.21 1884,-178 1884,-178 1884,-178 1196.19,-178 1196.19,-178"/>
<polygon fill="black" stroke="black" points="1196.19,-174.5 1186.19,-178 1196.19,-181.5 1196.19,-174.5"/>
</g>
<!-- SACBootstrap4TooltipModule -->
<g id="node9" class="node">
<title>SACBootstrap4TooltipModule</title>
<polygon fill="#8dd3c7" stroke="black" points="1771.94,-122 1768.94,-126 1747.94,-126 1744.94,-122 1582.06,-122 1582.06,-86 1771.94,-86 1771.94,-122"/>
<text text-anchor="middle" x="1677" y="-99.8" font-family="Times,serif" font-size="14.00">SACBootstrap4TooltipModule</text>
</g>
<!-- SACBootstrap4TooltipModule&#45;&gt;SACBootstrap4MultilanguageModule -->
<g id="edge8" class="edge">
<title>SACBootstrap4TooltipModule&#45;&gt;SACBootstrap4MultilanguageModule</title>
<path fill="none" stroke="black" d="M1677,-122.11C1677,-141.34 1677,-169 1677,-169 1677,-169 1196.05,-169 1196.05,-169"/>
<polygon fill="black" stroke="black" points="1196.05,-165.5 1186.05,-169 1196.05,-172.5 1196.05,-165.5"/>
</g>
</g>
</svg>
