<?xml version="1.0" encoding="UTF-8" standalone="no"?>
<!DOCTYPE svg PUBLIC "-//W3C//DTD SVG 1.1//EN"
 "http://www.w3.org/Graphics/SVG/1.1/DTD/svg11.dtd">
<!-- Generated by graphviz version 2.47.0 (20210316.0004)
 -->
<!-- Title: dependencies Pages: 1 -->
<svg width="3930pt" height="396pt"
 viewBox="0.00 0.00 3930.00 395.59" xmlns="http://www.w3.org/2000/svg" xmlns:xlink="http://www.w3.org/1999/xlink">
<g id="graph0" class="graph" transform="scale(1 1) rotate(0) translate(4 391.59)">
<title>dependencies</title>
<polygon fill="white" stroke="transparent" points="-4,4 -4,-391.59 3926,-391.59 3926,4 -4,4"/>
<text text-anchor="start" x="1940.01" y="-42.4" font-family="Times-12" font-weight="bold" font-size="14.00">Legend</text>
<polygon fill="#ffffb3" stroke="transparent" points="1727,-10 1727,-30 1747,-30 1747,-10 1727,-10"/>
<text text-anchor="start" x="1750.63" y="-15.4" font-family="Times-12" font-size="14.00"> &#160;Declarations</text>
<polygon fill="#8dd3c7" stroke="transparent" points="1840,-10 1840,-30 1860,-30 1860,-10 1840,-10"/>
<text text-anchor="start" x="1863.73" y="-15.4" font-family="Times-12" font-size="14.00"> &#160;Module</text>
<polygon fill="#80b1d3" stroke="transparent" points="1926,-10 1926,-30 1946,-30 1946,-10 1926,-10"/>
<text text-anchor="start" x="1949.78" y="-15.4" font-family="Times-12" font-size="14.00"> &#160;Bootstrap</text>
<polygon fill="#fdb462" stroke="transparent" points="2023,-10 2023,-30 2043,-30 2043,-10 2023,-10"/>
<text text-anchor="start" x="2046.67" y="-15.4" font-family="Times-12" font-size="14.00"> &#160;Providers</text>
<polygon fill="#fb8072" stroke="transparent" points="2119,-10 2119,-30 2139,-30 2139,-10 2119,-10"/>
<text text-anchor="start" x="2142.73" y="-15.4" font-family="Times-12" font-size="14.00"> &#160;Exports</text>
<g id="clust1" class="cluster">
<title>cluster_SACBootstrap4UploadModule</title>
<polygon fill="none" stroke="black" stroke-dasharray="1,5" points="8,-70 8,-379.59 3914,-379.59 3914,-70 8,-70"/>
</g>
<g id="clust8" class="cluster">
<title>cluster_SACBootstrap4UploadModule_exports</title>
<polygon fill="none" stroke="black" points="1525,-319.59 1525,-371.59 2339,-371.59 2339,-319.59 1525,-319.59"/>
</g>
<g id="clust7" class="cluster">
<title>cluster_SACBootstrap4UploadModule_imports</title>
<polygon fill="none" stroke="black" points="3494,-189.59 3494,-241.59 3906,-241.59 3906,-189.59 3494,-189.59"/>
</g>
<g id="clust3" class="cluster">
<title>cluster_SACBootstrap4UploadModule_SacDropzoneMultipleComponent_providers</title>
<polygon fill="none" stroke="black" points="1738,-78 1738,-241.59 3486,-241.59 3486,-78 1738,-78"/>
</g>
<g id="clust2" class="cluster">
<title>cluster_SACBootstrap4UploadModule_declarations</title>
<polygon fill="none" stroke="black" points="1152,-189.59 1152,-241.59 1730,-241.59 1730,-189.59 1152,-189.59"/>
</g>
<g id="clust4" class="cluster">
<title>cluster_SACBootstrap4UploadModule_SacDropzoneSingleComponent_providers</title>
<polygon fill="none" stroke="black" points="16,-78 16,-176.59 1730,-176.59 1730,-78 16,-78"/>
</g>
<!-- SacDropzoneMultipleComponent -->
<g id="node1" class="node">
<title>SacDropzoneMultipleComponent</title>
<polygon fill="#ffffb3" stroke="black" points="2301.46,-233.59 2096.54,-233.59 2096.54,-197.59 2301.46,-197.59 2301.46,-233.59"/>
<text text-anchor="middle" x="2199" y="-211.39" font-family="Times,serif" font-size="14.00">SacDropzoneMultipleComponent</text>
</g>
<!-- SACBootstrap4UploadModule -->
<g id="node5" class="node">
<title>SACBootstrap4UploadModule</title>
<polygon fill="#8dd3c7" stroke="black" points="2006.93,-298.59 2003.93,-302.59 1982.93,-302.59 1979.93,-298.59 1817.07,-298.59 1817.07,-262.59 2006.93,-262.59 2006.93,-298.59"/>
<text text-anchor="middle" x="1912" y="-276.39" font-family="Times,serif" font-size="14.00">SACBootstrap4UploadModule</text>
</g>
<!-- SacDropzoneMultipleComponent&#45;&gt;SACBootstrap4UploadModule -->
<g id="edge1" class="edge">
<title>SacDropzoneMultipleComponent&#45;&gt;SACBootstrap4UploadModule</title>
<path fill="none" stroke="black" d="M2100.76,-233.6C2100.76,-249.64 2100.76,-270.59 2100.76,-270.59 2100.76,-270.59 2016.94,-270.59 2016.94,-270.59"/>
<polygon fill="black" stroke="black" points="2016.94,-267.09 2006.94,-270.59 2016.94,-274.09 2016.94,-267.09"/>
</g>
<!-- SacDropzoneSingleComponent -->
<g id="node2" class="node">
<title>SacDropzoneSingleComponent</title>
<polygon fill="#ffffb3" stroke="black" points="1722.02,-233.59 1529.98,-233.59 1529.98,-197.59 1722.02,-197.59 1722.02,-233.59"/>
<text text-anchor="middle" x="1626" y="-211.39" font-family="Times,serif" font-size="14.00">SacDropzoneSingleComponent</text>
</g>
<!-- SacDropzoneSingleComponent&#45;&gt;SACBootstrap4UploadModule -->
<g id="edge4" class="edge">
<title>SacDropzoneSingleComponent&#45;&gt;SACBootstrap4UploadModule</title>
<path fill="none" stroke="black" d="M1595.93,-233.6C1595.93,-249.64 1595.93,-270.59 1595.93,-270.59 1595.93,-270.59 1807.17,-270.59 1807.17,-270.59"/>
<polygon fill="black" stroke="black" points="1807.17,-274.09 1817.17,-270.59 1807.17,-267.09 1807.17,-274.09"/>
</g>
<!-- SacUploadComponent -->
<g id="node3" class="node">
<title>SacUploadComponent</title>
<polygon fill="#ffffb3" stroke="black" points="1511.26,-233.59 1368.74,-233.59 1368.74,-197.59 1511.26,-197.59 1511.26,-233.59"/>
<text text-anchor="middle" x="1440" y="-211.39" font-family="Times,serif" font-size="14.00">SacUploadComponent</text>
</g>
<!-- SacUploadComponent&#45;&gt;SACBootstrap4UploadModule -->
<g id="edge7" class="edge">
<title>SacUploadComponent&#45;&gt;SACBootstrap4UploadModule</title>
<path fill="none" stroke="black" d="M1440,-233.86C1440,-252.15 1440,-277.59 1440,-277.59 1440,-277.59 1807.05,-277.59 1807.05,-277.59"/>
<polygon fill="black" stroke="black" points="1807.05,-281.09 1817.05,-277.59 1807.05,-274.09 1807.05,-281.09"/>
</g>
<!-- SacUploadMultipleComponent -->
<g id="node4" class="node">
<title>SacUploadMultipleComponent</title>
<polygon fill="#ffffb3" stroke="black" points="1350.48,-233.59 1159.52,-233.59 1159.52,-197.59 1350.48,-197.59 1350.48,-233.59"/>
<text text-anchor="middle" x="1255" y="-211.39" font-family="Times,serif" font-size="14.00">SacUploadMultipleComponent</text>
</g>
<!-- SacUploadMultipleComponent&#45;&gt;SACBootstrap4UploadModule -->
<g id="edge8" class="edge">
<title>SacUploadMultipleComponent&#45;&gt;SACBootstrap4UploadModule</title>
<path fill="none" stroke="black" d="M1255,-233.72C1255,-254.16 1255,-284.59 1255,-284.59 1255,-284.59 1807.17,-284.59 1807.17,-284.59"/>
<polygon fill="black" stroke="black" points="1807.17,-288.09 1817.17,-284.59 1807.17,-281.09 1807.17,-288.09"/>
</g>
<!-- SacDropzoneMultipleComponent  -->
<g id="node12" class="node">
<title>SacDropzoneMultipleComponent </title>
<polygon fill="#fb8072" stroke="black" points="2331.46,-363.59 2122.54,-363.59 2122.54,-327.59 2331.46,-327.59 2331.46,-363.59"/>
<text text-anchor="middle" x="2227" y="-341.39" font-family="Times,serif" font-size="14.00">SacDropzoneMultipleComponent </text>
</g>
<!-- SACBootstrap4UploadModule&#45;&gt;SacDropzoneMultipleComponent  -->
<g id="edge11" class="edge">
<title>SACBootstrap4UploadModule&#45;&gt;SacDropzoneMultipleComponent </title>
<path fill="none" stroke="black" stroke-dasharray="5,2" d="M2006.96,-291.59C2094.89,-291.59 2212.12,-291.59 2212.12,-291.59 2212.12,-291.59 2212.12,-317.31 2212.12,-317.31"/>
<polygon fill="black" stroke="black" points="2208.63,-317.31 2212.12,-327.31 2215.63,-317.31 2208.63,-317.31"/>
</g>
<!-- SacDropzoneSingleComponent  -->
<g id="node13" class="node">
<title>SacDropzoneSingleComponent </title>
<polygon fill="#fb8072" stroke="black" points="2105.02,-363.59 1908.98,-363.59 1908.98,-327.59 2105.02,-327.59 2105.02,-363.59"/>
<text text-anchor="middle" x="2007" y="-341.39" font-family="Times,serif" font-size="14.00">SacDropzoneSingleComponent </text>
</g>
<!-- SACBootstrap4UploadModule&#45;&gt;SacDropzoneSingleComponent  -->
<g id="edge12" class="edge">
<title>SACBootstrap4UploadModule&#45;&gt;SacDropzoneSingleComponent </title>
<path fill="none" stroke="black" stroke-dasharray="5,2" d="M1957.85,-298.7C1957.85,-298.7 1957.85,-317.58 1957.85,-317.58"/>
<polygon fill="black" stroke="black" points="1954.35,-317.58 1957.85,-327.58 1961.35,-317.58 1954.35,-317.58"/>
</g>
<!-- SacUploadComponent  -->
<g id="node14" class="node">
<title>SacUploadComponent </title>
<polygon fill="#fb8072" stroke="black" points="1891.26,-363.59 1744.74,-363.59 1744.74,-327.59 1891.26,-327.59 1891.26,-363.59"/>
<text text-anchor="middle" x="1818" y="-341.39" font-family="Times,serif" font-size="14.00">SacUploadComponent </text>
</g>
<!-- SACBootstrap4UploadModule&#45;&gt;SacUploadComponent  -->
<g id="edge13" class="edge">
<title>SACBootstrap4UploadModule&#45;&gt;SacUploadComponent </title>
<path fill="none" stroke="black" stroke-dasharray="5,2" d="M1854.21,-298.7C1854.21,-298.7 1854.21,-317.58 1854.21,-317.58"/>
<polygon fill="black" stroke="black" points="1850.71,-317.58 1854.21,-327.58 1857.71,-317.58 1850.71,-317.58"/>
</g>
<!-- SacUploadMultipleComponent  -->
<g id="node15" class="node">
<title>SacUploadMultipleComponent </title>
<polygon fill="#fb8072" stroke="black" points="1727.48,-363.59 1532.52,-363.59 1532.52,-327.59 1727.48,-327.59 1727.48,-363.59"/>
<text text-anchor="middle" x="1630" y="-341.39" font-family="Times,serif" font-size="14.00">SacUploadMultipleComponent </text>
</g>
<!-- SACBootstrap4UploadModule&#45;&gt;SacUploadMultipleComponent  -->
<g id="edge14" class="edge">
<title>SACBootstrap4UploadModule&#45;&gt;SacUploadMultipleComponent </title>
<path fill="none" stroke="black" stroke-dasharray="5,2" d="M1817.11,-291.59C1745.34,-291.59 1659.09,-291.59 1659.09,-291.59 1659.09,-291.59 1659.09,-317.31 1659.09,-317.31"/>
<polygon fill="black" stroke="black" points="1655.59,-317.31 1659.09,-327.31 1662.59,-317.31 1655.59,-317.31"/>
</g>
<!-- {
 &#160;&#160;&#160;provide: NG_VALUE_ACCESSOR, multi: true, useExisting: SacDropzoneMultipleComponent,
} -->
<g id="node6" class="node">
<title>{
 &#160;&#160;&#160;provide: NG_VALUE_ACCESSOR, multi: true, useExisting: SacDropzoneMultipleComponent,
}</title>
<ellipse fill="#fdb462" stroke="black" cx="3074" cy="-127.3" rx="404.48" ry="41.09"/>
<text text-anchor="middle" x="3074" y="-139.9" font-family="Times,serif" font-size="14.00">{</text>
<text text-anchor="middle" x="3074" y="-123.1" font-family="Times,serif" font-size="14.00"> &#160;&#160;&#160;provide: NG_VALUE_ACCESSOR, multi: true, useExisting: SacDropzoneMultipleComponent,</text>
<text text-anchor="middle" x="3074" y="-106.3" font-family="Times,serif" font-size="14.00">}</text>
</g>
<!-- {
 &#160;&#160;&#160;provide: NG_VALUE_ACCESSOR, multi: true, useExisting: SacDropzoneMultipleComponent,
}&#45;&gt;SacDropzoneMultipleComponent -->
<g id="edge2" class="edge">
<title>{
 &#160;&#160;&#160;provide: NG_VALUE_ACCESSOR, multi: true, useExisting: SacDropzoneMultipleComponent,
}&#45;&gt;SacDropzoneMultipleComponent</title>
<path fill="none" stroke="black" d="M3074,-168.6C3074,-191.58 3074,-215.59 3074,-215.59 3074,-215.59 2311.52,-215.59 2311.52,-215.59"/>
<polygon fill="black" stroke="black" points="2311.52,-212.09 2301.52,-215.59 2311.52,-219.09 2311.52,-212.09"/>
</g>
<!-- {
 &#160;&#160;&#160;provide: NG_VALIDATORS, multi: true, useExisting: forwardRef(() =&gt; SacDropzoneMultipleComponent),
} -->
<g id="node7" class="node">
<title>{
 &#160;&#160;&#160;provide: NG_VALIDATORS, multi: true, useExisting: forwardRef(() =&gt; SacDropzoneMultipleComponent),
}</title>
<ellipse fill="#fdb462" stroke="black" cx="2199" cy="-127.3" rx="452.99" ry="41.09"/>
<text text-anchor="middle" x="2199" y="-139.9" font-family="Times,serif" font-size="14.00">{</text>
<text text-anchor="middle" x="2199" y="-123.1" font-family="Times,serif" font-size="14.00"> &#160;&#160;&#160;provide: NG_VALIDATORS, multi: true, useExisting: forwardRef(() =&gt; SacDropzoneMultipleComponent),</text>
<text text-anchor="middle" x="2199" y="-106.3" font-family="Times,serif" font-size="14.00">}</text>
</g>
<!-- {
 &#160;&#160;&#160;provide: NG_VALIDATORS, multi: true, useExisting: forwardRef(() =&gt; SacDropzoneMultipleComponent),
}&#45;&gt;SacDropzoneMultipleComponent -->
<g id="edge3" class="edge">
<title>{
 &#160;&#160;&#160;provide: NG_VALIDATORS, multi: true, useExisting: forwardRef(() =&gt; SacDropzoneMultipleComponent),
}&#45;&gt;SacDropzoneMultipleComponent</title>
<path fill="none" stroke="black" d="M2199,-168.6C2199,-168.6 2199,-187.26 2199,-187.26"/>
<polygon fill="black" stroke="black" points="2195.5,-187.26 2199,-197.26 2202.5,-187.26 2195.5,-187.26"/>
</g>
<!-- {
 &#160;&#160;&#160;provide: NG_VALUE_ACCESSOR, multi: true, useExisting: SacDropzoneSingleComponent,
} -->
<g id="node8" class="node">
<title>{
 &#160;&#160;&#160;provide: NG_VALUE_ACCESSOR, multi: true, useExisting: SacDropzoneSingleComponent,
}</title>
<ellipse fill="#fdb462" stroke="black" cx="1326" cy="-127.3" rx="395.88" ry="41.09"/>
<text text-anchor="middle" x="1326" y="-139.9" font-family="Times,serif" font-size="14.00">{</text>
<text text-anchor="middle" x="1326" y="-123.1" font-family="Times,serif" font-size="14.00"> &#160;&#160;&#160;provide: NG_VALUE_ACCESSOR, multi: true, useExisting: SacDropzoneSingleComponent,</text>
<text text-anchor="middle" x="1326" y="-106.3" font-family="Times,serif" font-size="14.00">}</text>
</g>
<!-- {
 &#160;&#160;&#160;provide: NG_VALUE_ACCESSOR, multi: true, useExisting: SacDropzoneSingleComponent,
}&#45;&gt;SacDropzoneSingleComponent -->
<g id="edge5" class="edge">
<title>{
 &#160;&#160;&#160;provide: NG_VALUE_ACCESSOR, multi: true, useExisting: SacDropzoneSingleComponent,
}&#45;&gt;SacDropzoneSingleComponent</title>
<path fill="none" stroke="black" d="M1657.71,-150.03C1657.71,-150.03 1657.71,-187.38 1657.71,-187.38"/>
<polygon fill="black" stroke="black" points="1654.21,-187.38 1657.71,-197.38 1661.21,-187.38 1654.21,-187.38"/>
</g>
<!-- {
 &#160;&#160;&#160;provide: NG_VALIDATORS, multi: true, useExisting: forwardRef(() =&gt; SacDropzoneSingleComponent),
} -->
<g id="node9" class="node">
<title>{
 &#160;&#160;&#160;provide: NG_VALIDATORS, multi: true, useExisting: forwardRef(() =&gt; SacDropzoneSingleComponent),
}</title>
<ellipse fill="#fdb462" stroke="black" cx="468" cy="-127.3" rx="444.4" ry="41.09"/>
<text text-anchor="middle" x="468" y="-139.9" font-family="Times,serif" font-size="14.00">{</text>
<text text-anchor="middle" x="468" y="-123.1" font-family="Times,serif" font-size="14.00"> &#160;&#160;&#160;provide: NG_VALIDATORS, multi: true, useExisting: forwardRef(() =&gt; SacDropzoneSingleComponent),</text>
<text text-anchor="middle" x="468" y="-106.3" font-family="Times,serif" font-size="14.00">}</text>
</g>
<!-- {
 &#160;&#160;&#160;provide: NG_VALIDATORS, multi: true, useExisting: forwardRef(() =&gt; SacDropzoneSingleComponent),
}&#45;&gt;SacDropzoneSingleComponent -->
<g id="edge6" class="edge">
<title>{
 &#160;&#160;&#160;provide: NG_VALIDATORS, multi: true, useExisting: forwardRef(() =&gt; SacDropzoneSingleComponent),
}&#45;&gt;SacDropzoneSingleComponent</title>
<path fill="none" stroke="black" d="M468,-168.8C468,-177.24 468,-183.59 468,-183.59 468,-183.59 1593.72,-183.59 1593.72,-183.59 1593.72,-183.59 1593.72,-187.35 1593.72,-187.35"/>
<polygon fill="black" stroke="black" points="1590.22,-187.35 1593.72,-197.35 1597.22,-187.35 1590.22,-187.35"/>
</g>
<!-- SACBootstrap4LayoutModule -->
<g id="node10" class="node">
<title>SACBootstrap4LayoutModule</title>
<polygon fill="#8dd3c7" stroke="black" points="3897.87,-233.59 3894.87,-237.59 3873.87,-237.59 3870.87,-233.59 3710.13,-233.59 3710.13,-197.59 3897.87,-197.59 3897.87,-233.59"/>
<text text-anchor="middle" x="3804" y="-211.39" font-family="Times,serif" font-size="14.00">SACBootstrap4LayoutModule</text>
</g>
<!-- SACBootstrap4LayoutModule&#45;&gt;SACBootstrap4UploadModule -->
<g id="edge9" class="edge">
<title>SACBootstrap4LayoutModule&#45;&gt;SACBootstrap4UploadModule</title>
<path fill="none" stroke="black" d="M3804,-233.72C3804,-254.16 3804,-284.59 3804,-284.59 3804,-284.59 2016.8,-284.59 2016.8,-284.59"/>
<polygon fill="black" stroke="black" points="2016.8,-281.09 2006.8,-284.59 2016.8,-288.09 2016.8,-281.09"/>
</g>
<!-- SACBootstrap4TooltipModule -->
<g id="node11" class="node">
<title>SACBootstrap4TooltipModule</title>
<polygon fill="#8dd3c7" stroke="black" points="3691.94,-233.59 3688.94,-237.59 3667.94,-237.59 3664.94,-233.59 3502.06,-233.59 3502.06,-197.59 3691.94,-197.59 3691.94,-233.59"/>
<text text-anchor="middle" x="3597" y="-211.39" font-family="Times,serif" font-size="14.00">SACBootstrap4TooltipModule</text>
</g>
<!-- SACBootstrap4TooltipModule&#45;&gt;SACBootstrap4UploadModule -->
<g id="edge10" class="edge">
<title>SACBootstrap4TooltipModule&#45;&gt;SACBootstrap4UploadModule</title>
<path fill="none" stroke="black" d="M3597,-233.86C3597,-252.15 3597,-277.59 3597,-277.59 3597,-277.59 2016.81,-277.59 2016.81,-277.59"/>
<polygon fill="black" stroke="black" points="2016.81,-274.09 2006.81,-277.59 2016.81,-281.09 2016.81,-274.09"/>
</g>
</g>
</svg>
