<?xml version="1.0" encoding="UTF-8" standalone="no"?>
<!DOCTYPE svg PUBLIC "-//W3C//DTD SVG 1.1//EN"
 "http://www.w3.org/Graphics/SVG/1.1/DTD/svg11.dtd">
<!-- Generated by graphviz version 2.47.0 (20210316.0004)
 -->
<!-- Title: dependencies Pages: 1 -->
<svg width="3722pt" height="396pt"
 viewBox="0.00 0.00 3722.00 395.59" xmlns="http://www.w3.org/2000/svg" xmlns:xlink="http://www.w3.org/1999/xlink">
<g id="graph0" class="graph" transform="scale(1 1) rotate(0) translate(4 391.59)">
<title>dependencies</title>
<polygon fill="white" stroke="transparent" points="-4,4 -4,-391.59 3718,-391.59 3718,4 -4,4"/>
<text text-anchor="start" x="1836.01" y="-42.4" font-family="Times-12" font-weight="bold" font-size="14.00">Legend</text>
<polygon fill="#ffffb3" stroke="transparent" points="1623,-10 1623,-30 1643,-30 1643,-10 1623,-10"/>
<text text-anchor="start" x="1646.63" y="-15.4" font-family="Times-12" font-size="14.00"> &#160;Declarations</text>
<polygon fill="#8dd3c7" stroke="transparent" points="1736,-10 1736,-30 1756,-30 1756,-10 1736,-10"/>
<text text-anchor="start" x="1759.73" y="-15.4" font-family="Times-12" font-size="14.00"> &#160;Module</text>
<polygon fill="#80b1d3" stroke="transparent" points="1822,-10 1822,-30 1842,-30 1842,-10 1822,-10"/>
<text text-anchor="start" x="1845.78" y="-15.4" font-family="Times-12" font-size="14.00"> &#160;Bootstrap</text>
<polygon fill="#fdb462" stroke="transparent" points="1919,-10 1919,-30 1939,-30 1939,-10 1919,-10"/>
<text text-anchor="start" x="1942.67" y="-15.4" font-family="Times-12" font-size="14.00"> &#160;Providers</text>
<polygon fill="#fb8072" stroke="transparent" points="2015,-10 2015,-30 2035,-30 2035,-10 2015,-10"/>
<text text-anchor="start" x="2038.73" y="-15.4" font-family="Times-12" font-size="14.00"> &#160;Exports</text>
<g id="clust1" class="cluster">
<title>cluster_SACBootstrap4UploadModule</title>
<polygon fill="none" stroke="black" stroke-dasharray="1,5" points="8,-70 8,-379.59 3706,-379.59 3706,-70 8,-70"/>
</g>
<g id="clust7" class="cluster">
<title>cluster_SACBootstrap4UploadModule_imports</title>
<polygon fill="none" stroke="black" points="3494,-189.59 3494,-241.59 3698,-241.59 3698,-189.59 3494,-189.59"/>
</g>
<g id="clust4" class="cluster">
<title>cluster_SACBootstrap4UploadModule_SacDropzoneSingleComponent_providers</title>
<polygon fill="none" stroke="black" points="1772,-78 1772,-241.59 3486,-241.59 3486,-78 1772,-78"/>
</g>
<g id="clust8" class="cluster">
<title>cluster_SACBootstrap4UploadModule_exports</title>
<polygon fill="none" stroke="black" points="1116,-319.59 1116,-371.59 1930,-371.59 1930,-319.59 1116,-319.59"/>
</g>
<g id="clust2" class="cluster">
<title>cluster_SACBootstrap4UploadModule_declarations</title>
<polygon fill="none" stroke="black" points="1023,-189.59 1023,-241.59 1613,-241.59 1613,-189.59 1023,-189.59"/>
</g>
<g id="clust3" class="cluster">
<title>cluster_SACBootstrap4UploadModule_SacDropzoneMultipleComponent_providers</title>
<polygon fill="none" stroke="black" points="16,-78 16,-176.59 1764,-176.59 1764,-78 16,-78"/>
</g>
<!-- SacDropzoneMultipleComponent -->
<g id="node1" class="node">
<title>SacDropzoneMultipleComponent</title>
<polygon fill="#ffffb3" stroke="black" points="1605.46,-233.59 1400.54,-233.59 1400.54,-197.59 1605.46,-197.59 1605.46,-233.59"/>
<text text-anchor="middle" x="1503" y="-211.39" font-family="Times,serif" font-size="14.00">SacDropzoneMultipleComponent</text>
</g>
<!-- SACBootstrap4UploadModule -->
<g id="node5" class="node">
<title>SACBootstrap4UploadModule</title>
<polygon fill="#8dd3c7" stroke="black" points="1597.93,-298.59 1594.93,-302.59 1573.93,-302.59 1570.93,-298.59 1408.07,-298.59 1408.07,-262.59 1597.93,-262.59 1597.93,-298.59"/>
<text text-anchor="middle" x="1503" y="-276.39" font-family="Times,serif" font-size="14.00">SACBootstrap4UploadModule</text>
</g>
<!-- SacDropzoneMultipleComponent&#45;&gt;SACBootstrap4UploadModule -->
<g id="edge1" class="edge">
<title>SacDropzoneMultipleComponent&#45;&gt;SACBootstrap4UploadModule</title>
<path fill="none" stroke="black" d="M1503,-233.7C1503,-233.7 1503,-252.58 1503,-252.58"/>
<polygon fill="black" stroke="black" points="1499.5,-252.58 1503,-262.58 1506.5,-252.58 1499.5,-252.58"/>
</g>
<!-- SacDropzoneSingleComponent -->
<g id="node2" class="node">
<title>SacDropzoneSingleComponent</title>
<polygon fill="#ffffb3" stroke="black" points="2320.02,-233.59 2127.98,-233.59 2127.98,-197.59 2320.02,-197.59 2320.02,-233.59"/>
<text text-anchor="middle" x="2224" y="-211.39" font-family="Times,serif" font-size="14.00">SacDropzoneSingleComponent</text>
</g>
<!-- SacDropzoneSingleComponent&#45;&gt;SACBootstrap4UploadModule -->
<g id="edge4" class="edge">
<title>SacDropzoneSingleComponent&#45;&gt;SACBootstrap4UploadModule</title>
<path fill="none" stroke="black" d="M2224,-233.62C2224,-249.99 2224,-271.59 2224,-271.59 2224,-271.59 1608,-271.59 1608,-271.59"/>
<polygon fill="black" stroke="black" points="1608,-268.09 1598,-271.59 1608,-275.09 1608,-268.09"/>
</g>
<!-- SacUploadComponent -->
<g id="node3" class="node">
<title>SacUploadComponent</title>
<polygon fill="#ffffb3" stroke="black" points="1382.26,-233.59 1239.74,-233.59 1239.74,-197.59 1382.26,-197.59 1382.26,-233.59"/>
<text text-anchor="middle" x="1311" y="-211.39" font-family="Times,serif" font-size="14.00">SacUploadComponent</text>
</g>
<!-- SacUploadComponent&#45;&gt;SACBootstrap4UploadModule -->
<g id="edge7" class="edge">
<title>SacUploadComponent&#45;&gt;SACBootstrap4UploadModule</title>
<path fill="none" stroke="black" d="M1359.12,-233.62C1359.12,-249.99 1359.12,-271.59 1359.12,-271.59 1359.12,-271.59 1398.24,-271.59 1398.24,-271.59"/>
<polygon fill="black" stroke="black" points="1398.24,-275.09 1408.24,-271.59 1398.24,-268.09 1398.24,-275.09"/>
</g>
<!-- SacUploadMultipleComponent -->
<g id="node4" class="node">
<title>SacUploadMultipleComponent</title>
<polygon fill="#ffffb3" stroke="black" points="1221.48,-233.59 1030.52,-233.59 1030.52,-197.59 1221.48,-197.59 1221.48,-233.59"/>
<text text-anchor="middle" x="1126" y="-211.39" font-family="Times,serif" font-size="14.00">SacUploadMultipleComponent</text>
</g>
<!-- SacUploadMultipleComponent&#45;&gt;SACBootstrap4UploadModule -->
<g id="edge8" class="edge">
<title>SacUploadMultipleComponent&#45;&gt;SACBootstrap4UploadModule</title>
<path fill="none" stroke="black" d="M1172.62,-233.7C1172.62,-252.93 1172.62,-280.59 1172.62,-280.59 1172.62,-280.59 1397.89,-280.59 1397.89,-280.59"/>
<polygon fill="black" stroke="black" points="1397.89,-284.09 1407.89,-280.59 1397.89,-277.09 1397.89,-284.09"/>
</g>
<!-- SacDropzoneMultipleComponent  -->
<g id="node11" class="node">
<title>SacDropzoneMultipleComponent </title>
<polygon fill="#fb8072" stroke="black" points="1922.46,-363.59 1713.54,-363.59 1713.54,-327.59 1922.46,-327.59 1922.46,-363.59"/>
<text text-anchor="middle" x="1818" y="-341.39" font-family="Times,serif" font-size="14.00">SacDropzoneMultipleComponent </text>
</g>
<!-- SACBootstrap4UploadModule&#45;&gt;SacDropzoneMultipleComponent  -->
<g id="edge10" class="edge">
<title>SACBootstrap4UploadModule&#45;&gt;SacDropzoneMultipleComponent </title>
<path fill="none" stroke="black" stroke-dasharray="5,2" d="M1597.75,-289.59C1661.94,-289.59 1735.13,-289.59 1735.13,-289.59 1735.13,-289.59 1735.13,-317.56 1735.13,-317.56"/>
<polygon fill="black" stroke="black" points="1731.63,-317.56 1735.13,-327.56 1738.63,-317.56 1731.63,-317.56"/>
</g>
<!-- SacDropzoneSingleComponent  -->
<g id="node12" class="node">
<title>SacDropzoneSingleComponent </title>
<polygon fill="#fb8072" stroke="black" points="1696.02,-363.59 1499.98,-363.59 1499.98,-327.59 1696.02,-327.59 1696.02,-363.59"/>
<text text-anchor="middle" x="1598" y="-341.39" font-family="Times,serif" font-size="14.00">SacDropzoneSingleComponent </text>
</g>
<!-- SACBootstrap4UploadModule&#45;&gt;SacDropzoneSingleComponent  -->
<g id="edge11" class="edge">
<title>SACBootstrap4UploadModule&#45;&gt;SacDropzoneSingleComponent </title>
<path fill="none" stroke="black" stroke-dasharray="5,2" d="M1548.85,-298.7C1548.85,-298.7 1548.85,-317.58 1548.85,-317.58"/>
<polygon fill="black" stroke="black" points="1545.35,-317.58 1548.85,-327.58 1552.35,-317.58 1545.35,-317.58"/>
</g>
<!-- SacUploadComponent  -->
<g id="node13" class="node">
<title>SacUploadComponent </title>
<polygon fill="#fb8072" stroke="black" points="1482.26,-363.59 1335.74,-363.59 1335.74,-327.59 1482.26,-327.59 1482.26,-363.59"/>
<text text-anchor="middle" x="1409" y="-341.39" font-family="Times,serif" font-size="14.00">SacUploadComponent </text>
</g>
<!-- SACBootstrap4UploadModule&#45;&gt;SacUploadComponent  -->
<g id="edge12" class="edge">
<title>SACBootstrap4UploadModule&#45;&gt;SacUploadComponent </title>
<path fill="none" stroke="black" stroke-dasharray="5,2" d="M1445.21,-298.7C1445.21,-298.7 1445.21,-317.58 1445.21,-317.58"/>
<polygon fill="black" stroke="black" points="1441.71,-317.58 1445.21,-327.58 1448.71,-317.58 1441.71,-317.58"/>
</g>
<!-- SacUploadMultipleComponent  -->
<g id="node14" class="node">
<title>SacUploadMultipleComponent </title>
<polygon fill="#fb8072" stroke="black" points="1318.48,-363.59 1123.52,-363.59 1123.52,-327.59 1318.48,-327.59 1318.48,-363.59"/>
<text text-anchor="middle" x="1221" y="-341.39" font-family="Times,serif" font-size="14.00">SacUploadMultipleComponent </text>
</g>
<!-- SACBootstrap4UploadModule&#45;&gt;SacUploadMultipleComponent  -->
<g id="edge13" class="edge">
<title>SACBootstrap4UploadModule&#45;&gt;SacUploadMultipleComponent </title>
<path fill="none" stroke="black" stroke-dasharray="5,2" d="M1407.97,-289.59C1346.9,-289.59 1278.93,-289.59 1278.93,-289.59 1278.93,-289.59 1278.93,-317.56 1278.93,-317.56"/>
<polygon fill="black" stroke="black" points="1275.43,-317.56 1278.93,-327.56 1282.43,-317.56 1275.43,-317.56"/>
</g>
<!-- {
 &#160;&#160;&#160;provide: NG_VALUE_ACCESSOR, multi: true, useExisting: SacDropzoneMultipleComponent,
} -->
<g id="node6" class="node">
<title>{
 &#160;&#160;&#160;provide: NG_VALUE_ACCESSOR, multi: true, useExisting: SacDropzoneMultipleComponent,
}</title>
<ellipse fill="#fdb462" stroke="black" cx="1352" cy="-127.3" rx="404.48" ry="41.09"/>
<text text-anchor="middle" x="1352" y="-139.9" font-family="Times,serif" font-size="14.00">{</text>
<text text-anchor="middle" x="1352" y="-123.1" font-family="Times,serif" font-size="14.00"> &#160;&#160;&#160;provide: NG_VALUE_ACCESSOR, multi: true, useExisting: SacDropzoneMultipleComponent,</text>
<text text-anchor="middle" x="1352" y="-106.3" font-family="Times,serif" font-size="14.00">}</text>
</g>
<!-- {
 &#160;&#160;&#160;provide: NG_VALUE_ACCESSOR, multi: true, useExisting: SacDropzoneMultipleComponent,
}&#45;&gt;SacDropzoneMultipleComponent -->
<g id="edge2" class="edge">
<title>{
 &#160;&#160;&#160;provide: NG_VALUE_ACCESSOR, multi: true, useExisting: SacDropzoneMultipleComponent,
}&#45;&gt;SacDropzoneMultipleComponent</title>
<path fill="none" stroke="black" d="M1503,-165.77C1503,-165.77 1503,-187.33 1503,-187.33"/>
<polygon fill="black" stroke="black" points="1499.5,-187.33 1503,-197.33 1506.5,-187.33 1499.5,-187.33"/>
</g>
<!-- {
 &#160;&#160;&#160;provide: NG_VALIDATORS, multi: true, useExisting: forwardRef(() =&gt; SacDropzoneMultipleComponent),
} -->
<g id="node7" class="node">
<title>{
 &#160;&#160;&#160;provide: NG_VALIDATORS, multi: true, useExisting: forwardRef(() =&gt; SacDropzoneMultipleComponent),
}</title>
<ellipse fill="#fdb462" stroke="black" cx="477" cy="-127.3" rx="452.99" ry="41.09"/>
<text text-anchor="middle" x="477" y="-139.9" font-family="Times,serif" font-size="14.00">{</text>
<text text-anchor="middle" x="477" y="-123.1" font-family="Times,serif" font-size="14.00"> &#160;&#160;&#160;provide: NG_VALIDATORS, multi: true, useExisting: forwardRef(() =&gt; SacDropzoneMultipleComponent),</text>
<text text-anchor="middle" x="477" y="-106.3" font-family="Times,serif" font-size="14.00">}</text>
</g>
<!-- {
 &#160;&#160;&#160;provide: NG_VALIDATORS, multi: true, useExisting: forwardRef(() =&gt; SacDropzoneMultipleComponent),
}&#45;&gt;SacDropzoneMultipleComponent -->
<g id="edge3" class="edge">
<title>{
 &#160;&#160;&#160;provide: NG_VALIDATORS, multi: true, useExisting: forwardRef(() =&gt; SacDropzoneMultipleComponent),
}&#45;&gt;SacDropzoneMultipleComponent</title>
<path fill="none" stroke="black" d="M477,-168.7C477,-203.84 477,-248.59 477,-248.59 477,-248.59 1404.4,-248.59 1404.4,-248.59 1404.4,-248.59 1404.4,-243.63 1404.4,-243.63"/>
<polygon fill="black" stroke="black" points="1407.9,-243.63 1404.4,-233.63 1400.9,-243.63 1407.9,-243.63"/>
</g>
<!-- {
 &#160;&#160;&#160;provide: NG_VALUE_ACCESSOR, multi: true, useExisting: SacDropzoneSingleComponent,
} -->
<g id="node8" class="node">
<title>{
 &#160;&#160;&#160;provide: NG_VALUE_ACCESSOR, multi: true, useExisting: SacDropzoneSingleComponent,
}</title>
<ellipse fill="#fdb462" stroke="black" cx="3082" cy="-127.3" rx="395.88" ry="41.09"/>
<text text-anchor="middle" x="3082" y="-139.9" font-family="Times,serif" font-size="14.00">{</text>
<text text-anchor="middle" x="3082" y="-123.1" font-family="Times,serif" font-size="14.00"> &#160;&#160;&#160;provide: NG_VALUE_ACCESSOR, multi: true, useExisting: SacDropzoneSingleComponent,</text>
<text text-anchor="middle" x="3082" y="-106.3" font-family="Times,serif" font-size="14.00">}</text>
</g>
<!-- {
 &#160;&#160;&#160;provide: NG_VALUE_ACCESSOR, multi: true, useExisting: SacDropzoneSingleComponent,
}&#45;&gt;SacDropzoneSingleComponent -->
<g id="edge5" class="edge">
<title>{
 &#160;&#160;&#160;provide: NG_VALUE_ACCESSOR, multi: true, useExisting: SacDropzoneSingleComponent,
}&#45;&gt;SacDropzoneSingleComponent</title>
<path fill="none" stroke="black" d="M3082,-168.6C3082,-191.58 3082,-215.59 3082,-215.59 3082,-215.59 2330.34,-215.59 2330.34,-215.59"/>
<polygon fill="black" stroke="black" points="2330.34,-212.09 2320.34,-215.59 2330.34,-219.09 2330.34,-212.09"/>
</g>
<!-- {
 &#160;&#160;&#160;provide: NG_VALIDATORS, multi: true, useExisting: forwardRef(() =&gt; SacDropzoneSingleComponent),
} -->
<g id="node9" class="node">
<title>{
 &#160;&#160;&#160;provide: NG_VALIDATORS, multi: true, useExisting: forwardRef(() =&gt; SacDropzoneSingleComponent),
}</title>
<ellipse fill="#fdb462" stroke="black" cx="2224" cy="-127.3" rx="444.4" ry="41.09"/>
<text text-anchor="middle" x="2224" y="-139.9" font-family="Times,serif" font-size="14.00">{</text>
<text text-anchor="middle" x="2224" y="-123.1" font-family="Times,serif" font-size="14.00"> &#160;&#160;&#160;provide: NG_VALIDATORS, multi: true, useExisting: forwardRef(() =&gt; SacDropzoneSingleComponent),</text>
<text text-anchor="middle" x="2224" y="-106.3" font-family="Times,serif" font-size="14.00">}</text>
</g>
<!-- {
 &#160;&#160;&#160;provide: NG_VALIDATORS, multi: true, useExisting: forwardRef(() =&gt; SacDropzoneSingleComponent),
}&#45;&gt;SacDropzoneSingleComponent -->
<g id="edge6" class="edge">
<title>{
 &#160;&#160;&#160;provide: NG_VALIDATORS, multi: true, useExisting: forwardRef(() =&gt; SacDropzoneSingleComponent),
}&#45;&gt;SacDropzoneSingleComponent</title>
<path fill="none" stroke="black" d="M2224,-168.6C2224,-168.6 2224,-187.26 2224,-187.26"/>
<polygon fill="black" stroke="black" points="2220.5,-187.26 2224,-197.26 2227.5,-187.26 2220.5,-187.26"/>
</g>
<!-- SACBootstrap4LayoutModule -->
<g id="node10" class="node">
<title>SACBootstrap4LayoutModule</title>
<polygon fill="#8dd3c7" stroke="black" points="3689.87,-233.59 3686.87,-237.59 3665.87,-237.59 3662.87,-233.59 3502.13,-233.59 3502.13,-197.59 3689.87,-197.59 3689.87,-233.59"/>
<text text-anchor="middle" x="3596" y="-211.39" font-family="Times,serif" font-size="14.00">SACBootstrap4LayoutModule</text>
</g>
<!-- SACBootstrap4LayoutModule&#45;&gt;SACBootstrap4UploadModule -->
<g id="edge9" class="edge">
<title>SACBootstrap4LayoutModule&#45;&gt;SACBootstrap4UploadModule</title>
<path fill="none" stroke="black" d="M3596,-233.7C3596,-252.93 3596,-280.59 3596,-280.59 3596,-280.59 1608.03,-280.59 1608.03,-280.59"/>
<polygon fill="black" stroke="black" points="1608.03,-277.09 1598.03,-280.59 1608.03,-284.09 1608.03,-277.09"/>
</g>
</g>
</svg>
