<?xml version="1.0" encoding="UTF-8" standalone="no"?>
<!DOCTYPE svg PUBLIC "-//W3C//DTD SVG 1.1//EN"
 "http://www.w3.org/Graphics/SVG/1.1/DTD/svg11.dtd">
<!-- Generated by graphviz version 2.47.0 (20210316.0004)
 -->
<!-- Title: dependencies Pages: 1 -->
<svg width="4097pt" height="396pt"
 viewBox="0.00 0.00 4097.00 395.59" xmlns="http://www.w3.org/2000/svg" xmlns:xlink="http://www.w3.org/1999/xlink">
<g id="graph0" class="graph" transform="scale(1 1) rotate(0) translate(4 391.59)">
<title>dependencies</title>
<polygon fill="white" stroke="transparent" points="-4,4 -4,-391.59 4093,-391.59 4093,4 -4,4"/>
<text text-anchor="start" x="2023.51" y="-42.4" font-family="Times-12" font-weight="bold" font-size="14.00">Legend</text>
<polygon fill="#ffffb3" stroke="transparent" points="1810.5,-10 1810.5,-30 1830.5,-30 1830.5,-10 1810.5,-10"/>
<text text-anchor="start" x="1834.13" y="-15.4" font-family="Times-12" font-size="14.00"> &#160;Declarations</text>
<polygon fill="#8dd3c7" stroke="transparent" points="1923.5,-10 1923.5,-30 1943.5,-30 1943.5,-10 1923.5,-10"/>
<text text-anchor="start" x="1947.23" y="-15.4" font-family="Times-12" font-size="14.00"> &#160;Module</text>
<polygon fill="#80b1d3" stroke="transparent" points="2009.5,-10 2009.5,-30 2029.5,-30 2029.5,-10 2009.5,-10"/>
<text text-anchor="start" x="2033.28" y="-15.4" font-family="Times-12" font-size="14.00"> &#160;Bootstrap</text>
<polygon fill="#fdb462" stroke="transparent" points="2106.5,-10 2106.5,-30 2126.5,-30 2126.5,-10 2106.5,-10"/>
<text text-anchor="start" x="2130.17" y="-15.4" font-family="Times-12" font-size="14.00"> &#160;Providers</text>
<polygon fill="#fb8072" stroke="transparent" points="2202.5,-10 2202.5,-30 2222.5,-30 2222.5,-10 2202.5,-10"/>
<text text-anchor="start" x="2226.23" y="-15.4" font-family="Times-12" font-size="14.00"> &#160;Exports</text>
<g id="clust1" class="cluster">
<title>cluster_SACBootstrap4UploadModule</title>
<polygon fill="none" stroke="black" stroke-dasharray="1,5" points="8,-70 8,-379.59 4081,-379.59 4081,-70 8,-70"/>
</g>
<g id="clust4" class="cluster">
<title>cluster_SACBootstrap4UploadModule_SacDropzoneSingleComponent_providers</title>
<polygon fill="none" stroke="black" points="2359,-78 2359,-241.59 4073,-241.59 4073,-78 2359,-78"/>
</g>
<g id="clust3" class="cluster">
<title>cluster_SACBootstrap4UploadModule_SacDropzoneMultipleComponent_providers</title>
<polygon fill="none" stroke="black" points="603,-78 603,-241.59 2351,-241.59 2351,-78 603,-78"/>
</g>
<g id="clust7" class="cluster">
<title>cluster_SACBootstrap4UploadModule_imports</title>
<polygon fill="none" stroke="black" points="391,-189.59 391,-241.59 595,-241.59 595,-189.59 391,-189.59"/>
</g>
<g id="clust2" class="cluster">
<title>cluster_SACBootstrap4UploadModule_declarations</title>
<polygon fill="none" stroke="black" points="16,-189.59 16,-241.59 383,-241.59 383,-189.59 16,-189.59"/>
</g>
<g id="clust8" class="cluster">
<title>cluster_SACBootstrap4UploadModule_exports</title>
<polygon fill="none" stroke="black" points="108,-319.59 108,-371.59 922,-371.59 922,-319.59 108,-319.59"/>
</g>
<!-- SacDropzoneMultipleComponent -->
<g id="node1" class="node">
<title>SacDropzoneMultipleComponent</title>
<polygon fill="#ffffb3" stroke="black" points="1166.46,-233.59 961.54,-233.59 961.54,-197.59 1166.46,-197.59 1166.46,-233.59"/>
<text text-anchor="middle" x="1064" y="-211.39" font-family="Times,serif" font-size="14.00">SacDropzoneMultipleComponent</text>
</g>
<!-- SACBootstrap4UploadModule -->
<g id="node5" class="node">
<title>SACBootstrap4UploadModule</title>
<polygon fill="#8dd3c7" stroke="black" points="587.93,-298.59 584.93,-302.59 563.93,-302.59 560.93,-298.59 398.07,-298.59 398.07,-262.59 587.93,-262.59 587.93,-298.59"/>
<text text-anchor="middle" x="493" y="-276.39" font-family="Times,serif" font-size="14.00">SACBootstrap4UploadModule</text>
</g>
<!-- SacDropzoneMultipleComponent&#45;&gt;SACBootstrap4UploadModule -->
<g id="edge1" class="edge">
<title>SacDropzoneMultipleComponent&#45;&gt;SACBootstrap4UploadModule</title>
<path fill="none" stroke="black" d="M1064,-233.62C1064,-249.99 1064,-271.59 1064,-271.59 1064,-271.59 597.93,-271.59 597.93,-271.59"/>
<polygon fill="black" stroke="black" points="597.93,-268.09 587.93,-271.59 597.93,-275.09 597.93,-268.09"/>
</g>
<!-- SacDropzoneSingleComponent -->
<g id="node2" class="node">
<title>SacDropzoneSingleComponent</title>
<polygon fill="#ffffb3" stroke="black" points="2907.02,-233.59 2714.98,-233.59 2714.98,-197.59 2907.02,-197.59 2907.02,-233.59"/>
<text text-anchor="middle" x="2811" y="-211.39" font-family="Times,serif" font-size="14.00">SacDropzoneSingleComponent</text>
</g>
<!-- SacDropzoneSingleComponent&#45;&gt;SACBootstrap4UploadModule -->
<g id="edge4" class="edge">
<title>SacDropzoneSingleComponent&#45;&gt;SACBootstrap4UploadModule</title>
<path fill="none" stroke="black" d="M2811,-233.7C2811,-252.93 2811,-280.59 2811,-280.59 2811,-280.59 597.83,-280.59 597.83,-280.59"/>
<polygon fill="black" stroke="black" points="597.83,-277.09 587.83,-280.59 597.83,-284.09 597.83,-277.09"/>
</g>
<!-- SacUploadComponent -->
<g id="node3" class="node">
<title>SacUploadComponent</title>
<polygon fill="#ffffb3" stroke="black" points="375.26,-233.59 232.74,-233.59 232.74,-197.59 375.26,-197.59 375.26,-233.59"/>
<text text-anchor="middle" x="304" y="-211.39" font-family="Times,serif" font-size="14.00">SacUploadComponent</text>
</g>
<!-- SacUploadComponent&#45;&gt;SACBootstrap4UploadModule -->
<g id="edge7" class="edge">
<title>SacUploadComponent&#45;&gt;SACBootstrap4UploadModule</title>
<path fill="none" stroke="black" d="M351.62,-233.62C351.62,-249.99 351.62,-271.59 351.62,-271.59 351.62,-271.59 387.92,-271.59 387.92,-271.59"/>
<polygon fill="black" stroke="black" points="387.92,-275.09 397.92,-271.59 387.92,-268.09 387.92,-275.09"/>
</g>
<!-- SacUploadMultipleComponent -->
<g id="node4" class="node">
<title>SacUploadMultipleComponent</title>
<polygon fill="#ffffb3" stroke="black" points="214.48,-233.59 23.52,-233.59 23.52,-197.59 214.48,-197.59 214.48,-233.59"/>
<text text-anchor="middle" x="119" y="-211.39" font-family="Times,serif" font-size="14.00">SacUploadMultipleComponent</text>
</g>
<!-- SacUploadMultipleComponent&#45;&gt;SACBootstrap4UploadModule -->
<g id="edge8" class="edge">
<title>SacUploadMultipleComponent&#45;&gt;SACBootstrap4UploadModule</title>
<path fill="none" stroke="black" d="M165.12,-233.7C165.12,-252.93 165.12,-280.59 165.12,-280.59 165.12,-280.59 388.16,-280.59 388.16,-280.59"/>
<polygon fill="black" stroke="black" points="388.17,-284.09 398.16,-280.59 388.16,-277.09 388.17,-284.09"/>
</g>
<!-- SacDropzoneMultipleComponent  -->
<g id="node11" class="node">
<title>SacDropzoneMultipleComponent </title>
<polygon fill="#fb8072" stroke="black" points="914.46,-363.59 705.54,-363.59 705.54,-327.59 914.46,-327.59 914.46,-363.59"/>
<text text-anchor="middle" x="810" y="-341.39" font-family="Times,serif" font-size="14.00">SacDropzoneMultipleComponent </text>
</g>
<!-- SACBootstrap4UploadModule&#45;&gt;SacDropzoneMultipleComponent  -->
<g id="edge10" class="edge">
<title>SACBootstrap4UploadModule&#45;&gt;SacDropzoneMultipleComponent </title>
<path fill="none" stroke="black" stroke-dasharray="5,2" d="M588.11,-289.59C681.48,-289.59 810,-289.59 810,-289.59 810,-289.59 810,-317.56 810,-317.56"/>
<polygon fill="black" stroke="black" points="806.5,-317.56 810,-327.56 813.5,-317.56 806.5,-317.56"/>
</g>
<!-- SacDropzoneSingleComponent  -->
<g id="node12" class="node">
<title>SacDropzoneSingleComponent </title>
<polygon fill="#fb8072" stroke="black" points="688.02,-363.59 491.98,-363.59 491.98,-327.59 688.02,-327.59 688.02,-363.59"/>
<text text-anchor="middle" x="590" y="-341.39" font-family="Times,serif" font-size="14.00">SacDropzoneSingleComponent </text>
</g>
<!-- SACBootstrap4UploadModule&#45;&gt;SacDropzoneSingleComponent  -->
<g id="edge11" class="edge">
<title>SACBootstrap4UploadModule&#45;&gt;SacDropzoneSingleComponent </title>
<path fill="none" stroke="black" stroke-dasharray="5,2" d="M539.85,-298.7C539.85,-298.7 539.85,-317.58 539.85,-317.58"/>
<polygon fill="black" stroke="black" points="536.35,-317.58 539.85,-327.58 543.35,-317.58 536.35,-317.58"/>
</g>
<!-- SacUploadComponent  -->
<g id="node13" class="node">
<title>SacUploadComponent </title>
<polygon fill="#fb8072" stroke="black" points="474.26,-363.59 327.74,-363.59 327.74,-327.59 474.26,-327.59 474.26,-363.59"/>
<text text-anchor="middle" x="401" y="-341.39" font-family="Times,serif" font-size="14.00">SacUploadComponent </text>
</g>
<!-- SACBootstrap4UploadModule&#45;&gt;SacUploadComponent  -->
<g id="edge12" class="edge">
<title>SACBootstrap4UploadModule&#45;&gt;SacUploadComponent </title>
<path fill="none" stroke="black" stroke-dasharray="5,2" d="M436.21,-298.7C436.21,-298.7 436.21,-317.58 436.21,-317.58"/>
<polygon fill="black" stroke="black" points="432.71,-317.58 436.21,-327.58 439.71,-317.58 432.71,-317.58"/>
</g>
<!-- SacUploadMultipleComponent  -->
<g id="node14" class="node">
<title>SacUploadMultipleComponent </title>
<polygon fill="#fb8072" stroke="black" points="310.48,-363.59 115.52,-363.59 115.52,-327.59 310.48,-327.59 310.48,-363.59"/>
<text text-anchor="middle" x="213" y="-341.39" font-family="Times,serif" font-size="14.00">SacUploadMultipleComponent </text>
</g>
<!-- SACBootstrap4UploadModule&#45;&gt;SacUploadMultipleComponent  -->
<g id="edge13" class="edge">
<title>SACBootstrap4UploadModule&#45;&gt;SacUploadMultipleComponent </title>
<path fill="none" stroke="black" stroke-dasharray="5,2" d="M398.07,-289.59C337.93,-289.59 271.43,-289.59 271.43,-289.59 271.43,-289.59 271.43,-317.56 271.43,-317.56"/>
<polygon fill="black" stroke="black" points="267.93,-317.56 271.43,-327.56 274.93,-317.56 267.93,-317.56"/>
</g>
<!-- {
 &#160;&#160;&#160;provide: NG_VALUE_ACCESSOR, multi: true, useExisting: SacDropzoneMultipleComponent,
} -->
<g id="node6" class="node">
<title>{
 &#160;&#160;&#160;provide: NG_VALUE_ACCESSOR, multi: true, useExisting: SacDropzoneMultipleComponent,
}</title>
<ellipse fill="#fdb462" stroke="black" cx="1939" cy="-127.3" rx="404.48" ry="41.09"/>
<text text-anchor="middle" x="1939" y="-139.9" font-family="Times,serif" font-size="14.00">{</text>
<text text-anchor="middle" x="1939" y="-123.1" font-family="Times,serif" font-size="14.00"> &#160;&#160;&#160;provide: NG_VALUE_ACCESSOR, multi: true, useExisting: SacDropzoneMultipleComponent,</text>
<text text-anchor="middle" x="1939" y="-106.3" font-family="Times,serif" font-size="14.00">}</text>
</g>
<!-- {
 &#160;&#160;&#160;provide: NG_VALUE_ACCESSOR, multi: true, useExisting: SacDropzoneMultipleComponent,
}&#45;&gt;SacDropzoneMultipleComponent -->
<g id="edge2" class="edge">
<title>{
 &#160;&#160;&#160;provide: NG_VALUE_ACCESSOR, multi: true, useExisting: SacDropzoneMultipleComponent,
}&#45;&gt;SacDropzoneMultipleComponent</title>
<path fill="none" stroke="black" d="M1939,-168.6C1939,-191.58 1939,-215.59 1939,-215.59 1939,-215.59 1176.52,-215.59 1176.52,-215.59"/>
<polygon fill="black" stroke="black" points="1176.52,-212.09 1166.52,-215.59 1176.52,-219.09 1176.52,-212.09"/>
</g>
<!-- {
 &#160;&#160;&#160;provide: NG_VALIDATORS, multi: true, useExisting: forwardRef(() =&gt; SacDropzoneMultipleComponent),
} -->
<g id="node7" class="node">
<title>{
 &#160;&#160;&#160;provide: NG_VALIDATORS, multi: true, useExisting: forwardRef(() =&gt; SacDropzoneMultipleComponent),
}</title>
<ellipse fill="#fdb462" stroke="black" cx="1064" cy="-127.3" rx="452.99" ry="41.09"/>
<text text-anchor="middle" x="1064" y="-139.9" font-family="Times,serif" font-size="14.00">{</text>
<text text-anchor="middle" x="1064" y="-123.1" font-family="Times,serif" font-size="14.00"> &#160;&#160;&#160;provide: NG_VALIDATORS, multi: true, useExisting: forwardRef(() =&gt; SacDropzoneMultipleComponent),</text>
<text text-anchor="middle" x="1064" y="-106.3" font-family="Times,serif" font-size="14.00">}</text>
</g>
<!-- {
 &#160;&#160;&#160;provide: NG_VALIDATORS, multi: true, useExisting: forwardRef(() =&gt; SacDropzoneMultipleComponent),
}&#45;&gt;SacDropzoneMultipleComponent -->
<g id="edge3" class="edge">
<title>{
 &#160;&#160;&#160;provide: NG_VALIDATORS, multi: true, useExisting: forwardRef(() =&gt; SacDropzoneMultipleComponent),
}&#45;&gt;SacDropzoneMultipleComponent</title>
<path fill="none" stroke="black" d="M1064,-168.6C1064,-168.6 1064,-187.26 1064,-187.26"/>
<polygon fill="black" stroke="black" points="1060.5,-187.26 1064,-197.26 1067.5,-187.26 1060.5,-187.26"/>
</g>
<!-- {
 &#160;&#160;&#160;provide: NG_VALUE_ACCESSOR, multi: true, useExisting: SacDropzoneSingleComponent,
} -->
<g id="node8" class="node">
<title>{
 &#160;&#160;&#160;provide: NG_VALUE_ACCESSOR, multi: true, useExisting: SacDropzoneSingleComponent,
}</title>
<ellipse fill="#fdb462" stroke="black" cx="3669" cy="-127.3" rx="395.88" ry="41.09"/>
<text text-anchor="middle" x="3669" y="-139.9" font-family="Times,serif" font-size="14.00">{</text>
<text text-anchor="middle" x="3669" y="-123.1" font-family="Times,serif" font-size="14.00"> &#160;&#160;&#160;provide: NG_VALUE_ACCESSOR, multi: true, useExisting: SacDropzoneSingleComponent,</text>
<text text-anchor="middle" x="3669" y="-106.3" font-family="Times,serif" font-size="14.00">}</text>
</g>
<!-- {
 &#160;&#160;&#160;provide: NG_VALUE_ACCESSOR, multi: true, useExisting: SacDropzoneSingleComponent,
}&#45;&gt;SacDropzoneSingleComponent -->
<g id="edge5" class="edge">
<title>{
 &#160;&#160;&#160;provide: NG_VALUE_ACCESSOR, multi: true, useExisting: SacDropzoneSingleComponent,
}&#45;&gt;SacDropzoneSingleComponent</title>
<path fill="none" stroke="black" d="M3669,-168.6C3669,-191.58 3669,-215.59 3669,-215.59 3669,-215.59 2917.34,-215.59 2917.34,-215.59"/>
<polygon fill="black" stroke="black" points="2917.34,-212.09 2907.34,-215.59 2917.34,-219.09 2917.34,-212.09"/>
</g>
<!-- {
 &#160;&#160;&#160;provide: NG_VALIDATORS, multi: true, useExisting: forwardRef(() =&gt; SacDropzoneSingleComponent),
} -->
<g id="node9" class="node">
<title>{
 &#160;&#160;&#160;provide: NG_VALIDATORS, multi: true, useExisting: forwardRef(() =&gt; SacDropzoneSingleComponent),
}</title>
<ellipse fill="#fdb462" stroke="black" cx="2811" cy="-127.3" rx="444.4" ry="41.09"/>
<text text-anchor="middle" x="2811" y="-139.9" font-family="Times,serif" font-size="14.00">{</text>
<text text-anchor="middle" x="2811" y="-123.1" font-family="Times,serif" font-size="14.00"> &#160;&#160;&#160;provide: NG_VALIDATORS, multi: true, useExisting: forwardRef(() =&gt; SacDropzoneSingleComponent),</text>
<text text-anchor="middle" x="2811" y="-106.3" font-family="Times,serif" font-size="14.00">}</text>
</g>
<!-- {
 &#160;&#160;&#160;provide: NG_VALIDATORS, multi: true, useExisting: forwardRef(() =&gt; SacDropzoneSingleComponent),
}&#45;&gt;SacDropzoneSingleComponent -->
<g id="edge6" class="edge">
<title>{
 &#160;&#160;&#160;provide: NG_VALIDATORS, multi: true, useExisting: forwardRef(() =&gt; SacDropzoneSingleComponent),
}&#45;&gt;SacDropzoneSingleComponent</title>
<path fill="none" stroke="black" d="M2811,-168.6C2811,-168.6 2811,-187.26 2811,-187.26"/>
<polygon fill="black" stroke="black" points="2807.5,-187.26 2811,-197.26 2814.5,-187.26 2807.5,-187.26"/>
</g>
<!-- SACBootstrap4LayoutModule -->
<g id="node10" class="node">
<title>SACBootstrap4LayoutModule</title>
<polygon fill="#8dd3c7" stroke="black" points="586.87,-233.59 583.87,-237.59 562.87,-237.59 559.87,-233.59 399.13,-233.59 399.13,-197.59 586.87,-197.59 586.87,-233.59"/>
<text text-anchor="middle" x="493" y="-211.39" font-family="Times,serif" font-size="14.00">SACBootstrap4LayoutModule</text>
</g>
<!-- SACBootstrap4LayoutModule&#45;&gt;SACBootstrap4UploadModule -->
<g id="edge9" class="edge">
<title>SACBootstrap4LayoutModule&#45;&gt;SACBootstrap4UploadModule</title>
<path fill="none" stroke="black" d="M493,-233.7C493,-233.7 493,-252.58 493,-252.58"/>
<polygon fill="black" stroke="black" points="489.5,-252.58 493,-262.58 496.5,-252.58 489.5,-252.58"/>
</g>
</g>
</svg>
