<?xml version="1.0" encoding="UTF-8" standalone="no"?>
<!DOCTYPE svg PUBLIC "-//W3C//DTD SVG 1.1//EN"
 "http://www.w3.org/Graphics/SVG/1.1/DTD/svg11.dtd">
<!-- Generated by graphviz version 2.47.0 (20210316.0004)
 -->
<!-- Title: dependencies Pages: 1 -->
<svg width="3722pt" height="396pt"
 viewBox="0.00 0.00 3722.00 395.59" xmlns="http://www.w3.org/2000/svg" xmlns:xlink="http://www.w3.org/1999/xlink">
<g id="graph0" class="graph" transform="scale(1 1) rotate(0) translate(4 391.59)">
<title>dependencies</title>
<polygon fill="white" stroke="transparent" points="-4,4 -4,-391.59 3718,-391.59 3718,4 -4,4"/>
<text text-anchor="start" x="1836.01" y="-42.4" font-family="Times-12" font-weight="bold" font-size="14.00">Legend</text>
<polygon fill="#ffffb3" stroke="transparent" points="1623,-10 1623,-30 1643,-30 1643,-10 1623,-10"/>
<text text-anchor="start" x="1646.63" y="-15.4" font-family="Times-12" font-size="14.00"> &#160;Declarations</text>
<polygon fill="#8dd3c7" stroke="transparent" points="1736,-10 1736,-30 1756,-30 1756,-10 1736,-10"/>
<text text-anchor="start" x="1759.73" y="-15.4" font-family="Times-12" font-size="14.00"> &#160;Module</text>
<polygon fill="#80b1d3" stroke="transparent" points="1822,-10 1822,-30 1842,-30 1842,-10 1822,-10"/>
<text text-anchor="start" x="1845.78" y="-15.4" font-family="Times-12" font-size="14.00"> &#160;Bootstrap</text>
<polygon fill="#fdb462" stroke="transparent" points="1919,-10 1919,-30 1939,-30 1939,-10 1919,-10"/>
<text text-anchor="start" x="1942.67" y="-15.4" font-family="Times-12" font-size="14.00"> &#160;Providers</text>
<polygon fill="#fb8072" stroke="transparent" points="2015,-10 2015,-30 2035,-30 2035,-10 2015,-10"/>
<text text-anchor="start" x="2038.73" y="-15.4" font-family="Times-12" font-size="14.00"> &#160;Exports</text>
<g id="clust1" class="cluster">
<title>cluster_SACBootstrap4UploadModule</title>
<polygon fill="none" stroke="black" stroke-dasharray="1,5" points="8,-70 8,-379.59 3706,-379.59 3706,-70 8,-70"/>
</g>
<g id="clust7" class="cluster">
<title>cluster_SACBootstrap4UploadModule_imports</title>
<polygon fill="none" stroke="black" points="3494,-189.59 3494,-241.59 3698,-241.59 3698,-189.59 3494,-189.59"/>
</g>
<g id="clust3" class="cluster">
<title>cluster_SACBootstrap4UploadModule_SacDropzoneMultipleComponent_providers</title>
<polygon fill="none" stroke="black" points="1738,-78 1738,-241.59 3486,-241.59 3486,-78 1738,-78"/>
</g>
<g id="clust2" class="cluster">
<title>cluster_SACBootstrap4UploadModule_declarations</title>
<polygon fill="none" stroke="black" points="1002,-189.59 1002,-241.59 1580,-241.59 1580,-189.59 1002,-189.59"/>
</g>
<g id="clust4" class="cluster">
<title>cluster_SACBootstrap4UploadModule_SacDropzoneSingleComponent_providers</title>
<polygon fill="none" stroke="black" points="16,-78 16,-176.59 1730,-176.59 1730,-78 16,-78"/>
</g>
<g id="clust8" class="cluster">
<title>cluster_SACBootstrap4UploadModule_exports</title>
<polygon fill="none" stroke="black" points="1089,-319.59 1089,-371.59 1903,-371.59 1903,-319.59 1089,-319.59"/>
</g>
<!-- SacDropzoneMultipleComponent -->
<g id="node1" class="node">
<title>SacDropzoneMultipleComponent</title>
<polygon fill="#ffffb3" stroke="black" points="2301.46,-233.59 2096.54,-233.59 2096.54,-197.59 2301.46,-197.59 2301.46,-233.59"/>
<text text-anchor="middle" x="2199" y="-211.39" font-family="Times,serif" font-size="14.00">SacDropzoneMultipleComponent</text>
</g>
<!-- SACBootstrap4UploadModule -->
<g id="node5" class="node">
<title>SACBootstrap4UploadModule</title>
<polygon fill="#8dd3c7" stroke="black" points="1570.93,-298.59 1567.93,-302.59 1546.93,-302.59 1543.93,-298.59 1381.07,-298.59 1381.07,-262.59 1570.93,-262.59 1570.93,-298.59"/>
<text text-anchor="middle" x="1476" y="-276.39" font-family="Times,serif" font-size="14.00">SACBootstrap4UploadModule</text>
</g>
<!-- SacDropzoneMultipleComponent&#45;&gt;SACBootstrap4UploadModule -->
<g id="edge1" class="edge">
<title>SacDropzoneMultipleComponent&#45;&gt;SACBootstrap4UploadModule</title>
<path fill="none" stroke="black" d="M2199,-233.62C2199,-249.99 2199,-271.59 2199,-271.59 2199,-271.59 1580.89,-271.59 1580.89,-271.59"/>
<polygon fill="black" stroke="black" points="1580.89,-268.09 1570.89,-271.59 1580.89,-275.09 1580.89,-268.09"/>
</g>
<!-- SacDropzoneSingleComponent -->
<g id="node2" class="node">
<title>SacDropzoneSingleComponent</title>
<polygon fill="#ffffb3" stroke="black" points="1572.02,-233.59 1379.98,-233.59 1379.98,-197.59 1572.02,-197.59 1572.02,-233.59"/>
<text text-anchor="middle" x="1476" y="-211.39" font-family="Times,serif" font-size="14.00">SacDropzoneSingleComponent</text>
</g>
<!-- SacDropzoneSingleComponent&#45;&gt;SACBootstrap4UploadModule -->
<g id="edge4" class="edge">
<title>SacDropzoneSingleComponent&#45;&gt;SACBootstrap4UploadModule</title>
<path fill="none" stroke="black" d="M1476,-233.7C1476,-233.7 1476,-252.58 1476,-252.58"/>
<polygon fill="black" stroke="black" points="1472.5,-252.58 1476,-262.58 1479.5,-252.58 1472.5,-252.58"/>
</g>
<!-- SacUploadComponent -->
<g id="node3" class="node">
<title>SacUploadComponent</title>
<polygon fill="#ffffb3" stroke="black" points="1361.26,-233.59 1218.74,-233.59 1218.74,-197.59 1361.26,-197.59 1361.26,-233.59"/>
<text text-anchor="middle" x="1290" y="-211.39" font-family="Times,serif" font-size="14.00">SacUploadComponent</text>
</g>
<!-- SacUploadComponent&#45;&gt;SACBootstrap4UploadModule -->
<g id="edge7" class="edge">
<title>SacUploadComponent&#45;&gt;SACBootstrap4UploadModule</title>
<path fill="none" stroke="black" d="M1335.12,-233.62C1335.12,-249.99 1335.12,-271.59 1335.12,-271.59 1335.12,-271.59 1371.25,-271.59 1371.25,-271.59"/>
<polygon fill="black" stroke="black" points="1371.25,-275.09 1381.25,-271.59 1371.25,-268.09 1371.25,-275.09"/>
</g>
<!-- SacUploadMultipleComponent -->
<g id="node4" class="node">
<title>SacUploadMultipleComponent</title>
<polygon fill="#ffffb3" stroke="black" points="1200.48,-233.59 1009.52,-233.59 1009.52,-197.59 1200.48,-197.59 1200.48,-233.59"/>
<text text-anchor="middle" x="1105" y="-211.39" font-family="Times,serif" font-size="14.00">SacUploadMultipleComponent</text>
</g>
<!-- SacUploadMultipleComponent&#45;&gt;SACBootstrap4UploadModule -->
<g id="edge8" class="edge">
<title>SacUploadMultipleComponent&#45;&gt;SACBootstrap4UploadModule</title>
<path fill="none" stroke="black" d="M1148.62,-233.7C1148.62,-252.93 1148.62,-280.59 1148.62,-280.59 1148.62,-280.59 1370.87,-280.59 1370.87,-280.59"/>
<polygon fill="black" stroke="black" points="1370.87,-284.09 1380.87,-280.59 1370.87,-277.09 1370.87,-284.09"/>
</g>
<!-- SacDropzoneMultipleComponent  -->
<g id="node11" class="node">
<title>SacDropzoneMultipleComponent </title>
<polygon fill="#fb8072" stroke="black" points="1895.46,-363.59 1686.54,-363.59 1686.54,-327.59 1895.46,-327.59 1895.46,-363.59"/>
<text text-anchor="middle" x="1791" y="-341.39" font-family="Times,serif" font-size="14.00">SacDropzoneMultipleComponent </text>
</g>
<!-- SACBootstrap4UploadModule&#45;&gt;SacDropzoneMultipleComponent  -->
<g id="edge10" class="edge">
<title>SACBootstrap4UploadModule&#45;&gt;SacDropzoneMultipleComponent </title>
<path fill="none" stroke="black" stroke-dasharray="5,2" d="M1570.81,-289.59C1633.51,-289.59 1704.23,-289.59 1704.23,-289.59 1704.23,-289.59 1704.23,-317.56 1704.23,-317.56"/>
<polygon fill="black" stroke="black" points="1700.73,-317.56 1704.23,-327.56 1707.73,-317.56 1700.73,-317.56"/>
</g>
<!-- SacDropzoneSingleComponent  -->
<g id="node12" class="node">
<title>SacDropzoneSingleComponent </title>
<polygon fill="#fb8072" stroke="black" points="1669.02,-363.59 1472.98,-363.59 1472.98,-327.59 1669.02,-327.59 1669.02,-363.59"/>
<text text-anchor="middle" x="1571" y="-341.39" font-family="Times,serif" font-size="14.00">SacDropzoneSingleComponent </text>
</g>
<!-- SACBootstrap4UploadModule&#45;&gt;SacDropzoneSingleComponent  -->
<g id="edge11" class="edge">
<title>SACBootstrap4UploadModule&#45;&gt;SacDropzoneSingleComponent </title>
<path fill="none" stroke="black" stroke-dasharray="5,2" d="M1521.85,-298.7C1521.85,-298.7 1521.85,-317.58 1521.85,-317.58"/>
<polygon fill="black" stroke="black" points="1518.35,-317.58 1521.85,-327.58 1525.35,-317.58 1518.35,-317.58"/>
</g>
<!-- SacUploadComponent  -->
<g id="node13" class="node">
<title>SacUploadComponent </title>
<polygon fill="#fb8072" stroke="black" points="1455.26,-363.59 1308.74,-363.59 1308.74,-327.59 1455.26,-327.59 1455.26,-363.59"/>
<text text-anchor="middle" x="1382" y="-341.39" font-family="Times,serif" font-size="14.00">SacUploadComponent </text>
</g>
<!-- SACBootstrap4UploadModule&#45;&gt;SacUploadComponent  -->
<g id="edge12" class="edge">
<title>SACBootstrap4UploadModule&#45;&gt;SacUploadComponent </title>
<path fill="none" stroke="black" stroke-dasharray="5,2" d="M1418.21,-298.7C1418.21,-298.7 1418.21,-317.58 1418.21,-317.58"/>
<polygon fill="black" stroke="black" points="1414.71,-317.58 1418.21,-327.58 1421.71,-317.58 1414.71,-317.58"/>
</g>
<!-- SacUploadMultipleComponent  -->
<g id="node14" class="node">
<title>SacUploadMultipleComponent </title>
<polygon fill="#fb8072" stroke="black" points="1291.48,-363.59 1096.52,-363.59 1096.52,-327.59 1291.48,-327.59 1291.48,-363.59"/>
<text text-anchor="middle" x="1194" y="-341.39" font-family="Times,serif" font-size="14.00">SacUploadMultipleComponent </text>
</g>
<!-- SACBootstrap4UploadModule&#45;&gt;SacUploadMultipleComponent  -->
<g id="edge13" class="edge">
<title>SACBootstrap4UploadModule&#45;&gt;SacUploadMultipleComponent </title>
<path fill="none" stroke="black" stroke-dasharray="5,2" d="M1381.28,-289.59C1321.28,-289.59 1254.93,-289.59 1254.93,-289.59 1254.93,-289.59 1254.93,-317.56 1254.93,-317.56"/>
<polygon fill="black" stroke="black" points="1251.43,-317.56 1254.93,-327.56 1258.43,-317.56 1251.43,-317.56"/>
</g>
<!-- {
 &#160;&#160;&#160;provide: NG_VALUE_ACCESSOR, multi: true, useExisting: SacDropzoneMultipleComponent,
} -->
<g id="node6" class="node">
<title>{
 &#160;&#160;&#160;provide: NG_VALUE_ACCESSOR, multi: true, useExisting: SacDropzoneMultipleComponent,
}</title>
<ellipse fill="#fdb462" stroke="black" cx="3074" cy="-127.3" rx="404.48" ry="41.09"/>
<text text-anchor="middle" x="3074" y="-139.9" font-family="Times,serif" font-size="14.00">{</text>
<text text-anchor="middle" x="3074" y="-123.1" font-family="Times,serif" font-size="14.00"> &#160;&#160;&#160;provide: NG_VALUE_ACCESSOR, multi: true, useExisting: SacDropzoneMultipleComponent,</text>
<text text-anchor="middle" x="3074" y="-106.3" font-family="Times,serif" font-size="14.00">}</text>
</g>
<!-- {
 &#160;&#160;&#160;provide: NG_VALUE_ACCESSOR, multi: true, useExisting: SacDropzoneMultipleComponent,
}&#45;&gt;SacDropzoneMultipleComponent -->
<g id="edge2" class="edge">
<title>{
 &#160;&#160;&#160;provide: NG_VALUE_ACCESSOR, multi: true, useExisting: SacDropzoneMultipleComponent,
}&#45;&gt;SacDropzoneMultipleComponent</title>
<path fill="none" stroke="black" d="M3074,-168.6C3074,-191.58 3074,-215.59 3074,-215.59 3074,-215.59 2311.52,-215.59 2311.52,-215.59"/>
<polygon fill="black" stroke="black" points="2311.52,-212.09 2301.52,-215.59 2311.52,-219.09 2311.52,-212.09"/>
</g>
<!-- {
 &#160;&#160;&#160;provide: NG_VALIDATORS, multi: true, useExisting: forwardRef(() =&gt; SacDropzoneMultipleComponent),
} -->
<g id="node7" class="node">
<title>{
 &#160;&#160;&#160;provide: NG_VALIDATORS, multi: true, useExisting: forwardRef(() =&gt; SacDropzoneMultipleComponent),
}</title>
<ellipse fill="#fdb462" stroke="black" cx="2199" cy="-127.3" rx="452.99" ry="41.09"/>
<text text-anchor="middle" x="2199" y="-139.9" font-family="Times,serif" font-size="14.00">{</text>
<text text-anchor="middle" x="2199" y="-123.1" font-family="Times,serif" font-size="14.00"> &#160;&#160;&#160;provide: NG_VALIDATORS, multi: true, useExisting: forwardRef(() =&gt; SacDropzoneMultipleComponent),</text>
<text text-anchor="middle" x="2199" y="-106.3" font-family="Times,serif" font-size="14.00">}</text>
</g>
<!-- {
 &#160;&#160;&#160;provide: NG_VALIDATORS, multi: true, useExisting: forwardRef(() =&gt; SacDropzoneMultipleComponent),
}&#45;&gt;SacDropzoneMultipleComponent -->
<g id="edge3" class="edge">
<title>{
 &#160;&#160;&#160;provide: NG_VALIDATORS, multi: true, useExisting: forwardRef(() =&gt; SacDropzoneMultipleComponent),
}&#45;&gt;SacDropzoneMultipleComponent</title>
<path fill="none" stroke="black" d="M2199,-168.6C2199,-168.6 2199,-187.26 2199,-187.26"/>
<polygon fill="black" stroke="black" points="2195.5,-187.26 2199,-197.26 2202.5,-187.26 2195.5,-187.26"/>
</g>
<!-- {
 &#160;&#160;&#160;provide: NG_VALUE_ACCESSOR, multi: true, useExisting: SacDropzoneSingleComponent,
} -->
<g id="node8" class="node">
<title>{
 &#160;&#160;&#160;provide: NG_VALUE_ACCESSOR, multi: true, useExisting: SacDropzoneSingleComponent,
}</title>
<ellipse fill="#fdb462" stroke="black" cx="1326" cy="-127.3" rx="395.88" ry="41.09"/>
<text text-anchor="middle" x="1326" y="-139.9" font-family="Times,serif" font-size="14.00">{</text>
<text text-anchor="middle" x="1326" y="-123.1" font-family="Times,serif" font-size="14.00"> &#160;&#160;&#160;provide: NG_VALUE_ACCESSOR, multi: true, useExisting: SacDropzoneSingleComponent,</text>
<text text-anchor="middle" x="1326" y="-106.3" font-family="Times,serif" font-size="14.00">}</text>
</g>
<!-- {
 &#160;&#160;&#160;provide: NG_VALUE_ACCESSOR, multi: true, useExisting: SacDropzoneSingleComponent,
}&#45;&gt;SacDropzoneSingleComponent -->
<g id="edge5" class="edge">
<title>{
 &#160;&#160;&#160;provide: NG_VALUE_ACCESSOR, multi: true, useExisting: SacDropzoneSingleComponent,
}&#45;&gt;SacDropzoneSingleComponent</title>
<path fill="none" stroke="black" d="M1508.09,-163.97C1508.09,-163.97 1508.09,-187.47 1508.09,-187.47"/>
<polygon fill="black" stroke="black" points="1504.59,-187.47 1508.09,-197.47 1511.59,-187.47 1504.59,-187.47"/>
</g>
<!-- {
 &#160;&#160;&#160;provide: NG_VALIDATORS, multi: true, useExisting: forwardRef(() =&gt; SacDropzoneSingleComponent),
} -->
<g id="node9" class="node">
<title>{
 &#160;&#160;&#160;provide: NG_VALIDATORS, multi: true, useExisting: forwardRef(() =&gt; SacDropzoneSingleComponent),
}</title>
<ellipse fill="#fdb462" stroke="black" cx="468" cy="-127.3" rx="444.4" ry="41.09"/>
<text text-anchor="middle" x="468" y="-139.9" font-family="Times,serif" font-size="14.00">{</text>
<text text-anchor="middle" x="468" y="-123.1" font-family="Times,serif" font-size="14.00"> &#160;&#160;&#160;provide: NG_VALIDATORS, multi: true, useExisting: forwardRef(() =&gt; SacDropzoneSingleComponent),</text>
<text text-anchor="middle" x="468" y="-106.3" font-family="Times,serif" font-size="14.00">}</text>
</g>
<!-- {
 &#160;&#160;&#160;provide: NG_VALIDATORS, multi: true, useExisting: forwardRef(() =&gt; SacDropzoneSingleComponent),
}&#45;&gt;SacDropzoneSingleComponent -->
<g id="edge6" class="edge">
<title>{
 &#160;&#160;&#160;provide: NG_VALIDATORS, multi: true, useExisting: forwardRef(() =&gt; SacDropzoneSingleComponent),
}&#45;&gt;SacDropzoneSingleComponent</title>
<path fill="none" stroke="black" d="M468,-168.8C468,-177.24 468,-183.59 468,-183.59 468,-183.59 1443.91,-183.59 1443.91,-183.59 1443.91,-183.59 1443.91,-187.35 1443.91,-187.35"/>
<polygon fill="black" stroke="black" points="1440.41,-187.35 1443.91,-197.35 1447.41,-187.35 1440.41,-187.35"/>
</g>
<!-- SACBootstrap4LayoutModule -->
<g id="node10" class="node">
<title>SACBootstrap4LayoutModule</title>
<polygon fill="#8dd3c7" stroke="black" points="3689.87,-233.59 3686.87,-237.59 3665.87,-237.59 3662.87,-233.59 3502.13,-233.59 3502.13,-197.59 3689.87,-197.59 3689.87,-233.59"/>
<text text-anchor="middle" x="3596" y="-211.39" font-family="Times,serif" font-size="14.00">SACBootstrap4LayoutModule</text>
</g>
<!-- SACBootstrap4LayoutModule&#45;&gt;SACBootstrap4UploadModule -->
<g id="edge9" class="edge">
<title>SACBootstrap4LayoutModule&#45;&gt;SACBootstrap4UploadModule</title>
<path fill="none" stroke="black" d="M3596,-233.7C3596,-252.93 3596,-280.59 3596,-280.59 3596,-280.59 1580.86,-280.59 1580.86,-280.59"/>
<polygon fill="black" stroke="black" points="1580.86,-277.09 1570.86,-280.59 1580.86,-284.09 1580.86,-277.09"/>
</g>
</g>
</svg>
