<?xml version="1.0" encoding="UTF-8" standalone="no"?>
<!DOCTYPE svg PUBLIC "-//W3C//DTD SVG 1.1//EN"
 "http://www.w3.org/Graphics/SVG/1.1/DTD/svg11.dtd">
<!-- Generated by graphviz version 2.47.0 (20210316.0004)
 -->
<!-- Title: dependencies Pages: 1 -->
<svg width="843pt" height="284pt"
 viewBox="0.00 0.00 843.00 284.00" xmlns="http://www.w3.org/2000/svg" xmlns:xlink="http://www.w3.org/1999/xlink">
<g id="graph0" class="graph" transform="scale(1 1) rotate(0) translate(4 280)">
<title>dependencies</title>
<polygon fill="white" stroke="transparent" points="-4,4 -4,-280 839,-280 839,4 -4,4"/>
<text text-anchor="start" x="396.51" y="-42.4" font-family="Times-12" font-weight="bold" font-size="14.00">Legend</text>
<polygon fill="#ffffb3" stroke="transparent" points="183.5,-10 183.5,-30 203.5,-30 203.5,-10 183.5,-10"/>
<text text-anchor="start" x="207.13" y="-15.4" font-family="Times-12" font-size="14.00"> &#160;Declarations</text>
<polygon fill="#8dd3c7" stroke="transparent" points="296.5,-10 296.5,-30 316.5,-30 316.5,-10 296.5,-10"/>
<text text-anchor="start" x="320.23" y="-15.4" font-family="Times-12" font-size="14.00"> &#160;Module</text>
<polygon fill="#80b1d3" stroke="transparent" points="382.5,-10 382.5,-30 402.5,-30 402.5,-10 382.5,-10"/>
<text text-anchor="start" x="406.28" y="-15.4" font-family="Times-12" font-size="14.00"> &#160;Bootstrap</text>
<polygon fill="#fdb462" stroke="transparent" points="479.5,-10 479.5,-30 499.5,-30 499.5,-10 479.5,-10"/>
<text text-anchor="start" x="503.17" y="-15.4" font-family="Times-12" font-size="14.00"> &#160;Providers</text>
<polygon fill="#fb8072" stroke="transparent" points="575.5,-10 575.5,-30 595.5,-30 595.5,-10 575.5,-10"/>
<text text-anchor="start" x="599.23" y="-15.4" font-family="Times-12" font-size="14.00"> &#160;Exports</text>
<g id="clust1" class="cluster">
<title>cluster_SACBootstrap4DropdownModule</title>
<polygon fill="none" stroke="black" stroke-dasharray="1,5" points="8,-70 8,-268 827,-268 827,-70 8,-70"/>
</g>
<g id="clust5" class="cluster">
<title>cluster_SACBootstrap4DropdownModule_imports</title>
<polygon fill="none" stroke="black" points="407,-78 407,-130 819,-130 819,-78 407,-78"/>
</g>
<g id="clust6" class="cluster">
<title>cluster_SACBootstrap4DropdownModule_exports</title>
<polygon fill="none" stroke="black" points="111,-208 111,-260 500,-260 500,-208 111,-208"/>
</g>
<g id="clust2" class="cluster">
<title>cluster_SACBootstrap4DropdownModule_declarations</title>
<polygon fill="none" stroke="black" points="16,-78 16,-130 399,-130 399,-78 16,-78"/>
</g>
<!-- SacDropdownComponent -->
<g id="node1" class="node">
<title>SacDropdownComponent</title>
<polygon fill="#ffffb3" stroke="black" points="390.92,-122 229.08,-122 229.08,-86 390.92,-86 390.92,-122"/>
<text text-anchor="middle" x="310" y="-99.8" font-family="Times,serif" font-size="14.00">SacDropdownComponent</text>
</g>
<!-- SACBootstrap4DropdownModule -->
<g id="node3" class="node">
<title>SACBootstrap4DropdownModule</title>
<polygon fill="#8dd3c7" stroke="black" points="464.09,-187 461.09,-191 440.09,-191 437.09,-187 255.91,-187 255.91,-151 464.09,-151 464.09,-187"/>
<text text-anchor="middle" x="360" y="-164.8" font-family="Times,serif" font-size="14.00">SACBootstrap4DropdownModule</text>
</g>
<!-- SacDropdownComponent&#45;&gt;SACBootstrap4DropdownModule -->
<g id="edge1" class="edge">
<title>SacDropdownComponent&#45;&gt;SACBootstrap4DropdownModule</title>
<path fill="none" stroke="black" d="M323.33,-122.11C323.33,-122.11 323.33,-140.99 323.33,-140.99"/>
<polygon fill="black" stroke="black" points="319.83,-140.99 323.33,-150.99 326.83,-140.99 319.83,-140.99"/>
</g>
<!-- SacDropdownOptionDirective -->
<g id="node2" class="node">
<title>SacDropdownOptionDirective</title>
<polygon fill="#ffffb3" stroke="black" points="211.56,-122 24.44,-122 24.44,-86 211.56,-86 211.56,-122"/>
<text text-anchor="middle" x="118" y="-99.8" font-family="Times,serif" font-size="14.00">SacDropdownOptionDirective</text>
</g>
<!-- SacDropdownOptionDirective&#45;&gt;SACBootstrap4DropdownModule -->
<g id="edge2" class="edge">
<title>SacDropdownOptionDirective&#45;&gt;SACBootstrap4DropdownModule</title>
<path fill="none" stroke="black" d="M165.12,-122.11C165.12,-141.34 165.12,-169 165.12,-169 165.12,-169 245.72,-169 245.72,-169"/>
<polygon fill="black" stroke="black" points="245.72,-172.5 255.72,-169 245.72,-165.5 245.72,-172.5"/>
</g>
<!-- SacDropdownComponent  -->
<g id="node6" class="node">
<title>SacDropdownComponent </title>
<polygon fill="#fb8072" stroke="black" points="492.42,-252 327.58,-252 327.58,-216 492.42,-216 492.42,-252"/>
<text text-anchor="middle" x="410" y="-229.8" font-family="Times,serif" font-size="14.00">SacDropdownComponent </text>
</g>
<!-- SACBootstrap4DropdownModule&#45;&gt;SacDropdownComponent  -->
<g id="edge5" class="edge">
<title>SACBootstrap4DropdownModule&#45;&gt;SacDropdownComponent </title>
<path fill="none" stroke="black" stroke-dasharray="5,2" d="M395.79,-187.11C395.79,-187.11 395.79,-205.99 395.79,-205.99"/>
<polygon fill="black" stroke="black" points="392.29,-205.99 395.79,-215.99 399.29,-205.99 392.29,-205.99"/>
</g>
<!-- SacDropdownOptionDirective  -->
<g id="node7" class="node">
<title>SacDropdownOptionDirective </title>
<polygon fill="#fb8072" stroke="black" points="309.06,-252 118.94,-252 118.94,-216 309.06,-216 309.06,-252"/>
<text text-anchor="middle" x="214" y="-229.8" font-family="Times,serif" font-size="14.00">SacDropdownOptionDirective </text>
</g>
<!-- SACBootstrap4DropdownModule&#45;&gt;SacDropdownOptionDirective  -->
<g id="edge6" class="edge">
<title>SACBootstrap4DropdownModule&#45;&gt;SacDropdownOptionDirective </title>
<path fill="none" stroke="black" stroke-dasharray="5,2" d="M282.62,-187.11C282.62,-187.11 282.62,-205.99 282.62,-205.99"/>
<polygon fill="black" stroke="black" points="279.12,-205.99 282.62,-215.99 286.12,-205.99 279.12,-205.99"/>
</g>
<!-- SACBootstrap4LayoutModule -->
<g id="node4" class="node">
<title>SACBootstrap4LayoutModule</title>
<polygon fill="#8dd3c7" stroke="black" points="810.87,-122 807.87,-126 786.87,-126 783.87,-122 623.13,-122 623.13,-86 810.87,-86 810.87,-122"/>
<text text-anchor="middle" x="717" y="-99.8" font-family="Times,serif" font-size="14.00">SACBootstrap4LayoutModule</text>
</g>
<!-- SACBootstrap4LayoutModule&#45;&gt;SACBootstrap4DropdownModule -->
<g id="edge3" class="edge">
<title>SACBootstrap4LayoutModule&#45;&gt;SACBootstrap4DropdownModule</title>
<path fill="none" stroke="black" d="M717,-122.11C717,-141.34 717,-169 717,-169 717,-169 474.22,-169 474.22,-169"/>
<polygon fill="black" stroke="black" points="474.22,-165.5 464.22,-169 474.22,-172.5 474.22,-165.5"/>
</g>
<!-- SACBootstrap4TooltipModule -->
<g id="node5" class="node">
<title>SACBootstrap4TooltipModule</title>
<polygon fill="#8dd3c7" stroke="black" points="604.94,-122 601.94,-126 580.94,-126 577.94,-122 415.06,-122 415.06,-86 604.94,-86 604.94,-122"/>
<text text-anchor="middle" x="510" y="-99.8" font-family="Times,serif" font-size="14.00">SACBootstrap4TooltipModule</text>
</g>
<!-- SACBootstrap4TooltipModule&#45;&gt;SACBootstrap4DropdownModule -->
<g id="edge4" class="edge">
<title>SACBootstrap4TooltipModule&#45;&gt;SACBootstrap4DropdownModule</title>
<path fill="none" stroke="black" d="M439.66,-122.11C439.66,-122.11 439.66,-140.99 439.66,-140.99"/>
<polygon fill="black" stroke="black" points="436.16,-140.99 439.66,-150.99 443.16,-140.99 436.16,-140.99"/>
</g>
</g>
</svg>
