<?xml version="1.0" encoding="UTF-8" standalone="no"?>
<!DOCTYPE svg PUBLIC "-//W3C//DTD SVG 1.1//EN"
 "http://www.w3.org/Graphics/SVG/1.1/DTD/svg11.dtd">
<!-- Generated by graphviz version 2.47.0 (20210316.0004)
 -->
<!-- Title: dependencies Pages: 1 -->
<svg width="2438pt" height="396pt"
 viewBox="0.00 0.00 2438.00 395.59" xmlns="http://www.w3.org/2000/svg" xmlns:xlink="http://www.w3.org/1999/xlink">
<g id="graph0" class="graph" transform="scale(1 1) rotate(0) translate(4 391.59)">
<title>dependencies</title>
<polygon fill="white" stroke="transparent" points="-4,4 -4,-391.59 2434,-391.59 2434,4 -4,4"/>
<text text-anchor="start" x="1194.01" y="-42.4" font-family="Times-12" font-weight="bold" font-size="14.00">Legend</text>
<polygon fill="#ffffb3" stroke="transparent" points="981,-10 981,-30 1001,-30 1001,-10 981,-10"/>
<text text-anchor="start" x="1004.63" y="-15.4" font-family="Times-12" font-size="14.00"> &#160;Declarations</text>
<polygon fill="#8dd3c7" stroke="transparent" points="1094,-10 1094,-30 1114,-30 1114,-10 1094,-10"/>
<text text-anchor="start" x="1117.73" y="-15.4" font-family="Times-12" font-size="14.00"> &#160;Module</text>
<polygon fill="#80b1d3" stroke="transparent" points="1180,-10 1180,-30 1200,-30 1200,-10 1180,-10"/>
<text text-anchor="start" x="1203.78" y="-15.4" font-family="Times-12" font-size="14.00"> &#160;Bootstrap</text>
<polygon fill="#fdb462" stroke="transparent" points="1277,-10 1277,-30 1297,-30 1297,-10 1277,-10"/>
<text text-anchor="start" x="1300.67" y="-15.4" font-family="Times-12" font-size="14.00"> &#160;Providers</text>
<polygon fill="#fb8072" stroke="transparent" points="1373,-10 1373,-30 1393,-30 1393,-10 1373,-10"/>
<text text-anchor="start" x="1396.73" y="-15.4" font-family="Times-12" font-size="14.00"> &#160;Exports</text>
<g id="clust1" class="cluster">
<title>cluster_SACBootstrap4StaticLabelModule</title>
<polygon fill="none" stroke="black" stroke-dasharray="1,5" points="8,-70 8,-379.59 2422,-379.59 2422,-70 8,-70"/>
</g>
<g id="clust5" class="cluster">
<title>cluster_SACBootstrap4StaticLabelModule_imports</title>
<polygon fill="none" stroke="black" points="2002,-189.59 2002,-241.59 2414,-241.59 2414,-189.59 2002,-189.59"/>
</g>
<g id="clust6" class="cluster">
<title>cluster_SACBootstrap4StaticLabelModule_exports</title>
<polygon fill="none" stroke="black" points="1639,-319.59 1639,-371.59 2064,-371.59 2064,-319.59 1639,-319.59"/>
</g>
<g id="clust3" class="cluster">
<title>cluster_SACBootstrap4StaticLabelModule_SacStaticFormContainerComponent_providers</title>
<polygon fill="none" stroke="black" points="206,-78 206,-241.59 1994,-241.59 1994,-78 206,-78"/>
</g>
<g id="clust2" class="cluster">
<title>cluster_SACBootstrap4StaticLabelModule_declarations</title>
<polygon fill="none" stroke="black" points="16,-189.59 16,-241.59 198,-241.59 198,-189.59 16,-189.59"/>
</g>
<!-- SacStaticFormContainerComponent -->
<g id="node1" class="node">
<title>SacStaticFormContainerComponent</title>
<polygon fill="#ffffb3" stroke="black" points="1681.47,-233.59 1462.53,-233.59 1462.53,-197.59 1681.47,-197.59 1681.47,-233.59"/>
<text text-anchor="middle" x="1572" y="-211.39" font-family="Times,serif" font-size="14.00">SacStaticFormContainerComponent</text>
</g>
<!-- SACBootstrap4StaticLabelModule -->
<g id="node3" class="node">
<title>SACBootstrap4StaticLabelModule</title>
<polygon fill="#8dd3c7" stroke="black" points="1943.97,-298.59 1940.97,-302.59 1919.97,-302.59 1916.97,-298.59 1732.03,-298.59 1732.03,-262.59 1943.97,-262.59 1943.97,-298.59"/>
<text text-anchor="middle" x="1838" y="-276.39" font-family="Times,serif" font-size="14.00">SACBootstrap4StaticLabelModule</text>
</g>
<!-- SacStaticFormContainerComponent&#45;&gt;SACBootstrap4StaticLabelModule -->
<g id="edge1" class="edge">
<title>SacStaticFormContainerComponent&#45;&gt;SACBootstrap4StaticLabelModule</title>
<path fill="none" stroke="black" d="M1664.04,-233.61C1664.04,-250.96 1664.04,-274.59 1664.04,-274.59 1664.04,-274.59 1721.8,-274.59 1721.8,-274.59"/>
<polygon fill="black" stroke="black" points="1721.8,-278.09 1731.8,-274.59 1721.8,-271.09 1721.8,-278.09"/>
</g>
<!-- SacStaticLabelComponent -->
<g id="node2" class="node">
<title>SacStaticLabelComponent</title>
<polygon fill="#ffffb3" stroke="black" points="189.8,-233.59 24.2,-233.59 24.2,-197.59 189.8,-197.59 189.8,-233.59"/>
<text text-anchor="middle" x="107" y="-211.39" font-family="Times,serif" font-size="14.00">SacStaticLabelComponent</text>
</g>
<!-- SacStaticLabelComponent&#45;&gt;SACBootstrap4StaticLabelModule -->
<g id="edge4" class="edge">
<title>SacStaticLabelComponent&#45;&gt;SACBootstrap4StaticLabelModule</title>
<path fill="none" stroke="black" d="M107,-233.87C107,-254.91 107,-286.59 107,-286.59 107,-286.59 1722,-286.59 1722,-286.59"/>
<polygon fill="black" stroke="black" points="1722,-290.09 1732,-286.59 1722,-283.09 1722,-290.09"/>
</g>
<!-- SacStaticFormContainerComponent  -->
<g id="node8" class="node">
<title>SacStaticFormContainerComponent </title>
<polygon fill="#fb8072" stroke="black" points="2056.47,-363.59 1833.53,-363.59 1833.53,-327.59 2056.47,-327.59 2056.47,-363.59"/>
<text text-anchor="middle" x="1945" y="-341.39" font-family="Times,serif" font-size="14.00">SacStaticFormContainerComponent </text>
</g>
<!-- SACBootstrap4StaticLabelModule&#45;&gt;SacStaticFormContainerComponent  -->
<g id="edge7" class="edge">
<title>SACBootstrap4StaticLabelModule&#45;&gt;SacStaticFormContainerComponent </title>
<path fill="none" stroke="black" stroke-dasharray="5,2" d="M1888.88,-298.7C1888.88,-298.7 1888.88,-317.58 1888.88,-317.58"/>
<polygon fill="black" stroke="black" points="1885.38,-317.58 1888.88,-327.58 1892.38,-317.58 1885.38,-317.58"/>
</g>
<!-- SacStaticLabelComponent  -->
<g id="node9" class="node">
<title>SacStaticLabelComponent </title>
<polygon fill="#fb8072" stroke="black" points="1815.3,-363.59 1646.7,-363.59 1646.7,-327.59 1815.3,-327.59 1815.3,-363.59"/>
<text text-anchor="middle" x="1731" y="-341.39" font-family="Times,serif" font-size="14.00">SacStaticLabelComponent </text>
</g>
<!-- SACBootstrap4StaticLabelModule&#45;&gt;SacStaticLabelComponent  -->
<g id="edge8" class="edge">
<title>SACBootstrap4StaticLabelModule&#45;&gt;SacStaticLabelComponent </title>
<path fill="none" stroke="black" stroke-dasharray="5,2" d="M1773.71,-298.7C1773.71,-298.7 1773.71,-317.58 1773.71,-317.58"/>
<polygon fill="black" stroke="black" points="1770.21,-317.58 1773.71,-327.58 1777.21,-317.58 1770.21,-317.58"/>
</g>
<!-- {
 &#160;&#160;&#160;provide: NG_VALUE_ACCESSOR, multi: true, useExisting: SacStaticFormContainerComponent,
} -->
<g id="node4" class="node">
<title>{
 &#160;&#160;&#160;provide: NG_VALUE_ACCESSOR, multi: true, useExisting: SacStaticFormContainerComponent,
}</title>
<ellipse fill="#fdb462" stroke="black" cx="1572" cy="-127.3" rx="414.29" ry="41.09"/>
<text text-anchor="middle" x="1572" y="-139.9" font-family="Times,serif" font-size="14.00">{</text>
<text text-anchor="middle" x="1572" y="-123.1" font-family="Times,serif" font-size="14.00"> &#160;&#160;&#160;provide: NG_VALUE_ACCESSOR, multi: true, useExisting: SacStaticFormContainerComponent,</text>
<text text-anchor="middle" x="1572" y="-106.3" font-family="Times,serif" font-size="14.00">}</text>
</g>
<!-- {
 &#160;&#160;&#160;provide: NG_VALUE_ACCESSOR, multi: true, useExisting: SacStaticFormContainerComponent,
}&#45;&gt;SacStaticFormContainerComponent -->
<g id="edge2" class="edge">
<title>{
 &#160;&#160;&#160;provide: NG_VALUE_ACCESSOR, multi: true, useExisting: SacStaticFormContainerComponent,
}&#45;&gt;SacStaticFormContainerComponent</title>
<path fill="none" stroke="black" d="M1572,-168.6C1572,-168.6 1572,-187.26 1572,-187.26"/>
<polygon fill="black" stroke="black" points="1568.5,-187.26 1572,-197.26 1575.5,-187.26 1568.5,-187.26"/>
</g>
<!-- {
 &#160;&#160;&#160;provide: NG_VALIDATORS, multi: true, useExisting: forwardRef(() =&gt; SacStaticFormContainerComponent),
} -->
<g id="node5" class="node">
<title>{
 &#160;&#160;&#160;provide: NG_VALIDATORS, multi: true, useExisting: forwardRef(() =&gt; SacStaticFormContainerComponent),
}</title>
<ellipse fill="#fdb462" stroke="black" cx="677" cy="-127.3" rx="462.8" ry="41.09"/>
<text text-anchor="middle" x="677" y="-139.9" font-family="Times,serif" font-size="14.00">{</text>
<text text-anchor="middle" x="677" y="-123.1" font-family="Times,serif" font-size="14.00"> &#160;&#160;&#160;provide: NG_VALIDATORS, multi: true, useExisting: forwardRef(() =&gt; SacStaticFormContainerComponent),</text>
<text text-anchor="middle" x="677" y="-106.3" font-family="Times,serif" font-size="14.00">}</text>
</g>
<!-- {
 &#160;&#160;&#160;provide: NG_VALIDATORS, multi: true, useExisting: forwardRef(() =&gt; SacStaticFormContainerComponent),
}&#45;&gt;SacStaticFormContainerComponent -->
<g id="edge3" class="edge">
<title>{
 &#160;&#160;&#160;provide: NG_VALIDATORS, multi: true, useExisting: forwardRef(() =&gt; SacStaticFormContainerComponent),
}&#45;&gt;SacStaticFormContainerComponent</title>
<path fill="none" stroke="black" d="M677,-168.6C677,-191.58 677,-215.59 677,-215.59 677,-215.59 1452.26,-215.59 1452.26,-215.59"/>
<polygon fill="black" stroke="black" points="1452.26,-219.09 1462.26,-215.59 1452.26,-212.09 1452.26,-219.09"/>
</g>
<!-- SACBootstrap4LayoutModule -->
<g id="node6" class="node">
<title>SACBootstrap4LayoutModule</title>
<polygon fill="#8dd3c7" stroke="black" points="2405.87,-233.59 2402.87,-237.59 2381.87,-237.59 2378.87,-233.59 2218.13,-233.59 2218.13,-197.59 2405.87,-197.59 2405.87,-233.59"/>
<text text-anchor="middle" x="2312" y="-211.39" font-family="Times,serif" font-size="14.00">SACBootstrap4LayoutModule</text>
</g>
<!-- SACBootstrap4LayoutModule&#45;&gt;SACBootstrap4StaticLabelModule -->
<g id="edge5" class="edge">
<title>SACBootstrap4LayoutModule&#45;&gt;SACBootstrap4StaticLabelModule</title>
<path fill="none" stroke="black" d="M2312,-233.87C2312,-254.91 2312,-286.59 2312,-286.59 2312,-286.59 1954.08,-286.59 1954.08,-286.59"/>
<polygon fill="black" stroke="black" points="1954.08,-283.09 1944.08,-286.59 1954.08,-290.09 1954.08,-283.09"/>
</g>
<!-- SACBootstrap4TooltipModule -->
<g id="node7" class="node">
<title>SACBootstrap4TooltipModule</title>
<polygon fill="#8dd3c7" stroke="black" points="2199.94,-233.59 2196.94,-237.59 2175.94,-237.59 2172.94,-233.59 2010.06,-233.59 2010.06,-197.59 2199.94,-197.59 2199.94,-233.59"/>
<text text-anchor="middle" x="2105" y="-211.39" font-family="Times,serif" font-size="14.00">SACBootstrap4TooltipModule</text>
</g>
<!-- SACBootstrap4TooltipModule&#45;&gt;SACBootstrap4StaticLabelModule -->
<g id="edge6" class="edge">
<title>SACBootstrap4TooltipModule&#45;&gt;SACBootstrap4StaticLabelModule</title>
<path fill="none" stroke="black" d="M2033.26,-233.61C2033.26,-250.96 2033.26,-274.59 2033.26,-274.59 2033.26,-274.59 1954.2,-274.59 1954.2,-274.59"/>
<polygon fill="black" stroke="black" points="1954.2,-271.09 1944.2,-274.59 1954.2,-278.09 1954.2,-271.09"/>
</g>
</g>
</svg>
