<?xml version="1.0" encoding="UTF-8" standalone="no"?>
<!DOCTYPE svg PUBLIC "-//W3C//DTD SVG 1.1//EN"
 "http://www.w3.org/Graphics/SVG/1.1/DTD/svg11.dtd">
<!-- Generated by graphviz version 2.47.0 (20210316.0004)
 -->
<!-- Title: dependencies Pages: 1 -->
<svg width="757pt" height="284pt"
 viewBox="0.00 0.00 757.00 284.00" xmlns="http://www.w3.org/2000/svg" xmlns:xlink="http://www.w3.org/1999/xlink">
<g id="graph0" class="graph" transform="scale(1 1) rotate(0) translate(4 280)">
<title>dependencies</title>
<polygon fill="white" stroke="transparent" points="-4,4 -4,-280 753,-280 753,4 -4,4"/>
<text text-anchor="start" x="353.51" y="-42.4" font-family="Times-12" font-weight="bold" font-size="14.00">Legend</text>
<polygon fill="#ffffb3" stroke="transparent" points="140.5,-10 140.5,-30 160.5,-30 160.5,-10 140.5,-10"/>
<text text-anchor="start" x="164.13" y="-15.4" font-family="Times-12" font-size="14.00"> &#160;Declarations</text>
<polygon fill="#8dd3c7" stroke="transparent" points="253.5,-10 253.5,-30 273.5,-30 273.5,-10 253.5,-10"/>
<text text-anchor="start" x="277.23" y="-15.4" font-family="Times-12" font-size="14.00"> &#160;Module</text>
<polygon fill="#80b1d3" stroke="transparent" points="339.5,-10 339.5,-30 359.5,-30 359.5,-10 339.5,-10"/>
<text text-anchor="start" x="363.28" y="-15.4" font-family="Times-12" font-size="14.00"> &#160;Bootstrap</text>
<polygon fill="#fdb462" stroke="transparent" points="436.5,-10 436.5,-30 456.5,-30 456.5,-10 436.5,-10"/>
<text text-anchor="start" x="460.17" y="-15.4" font-family="Times-12" font-size="14.00"> &#160;Providers</text>
<polygon fill="#fb8072" stroke="transparent" points="532.5,-10 532.5,-30 552.5,-30 552.5,-10 532.5,-10"/>
<text text-anchor="start" x="556.23" y="-15.4" font-family="Times-12" font-size="14.00"> &#160;Exports</text>
<g id="clust1" class="cluster">
<title>cluster_SACBootstrap3CheckboxModule</title>
<polygon fill="none" stroke="black" stroke-dasharray="1,5" points="8,-70 8,-268 741,-268 741,-70 8,-70"/>
</g>
<g id="clust4" class="cluster">
<title>cluster_SACBootstrap3CheckboxModule_exports</title>
<polygon fill="none" stroke="black" points="90,-208 90,-260 658,-260 658,-208 90,-208"/>
</g>
<g id="clust3" class="cluster">
<title>cluster_SACBootstrap3CheckboxModule_imports</title>
<polygon fill="none" stroke="black" points="16,-78 16,-130 733,-130 733,-78 16,-78"/>
</g>
<!-- SacCheckboxComponent -->
<g id="node1" class="node">
<title>SacCheckboxComponent</title>
<polygon fill="#8dd3c7" stroke="black" points="725.31,-122 722.31,-126 701.31,-126 698.31,-122 566.69,-122 566.69,-86 725.31,-86 725.31,-122"/>
<text text-anchor="middle" x="646" y="-99.8" font-family="Times,serif" font-size="14.00">SacCheckboxComponent</text>
</g>
<!-- SACBootstrap3CheckboxModule -->
<g id="node5" class="node">
<title>SACBootstrap3CheckboxModule</title>
<polygon fill="#8dd3c7" stroke="black" points="485.48,-187 482.48,-191 461.48,-191 458.48,-187 280.52,-187 280.52,-151 485.48,-151 485.48,-187"/>
<text text-anchor="middle" x="383" y="-164.8" font-family="Times,serif" font-size="14.00">SACBootstrap3CheckboxModule</text>
</g>
<!-- SacCheckboxComponent&#45;&gt;SACBootstrap3CheckboxModule -->
<g id="edge1" class="edge">
<title>SacCheckboxComponent&#45;&gt;SACBootstrap3CheckboxModule</title>
<path fill="none" stroke="black" d="M608.38,-122.11C608.38,-141.34 608.38,-169 608.38,-169 608.38,-169 495.79,-169 495.79,-169"/>
<polygon fill="black" stroke="black" points="495.79,-165.5 485.79,-169 495.79,-172.5 495.79,-165.5"/>
</g>
<!-- SacRadiobuttonComponent -->
<g id="node2" class="node">
<title>SacRadiobuttonComponent</title>
<polygon fill="#8dd3c7" stroke="black" points="548.27,-122 545.27,-126 524.27,-126 521.27,-122 377.73,-122 377.73,-86 548.27,-86 548.27,-122"/>
<text text-anchor="middle" x="463" y="-99.8" font-family="Times,serif" font-size="14.00">SacRadiobuttonComponent</text>
</g>
<!-- SacRadiobuttonComponent&#45;&gt;SACBootstrap3CheckboxModule -->
<g id="edge2" class="edge">
<title>SacRadiobuttonComponent&#45;&gt;SACBootstrap3CheckboxModule</title>
<path fill="none" stroke="black" d="M431.55,-122.11C431.55,-122.11 431.55,-140.99 431.55,-140.99"/>
<polygon fill="black" stroke="black" points="428.05,-140.99 431.55,-150.99 435.05,-140.99 428.05,-140.99"/>
</g>
<!-- SacRadiobuttonsComponent -->
<g id="node3" class="node">
<title>SacRadiobuttonsComponent</title>
<polygon fill="#8dd3c7" stroke="black" points="360.21,-122 357.21,-126 336.21,-126 333.21,-122 183.79,-122 183.79,-86 360.21,-86 360.21,-122"/>
<text text-anchor="middle" x="272" y="-99.8" font-family="Times,serif" font-size="14.00">SacRadiobuttonsComponent</text>
</g>
<!-- SacRadiobuttonsComponent&#45;&gt;SACBootstrap3CheckboxModule -->
<g id="edge3" class="edge">
<title>SacRadiobuttonsComponent&#45;&gt;SACBootstrap3CheckboxModule</title>
<path fill="none" stroke="black" d="M320.31,-122.11C320.31,-122.11 320.31,-140.99 320.31,-140.99"/>
<polygon fill="black" stroke="black" points="316.81,-140.99 320.31,-150.99 323.81,-140.99 316.81,-140.99"/>
</g>
<!-- SacTooltipComponent -->
<g id="node4" class="node">
<title>SacTooltipComponent</title>
<polygon fill="#8dd3c7" stroke="black" points="166.27,-122 163.27,-126 142.27,-126 139.27,-122 23.73,-122 23.73,-86 166.27,-86 166.27,-122"/>
<text text-anchor="middle" x="95" y="-99.8" font-family="Times,serif" font-size="14.00">SacTooltipComponent</text>
</g>
<!-- SacTooltipComponent&#45;&gt;SACBootstrap3CheckboxModule -->
<g id="edge4" class="edge">
<title>SacTooltipComponent&#45;&gt;SACBootstrap3CheckboxModule</title>
<path fill="none" stroke="black" d="M132.26,-122.11C132.26,-141.34 132.26,-169 132.26,-169 132.26,-169 270.29,-169 270.29,-169"/>
<polygon fill="black" stroke="black" points="270.29,-172.5 280.29,-169 270.29,-165.5 270.29,-172.5"/>
</g>
<!-- SacCheckboxComponent  -->
<g id="node6" class="node">
<title>SacCheckboxComponent </title>
<polygon fill="#fb8072" stroke="black" points="649.81,-252 488.19,-252 488.19,-216 649.81,-216 649.81,-252"/>
<text text-anchor="middle" x="569" y="-229.8" font-family="Times,serif" font-size="14.00">SacCheckboxComponent </text>
</g>
<!-- SACBootstrap3CheckboxModule&#45;&gt;SacCheckboxComponent  -->
<g id="edge5" class="edge">
<title>SACBootstrap3CheckboxModule&#45;&gt;SacCheckboxComponent </title>
<path fill="none" stroke="black" stroke-dasharray="5,2" d="M477.81,-187.11C477.81,-206.34 477.81,-234 477.81,-234 477.81,-234 478.82,-234 478.82,-234"/>
<polygon fill="black" stroke="black" points="477.92,-237.5 487.92,-234 477.92,-230.5 477.92,-237.5"/>
</g>
<!-- SacRadiobuttonComponent  -->
<g id="node7" class="node">
<title>SacRadiobuttonComponent </title>
<polygon fill="#fb8072" stroke="black" points="470.27,-252 295.73,-252 295.73,-216 470.27,-216 470.27,-252"/>
<text text-anchor="middle" x="383" y="-229.8" font-family="Times,serif" font-size="14.00">SacRadiobuttonComponent </text>
</g>
<!-- SACBootstrap3CheckboxModule&#45;&gt;SacRadiobuttonComponent  -->
<g id="edge6" class="edge">
<title>SACBootstrap3CheckboxModule&#45;&gt;SacRadiobuttonComponent </title>
<path fill="none" stroke="black" stroke-dasharray="5,2" d="M383,-187.11C383,-187.11 383,-205.99 383,-205.99"/>
<polygon fill="black" stroke="black" points="379.5,-205.99 383,-215.99 386.5,-205.99 379.5,-205.99"/>
</g>
<!-- SacRadiobuttonsComponent  -->
<g id="node8" class="node">
<title>SacRadiobuttonsComponent </title>
<polygon fill="#fb8072" stroke="black" points="277.71,-252 98.29,-252 98.29,-216 277.71,-216 277.71,-252"/>
<text text-anchor="middle" x="188" y="-229.8" font-family="Times,serif" font-size="14.00">SacRadiobuttonsComponent </text>
</g>
<!-- SACBootstrap3CheckboxModule&#45;&gt;SacRadiobuttonsComponent  -->
<g id="edge7" class="edge">
<title>SACBootstrap3CheckboxModule&#45;&gt;SacRadiobuttonsComponent </title>
<path fill="none" stroke="black" stroke-dasharray="5,2" d="M288.19,-187.11C288.19,-206.34 288.19,-234 288.19,-234 288.19,-234 287.15,-234 287.15,-234"/>
<polygon fill="black" stroke="black" points="287.84,-230.5 277.84,-234 287.84,-237.5 287.84,-230.5"/>
</g>
</g>
</svg>
