<?xml version="1.0" encoding="UTF-8" standalone="no"?>
<!DOCTYPE svg PUBLIC "-//W3C//DTD SVG 1.1//EN"
 "http://www.w3.org/Graphics/SVG/1.1/DTD/svg11.dtd">
<!-- Generated by graphviz version 2.47.0 (20210316.0004)
 -->
<!-- Title: dependencies Pages: 1 -->
<svg width="1036pt" height="284pt"
 viewBox="0.00 0.00 1036.00 284.00" xmlns="http://www.w3.org/2000/svg" xmlns:xlink="http://www.w3.org/1999/xlink">
<g id="graph0" class="graph" transform="scale(1 1) rotate(0) translate(4 280)">
<title>dependencies</title>
<polygon fill="white" stroke="transparent" points="-4,4 -4,-280 1032,-280 1032,4 -4,4"/>
<text text-anchor="start" x="493.01" y="-42.4" font-family="Times-12" font-weight="bold" font-size="14.00">Legend</text>
<polygon fill="#ffffb3" stroke="transparent" points="280,-10 280,-30 300,-30 300,-10 280,-10"/>
<text text-anchor="start" x="303.63" y="-15.4" font-family="Times-12" font-size="14.00"> &#160;Declarations</text>
<polygon fill="#8dd3c7" stroke="transparent" points="393,-10 393,-30 413,-30 413,-10 393,-10"/>
<text text-anchor="start" x="416.73" y="-15.4" font-family="Times-12" font-size="14.00"> &#160;Module</text>
<polygon fill="#80b1d3" stroke="transparent" points="479,-10 479,-30 499,-30 499,-10 479,-10"/>
<text text-anchor="start" x="502.78" y="-15.4" font-family="Times-12" font-size="14.00"> &#160;Bootstrap</text>
<polygon fill="#fdb462" stroke="transparent" points="576,-10 576,-30 596,-30 596,-10 576,-10"/>
<text text-anchor="start" x="599.67" y="-15.4" font-family="Times-12" font-size="14.00"> &#160;Providers</text>
<polygon fill="#fb8072" stroke="transparent" points="672,-10 672,-30 692,-30 692,-10 672,-10"/>
<text text-anchor="start" x="695.73" y="-15.4" font-family="Times-12" font-size="14.00"> &#160;Exports</text>
<g id="clust1" class="cluster">
<title>cluster_SACBootstrap3TinyMceModule</title>
<polygon fill="none" stroke="black" stroke-dasharray="1,5" points="8,-70 8,-268 1020,-268 1020,-70 8,-70"/>
</g>
<g id="clust4" class="cluster">
<title>cluster_SACBootstrap3TinyMceModule_imports</title>
<polygon fill="none" stroke="black" points="192,-78 192,-130 1012,-130 1012,-78 192,-78"/>
</g>
<g id="clust5" class="cluster">
<title>cluster_SACBootstrap3TinyMceModule_exports</title>
<polygon fill="none" stroke="black" points="416,-208 416,-260 588,-260 588,-208 416,-208"/>
</g>
<g id="clust2" class="cluster">
<title>cluster_SACBootstrap3TinyMceModule_declarations</title>
<polygon fill="none" stroke="black" points="16,-78 16,-130 184,-130 184,-78 16,-78"/>
</g>
<!-- SacTinyMceComponent -->
<g id="node1" class="node">
<title>SacTinyMceComponent</title>
<polygon fill="#ffffb3" stroke="black" points="176.36,-122 23.64,-122 23.64,-86 176.36,-86 176.36,-122"/>
<text text-anchor="middle" x="100" y="-99.8" font-family="Times,serif" font-size="14.00">SacTinyMceComponent</text>
</g>
<!-- SACBootstrap3TinyMceModule -->
<g id="node2" class="node">
<title>SACBootstrap3TinyMceModule</title>
<polygon fill="#8dd3c7" stroke="black" points="601.53,-187 598.53,-191 577.53,-191 574.53,-187 402.47,-187 402.47,-151 601.53,-151 601.53,-187"/>
<text text-anchor="middle" x="502" y="-164.8" font-family="Times,serif" font-size="14.00">SACBootstrap3TinyMceModule</text>
</g>
<!-- SacTinyMceComponent&#45;&gt;SACBootstrap3TinyMceModule -->
<g id="edge1" class="edge">
<title>SacTinyMceComponent&#45;&gt;SACBootstrap3TinyMceModule</title>
<path fill="none" stroke="black" d="M100,-122.28C100,-143.32 100,-175 100,-175 100,-175 392.37,-175 392.37,-175"/>
<polygon fill="black" stroke="black" points="392.37,-178.5 402.37,-175 392.37,-171.5 392.37,-178.5"/>
</g>
<!-- SacTinyMceComponent  -->
<g id="node7" class="node">
<title>SacTinyMceComponent </title>
<polygon fill="#fb8072" stroke="black" points="580.36,-252 423.64,-252 423.64,-216 580.36,-216 580.36,-252"/>
<text text-anchor="middle" x="502" y="-229.8" font-family="Times,serif" font-size="14.00">SacTinyMceComponent </text>
</g>
<!-- SACBootstrap3TinyMceModule&#45;&gt;SacTinyMceComponent  -->
<g id="edge6" class="edge">
<title>SACBootstrap3TinyMceModule&#45;&gt;SacTinyMceComponent </title>
<path fill="none" stroke="black" stroke-dasharray="5,2" d="M502,-187.11C502,-187.11 502,-205.99 502,-205.99"/>
<polygon fill="black" stroke="black" points="498.5,-205.99 502,-215.99 505.5,-205.99 498.5,-205.99"/>
</g>
<!-- SACBootstrap3ButtonModule -->
<g id="node3" class="node">
<title>SACBootstrap3ButtonModule</title>
<polygon fill="#8dd3c7" stroke="black" points="1004.33,-122 1001.33,-126 980.33,-126 977.33,-122 817.67,-122 817.67,-86 1004.33,-86 1004.33,-122"/>
<text text-anchor="middle" x="911" y="-99.8" font-family="Times,serif" font-size="14.00">SACBootstrap3ButtonModule</text>
</g>
<!-- SACBootstrap3ButtonModule&#45;&gt;SACBootstrap3TinyMceModule -->
<g id="edge2" class="edge">
<title>SACBootstrap3ButtonModule&#45;&gt;SACBootstrap3TinyMceModule</title>
<path fill="none" stroke="black" d="M911,-122.28C911,-143.32 911,-175 911,-175 911,-175 611.79,-175 611.79,-175"/>
<polygon fill="black" stroke="black" points="611.79,-171.5 601.79,-175 611.79,-178.5 611.79,-171.5"/>
</g>
<!-- SACBootstrap3DialogModule -->
<g id="node4" class="node">
<title>SACBootstrap3DialogModule</title>
<polygon fill="#8dd3c7" stroke="black" points="800.32,-122 797.32,-126 776.32,-126 773.32,-122 613.68,-122 613.68,-86 800.32,-86 800.32,-122"/>
<text text-anchor="middle" x="707" y="-99.8" font-family="Times,serif" font-size="14.00">SACBootstrap3DialogModule</text>
</g>
<!-- SACBootstrap3DialogModule&#45;&gt;SACBootstrap3TinyMceModule -->
<g id="edge3" class="edge">
<title>SACBootstrap3DialogModule&#45;&gt;SACBootstrap3TinyMceModule</title>
<path fill="none" stroke="black" d="M707,-122.02C707,-139.37 707,-163 707,-163 707,-163 611.8,-163 611.8,-163"/>
<polygon fill="black" stroke="black" points="611.8,-159.5 601.8,-163 611.8,-166.5 611.8,-159.5"/>
</g>
<!-- SACBootstrap3LayoutModule -->
<g id="node5" class="node">
<title>SACBootstrap3LayoutModule</title>
<polygon fill="#8dd3c7" stroke="black" points="595.87,-122 592.87,-126 571.87,-126 568.87,-122 408.13,-122 408.13,-86 595.87,-86 595.87,-122"/>
<text text-anchor="middle" x="502" y="-99.8" font-family="Times,serif" font-size="14.00">SACBootstrap3LayoutModule</text>
</g>
<!-- SACBootstrap3LayoutModule&#45;&gt;SACBootstrap3TinyMceModule -->
<g id="edge4" class="edge">
<title>SACBootstrap3LayoutModule&#45;&gt;SACBootstrap3TinyMceModule</title>
<path fill="none" stroke="black" d="M502,-122.11C502,-122.11 502,-140.99 502,-140.99"/>
<polygon fill="black" stroke="black" points="498.5,-140.99 502,-150.99 505.5,-140.99 498.5,-140.99"/>
</g>
<!-- SACBootstrap3TooltipModule -->
<g id="node6" class="node">
<title>SACBootstrap3TooltipModule</title>
<polygon fill="#8dd3c7" stroke="black" points="389.94,-122 386.94,-126 365.94,-126 362.94,-122 200.06,-122 200.06,-86 389.94,-86 389.94,-122"/>
<text text-anchor="middle" x="295" y="-99.8" font-family="Times,serif" font-size="14.00">SACBootstrap3TooltipModule</text>
</g>
<!-- SACBootstrap3TooltipModule&#45;&gt;SACBootstrap3TinyMceModule -->
<g id="edge5" class="edge">
<title>SACBootstrap3TooltipModule&#45;&gt;SACBootstrap3TinyMceModule</title>
<path fill="none" stroke="black" d="M295,-122.02C295,-139.37 295,-163 295,-163 295,-163 392.44,-163 392.44,-163"/>
<polygon fill="black" stroke="black" points="392.44,-166.5 402.44,-163 392.44,-159.5 392.44,-166.5"/>
</g>
</g>
</svg>
