<?xml version="1.0" encoding="UTF-8" standalone="no"?>
<!DOCTYPE svg PUBLIC "-//W3C//DTD SVG 1.1//EN"
 "http://www.w3.org/Graphics/SVG/1.1/DTD/svg11.dtd">
<!-- Generated by graphviz version 2.47.0 (20210316.0004)
 -->
<!-- Title: dependencies Pages: 1 -->
<svg width="1036pt" height="284pt"
 viewBox="0.00 0.00 1036.00 284.00" xmlns="http://www.w3.org/2000/svg" xmlns:xlink="http://www.w3.org/1999/xlink">
<g id="graph0" class="graph" transform="scale(1 1) rotate(0) translate(4 280)">
<title>dependencies</title>
<polygon fill="white" stroke="transparent" points="-4,4 -4,-280 1032,-280 1032,4 -4,4"/>
<text text-anchor="start" x="493.01" y="-42.4" font-family="Times-12" font-weight="bold" font-size="14.00">Legend</text>
<polygon fill="#ffffb3" stroke="transparent" points="280,-10 280,-30 300,-30 300,-10 280,-10"/>
<text text-anchor="start" x="303.63" y="-15.4" font-family="Times-12" font-size="14.00"> &#160;Declarations</text>
<polygon fill="#8dd3c7" stroke="transparent" points="393,-10 393,-30 413,-30 413,-10 393,-10"/>
<text text-anchor="start" x="416.73" y="-15.4" font-family="Times-12" font-size="14.00"> &#160;Module</text>
<polygon fill="#80b1d3" stroke="transparent" points="479,-10 479,-30 499,-30 499,-10 479,-10"/>
<text text-anchor="start" x="502.78" y="-15.4" font-family="Times-12" font-size="14.00"> &#160;Bootstrap</text>
<polygon fill="#fdb462" stroke="transparent" points="576,-10 576,-30 596,-30 596,-10 576,-10"/>
<text text-anchor="start" x="599.67" y="-15.4" font-family="Times-12" font-size="14.00"> &#160;Providers</text>
<polygon fill="#fb8072" stroke="transparent" points="672,-10 672,-30 692,-30 692,-10 672,-10"/>
<text text-anchor="start" x="695.73" y="-15.4" font-family="Times-12" font-size="14.00"> &#160;Exports</text>
<g id="clust1" class="cluster">
<title>cluster_SACBootstrap3TinyMceModule</title>
<polygon fill="none" stroke="black" stroke-dasharray="1,5" points="8,-70 8,-268 1020,-268 1020,-70 8,-70"/>
</g>
<g id="clust2" class="cluster">
<title>cluster_SACBootstrap3TinyMceModule_declarations</title>
<polygon fill="none" stroke="black" points="844,-78 844,-130 1012,-130 1012,-78 844,-78"/>
</g>
<g id="clust5" class="cluster">
<title>cluster_SACBootstrap3TinyMceModule_exports</title>
<polygon fill="none" stroke="black" points="445,-208 445,-260 617,-260 617,-208 445,-208"/>
</g>
<g id="clust4" class="cluster">
<title>cluster_SACBootstrap3TinyMceModule_imports</title>
<polygon fill="none" stroke="black" points="16,-78 16,-130 836,-130 836,-78 16,-78"/>
</g>
<!-- SacTinyMceComponent -->
<g id="node1" class="node">
<title>SacTinyMceComponent</title>
<polygon fill="#ffffb3" stroke="black" points="1004.36,-122 851.64,-122 851.64,-86 1004.36,-86 1004.36,-122"/>
<text text-anchor="middle" x="928" y="-99.8" font-family="Times,serif" font-size="14.00">SacTinyMceComponent</text>
</g>
<!-- SACBootstrap3TinyMceModule -->
<g id="node2" class="node">
<title>SACBootstrap3TinyMceModule</title>
<polygon fill="#8dd3c7" stroke="black" points="630.53,-187 627.53,-191 606.53,-191 603.53,-187 431.47,-187 431.47,-151 630.53,-151 630.53,-187"/>
<text text-anchor="middle" x="531" y="-164.8" font-family="Times,serif" font-size="14.00">SACBootstrap3TinyMceModule</text>
</g>
<!-- SacTinyMceComponent&#45;&gt;SACBootstrap3TinyMceModule -->
<g id="edge1" class="edge">
<title>SacTinyMceComponent&#45;&gt;SACBootstrap3TinyMceModule</title>
<path fill="none" stroke="black" d="M928,-122.28C928,-143.32 928,-175 928,-175 928,-175 640.67,-175 640.67,-175"/>
<polygon fill="black" stroke="black" points="640.67,-171.5 630.67,-175 640.67,-178.5 640.67,-171.5"/>
</g>
<!-- SacTinyMceComponent  -->
<g id="node7" class="node">
<title>SacTinyMceComponent </title>
<polygon fill="#fb8072" stroke="black" points="609.36,-252 452.64,-252 452.64,-216 609.36,-216 609.36,-252"/>
<text text-anchor="middle" x="531" y="-229.8" font-family="Times,serif" font-size="14.00">SacTinyMceComponent </text>
</g>
<!-- SACBootstrap3TinyMceModule&#45;&gt;SacTinyMceComponent  -->
<g id="edge6" class="edge">
<title>SACBootstrap3TinyMceModule&#45;&gt;SacTinyMceComponent </title>
<path fill="none" stroke="black" stroke-dasharray="5,2" d="M531,-187.11C531,-187.11 531,-205.99 531,-205.99"/>
<polygon fill="black" stroke="black" points="527.5,-205.99 531,-215.99 534.5,-205.99 527.5,-205.99"/>
</g>
<!-- SACBootstrap3ButtonModule -->
<g id="node3" class="node">
<title>SACBootstrap3ButtonModule</title>
<polygon fill="#8dd3c7" stroke="black" points="828.33,-122 825.33,-126 804.33,-126 801.33,-122 641.67,-122 641.67,-86 828.33,-86 828.33,-122"/>
<text text-anchor="middle" x="735" y="-99.8" font-family="Times,serif" font-size="14.00">SACBootstrap3ButtonModule</text>
</g>
<!-- SACBootstrap3ButtonModule&#45;&gt;SACBootstrap3TinyMceModule -->
<g id="edge2" class="edge">
<title>SACBootstrap3ButtonModule&#45;&gt;SACBootstrap3TinyMceModule</title>
<path fill="none" stroke="black" d="M735,-122.02C735,-139.37 735,-163 735,-163 735,-163 640.61,-163 640.61,-163"/>
<polygon fill="black" stroke="black" points="640.61,-159.5 630.61,-163 640.61,-166.5 640.61,-159.5"/>
</g>
<!-- SACBootstrap3DialogModule -->
<g id="node4" class="node">
<title>SACBootstrap3DialogModule</title>
<polygon fill="#8dd3c7" stroke="black" points="624.32,-122 621.32,-126 600.32,-126 597.32,-122 437.68,-122 437.68,-86 624.32,-86 624.32,-122"/>
<text text-anchor="middle" x="531" y="-99.8" font-family="Times,serif" font-size="14.00">SACBootstrap3DialogModule</text>
</g>
<!-- SACBootstrap3DialogModule&#45;&gt;SACBootstrap3TinyMceModule -->
<g id="edge3" class="edge">
<title>SACBootstrap3DialogModule&#45;&gt;SACBootstrap3TinyMceModule</title>
<path fill="none" stroke="black" d="M531,-122.11C531,-122.11 531,-140.99 531,-140.99"/>
<polygon fill="black" stroke="black" points="527.5,-140.99 531,-150.99 534.5,-140.99 527.5,-140.99"/>
</g>
<!-- SACBootstrap3LayoutModule -->
<g id="node5" class="node">
<title>SACBootstrap3LayoutModule</title>
<polygon fill="#8dd3c7" stroke="black" points="419.87,-122 416.87,-126 395.87,-126 392.87,-122 232.13,-122 232.13,-86 419.87,-86 419.87,-122"/>
<text text-anchor="middle" x="326" y="-99.8" font-family="Times,serif" font-size="14.00">SACBootstrap3LayoutModule</text>
</g>
<!-- SACBootstrap3LayoutModule&#45;&gt;SACBootstrap3TinyMceModule -->
<g id="edge4" class="edge">
<title>SACBootstrap3LayoutModule&#45;&gt;SACBootstrap3TinyMceModule</title>
<path fill="none" stroke="black" d="M326,-122.02C326,-139.37 326,-163 326,-163 326,-163 421.2,-163 421.2,-163"/>
<polygon fill="black" stroke="black" points="421.2,-166.5 431.2,-163 421.2,-159.5 421.2,-166.5"/>
</g>
<!-- SACBootstrap3TooltipModule -->
<g id="node6" class="node">
<title>SACBootstrap3TooltipModule</title>
<polygon fill="#8dd3c7" stroke="black" points="213.94,-122 210.94,-126 189.94,-126 186.94,-122 24.06,-122 24.06,-86 213.94,-86 213.94,-122"/>
<text text-anchor="middle" x="119" y="-99.8" font-family="Times,serif" font-size="14.00">SACBootstrap3TooltipModule</text>
</g>
<!-- SACBootstrap3TooltipModule&#45;&gt;SACBootstrap3TinyMceModule -->
<g id="edge5" class="edge">
<title>SACBootstrap3TooltipModule&#45;&gt;SACBootstrap3TinyMceModule</title>
<path fill="none" stroke="black" d="M119,-122.28C119,-143.32 119,-175 119,-175 119,-175 421.27,-175 421.27,-175"/>
<polygon fill="black" stroke="black" points="421.27,-178.5 431.27,-175 421.27,-171.5 421.27,-178.5"/>
</g>
</g>
</svg>
