<?xml version="1.0" encoding="UTF-8" standalone="no"?>
<!DOCTYPE svg PUBLIC "-//W3C//DTD SVG 1.1//EN"
 "http://www.w3.org/Graphics/SVG/1.1/DTD/svg11.dtd">
<!-- Generated by graphviz version 2.47.0 (20210316.0004)
 -->
<!-- Title: dependencies Pages: 1 -->
<svg width="1828pt" height="396pt"
 viewBox="0.00 0.00 1828.00 395.59" xmlns="http://www.w3.org/2000/svg" xmlns:xlink="http://www.w3.org/1999/xlink">
<g id="graph0" class="graph" transform="scale(1 1) rotate(0) translate(4 391.59)">
<title>dependencies</title>
<polygon fill="white" stroke="transparent" points="-4,4 -4,-391.59 1824,-391.59 1824,4 -4,4"/>
<text text-anchor="start" x="889.01" y="-42.4" font-family="Times-12" font-weight="bold" font-size="14.00">Legend</text>
<polygon fill="#ffffb3" stroke="transparent" points="676,-10 676,-30 696,-30 696,-10 676,-10"/>
<text text-anchor="start" x="699.63" y="-15.4" font-family="Times-12" font-size="14.00"> &#160;Declarations</text>
<polygon fill="#8dd3c7" stroke="transparent" points="789,-10 789,-30 809,-30 809,-10 789,-10"/>
<text text-anchor="start" x="812.73" y="-15.4" font-family="Times-12" font-size="14.00"> &#160;Module</text>
<polygon fill="#80b1d3" stroke="transparent" points="875,-10 875,-30 895,-30 895,-10 875,-10"/>
<text text-anchor="start" x="898.78" y="-15.4" font-family="Times-12" font-size="14.00"> &#160;Bootstrap</text>
<polygon fill="#fdb462" stroke="transparent" points="972,-10 972,-30 992,-30 992,-10 972,-10"/>
<text text-anchor="start" x="995.67" y="-15.4" font-family="Times-12" font-size="14.00"> &#160;Providers</text>
<polygon fill="#fb8072" stroke="transparent" points="1068,-10 1068,-30 1088,-30 1088,-10 1068,-10"/>
<text text-anchor="start" x="1091.73" y="-15.4" font-family="Times-12" font-size="14.00"> &#160;Exports</text>
<g id="clust1" class="cluster">
<title>cluster_SACBootstrap3StaticLabelModule</title>
<polygon fill="none" stroke="black" stroke-dasharray="1,5" points="8,-70 8,-379.59 1812,-379.59 1812,-70 8,-70"/>
</g>
<g id="clust2" class="cluster">
<title>cluster_SACBootstrap3StaticLabelModule_declarations</title>
<polygon fill="none" stroke="black" points="758,-189.59 758,-241.59 1176,-241.59 1176,-189.59 758,-189.59"/>
</g>
<g id="clust3" class="cluster">
<title>cluster_SACBootstrap3StaticLabelModule_SacStaticFormContainerComponent_providers</title>
<polygon fill="none" stroke="black" points="16,-78 16,-176.59 1804,-176.59 1804,-78 16,-78"/>
</g>
<g id="clust6" class="cluster">
<title>cluster_SACBootstrap3StaticLabelModule_exports</title>
<polygon fill="none" stroke="black" points="549,-319.59 549,-371.59 974,-371.59 974,-319.59 549,-319.59"/>
</g>
<g id="clust5" class="cluster">
<title>cluster_SACBootstrap3StaticLabelModule_imports</title>
<polygon fill="none" stroke="black" points="338,-189.59 338,-241.59 750,-241.59 750,-189.59 338,-189.59"/>
</g>
<!-- SacStaticFormContainerComponent -->
<g id="node1" class="node">
<title>SacStaticFormContainerComponent</title>
<polygon fill="#ffffb3" stroke="black" points="1168.47,-233.59 949.53,-233.59 949.53,-197.59 1168.47,-197.59 1168.47,-233.59"/>
<text text-anchor="middle" x="1059" y="-211.39" font-family="Times,serif" font-size="14.00">SacStaticFormContainerComponent</text>
</g>
<!-- SACBootstrap3StaticLabelModule -->
<g id="node3" class="node">
<title>SACBootstrap3StaticLabelModule</title>
<polygon fill="#8dd3c7" stroke="black" points="853.97,-298.59 850.97,-302.59 829.97,-302.59 826.97,-298.59 642.03,-298.59 642.03,-262.59 853.97,-262.59 853.97,-298.59"/>
<text text-anchor="middle" x="748" y="-276.39" font-family="Times,serif" font-size="14.00">SACBootstrap3StaticLabelModule</text>
</g>
<!-- SacStaticFormContainerComponent&#45;&gt;SACBootstrap3StaticLabelModule -->
<g id="edge1" class="edge">
<title>SacStaticFormContainerComponent&#45;&gt;SACBootstrap3StaticLabelModule</title>
<path fill="none" stroke="black" d="M957.88,-233.7C957.88,-252.93 957.88,-280.59 957.88,-280.59 957.88,-280.59 864.17,-280.59 864.17,-280.59"/>
<polygon fill="black" stroke="black" points="864.17,-277.09 854.17,-280.59 864.17,-284.09 864.17,-277.09"/>
</g>
<!-- SacStaticLabelComponent -->
<g id="node2" class="node">
<title>SacStaticLabelComponent</title>
<polygon fill="#ffffb3" stroke="black" points="931.8,-233.59 766.2,-233.59 766.2,-197.59 931.8,-197.59 931.8,-233.59"/>
<text text-anchor="middle" x="849" y="-211.39" font-family="Times,serif" font-size="14.00">SacStaticLabelComponent</text>
</g>
<!-- SacStaticLabelComponent&#45;&gt;SACBootstrap3StaticLabelModule -->
<g id="edge4" class="edge">
<title>SacStaticLabelComponent&#45;&gt;SACBootstrap3StaticLabelModule</title>
<path fill="none" stroke="black" d="M810.17,-233.7C810.17,-233.7 810.17,-252.58 810.17,-252.58"/>
<polygon fill="black" stroke="black" points="806.67,-252.58 810.17,-262.58 813.67,-252.58 806.67,-252.58"/>
</g>
<!-- SacStaticFormContainerComponent  -->
<g id="node8" class="node">
<title>SacStaticFormContainerComponent </title>
<polygon fill="#fb8072" stroke="black" points="966.47,-363.59 743.53,-363.59 743.53,-327.59 966.47,-327.59 966.47,-363.59"/>
<text text-anchor="middle" x="855" y="-341.39" font-family="Times,serif" font-size="14.00">SacStaticFormContainerComponent </text>
</g>
<!-- SACBootstrap3StaticLabelModule&#45;&gt;SacStaticFormContainerComponent  -->
<g id="edge7" class="edge">
<title>SACBootstrap3StaticLabelModule&#45;&gt;SacStaticFormContainerComponent </title>
<path fill="none" stroke="black" stroke-dasharray="5,2" d="M798.88,-298.7C798.88,-298.7 798.88,-317.58 798.88,-317.58"/>
<polygon fill="black" stroke="black" points="795.38,-317.58 798.88,-327.58 802.38,-317.58 795.38,-317.58"/>
</g>
<!-- SacStaticLabelComponent  -->
<g id="node9" class="node">
<title>SacStaticLabelComponent </title>
<polygon fill="#fb8072" stroke="black" points="725.3,-363.59 556.7,-363.59 556.7,-327.59 725.3,-327.59 725.3,-363.59"/>
<text text-anchor="middle" x="641" y="-341.39" font-family="Times,serif" font-size="14.00">SacStaticLabelComponent </text>
</g>
<!-- SACBootstrap3StaticLabelModule&#45;&gt;SacStaticLabelComponent  -->
<g id="edge8" class="edge">
<title>SACBootstrap3StaticLabelModule&#45;&gt;SacStaticLabelComponent </title>
<path fill="none" stroke="black" stroke-dasharray="5,2" d="M683.71,-298.7C683.71,-298.7 683.71,-317.58 683.71,-317.58"/>
<polygon fill="black" stroke="black" points="680.21,-317.58 683.71,-327.58 687.21,-317.58 680.21,-317.58"/>
</g>
<!-- {
 &#160;&#160;&#160;provide: NG_VALUE_ACCESSOR, multi: true, useExisting: SacStaticFormContainerComponent,
} -->
<g id="node4" class="node">
<title>{
 &#160;&#160;&#160;provide: NG_VALUE_ACCESSOR, multi: true, useExisting: SacStaticFormContainerComponent,
}</title>
<ellipse fill="#fdb462" stroke="black" cx="1382" cy="-127.3" rx="414.29" ry="41.09"/>
<text text-anchor="middle" x="1382" y="-139.9" font-family="Times,serif" font-size="14.00">{</text>
<text text-anchor="middle" x="1382" y="-123.1" font-family="Times,serif" font-size="14.00"> &#160;&#160;&#160;provide: NG_VALUE_ACCESSOR, multi: true, useExisting: SacStaticFormContainerComponent,</text>
<text text-anchor="middle" x="1382" y="-106.3" font-family="Times,serif" font-size="14.00">}</text>
</g>
<!-- {
 &#160;&#160;&#160;provide: NG_VALUE_ACCESSOR, multi: true, useExisting: SacStaticFormContainerComponent,
}&#45;&gt;SacStaticFormContainerComponent -->
<g id="edge2" class="edge">
<title>{
 &#160;&#160;&#160;provide: NG_VALUE_ACCESSOR, multi: true, useExisting: SacStaticFormContainerComponent,
}&#45;&gt;SacStaticFormContainerComponent</title>
<path fill="none" stroke="black" d="M1068.05,-154.27C1068.05,-154.27 1068.05,-187.44 1068.05,-187.44"/>
<polygon fill="black" stroke="black" points="1064.55,-187.44 1068.05,-197.44 1071.55,-187.44 1064.55,-187.44"/>
</g>
<!-- {
 &#160;&#160;&#160;provide: NG_VALIDATORS, multi: true, useExisting: forwardRef(() =&gt; SacStaticFormContainerComponent),
} -->
<g id="node5" class="node">
<title>{
 &#160;&#160;&#160;provide: NG_VALIDATORS, multi: true, useExisting: forwardRef(() =&gt; SacStaticFormContainerComponent),
}</title>
<ellipse fill="#fdb462" stroke="black" cx="487" cy="-127.3" rx="462.8" ry="41.09"/>
<text text-anchor="middle" x="487" y="-139.9" font-family="Times,serif" font-size="14.00">{</text>
<text text-anchor="middle" x="487" y="-123.1" font-family="Times,serif" font-size="14.00"> &#160;&#160;&#160;provide: NG_VALIDATORS, multi: true, useExisting: forwardRef(() =&gt; SacStaticFormContainerComponent),</text>
<text text-anchor="middle" x="487" y="-106.3" font-family="Times,serif" font-size="14.00">}</text>
</g>
<!-- {
 &#160;&#160;&#160;provide: NG_VALIDATORS, multi: true, useExisting: forwardRef(() =&gt; SacStaticFormContainerComponent),
}&#45;&gt;SacStaticFormContainerComponent -->
<g id="edge3" class="edge">
<title>{
 &#160;&#160;&#160;provide: NG_VALIDATORS, multi: true, useExisting: forwardRef(() =&gt; SacStaticFormContainerComponent),
}&#45;&gt;SacStaticFormContainerComponent</title>
<path fill="none" stroke="black" d="M940.58,-135.76C940.58,-157.86 940.58,-215.59 940.58,-215.59 940.58,-215.59 941.47,-215.59 941.47,-215.59"/>
<polygon fill="black" stroke="black" points="939.48,-219.09 949.48,-215.59 939.48,-212.09 939.48,-219.09"/>
</g>
<!-- SACBootstrap3LayoutModule -->
<g id="node6" class="node">
<title>SACBootstrap3LayoutModule</title>
<polygon fill="#8dd3c7" stroke="black" points="741.87,-233.59 738.87,-237.59 717.87,-237.59 714.87,-233.59 554.13,-233.59 554.13,-197.59 741.87,-197.59 741.87,-233.59"/>
<text text-anchor="middle" x="648" y="-211.39" font-family="Times,serif" font-size="14.00">SACBootstrap3LayoutModule</text>
</g>
<!-- SACBootstrap3LayoutModule&#45;&gt;SACBootstrap3StaticLabelModule -->
<g id="edge5" class="edge">
<title>SACBootstrap3LayoutModule&#45;&gt;SACBootstrap3StaticLabelModule</title>
<path fill="none" stroke="black" d="M691.98,-233.7C691.98,-233.7 691.98,-252.58 691.98,-252.58"/>
<polygon fill="black" stroke="black" points="688.48,-252.58 691.98,-262.58 695.48,-252.58 688.48,-252.58"/>
</g>
<!-- SACBootstrap3TooltipModule -->
<g id="node7" class="node">
<title>SACBootstrap3TooltipModule</title>
<polygon fill="#8dd3c7" stroke="black" points="535.94,-233.59 532.94,-237.59 511.94,-237.59 508.94,-233.59 346.06,-233.59 346.06,-197.59 535.94,-197.59 535.94,-233.59"/>
<text text-anchor="middle" x="441" y="-211.39" font-family="Times,serif" font-size="14.00">SACBootstrap3TooltipModule</text>
</g>
<!-- SACBootstrap3TooltipModule&#45;&gt;SACBootstrap3StaticLabelModule -->
<g id="edge6" class="edge">
<title>SACBootstrap3TooltipModule&#45;&gt;SACBootstrap3StaticLabelModule</title>
<path fill="none" stroke="black" d="M441,-233.7C441,-252.93 441,-280.59 441,-280.59 441,-280.59 631.92,-280.59 631.92,-280.59"/>
<polygon fill="black" stroke="black" points="631.92,-284.09 641.92,-280.59 631.92,-277.09 631.92,-284.09"/>
</g>
</g>
</svg>
