<?xml version="1.0" encoding="UTF-8" standalone="no"?>
<!DOCTYPE svg PUBLIC "-//W3C//DTD SVG 1.1//EN"
 "http://www.w3.org/Graphics/SVG/1.1/DTD/svg11.dtd">
<!-- Generated by graphviz version 2.47.0 (20210316.0004)
 -->
<!-- Title: dependencies Pages: 1 -->
<svg width="618pt" height="284pt"
 viewBox="0.00 0.00 618.00 284.00" xmlns="http://www.w3.org/2000/svg" xmlns:xlink="http://www.w3.org/1999/xlink">
<g id="graph0" class="graph" transform="scale(1 1) rotate(0) translate(4 280)">
<title>dependencies</title>
<polygon fill="white" stroke="transparent" points="-4,4 -4,-280 614,-280 614,4 -4,4"/>
<text text-anchor="start" x="284.01" y="-42.4" font-family="Times-12" font-weight="bold" font-size="14.00">Legend</text>
<polygon fill="#ffffb3" stroke="transparent" points="71,-10 71,-30 91,-30 91,-10 71,-10"/>
<text text-anchor="start" x="94.63" y="-15.4" font-family="Times-12" font-size="14.00"> &#160;Declarations</text>
<polygon fill="#8dd3c7" stroke="transparent" points="184,-10 184,-30 204,-30 204,-10 184,-10"/>
<text text-anchor="start" x="207.73" y="-15.4" font-family="Times-12" font-size="14.00"> &#160;Module</text>
<polygon fill="#80b1d3" stroke="transparent" points="270,-10 270,-30 290,-30 290,-10 270,-10"/>
<text text-anchor="start" x="293.78" y="-15.4" font-family="Times-12" font-size="14.00"> &#160;Bootstrap</text>
<polygon fill="#fdb462" stroke="transparent" points="367,-10 367,-30 387,-30 387,-10 367,-10"/>
<text text-anchor="start" x="390.67" y="-15.4" font-family="Times-12" font-size="14.00"> &#160;Providers</text>
<polygon fill="#fb8072" stroke="transparent" points="463,-10 463,-30 483,-30 483,-10 463,-10"/>
<text text-anchor="start" x="486.73" y="-15.4" font-family="Times-12" font-size="14.00"> &#160;Exports</text>
<g id="clust1" class="cluster">
<title>cluster_SACBootstrap3StaticLabelModule</title>
<polygon fill="none" stroke="black" stroke-dasharray="1,5" points="8,-70 8,-268 602,-268 602,-70 8,-70"/>
</g>
<g id="clust4" class="cluster">
<title>cluster_SACBootstrap3StaticLabelModule_exports</title>
<polygon fill="none" stroke="black" points="92,-208 92,-260 517,-260 517,-208 92,-208"/>
</g>
<g id="clust3" class="cluster">
<title>cluster_SACBootstrap3StaticLabelModule_imports</title>
<polygon fill="none" stroke="black" points="16,-78 16,-130 594,-130 594,-78 16,-78"/>
</g>
<!-- SacStaticFormContainerComponent -->
<g id="node1" class="node">
<title>SacStaticFormContainerComponent</title>
<polygon fill="#8dd3c7" stroke="black" points="586.47,-122 583.47,-126 562.47,-126 559.47,-122 367.53,-122 367.53,-86 586.47,-86 586.47,-122"/>
<text text-anchor="middle" x="477" y="-99.8" font-family="Times,serif" font-size="14.00">SacStaticFormContainerComponent</text>
</g>
<!-- SACBootstrap3StaticLabelModule -->
<g id="node4" class="node">
<title>SACBootstrap3StaticLabelModule</title>
<polygon fill="#8dd3c7" stroke="black" points="372.97,-187 369.97,-191 348.97,-191 345.97,-187 161.03,-187 161.03,-151 372.97,-151 372.97,-187"/>
<text text-anchor="middle" x="267" y="-164.8" font-family="Times,serif" font-size="14.00">SACBootstrap3StaticLabelModule</text>
</g>
<!-- SacStaticFormContainerComponent&#45;&gt;SACBootstrap3StaticLabelModule -->
<g id="edge1" class="edge">
<title>SacStaticFormContainerComponent&#45;&gt;SACBootstrap3StaticLabelModule</title>
<path fill="none" stroke="black" d="M367.48,-104C361.92,-104 358.58,-104 358.58,-104 358.58,-104 358.58,-140.89 358.58,-140.89"/>
<polygon fill="black" stroke="black" points="355.08,-140.89 358.58,-150.89 362.08,-140.89 355.08,-140.89"/>
</g>
<!-- SacStaticLabelComponent -->
<g id="node2" class="node">
<title>SacStaticLabelComponent</title>
<polygon fill="#8dd3c7" stroke="black" points="349.8,-122 346.8,-126 325.8,-126 322.8,-122 184.2,-122 184.2,-86 349.8,-86 349.8,-122"/>
<text text-anchor="middle" x="267" y="-99.8" font-family="Times,serif" font-size="14.00">SacStaticLabelComponent</text>
</g>
<!-- SacStaticLabelComponent&#45;&gt;SACBootstrap3StaticLabelModule -->
<g id="edge2" class="edge">
<title>SacStaticLabelComponent&#45;&gt;SACBootstrap3StaticLabelModule</title>
<path fill="none" stroke="black" d="M267,-122.11C267,-122.11 267,-140.99 267,-140.99"/>
<polygon fill="black" stroke="black" points="263.5,-140.99 267,-150.99 270.5,-140.99 263.5,-140.99"/>
</g>
<!-- SacTooltipComponent -->
<g id="node3" class="node">
<title>SacTooltipComponent</title>
<polygon fill="#8dd3c7" stroke="black" points="166.27,-122 163.27,-126 142.27,-126 139.27,-122 23.73,-122 23.73,-86 166.27,-86 166.27,-122"/>
<text text-anchor="middle" x="95" y="-99.8" font-family="Times,serif" font-size="14.00">SacTooltipComponent</text>
</g>
<!-- SacTooltipComponent&#45;&gt;SACBootstrap3StaticLabelModule -->
<g id="edge3" class="edge">
<title>SacTooltipComponent&#45;&gt;SACBootstrap3StaticLabelModule</title>
<path fill="none" stroke="black" d="M166.46,-104C171.92,-104 175.37,-104 175.37,-104 175.37,-104 175.37,-140.89 175.37,-140.89"/>
<polygon fill="black" stroke="black" points="171.87,-140.89 175.37,-150.89 178.87,-140.89 171.87,-140.89"/>
</g>
<!-- SacStaticFormContainerComponent  -->
<g id="node5" class="node">
<title>SacStaticFormContainerComponent </title>
<polygon fill="#fb8072" stroke="black" points="509.47,-252 286.53,-252 286.53,-216 509.47,-216 509.47,-252"/>
<text text-anchor="middle" x="398" y="-229.8" font-family="Times,serif" font-size="14.00">SacStaticFormContainerComponent </text>
</g>
<!-- SACBootstrap3StaticLabelModule&#45;&gt;SacStaticFormContainerComponent  -->
<g id="edge4" class="edge">
<title>SACBootstrap3StaticLabelModule&#45;&gt;SacStaticFormContainerComponent </title>
<path fill="none" stroke="black" stroke-dasharray="5,2" d="M329.88,-187.11C329.88,-187.11 329.88,-205.99 329.88,-205.99"/>
<polygon fill="black" stroke="black" points="326.38,-205.99 329.88,-215.99 333.38,-205.99 326.38,-205.99"/>
</g>
<!-- SacStaticLabelComponent  -->
<g id="node6" class="node">
<title>SacStaticLabelComponent </title>
<polygon fill="#fb8072" stroke="black" points="268.3,-252 99.7,-252 99.7,-216 268.3,-216 268.3,-252"/>
<text text-anchor="middle" x="184" y="-229.8" font-family="Times,serif" font-size="14.00">SacStaticLabelComponent </text>
</g>
<!-- SACBootstrap3StaticLabelModule&#45;&gt;SacStaticLabelComponent  -->
<g id="edge5" class="edge">
<title>SACBootstrap3StaticLabelModule&#45;&gt;SacStaticLabelComponent </title>
<path fill="none" stroke="black" stroke-dasharray="5,2" d="M214.71,-187.11C214.71,-187.11 214.71,-205.99 214.71,-205.99"/>
<polygon fill="black" stroke="black" points="211.21,-205.99 214.71,-215.99 218.21,-205.99 211.21,-205.99"/>
</g>
</g>
</svg>
