<?xml version="1.0" encoding="UTF-8" standalone="no"?>
<!DOCTYPE svg PUBLIC "-//W3C//DTD SVG 1.1//EN"
 "http://www.w3.org/Graphics/SVG/1.1/DTD/svg11.dtd">
<!-- Generated by graphviz version 2.47.0 (20210316.0004)
 -->
<!-- Title: dependencies Pages: 1 -->
<svg width="2698pt" height="396pt"
 viewBox="0.00 0.00 2698.00 395.59" xmlns="http://www.w3.org/2000/svg" xmlns:xlink="http://www.w3.org/1999/xlink">
<g id="graph0" class="graph" transform="scale(1 1) rotate(0) translate(4 391.59)">
<title>dependencies</title>
<polygon fill="white" stroke="transparent" points="-4,4 -4,-391.59 2694,-391.59 2694,4 -4,4"/>
<text text-anchor="start" x="1324.01" y="-42.4" font-family="Times-12" font-weight="bold" font-size="14.00">Legend</text>
<polygon fill="#ffffb3" stroke="transparent" points="1111,-10 1111,-30 1131,-30 1131,-10 1111,-10"/>
<text text-anchor="start" x="1134.63" y="-15.4" font-family="Times-12" font-size="14.00"> &#160;Declarations</text>
<polygon fill="#8dd3c7" stroke="transparent" points="1224,-10 1224,-30 1244,-30 1244,-10 1224,-10"/>
<text text-anchor="start" x="1247.73" y="-15.4" font-family="Times-12" font-size="14.00"> &#160;Module</text>
<polygon fill="#80b1d3" stroke="transparent" points="1310,-10 1310,-30 1330,-30 1330,-10 1310,-10"/>
<text text-anchor="start" x="1333.78" y="-15.4" font-family="Times-12" font-size="14.00"> &#160;Bootstrap</text>
<polygon fill="#fdb462" stroke="transparent" points="1407,-10 1407,-30 1427,-30 1427,-10 1407,-10"/>
<text text-anchor="start" x="1430.67" y="-15.4" font-family="Times-12" font-size="14.00"> &#160;Providers</text>
<polygon fill="#fb8072" stroke="transparent" points="1503,-10 1503,-30 1523,-30 1523,-10 1503,-10"/>
<text text-anchor="start" x="1526.73" y="-15.4" font-family="Times-12" font-size="14.00"> &#160;Exports</text>
<g id="clust1" class="cluster">
<title>cluster_SACBootstrap3ListModule</title>
<polygon fill="none" stroke="black" stroke-dasharray="1,5" points="8,-70 8,-379.59 2682,-379.59 2682,-70 8,-70"/>
</g>
<g id="clust6" class="cluster">
<title>cluster_SACBootstrap3ListModule_imports</title>
<polygon fill="none" stroke="black" points="2024,-189.59 2024,-241.59 2674,-241.59 2674,-189.59 2024,-189.59"/>
</g>
<g id="clust3" class="cluster">
<title>cluster_SACBootstrap3ListModule_SacDropdownComponent_providers</title>
<polygon fill="none" stroke="black" points="390,-78 390,-241.59 2016,-241.59 2016,-78 390,-78"/>
</g>
<g id="clust2" class="cluster">
<title>cluster_SACBootstrap3ListModule_declarations</title>
<polygon fill="none" stroke="black" points="16,-189.59 16,-241.59 382,-241.59 382,-189.59 16,-189.59"/>
</g>
<g id="clust7" class="cluster">
<title>cluster_SACBootstrap3ListModule_exports</title>
<polygon fill="none" stroke="black" points="1619,-319.59 1619,-371.59 2174,-371.59 2174,-319.59 1619,-319.59"/>
</g>
<!-- SacDropdownComponent -->
<g id="node1" class="node">
<title>SacDropdownComponent</title>
<polygon fill="#ffffb3" stroke="black" points="1714.92,-233.59 1553.08,-233.59 1553.08,-197.59 1714.92,-197.59 1714.92,-233.59"/>
<text text-anchor="middle" x="1634" y="-211.39" font-family="Times,serif" font-size="14.00">SacDropdownComponent</text>
</g>
<!-- SACBootstrap3ListModule -->
<g id="node4" class="node">
<title>SACBootstrap3ListModule</title>
<polygon fill="#8dd3c7" stroke="black" points="1972.99,-298.59 1969.99,-302.59 1948.99,-302.59 1945.99,-298.59 1803.01,-298.59 1803.01,-262.59 1972.99,-262.59 1972.99,-298.59"/>
<text text-anchor="middle" x="1888" y="-276.39" font-family="Times,serif" font-size="14.00">SACBootstrap3ListModule</text>
</g>
<!-- SacDropdownComponent&#45;&gt;SACBootstrap3ListModule -->
<g id="edge1" class="edge">
<title>SacDropdownComponent&#45;&gt;SACBootstrap3ListModule</title>
<path fill="none" stroke="black" d="M1670.9,-233.6C1670.9,-249.64 1670.9,-270.59 1670.9,-270.59 1670.9,-270.59 1792.82,-270.59 1792.82,-270.59"/>
<polygon fill="black" stroke="black" points="1792.82,-274.09 1802.82,-270.59 1792.82,-267.09 1792.82,-274.09"/>
</g>
<!-- SacDropdownOptionDirective -->
<g id="node2" class="node">
<title>SacDropdownOptionDirective</title>
<polygon fill="#ffffb3" stroke="black" points="373.56,-233.59 186.44,-233.59 186.44,-197.59 373.56,-197.59 373.56,-233.59"/>
<text text-anchor="middle" x="280" y="-211.39" font-family="Times,serif" font-size="14.00">SacDropdownOptionDirective</text>
</g>
<!-- SacDropdownOptionDirective&#45;&gt;SACBootstrap3ListModule -->
<g id="edge4" class="edge">
<title>SacDropdownOptionDirective&#45;&gt;SACBootstrap3ListModule</title>
<path fill="none" stroke="black" d="M280,-233.86C280,-252.15 280,-277.59 280,-277.59 280,-277.59 1792.97,-277.59 1792.97,-277.59"/>
<polygon fill="black" stroke="black" points="1792.97,-281.09 1802.97,-277.59 1792.97,-274.09 1792.97,-281.09"/>
</g>
<!-- SacListboxComponent -->
<g id="node3" class="node">
<title>SacListboxComponent</title>
<polygon fill="#ffffb3" stroke="black" points="168.32,-233.59 23.68,-233.59 23.68,-197.59 168.32,-197.59 168.32,-233.59"/>
<text text-anchor="middle" x="96" y="-211.39" font-family="Times,serif" font-size="14.00">SacListboxComponent</text>
</g>
<!-- SacListboxComponent&#45;&gt;SACBootstrap3ListModule -->
<g id="edge5" class="edge">
<title>SacListboxComponent&#45;&gt;SACBootstrap3ListModule</title>
<path fill="none" stroke="black" d="M96,-233.72C96,-254.16 96,-284.59 96,-284.59 96,-284.59 1792.77,-284.59 1792.77,-284.59"/>
<polygon fill="black" stroke="black" points="1792.77,-288.09 1802.77,-284.59 1792.77,-281.09 1792.77,-288.09"/>
</g>
<!-- SacDropdownComponent  -->
<g id="node10" class="node">
<title>SacDropdownComponent </title>
<polygon fill="#fb8072" stroke="black" points="2166.42,-363.59 2001.58,-363.59 2001.58,-327.59 2166.42,-327.59 2166.42,-363.59"/>
<text text-anchor="middle" x="2084" y="-341.39" font-family="Times,serif" font-size="14.00">SacDropdownComponent </text>
</g>
<!-- SACBootstrap3ListModule&#45;&gt;SacDropdownComponent  -->
<g id="edge9" class="edge">
<title>SACBootstrap3ListModule&#45;&gt;SacDropdownComponent </title>
<path fill="none" stroke="black" stroke-dasharray="5,2" d="M1973.27,-291.59C1998.6,-291.59 2019.71,-291.59 2019.71,-291.59 2019.71,-291.59 2019.71,-317.31 2019.71,-317.31"/>
<polygon fill="black" stroke="black" points="2016.21,-317.31 2019.71,-327.31 2023.21,-317.31 2016.21,-317.31"/>
</g>
<!-- SacDropdownOptionDirective  -->
<g id="node11" class="node">
<title>SacDropdownOptionDirective </title>
<polygon fill="#fb8072" stroke="black" points="1983.06,-363.59 1792.94,-363.59 1792.94,-327.59 1983.06,-327.59 1983.06,-363.59"/>
<text text-anchor="middle" x="1888" y="-341.39" font-family="Times,serif" font-size="14.00">SacDropdownOptionDirective </text>
</g>
<!-- SACBootstrap3ListModule&#45;&gt;SacDropdownOptionDirective  -->
<g id="edge10" class="edge">
<title>SACBootstrap3ListModule&#45;&gt;SacDropdownOptionDirective </title>
<path fill="none" stroke="black" stroke-dasharray="5,2" d="M1888,-298.7C1888,-298.7 1888,-317.58 1888,-317.58"/>
<polygon fill="black" stroke="black" points="1884.5,-317.58 1888,-327.58 1891.5,-317.58 1884.5,-317.58"/>
</g>
<!-- SacListboxComponent  -->
<g id="node12" class="node">
<title>SacListboxComponent </title>
<polygon fill="#fb8072" stroke="black" points="1774.82,-363.59 1627.18,-363.59 1627.18,-327.59 1774.82,-327.59 1774.82,-363.59"/>
<text text-anchor="middle" x="1701" y="-341.39" font-family="Times,serif" font-size="14.00">SacListboxComponent </text>
</g>
<!-- SACBootstrap3ListModule&#45;&gt;SacListboxComponent  -->
<g id="edge11" class="edge">
<title>SACBootstrap3ListModule&#45;&gt;SacListboxComponent </title>
<path fill="none" stroke="black" stroke-dasharray="5,2" d="M1802.64,-291.59C1771.97,-291.59 1744.81,-291.59 1744.81,-291.59 1744.81,-291.59 1744.81,-317.31 1744.81,-317.31"/>
<polygon fill="black" stroke="black" points="1741.31,-317.31 1744.81,-327.31 1748.31,-317.31 1741.31,-317.31"/>
</g>
<!-- {
 &#160;&#160;&#160;provide: NG_VALUE_ACCESSOR, multi: true, useExisting: SacDropdownComponent,
} -->
<g id="node5" class="node">
<title>{
 &#160;&#160;&#160;provide: NG_VALUE_ACCESSOR, multi: true, useExisting: SacDropdownComponent,
}</title>
<ellipse fill="#fdb462" stroke="black" cx="1634" cy="-127.3" rx="373.9" ry="41.09"/>
<text text-anchor="middle" x="1634" y="-139.9" font-family="Times,serif" font-size="14.00">{</text>
<text text-anchor="middle" x="1634" y="-123.1" font-family="Times,serif" font-size="14.00"> &#160;&#160;&#160;provide: NG_VALUE_ACCESSOR, multi: true, useExisting: SacDropdownComponent,</text>
<text text-anchor="middle" x="1634" y="-106.3" font-family="Times,serif" font-size="14.00">}</text>
</g>
<!-- {
 &#160;&#160;&#160;provide: NG_VALUE_ACCESSOR, multi: true, useExisting: SacDropdownComponent,
}&#45;&gt;SacDropdownComponent -->
<g id="edge2" class="edge">
<title>{
 &#160;&#160;&#160;provide: NG_VALUE_ACCESSOR, multi: true, useExisting: SacDropdownComponent,
}&#45;&gt;SacDropdownComponent</title>
<path fill="none" stroke="black" d="M1634,-168.6C1634,-168.6 1634,-187.26 1634,-187.26"/>
<polygon fill="black" stroke="black" points="1630.5,-187.26 1634,-197.26 1637.5,-187.26 1630.5,-187.26"/>
</g>
<!-- {
 &#160;&#160;&#160;provide: NG_VALIDATORS, multi: true, useExisting: forwardRef(() =&gt; SacDropdownComponent),
} -->
<g id="node6" class="node">
<title>{
 &#160;&#160;&#160;provide: NG_VALIDATORS, multi: true, useExisting: forwardRef(() =&gt; SacDropdownComponent),
}</title>
<ellipse fill="#fdb462" stroke="black" cx="820" cy="-127.3" rx="422.41" ry="41.09"/>
<text text-anchor="middle" x="820" y="-139.9" font-family="Times,serif" font-size="14.00">{</text>
<text text-anchor="middle" x="820" y="-123.1" font-family="Times,serif" font-size="14.00"> &#160;&#160;&#160;provide: NG_VALIDATORS, multi: true, useExisting: forwardRef(() =&gt; SacDropdownComponent),</text>
<text text-anchor="middle" x="820" y="-106.3" font-family="Times,serif" font-size="14.00">}</text>
</g>
<!-- {
 &#160;&#160;&#160;provide: NG_VALIDATORS, multi: true, useExisting: forwardRef(() =&gt; SacDropdownComponent),
}&#45;&gt;SacDropdownComponent -->
<g id="edge3" class="edge">
<title>{
 &#160;&#160;&#160;provide: NG_VALIDATORS, multi: true, useExisting: forwardRef(() =&gt; SacDropdownComponent),
}&#45;&gt;SacDropdownComponent</title>
<path fill="none" stroke="black" d="M820,-168.6C820,-191.58 820,-215.59 820,-215.59 820,-215.59 1542.97,-215.59 1542.97,-215.59"/>
<polygon fill="black" stroke="black" points="1542.97,-219.09 1552.97,-215.59 1542.97,-212.09 1542.97,-219.09"/>
</g>
<!-- SACBootstrap3LayoutModule -->
<g id="node7" class="node">
<title>SACBootstrap3LayoutModule</title>
<polygon fill="#8dd3c7" stroke="black" points="2665.87,-233.59 2662.87,-237.59 2641.87,-237.59 2638.87,-233.59 2478.13,-233.59 2478.13,-197.59 2665.87,-197.59 2665.87,-233.59"/>
<text text-anchor="middle" x="2572" y="-211.39" font-family="Times,serif" font-size="14.00">SACBootstrap3LayoutModule</text>
</g>
<!-- SACBootstrap3LayoutModule&#45;&gt;SACBootstrap3ListModule -->
<g id="edge6" class="edge">
<title>SACBootstrap3LayoutModule&#45;&gt;SACBootstrap3ListModule</title>
<path fill="none" stroke="black" d="M2572,-233.72C2572,-254.16 2572,-284.59 2572,-284.59 2572,-284.59 1983.25,-284.59 1983.25,-284.59"/>
<polygon fill="black" stroke="black" points="1983.25,-281.09 1973.25,-284.59 1983.25,-288.09 1983.25,-281.09"/>
</g>
<!-- SACBootstrap3TooltipModule -->
<g id="node8" class="node">
<title>SACBootstrap3TooltipModule</title>
<polygon fill="#8dd3c7" stroke="black" points="2459.94,-233.59 2456.94,-237.59 2435.94,-237.59 2432.94,-233.59 2270.06,-233.59 2270.06,-197.59 2459.94,-197.59 2459.94,-233.59"/>
<text text-anchor="middle" x="2365" y="-211.39" font-family="Times,serif" font-size="14.00">SACBootstrap3TooltipModule</text>
</g>
<!-- SACBootstrap3TooltipModule&#45;&gt;SACBootstrap3ListModule -->
<g id="edge7" class="edge">
<title>SACBootstrap3TooltipModule&#45;&gt;SACBootstrap3ListModule</title>
<path fill="none" stroke="black" d="M2365,-233.86C2365,-252.15 2365,-277.59 2365,-277.59 2365,-277.59 1983,-277.59 1983,-277.59"/>
<polygon fill="black" stroke="black" points="1983,-274.09 1973,-277.59 1983,-281.09 1983,-274.09"/>
</g>
<!-- SACCommonListboxOptionModule -->
<g id="node9" class="node">
<title>SACCommonListboxOptionModule</title>
<polygon fill="#8dd3c7" stroke="black" points="2252.06,-233.59 2249.06,-237.59 2228.06,-237.59 2225.06,-233.59 2031.94,-233.59 2031.94,-197.59 2252.06,-197.59 2252.06,-233.59"/>
<text text-anchor="middle" x="2142" y="-211.39" font-family="Times,serif" font-size="14.00">SACCommonListboxOptionModule</text>
</g>
<!-- SACCommonListboxOptionModule&#45;&gt;SACBootstrap3ListModule -->
<g id="edge8" class="edge">
<title>SACCommonListboxOptionModule&#45;&gt;SACBootstrap3ListModule</title>
<path fill="none" stroke="black" d="M2099.09,-233.6C2099.09,-249.64 2099.09,-270.59 2099.09,-270.59 2099.09,-270.59 1983.25,-270.59 1983.25,-270.59"/>
<polygon fill="black" stroke="black" points="1983.25,-267.09 1973.25,-270.59 1983.25,-274.09 1983.25,-267.09"/>
</g>
</g>
</svg>
