<?xml version="1.0" encoding="UTF-8" standalone="no"?>
<!DOCTYPE svg PUBLIC "-//W3C//DTD SVG 1.1//EN"
 "http://www.w3.org/Graphics/SVG/1.1/DTD/svg11.dtd">
<!-- Generated by graphviz version 2.47.0 (20210316.0004)
 -->
<!-- Title: dependencies Pages: 1 -->
<svg width="1666pt" height="396pt"
 viewBox="0.00 0.00 1666.00 395.59" xmlns="http://www.w3.org/2000/svg" xmlns:xlink="http://www.w3.org/1999/xlink">
<g id="graph0" class="graph" transform="scale(1 1) rotate(0) translate(4 391.59)">
<title>dependencies</title>
<polygon fill="white" stroke="transparent" points="-4,4 -4,-391.59 1662,-391.59 1662,4 -4,4"/>
<text text-anchor="start" x="808.01" y="-42.4" font-family="Times-12" font-weight="bold" font-size="14.00">Legend</text>
<polygon fill="#ffffb3" stroke="transparent" points="595,-10 595,-30 615,-30 615,-10 595,-10"/>
<text text-anchor="start" x="618.63" y="-15.4" font-family="Times-12" font-size="14.00"> &#160;Declarations</text>
<polygon fill="#8dd3c7" stroke="transparent" points="708,-10 708,-30 728,-30 728,-10 708,-10"/>
<text text-anchor="start" x="731.73" y="-15.4" font-family="Times-12" font-size="14.00"> &#160;Module</text>
<polygon fill="#80b1d3" stroke="transparent" points="794,-10 794,-30 814,-30 814,-10 794,-10"/>
<text text-anchor="start" x="817.78" y="-15.4" font-family="Times-12" font-size="14.00"> &#160;Bootstrap</text>
<polygon fill="#fdb462" stroke="transparent" points="891,-10 891,-30 911,-30 911,-10 891,-10"/>
<text text-anchor="start" x="914.67" y="-15.4" font-family="Times-12" font-size="14.00"> &#160;Providers</text>
<polygon fill="#fb8072" stroke="transparent" points="987,-10 987,-30 1007,-30 1007,-10 987,-10"/>
<text text-anchor="start" x="1010.73" y="-15.4" font-family="Times-12" font-size="14.00"> &#160;Exports</text>
<g id="clust1" class="cluster">
<title>cluster_SACBootstrap3ListModule</title>
<polygon fill="none" stroke="black" stroke-dasharray="1,5" points="8,-70 8,-379.59 1650,-379.59 1650,-70 8,-70"/>
</g>
<g id="clust6" class="cluster">
<title>cluster_SACBootstrap3ListModule_imports</title>
<polygon fill="none" stroke="black" points="780,-189.59 780,-241.59 1430,-241.59 1430,-189.59 780,-189.59"/>
</g>
<g id="clust7" class="cluster">
<title>cluster_SACBootstrap3ListModule_exports</title>
<polygon fill="none" stroke="black" points="521,-319.59 521,-371.59 1076,-371.59 1076,-319.59 521,-319.59"/>
</g>
<g id="clust2" class="cluster">
<title>cluster_SACBootstrap3ListModule_declarations</title>
<polygon fill="none" stroke="black" points="227,-189.59 227,-241.59 772,-241.59 772,-189.59 227,-189.59"/>
</g>
<g id="clust3" class="cluster">
<title>cluster_SACBootstrap3ListModule_SacDropdownComponent_providers</title>
<polygon fill="none" stroke="black" points="16,-78 16,-176.59 1642,-176.59 1642,-78 16,-78"/>
</g>
<!-- SacDropdownComponent -->
<g id="node1" class="node">
<title>SacDropdownComponent</title>
<polygon fill="#ffffb3" stroke="black" points="763.92,-233.59 602.08,-233.59 602.08,-197.59 763.92,-197.59 763.92,-233.59"/>
<text text-anchor="middle" x="683" y="-211.39" font-family="Times,serif" font-size="14.00">SacDropdownComponent</text>
</g>
<!-- SACBootstrap3ListModule -->
<g id="node4" class="node">
<title>SACBootstrap3ListModule</title>
<polygon fill="#8dd3c7" stroke="black" points="874.99,-298.59 871.99,-302.59 850.99,-302.59 847.99,-298.59 705.01,-298.59 705.01,-262.59 874.99,-262.59 874.99,-298.59"/>
<text text-anchor="middle" x="790" y="-276.39" font-family="Times,serif" font-size="14.00">SACBootstrap3ListModule</text>
</g>
<!-- SacDropdownComponent&#45;&gt;SACBootstrap3ListModule -->
<g id="edge1" class="edge">
<title>SacDropdownComponent&#45;&gt;SACBootstrap3ListModule</title>
<path fill="none" stroke="black" d="M734.36,-233.7C734.36,-233.7 734.36,-252.58 734.36,-252.58"/>
<polygon fill="black" stroke="black" points="730.86,-252.58 734.36,-262.58 737.86,-252.58 730.86,-252.58"/>
</g>
<!-- SacDropdownOptionDirective -->
<g id="node2" class="node">
<title>SacDropdownOptionDirective</title>
<polygon fill="#ffffb3" stroke="black" points="584.56,-233.59 397.44,-233.59 397.44,-197.59 584.56,-197.59 584.56,-233.59"/>
<text text-anchor="middle" x="491" y="-211.39" font-family="Times,serif" font-size="14.00">SacDropdownOptionDirective</text>
</g>
<!-- SacDropdownOptionDirective&#45;&gt;SACBootstrap3ListModule -->
<g id="edge4" class="edge">
<title>SacDropdownOptionDirective&#45;&gt;SACBootstrap3ListModule</title>
<path fill="none" stroke="black" d="M556.81,-233.62C556.81,-249.99 556.81,-271.59 556.81,-271.59 556.81,-271.59 694.82,-271.59 694.82,-271.59"/>
<polygon fill="black" stroke="black" points="694.82,-275.09 704.82,-271.59 694.82,-268.09 694.82,-275.09"/>
</g>
<!-- SacListboxComponent -->
<g id="node3" class="node">
<title>SacListboxComponent</title>
<polygon fill="#ffffb3" stroke="black" points="379.32,-233.59 234.68,-233.59 234.68,-197.59 379.32,-197.59 379.32,-233.59"/>
<text text-anchor="middle" x="307" y="-211.39" font-family="Times,serif" font-size="14.00">SacListboxComponent</text>
</g>
<!-- SacListboxComponent&#45;&gt;SACBootstrap3ListModule -->
<g id="edge5" class="edge">
<title>SacListboxComponent&#45;&gt;SACBootstrap3ListModule</title>
<path fill="none" stroke="black" d="M307,-233.7C307,-252.93 307,-280.59 307,-280.59 307,-280.59 694.76,-280.59 694.76,-280.59"/>
<polygon fill="black" stroke="black" points="694.76,-284.09 704.76,-280.59 694.76,-277.09 694.76,-284.09"/>
</g>
<!-- SacDropdownComponent  -->
<g id="node10" class="node">
<title>SacDropdownComponent </title>
<polygon fill="#fb8072" stroke="black" points="1068.42,-363.59 903.58,-363.59 903.58,-327.59 1068.42,-327.59 1068.42,-363.59"/>
<text text-anchor="middle" x="986" y="-341.39" font-family="Times,serif" font-size="14.00">SacDropdownComponent </text>
</g>
<!-- SACBootstrap3ListModule&#45;&gt;SacDropdownComponent  -->
<g id="edge9" class="edge">
<title>SACBootstrap3ListModule&#45;&gt;SacDropdownComponent </title>
<path fill="none" stroke="black" stroke-dasharray="5,2" d="M875.39,-289.59C916.04,-289.59 955.91,-289.59 955.91,-289.59 955.91,-289.59 955.91,-317.56 955.91,-317.56"/>
<polygon fill="black" stroke="black" points="952.41,-317.56 955.91,-327.56 959.41,-317.56 952.41,-317.56"/>
</g>
<!-- SacDropdownOptionDirective  -->
<g id="node11" class="node">
<title>SacDropdownOptionDirective </title>
<polygon fill="#fb8072" stroke="black" points="885.06,-363.59 694.94,-363.59 694.94,-327.59 885.06,-327.59 885.06,-363.59"/>
<text text-anchor="middle" x="790" y="-341.39" font-family="Times,serif" font-size="14.00">SacDropdownOptionDirective </text>
</g>
<!-- SACBootstrap3ListModule&#45;&gt;SacDropdownOptionDirective  -->
<g id="edge10" class="edge">
<title>SACBootstrap3ListModule&#45;&gt;SacDropdownOptionDirective </title>
<path fill="none" stroke="black" stroke-dasharray="5,2" d="M790,-298.7C790,-298.7 790,-317.58 790,-317.58"/>
<polygon fill="black" stroke="black" points="786.5,-317.58 790,-327.58 793.5,-317.58 786.5,-317.58"/>
</g>
<!-- SacListboxComponent  -->
<g id="node12" class="node">
<title>SacListboxComponent </title>
<polygon fill="#fb8072" stroke="black" points="676.82,-363.59 529.18,-363.59 529.18,-327.59 676.82,-327.59 676.82,-363.59"/>
<text text-anchor="middle" x="603" y="-341.39" font-family="Times,serif" font-size="14.00">SacListboxComponent </text>
</g>
<!-- SACBootstrap3ListModule&#45;&gt;SacListboxComponent  -->
<g id="edge11" class="edge">
<title>SACBootstrap3ListModule&#45;&gt;SacListboxComponent </title>
<path fill="none" stroke="black" stroke-dasharray="5,2" d="M704.69,-289.59C670.75,-289.59 639.6,-289.59 639.6,-289.59 639.6,-289.59 639.6,-317.56 639.6,-317.56"/>
<polygon fill="black" stroke="black" points="636.1,-317.56 639.6,-327.56 643.1,-317.56 636.1,-317.56"/>
</g>
<!-- {
 &#160;&#160;&#160;provide: NG_VALUE_ACCESSOR, multi: true, useExisting: SacDropdownComponent,
} -->
<g id="node5" class="node">
<title>{
 &#160;&#160;&#160;provide: NG_VALUE_ACCESSOR, multi: true, useExisting: SacDropdownComponent,
}</title>
<ellipse fill="#fdb462" stroke="black" cx="1260" cy="-127.3" rx="373.9" ry="41.09"/>
<text text-anchor="middle" x="1260" y="-139.9" font-family="Times,serif" font-size="14.00">{</text>
<text text-anchor="middle" x="1260" y="-123.1" font-family="Times,serif" font-size="14.00"> &#160;&#160;&#160;provide: NG_VALUE_ACCESSOR, multi: true, useExisting: SacDropdownComponent,</text>
<text text-anchor="middle" x="1260" y="-106.3" font-family="Times,serif" font-size="14.00">}</text>
</g>
<!-- {
 &#160;&#160;&#160;provide: NG_VALUE_ACCESSOR, multi: true, useExisting: SacDropdownComponent,
}&#45;&gt;SacDropdownComponent -->
<g id="edge2" class="edge">
<title>{
 &#160;&#160;&#160;provide: NG_VALUE_ACCESSOR, multi: true, useExisting: SacDropdownComponent,
}&#45;&gt;SacDropdownComponent</title>
<path fill="none" stroke="black" d="M947.29,-150.19C947.29,-165.78 947.29,-183.59 947.29,-183.59 947.29,-183.59 709.9,-183.59 709.9,-183.59 709.9,-183.59 709.9,-187.35 709.9,-187.35"/>
<polygon fill="black" stroke="black" points="706.4,-187.35 709.9,-197.35 713.4,-187.35 706.4,-187.35"/>
</g>
<!-- {
 &#160;&#160;&#160;provide: NG_VALIDATORS, multi: true, useExisting: forwardRef(() =&gt; SacDropdownComponent),
} -->
<g id="node6" class="node">
<title>{
 &#160;&#160;&#160;provide: NG_VALIDATORS, multi: true, useExisting: forwardRef(() =&gt; SacDropdownComponent),
}</title>
<ellipse fill="#fdb462" stroke="black" cx="446" cy="-127.3" rx="422.41" ry="41.09"/>
<text text-anchor="middle" x="446" y="-139.9" font-family="Times,serif" font-size="14.00">{</text>
<text text-anchor="middle" x="446" y="-123.1" font-family="Times,serif" font-size="14.00"> &#160;&#160;&#160;provide: NG_VALIDATORS, multi: true, useExisting: forwardRef(() =&gt; SacDropdownComponent),</text>
<text text-anchor="middle" x="446" y="-106.3" font-family="Times,serif" font-size="14.00">}</text>
</g>
<!-- {
 &#160;&#160;&#160;provide: NG_VALIDATORS, multi: true, useExisting: forwardRef(() =&gt; SacDropdownComponent),
}&#45;&gt;SacDropdownComponent -->
<g id="edge3" class="edge">
<title>{
 &#160;&#160;&#160;provide: NG_VALIDATORS, multi: true, useExisting: forwardRef(() =&gt; SacDropdownComponent),
}&#45;&gt;SacDropdownComponent</title>
<path fill="none" stroke="black" d="M656.1,-163.21C656.1,-163.21 656.1,-187.13 656.1,-187.13"/>
<polygon fill="black" stroke="black" points="652.6,-187.13 656.1,-197.13 659.6,-187.13 652.6,-187.13"/>
</g>
<!-- SACBootstrap3LayoutModule -->
<g id="node7" class="node">
<title>SACBootstrap3LayoutModule</title>
<polygon fill="#8dd3c7" stroke="black" points="1421.87,-233.59 1418.87,-237.59 1397.87,-237.59 1394.87,-233.59 1234.13,-233.59 1234.13,-197.59 1421.87,-197.59 1421.87,-233.59"/>
<text text-anchor="middle" x="1328" y="-211.39" font-family="Times,serif" font-size="14.00">SACBootstrap3LayoutModule</text>
</g>
<!-- SACBootstrap3LayoutModule&#45;&gt;SACBootstrap3ListModule -->
<g id="edge6" class="edge">
<title>SACBootstrap3LayoutModule&#45;&gt;SACBootstrap3ListModule</title>
<path fill="none" stroke="black" d="M1328,-233.7C1328,-252.93 1328,-280.59 1328,-280.59 1328,-280.59 885.25,-280.59 885.25,-280.59"/>
<polygon fill="black" stroke="black" points="885.25,-277.09 875.25,-280.59 885.25,-284.09 885.25,-277.09"/>
</g>
<!-- SACBootstrap3TooltipModule -->
<g id="node8" class="node">
<title>SACBootstrap3TooltipModule</title>
<polygon fill="#8dd3c7" stroke="black" points="1215.94,-233.59 1212.94,-237.59 1191.94,-237.59 1188.94,-233.59 1026.06,-233.59 1026.06,-197.59 1215.94,-197.59 1215.94,-233.59"/>
<text text-anchor="middle" x="1121" y="-211.39" font-family="Times,serif" font-size="14.00">SACBootstrap3TooltipModule</text>
</g>
<!-- SACBootstrap3TooltipModule&#45;&gt;SACBootstrap3ListModule -->
<g id="edge7" class="edge">
<title>SACBootstrap3TooltipModule&#45;&gt;SACBootstrap3ListModule</title>
<path fill="none" stroke="black" d="M1047.37,-233.62C1047.37,-249.99 1047.37,-271.59 1047.37,-271.59 1047.37,-271.59 885.34,-271.59 885.34,-271.59"/>
<polygon fill="black" stroke="black" points="885.34,-268.09 875.34,-271.59 885.34,-275.09 885.34,-268.09"/>
</g>
<!-- SACCommonListboxOptionModule -->
<g id="node9" class="node">
<title>SACCommonListboxOptionModule</title>
<polygon fill="#8dd3c7" stroke="black" points="1008.06,-233.59 1005.06,-237.59 984.06,-237.59 981.06,-233.59 787.94,-233.59 787.94,-197.59 1008.06,-197.59 1008.06,-233.59"/>
<text text-anchor="middle" x="898" y="-211.39" font-family="Times,serif" font-size="14.00">SACCommonListboxOptionModule</text>
</g>
<!-- SACCommonListboxOptionModule&#45;&gt;SACBootstrap3ListModule -->
<g id="edge8" class="edge">
<title>SACCommonListboxOptionModule&#45;&gt;SACBootstrap3ListModule</title>
<path fill="none" stroke="black" d="M831.36,-233.7C831.36,-233.7 831.36,-252.58 831.36,-252.58"/>
<polygon fill="black" stroke="black" points="827.86,-252.58 831.36,-262.58 834.86,-252.58 827.86,-252.58"/>
</g>
</g>
</svg>
