<?xml version="1.0" encoding="UTF-8" standalone="no"?>
<!DOCTYPE svg PUBLIC "-//W3C//DTD SVG 1.1//EN"
 "http://www.w3.org/Graphics/SVG/1.1/DTD/svg11.dtd">
<!-- Generated by graphviz version 2.47.0 (20210316.0004)
 -->
<!-- Title: dependencies Pages: 1 -->
<svg width="2698pt" height="396pt"
 viewBox="0.00 0.00 2698.00 395.59" xmlns="http://www.w3.org/2000/svg" xmlns:xlink="http://www.w3.org/1999/xlink">
<g id="graph0" class="graph" transform="scale(1 1) rotate(0) translate(4 391.59)">
<title>dependencies</title>
<polygon fill="white" stroke="transparent" points="-4,4 -4,-391.59 2694,-391.59 2694,4 -4,4"/>
<text text-anchor="start" x="1324.01" y="-42.4" font-family="Times-12" font-weight="bold" font-size="14.00">Legend</text>
<polygon fill="#ffffb3" stroke="transparent" points="1111,-10 1111,-30 1131,-30 1131,-10 1111,-10"/>
<text text-anchor="start" x="1134.63" y="-15.4" font-family="Times-12" font-size="14.00"> &#160;Declarations</text>
<polygon fill="#8dd3c7" stroke="transparent" points="1224,-10 1224,-30 1244,-30 1244,-10 1224,-10"/>
<text text-anchor="start" x="1247.73" y="-15.4" font-family="Times-12" font-size="14.00"> &#160;Module</text>
<polygon fill="#80b1d3" stroke="transparent" points="1310,-10 1310,-30 1330,-30 1330,-10 1310,-10"/>
<text text-anchor="start" x="1333.78" y="-15.4" font-family="Times-12" font-size="14.00"> &#160;Bootstrap</text>
<polygon fill="#fdb462" stroke="transparent" points="1407,-10 1407,-30 1427,-30 1427,-10 1407,-10"/>
<text text-anchor="start" x="1430.67" y="-15.4" font-family="Times-12" font-size="14.00"> &#160;Providers</text>
<polygon fill="#fb8072" stroke="transparent" points="1503,-10 1503,-30 1523,-30 1523,-10 1503,-10"/>
<text text-anchor="start" x="1526.73" y="-15.4" font-family="Times-12" font-size="14.00"> &#160;Exports</text>
<g id="clust1" class="cluster">
<title>cluster_SACBootstrap3ListModule</title>
<polygon fill="none" stroke="black" stroke-dasharray="1,5" points="8,-70 8,-379.59 2682,-379.59 2682,-70 8,-70"/>
</g>
<g id="clust3" class="cluster">
<title>cluster_SACBootstrap3ListModule_SacDropdownComponent_providers</title>
<polygon fill="none" stroke="black" points="1048,-78 1048,-241.59 2674,-241.59 2674,-78 1048,-78"/>
</g>
<g id="clust2" class="cluster">
<title>cluster_SACBootstrap3ListModule_declarations</title>
<polygon fill="none" stroke="black" points="674,-189.59 674,-241.59 1040,-241.59 1040,-189.59 674,-189.59"/>
</g>
<g id="clust7" class="cluster">
<title>cluster_SACBootstrap3ListModule_exports</title>
<polygon fill="none" stroke="black" points="390,-319.59 390,-371.59 945,-371.59 945,-319.59 390,-319.59"/>
</g>
<g id="clust6" class="cluster">
<title>cluster_SACBootstrap3ListModule_imports</title>
<polygon fill="none" stroke="black" points="16,-189.59 16,-241.59 666,-241.59 666,-189.59 16,-189.59"/>
</g>
<!-- SacDropdownComponent -->
<g id="node1" class="node">
<title>SacDropdownComponent</title>
<polygon fill="#ffffb3" stroke="black" points="1558.92,-233.59 1397.08,-233.59 1397.08,-197.59 1558.92,-197.59 1558.92,-233.59"/>
<text text-anchor="middle" x="1478" y="-211.39" font-family="Times,serif" font-size="14.00">SacDropdownComponent</text>
</g>
<!-- SACBootstrap3ListModule -->
<g id="node4" class="node">
<title>SACBootstrap3ListModule</title>
<polygon fill="#8dd3c7" stroke="black" points="743.99,-298.59 740.99,-302.59 719.99,-302.59 716.99,-298.59 574.01,-298.59 574.01,-262.59 743.99,-262.59 743.99,-298.59"/>
<text text-anchor="middle" x="659" y="-276.39" font-family="Times,serif" font-size="14.00">SACBootstrap3ListModule</text>
</g>
<!-- SacDropdownComponent&#45;&gt;SACBootstrap3ListModule -->
<g id="edge1" class="edge">
<title>SacDropdownComponent&#45;&gt;SACBootstrap3ListModule</title>
<path fill="none" stroke="black" d="M1478,-233.7C1478,-252.93 1478,-280.59 1478,-280.59 1478,-280.59 754.33,-280.59 754.33,-280.59"/>
<polygon fill="black" stroke="black" points="754.33,-277.09 744.33,-280.59 754.33,-284.09 754.33,-277.09"/>
</g>
<!-- SacDropdownOptionDirective -->
<g id="node2" class="node">
<title>SacDropdownOptionDirective</title>
<polygon fill="#ffffb3" stroke="black" points="1031.56,-233.59 844.44,-233.59 844.44,-197.59 1031.56,-197.59 1031.56,-233.59"/>
<text text-anchor="middle" x="938" y="-211.39" font-family="Times,serif" font-size="14.00">SacDropdownOptionDirective</text>
</g>
<!-- SacDropdownOptionDirective&#45;&gt;SACBootstrap3ListModule -->
<g id="edge4" class="edge">
<title>SacDropdownOptionDirective&#45;&gt;SACBootstrap3ListModule</title>
<path fill="none" stroke="black" d="M890.97,-233.62C890.97,-249.99 890.97,-271.59 890.97,-271.59 890.97,-271.59 754.06,-271.59 754.06,-271.59"/>
<polygon fill="black" stroke="black" points="754.06,-268.09 744.06,-271.59 754.06,-275.09 754.06,-268.09"/>
</g>
<!-- SacListboxComponent -->
<g id="node3" class="node">
<title>SacListboxComponent</title>
<polygon fill="#ffffb3" stroke="black" points="826.32,-233.59 681.68,-233.59 681.68,-197.59 826.32,-197.59 826.32,-233.59"/>
<text text-anchor="middle" x="754" y="-211.39" font-family="Times,serif" font-size="14.00">SacListboxComponent</text>
</g>
<!-- SacListboxComponent&#45;&gt;SACBootstrap3ListModule -->
<g id="edge5" class="edge">
<title>SacListboxComponent&#45;&gt;SACBootstrap3ListModule</title>
<path fill="none" stroke="black" d="M712.92,-233.7C712.92,-233.7 712.92,-252.58 712.92,-252.58"/>
<polygon fill="black" stroke="black" points="709.42,-252.58 712.92,-262.58 716.42,-252.58 709.42,-252.58"/>
</g>
<!-- SacDropdownComponent  -->
<g id="node10" class="node">
<title>SacDropdownComponent </title>
<polygon fill="#fb8072" stroke="black" points="937.42,-363.59 772.58,-363.59 772.58,-327.59 937.42,-327.59 937.42,-363.59"/>
<text text-anchor="middle" x="855" y="-341.39" font-family="Times,serif" font-size="14.00">SacDropdownComponent </text>
</g>
<!-- SACBootstrap3ListModule&#45;&gt;SacDropdownComponent  -->
<g id="edge9" class="edge">
<title>SACBootstrap3ListModule&#45;&gt;SacDropdownComponent </title>
<path fill="none" stroke="black" stroke-dasharray="5,2" d="M744.28,-289.59C773.67,-289.59 799.35,-289.59 799.35,-289.59 799.35,-289.59 799.35,-317.56 799.35,-317.56"/>
<polygon fill="black" stroke="black" points="795.85,-317.56 799.35,-327.56 802.85,-317.56 795.85,-317.56"/>
</g>
<!-- SacDropdownOptionDirective  -->
<g id="node11" class="node">
<title>SacDropdownOptionDirective </title>
<polygon fill="#fb8072" stroke="black" points="754.06,-363.59 563.94,-363.59 563.94,-327.59 754.06,-327.59 754.06,-363.59"/>
<text text-anchor="middle" x="659" y="-341.39" font-family="Times,serif" font-size="14.00">SacDropdownOptionDirective </text>
</g>
<!-- SACBootstrap3ListModule&#45;&gt;SacDropdownOptionDirective  -->
<g id="edge10" class="edge">
<title>SACBootstrap3ListModule&#45;&gt;SacDropdownOptionDirective </title>
<path fill="none" stroke="black" stroke-dasharray="5,2" d="M659,-298.7C659,-298.7 659,-317.58 659,-317.58"/>
<polygon fill="black" stroke="black" points="655.5,-317.58 659,-327.58 662.5,-317.58 655.5,-317.58"/>
</g>
<!-- SacListboxComponent  -->
<g id="node12" class="node">
<title>SacListboxComponent </title>
<polygon fill="#fb8072" stroke="black" points="545.82,-363.59 398.18,-363.59 398.18,-327.59 545.82,-327.59 545.82,-363.59"/>
<text text-anchor="middle" x="472" y="-341.39" font-family="Times,serif" font-size="14.00">SacListboxComponent </text>
</g>
<!-- SACBootstrap3ListModule&#45;&gt;SacListboxComponent  -->
<g id="edge11" class="edge">
<title>SACBootstrap3ListModule&#45;&gt;SacListboxComponent </title>
<path fill="none" stroke="black" stroke-dasharray="5,2" d="M573.78,-289.59C539.53,-289.59 507.99,-289.59 507.99,-289.59 507.99,-289.59 507.99,-317.56 507.99,-317.56"/>
<polygon fill="black" stroke="black" points="504.49,-317.56 507.99,-327.56 511.49,-317.56 504.49,-317.56"/>
</g>
<!-- {
 &#160;&#160;&#160;provide: NG_VALUE_ACCESSOR, multi: true, useExisting: SacDropdownComponent,
} -->
<g id="node5" class="node">
<title>{
 &#160;&#160;&#160;provide: NG_VALUE_ACCESSOR, multi: true, useExisting: SacDropdownComponent,
}</title>
<ellipse fill="#fdb462" stroke="black" cx="2292" cy="-127.3" rx="373.9" ry="41.09"/>
<text text-anchor="middle" x="2292" y="-139.9" font-family="Times,serif" font-size="14.00">{</text>
<text text-anchor="middle" x="2292" y="-123.1" font-family="Times,serif" font-size="14.00"> &#160;&#160;&#160;provide: NG_VALUE_ACCESSOR, multi: true, useExisting: SacDropdownComponent,</text>
<text text-anchor="middle" x="2292" y="-106.3" font-family="Times,serif" font-size="14.00">}</text>
</g>
<!-- {
 &#160;&#160;&#160;provide: NG_VALUE_ACCESSOR, multi: true, useExisting: SacDropdownComponent,
}&#45;&gt;SacDropdownComponent -->
<g id="edge2" class="edge">
<title>{
 &#160;&#160;&#160;provide: NG_VALUE_ACCESSOR, multi: true, useExisting: SacDropdownComponent,
}&#45;&gt;SacDropdownComponent</title>
<path fill="none" stroke="black" d="M2292,-168.6C2292,-191.58 2292,-215.59 2292,-215.59 2292,-215.59 1569.03,-215.59 1569.03,-215.59"/>
<polygon fill="black" stroke="black" points="1569.03,-212.09 1559.03,-215.59 1569.03,-219.09 1569.03,-212.09"/>
</g>
<!-- {
 &#160;&#160;&#160;provide: NG_VALIDATORS, multi: true, useExisting: forwardRef(() =&gt; SacDropdownComponent),
} -->
<g id="node6" class="node">
<title>{
 &#160;&#160;&#160;provide: NG_VALIDATORS, multi: true, useExisting: forwardRef(() =&gt; SacDropdownComponent),
}</title>
<ellipse fill="#fdb462" stroke="black" cx="1478" cy="-127.3" rx="422.41" ry="41.09"/>
<text text-anchor="middle" x="1478" y="-139.9" font-family="Times,serif" font-size="14.00">{</text>
<text text-anchor="middle" x="1478" y="-123.1" font-family="Times,serif" font-size="14.00"> &#160;&#160;&#160;provide: NG_VALIDATORS, multi: true, useExisting: forwardRef(() =&gt; SacDropdownComponent),</text>
<text text-anchor="middle" x="1478" y="-106.3" font-family="Times,serif" font-size="14.00">}</text>
</g>
<!-- {
 &#160;&#160;&#160;provide: NG_VALIDATORS, multi: true, useExisting: forwardRef(() =&gt; SacDropdownComponent),
}&#45;&gt;SacDropdownComponent -->
<g id="edge3" class="edge">
<title>{
 &#160;&#160;&#160;provide: NG_VALIDATORS, multi: true, useExisting: forwardRef(() =&gt; SacDropdownComponent),
}&#45;&gt;SacDropdownComponent</title>
<path fill="none" stroke="black" d="M1478,-168.6C1478,-168.6 1478,-187.26 1478,-187.26"/>
<polygon fill="black" stroke="black" points="1474.5,-187.26 1478,-197.26 1481.5,-187.26 1474.5,-187.26"/>
</g>
<!-- SACBootstrap3LayoutModule -->
<g id="node7" class="node">
<title>SACBootstrap3LayoutModule</title>
<polygon fill="#8dd3c7" stroke="black" points="657.87,-233.59 654.87,-237.59 633.87,-237.59 630.87,-233.59 470.13,-233.59 470.13,-197.59 657.87,-197.59 657.87,-233.59"/>
<text text-anchor="middle" x="564" y="-211.39" font-family="Times,serif" font-size="14.00">SACBootstrap3LayoutModule</text>
</g>
<!-- SACBootstrap3LayoutModule&#45;&gt;SACBootstrap3ListModule -->
<g id="edge6" class="edge">
<title>SACBootstrap3LayoutModule&#45;&gt;SACBootstrap3ListModule</title>
<path fill="none" stroke="black" d="M615.97,-233.7C615.97,-233.7 615.97,-252.58 615.97,-252.58"/>
<polygon fill="black" stroke="black" points="612.47,-252.58 615.97,-262.58 619.47,-252.58 612.47,-252.58"/>
</g>
<!-- SACBootstrap3TooltipModule -->
<g id="node8" class="node">
<title>SACBootstrap3TooltipModule</title>
<polygon fill="#8dd3c7" stroke="black" points="451.94,-233.59 448.94,-237.59 427.94,-237.59 424.94,-233.59 262.06,-233.59 262.06,-197.59 451.94,-197.59 451.94,-233.59"/>
<text text-anchor="middle" x="357" y="-211.39" font-family="Times,serif" font-size="14.00">SACBootstrap3TooltipModule</text>
</g>
<!-- SACBootstrap3TooltipModule&#45;&gt;SACBootstrap3ListModule -->
<g id="edge7" class="edge">
<title>SACBootstrap3TooltipModule&#45;&gt;SACBootstrap3ListModule</title>
<path fill="none" stroke="black" d="M424.9,-233.62C424.9,-249.99 424.9,-271.59 424.9,-271.59 424.9,-271.59 563.82,-271.59 563.82,-271.59"/>
<polygon fill="black" stroke="black" points="563.82,-275.09 573.82,-271.59 563.82,-268.09 563.82,-275.09"/>
</g>
<!-- SACCommonListboxOptionModule -->
<g id="node9" class="node">
<title>SACCommonListboxOptionModule</title>
<polygon fill="#8dd3c7" stroke="black" points="244.06,-233.59 241.06,-237.59 220.06,-237.59 217.06,-233.59 23.94,-233.59 23.94,-197.59 244.06,-197.59 244.06,-233.59"/>
<text text-anchor="middle" x="134" y="-211.39" font-family="Times,serif" font-size="14.00">SACCommonListboxOptionModule</text>
</g>
<!-- SACCommonListboxOptionModule&#45;&gt;SACBootstrap3ListModule -->
<g id="edge8" class="edge">
<title>SACCommonListboxOptionModule&#45;&gt;SACBootstrap3ListModule</title>
<path fill="none" stroke="black" d="M134,-233.7C134,-252.93 134,-280.59 134,-280.59 134,-280.59 563.77,-280.59 563.77,-280.59"/>
<polygon fill="black" stroke="black" points="563.77,-284.09 573.77,-280.59 563.77,-277.09 563.77,-284.09"/>
</g>
</g>
</svg>
