<?xml version="1.0" encoding="UTF-8" standalone="no"?>
<!DOCTYPE svg PUBLIC "-//W3C//DTD SVG 1.1//EN"
 "http://www.w3.org/Graphics/SVG/1.1/DTD/svg11.dtd">
<!-- Generated by graphviz version 2.47.0 (20210316.0004)
 -->
<!-- Title: dependencies Pages: 1 -->
<svg width="746pt" height="284pt"
 viewBox="0.00 0.00 746.00 284.00" xmlns="http://www.w3.org/2000/svg" xmlns:xlink="http://www.w3.org/1999/xlink">
<g id="graph0" class="graph" transform="scale(1 1) rotate(0) translate(4 280)">
<title>dependencies</title>
<polygon fill="white" stroke="transparent" points="-4,4 -4,-280 742,-280 742,4 -4,4"/>
<text text-anchor="start" x="348.01" y="-42.4" font-family="Times-12" font-weight="bold" font-size="14.00">Legend</text>
<polygon fill="#ffffb3" stroke="transparent" points="135,-10 135,-30 155,-30 155,-10 135,-10"/>
<text text-anchor="start" x="158.63" y="-15.4" font-family="Times-12" font-size="14.00"> &#160;Declarations</text>
<polygon fill="#8dd3c7" stroke="transparent" points="248,-10 248,-30 268,-30 268,-10 248,-10"/>
<text text-anchor="start" x="271.73" y="-15.4" font-family="Times-12" font-size="14.00"> &#160;Module</text>
<polygon fill="#80b1d3" stroke="transparent" points="334,-10 334,-30 354,-30 354,-10 334,-10"/>
<text text-anchor="start" x="357.78" y="-15.4" font-family="Times-12" font-size="14.00"> &#160;Bootstrap</text>
<polygon fill="#fdb462" stroke="transparent" points="431,-10 431,-30 451,-30 451,-10 431,-10"/>
<text text-anchor="start" x="454.67" y="-15.4" font-family="Times-12" font-size="14.00"> &#160;Providers</text>
<polygon fill="#fb8072" stroke="transparent" points="527,-10 527,-30 547,-30 547,-10 527,-10"/>
<text text-anchor="start" x="550.73" y="-15.4" font-family="Times-12" font-size="14.00"> &#160;Exports</text>
<g id="clust1" class="cluster">
<title>cluster_SACBootstrap3ListModule</title>
<polygon fill="none" stroke="black" stroke-dasharray="1,5" points="8,-70 8,-268 730,-268 730,-70 8,-70"/>
</g>
<g id="clust3" class="cluster">
<title>cluster_SACBootstrap3ListModule_imports</title>
<polygon fill="none" stroke="black" points="16,-78 16,-130 722,-130 722,-78 16,-78"/>
</g>
<g id="clust4" class="cluster">
<title>cluster_SACBootstrap3ListModule_exports</title>
<polygon fill="none" stroke="black" points="91,-208 91,-260 646,-260 646,-208 91,-208"/>
</g>
<!-- SacDropdownComponent -->
<g id="node1" class="node">
<title>SacDropdownComponent</title>
<polygon fill="#8dd3c7" stroke="black" points="713.92,-122 710.92,-126 689.92,-126 686.92,-122 552.08,-122 552.08,-86 713.92,-86 713.92,-122"/>
<text text-anchor="middle" x="633" y="-99.8" font-family="Times,serif" font-size="14.00">SacDropdownComponent</text>
</g>
<!-- SACBootstrap3ListModule -->
<g id="node5" class="node">
<title>SACBootstrap3ListModule</title>
<polygon fill="#8dd3c7" stroke="black" points="444.99,-187 441.99,-191 420.99,-191 417.99,-187 275.01,-187 275.01,-151 444.99,-151 444.99,-187"/>
<text text-anchor="middle" x="360" y="-164.8" font-family="Times,serif" font-size="14.00">SACBootstrap3ListModule</text>
</g>
<!-- SacDropdownComponent&#45;&gt;SACBootstrap3ListModule -->
<g id="edge1" class="edge">
<title>SacDropdownComponent&#45;&gt;SACBootstrap3ListModule</title>
<path fill="none" stroke="black" d="M595.38,-122.02C595.38,-139.37 595.38,-163 595.38,-163 595.38,-163 455.31,-163 455.31,-163"/>
<polygon fill="black" stroke="black" points="455.31,-159.5 445.31,-163 455.31,-166.5 455.31,-159.5"/>
</g>
<!-- SacDropdownOptionDirective -->
<g id="node2" class="node">
<title>SacDropdownOptionDirective</title>
<polygon fill="#8dd3c7" stroke="black" points="534.56,-122 531.56,-126 510.56,-126 507.56,-122 347.44,-122 347.44,-86 534.56,-86 534.56,-122"/>
<text text-anchor="middle" x="441" y="-99.8" font-family="Times,serif" font-size="14.00">SacDropdownOptionDirective</text>
</g>
<!-- SacDropdownOptionDirective&#45;&gt;SACBootstrap3ListModule -->
<g id="edge2" class="edge">
<title>SacDropdownOptionDirective&#45;&gt;SACBootstrap3ListModule</title>
<path fill="none" stroke="black" d="M396.23,-122.11C396.23,-122.11 396.23,-140.99 396.23,-140.99"/>
<polygon fill="black" stroke="black" points="392.73,-140.99 396.23,-150.99 399.73,-140.99 392.73,-140.99"/>
</g>
<!-- SacListboxComponent -->
<g id="node3" class="node">
<title>SacListboxComponent</title>
<polygon fill="#8dd3c7" stroke="black" points="329.32,-122 326.32,-126 305.32,-126 302.32,-122 184.68,-122 184.68,-86 329.32,-86 329.32,-122"/>
<text text-anchor="middle" x="257" y="-99.8" font-family="Times,serif" font-size="14.00">SacListboxComponent</text>
</g>
<!-- SacListboxComponent&#45;&gt;SACBootstrap3ListModule -->
<g id="edge3" class="edge">
<title>SacListboxComponent&#45;&gt;SACBootstrap3ListModule</title>
<path fill="none" stroke="black" d="M302.08,-122.11C302.08,-122.11 302.08,-140.99 302.08,-140.99"/>
<polygon fill="black" stroke="black" points="298.58,-140.99 302.08,-150.99 305.58,-140.99 298.58,-140.99"/>
</g>
<!-- SacTooltipComponent -->
<g id="node4" class="node">
<title>SacTooltipComponent</title>
<polygon fill="#8dd3c7" stroke="black" points="166.27,-122 163.27,-126 142.27,-126 139.27,-122 23.73,-122 23.73,-86 166.27,-86 166.27,-122"/>
<text text-anchor="middle" x="95" y="-99.8" font-family="Times,serif" font-size="14.00">SacTooltipComponent</text>
</g>
<!-- SacTooltipComponent&#45;&gt;SACBootstrap3ListModule -->
<g id="edge4" class="edge">
<title>SacTooltipComponent&#45;&gt;SACBootstrap3ListModule</title>
<path fill="none" stroke="black" d="M132.74,-122.02C132.74,-139.37 132.74,-163 132.74,-163 132.74,-163 264.73,-163 264.73,-163"/>
<polygon fill="black" stroke="black" points="264.73,-166.5 274.73,-163 264.73,-159.5 264.73,-166.5"/>
</g>
<!-- SacDropdownComponent  -->
<g id="node6" class="node">
<title>SacDropdownComponent </title>
<polygon fill="#fb8072" stroke="black" points="638.42,-252 473.58,-252 473.58,-216 638.42,-216 638.42,-252"/>
<text text-anchor="middle" x="556" y="-229.8" font-family="Times,serif" font-size="14.00">SacDropdownComponent </text>
</g>
<!-- SACBootstrap3ListModule&#45;&gt;SacDropdownComponent  -->
<g id="edge5" class="edge">
<title>SACBootstrap3ListModule&#45;&gt;SacDropdownComponent </title>
<path fill="none" stroke="black" stroke-dasharray="5,2" d="M445.03,-175C476.22,-175 504.03,-175 504.03,-175 504.03,-175 504.03,-205.98 504.03,-205.98"/>
<polygon fill="black" stroke="black" points="500.53,-205.98 504.03,-215.98 507.53,-205.98 500.53,-205.98"/>
</g>
<!-- SacDropdownOptionDirective  -->
<g id="node7" class="node">
<title>SacDropdownOptionDirective </title>
<polygon fill="#fb8072" stroke="black" points="455.06,-252 264.94,-252 264.94,-216 455.06,-216 455.06,-252"/>
<text text-anchor="middle" x="360" y="-229.8" font-family="Times,serif" font-size="14.00">SacDropdownOptionDirective </text>
</g>
<!-- SACBootstrap3ListModule&#45;&gt;SacDropdownOptionDirective  -->
<g id="edge6" class="edge">
<title>SACBootstrap3ListModule&#45;&gt;SacDropdownOptionDirective </title>
<path fill="none" stroke="black" stroke-dasharray="5,2" d="M360,-187.11C360,-187.11 360,-205.99 360,-205.99"/>
<polygon fill="black" stroke="black" points="356.5,-205.99 360,-215.99 363.5,-205.99 356.5,-205.99"/>
</g>
<!-- SacListboxComponent  -->
<g id="node8" class="node">
<title>SacListboxComponent </title>
<polygon fill="#fb8072" stroke="black" points="246.82,-252 99.18,-252 99.18,-216 246.82,-216 246.82,-252"/>
<text text-anchor="middle" x="173" y="-229.8" font-family="Times,serif" font-size="14.00">SacListboxComponent </text>
</g>
<!-- SACBootstrap3ListModule&#45;&gt;SacListboxComponent  -->
<g id="edge7" class="edge">
<title>SACBootstrap3ListModule&#45;&gt;SacListboxComponent </title>
<path fill="none" stroke="black" stroke-dasharray="5,2" d="M274.91,-175C243.71,-175 215.88,-175 215.88,-175 215.88,-175 215.88,-205.98 215.88,-205.98"/>
<polygon fill="black" stroke="black" points="212.38,-205.98 215.88,-215.98 219.38,-205.98 212.38,-205.98"/>
</g>
</g>
</svg>
