<?xml version="1.0" encoding="UTF-8" standalone="no"?>
<!DOCTYPE svg PUBLIC "-//W3C//DTD SVG 1.1//EN"
 "http://www.w3.org/Graphics/SVG/1.1/DTD/svg11.dtd">
<!-- Generated by graphviz version 2.47.0 (20210316.0004)
 -->
<!-- Title: dependencies Pages: 1 -->
<svg width="1666pt" height="396pt"
 viewBox="0.00 0.00 1666.00 395.59" xmlns="http://www.w3.org/2000/svg" xmlns:xlink="http://www.w3.org/1999/xlink">
<g id="graph0" class="graph" transform="scale(1 1) rotate(0) translate(4 391.59)">
<title>dependencies</title>
<polygon fill="white" stroke="transparent" points="-4,4 -4,-391.59 1662,-391.59 1662,4 -4,4"/>
<text text-anchor="start" x="808.01" y="-42.4" font-family="Times-12" font-weight="bold" font-size="14.00">Legend</text>
<polygon fill="#ffffb3" stroke="transparent" points="595,-10 595,-30 615,-30 615,-10 595,-10"/>
<text text-anchor="start" x="618.63" y="-15.4" font-family="Times-12" font-size="14.00"> &#160;Declarations</text>
<polygon fill="#8dd3c7" stroke="transparent" points="708,-10 708,-30 728,-30 728,-10 708,-10"/>
<text text-anchor="start" x="731.73" y="-15.4" font-family="Times-12" font-size="14.00"> &#160;Module</text>
<polygon fill="#80b1d3" stroke="transparent" points="794,-10 794,-30 814,-30 814,-10 794,-10"/>
<text text-anchor="start" x="817.78" y="-15.4" font-family="Times-12" font-size="14.00"> &#160;Bootstrap</text>
<polygon fill="#fdb462" stroke="transparent" points="891,-10 891,-30 911,-30 911,-10 891,-10"/>
<text text-anchor="start" x="914.67" y="-15.4" font-family="Times-12" font-size="14.00"> &#160;Providers</text>
<polygon fill="#fb8072" stroke="transparent" points="987,-10 987,-30 1007,-30 1007,-10 987,-10"/>
<text text-anchor="start" x="1010.73" y="-15.4" font-family="Times-12" font-size="14.00"> &#160;Exports</text>
<g id="clust1" class="cluster">
<title>cluster_SACBootstrap3ListModule</title>
<polygon fill="none" stroke="black" stroke-dasharray="1,5" points="8,-70 8,-379.59 1650,-379.59 1650,-70 8,-70"/>
</g>
<g id="clust2" class="cluster">
<title>cluster_SACBootstrap3ListModule_declarations</title>
<polygon fill="none" stroke="black" points="739,-189.59 739,-241.59 1284,-241.59 1284,-189.59 739,-189.59"/>
</g>
<g id="clust3" class="cluster">
<title>cluster_SACBootstrap3ListModule_SacDropdownComponent_providers</title>
<polygon fill="none" stroke="black" points="16,-78 16,-176.59 1642,-176.59 1642,-78 16,-78"/>
</g>
<g id="clust7" class="cluster">
<title>cluster_SACBootstrap3ListModule_exports</title>
<polygon fill="none" stroke="black" points="455,-319.59 455,-371.59 1010,-371.59 1010,-319.59 455,-319.59"/>
</g>
<g id="clust6" class="cluster">
<title>cluster_SACBootstrap3ListModule_imports</title>
<polygon fill="none" stroke="black" points="81,-189.59 81,-241.59 731,-241.59 731,-189.59 81,-189.59"/>
</g>
<!-- SacDropdownComponent -->
<g id="node1" class="node">
<title>SacDropdownComponent</title>
<polygon fill="#ffffb3" stroke="black" points="1275.92,-233.59 1114.08,-233.59 1114.08,-197.59 1275.92,-197.59 1275.92,-233.59"/>
<text text-anchor="middle" x="1195" y="-211.39" font-family="Times,serif" font-size="14.00">SacDropdownComponent</text>
</g>
<!-- SACBootstrap3ListModule -->
<g id="node4" class="node">
<title>SACBootstrap3ListModule</title>
<polygon fill="#8dd3c7" stroke="black" points="808.99,-298.59 805.99,-302.59 784.99,-302.59 781.99,-298.59 639.01,-298.59 639.01,-262.59 808.99,-262.59 808.99,-298.59"/>
<text text-anchor="middle" x="724" y="-276.39" font-family="Times,serif" font-size="14.00">SACBootstrap3ListModule</text>
</g>
<!-- SacDropdownComponent&#45;&gt;SACBootstrap3ListModule -->
<g id="edge1" class="edge">
<title>SacDropdownComponent&#45;&gt;SACBootstrap3ListModule</title>
<path fill="none" stroke="black" d="M1195,-233.7C1195,-252.93 1195,-280.59 1195,-280.59 1195,-280.59 819.02,-280.59 819.02,-280.59"/>
<polygon fill="black" stroke="black" points="819.02,-277.09 809.02,-280.59 819.02,-284.09 819.02,-277.09"/>
</g>
<!-- SacDropdownOptionDirective -->
<g id="node2" class="node">
<title>SacDropdownOptionDirective</title>
<polygon fill="#ffffb3" stroke="black" points="1096.56,-233.59 909.44,-233.59 909.44,-197.59 1096.56,-197.59 1096.56,-233.59"/>
<text text-anchor="middle" x="1003" y="-211.39" font-family="Times,serif" font-size="14.00">SacDropdownOptionDirective</text>
</g>
<!-- SacDropdownOptionDirective&#45;&gt;SACBootstrap3ListModule -->
<g id="edge4" class="edge">
<title>SacDropdownOptionDirective&#45;&gt;SACBootstrap3ListModule</title>
<path fill="none" stroke="black" d="M955.97,-233.62C955.97,-249.99 955.97,-271.59 955.97,-271.59 955.97,-271.59 819.06,-271.59 819.06,-271.59"/>
<polygon fill="black" stroke="black" points="819.06,-268.09 809.06,-271.59 819.06,-275.09 819.06,-268.09"/>
</g>
<!-- SacListboxComponent -->
<g id="node3" class="node">
<title>SacListboxComponent</title>
<polygon fill="#ffffb3" stroke="black" points="891.32,-233.59 746.68,-233.59 746.68,-197.59 891.32,-197.59 891.32,-233.59"/>
<text text-anchor="middle" x="819" y="-211.39" font-family="Times,serif" font-size="14.00">SacListboxComponent</text>
</g>
<!-- SacListboxComponent&#45;&gt;SACBootstrap3ListModule -->
<g id="edge5" class="edge">
<title>SacListboxComponent&#45;&gt;SACBootstrap3ListModule</title>
<path fill="none" stroke="black" d="M777.92,-233.7C777.92,-233.7 777.92,-252.58 777.92,-252.58"/>
<polygon fill="black" stroke="black" points="774.42,-252.58 777.92,-262.58 781.42,-252.58 774.42,-252.58"/>
</g>
<!-- SacDropdownComponent  -->
<g id="node10" class="node">
<title>SacDropdownComponent </title>
<polygon fill="#fb8072" stroke="black" points="1002.42,-363.59 837.58,-363.59 837.58,-327.59 1002.42,-327.59 1002.42,-363.59"/>
<text text-anchor="middle" x="920" y="-341.39" font-family="Times,serif" font-size="14.00">SacDropdownComponent </text>
</g>
<!-- SACBootstrap3ListModule&#45;&gt;SacDropdownComponent  -->
<g id="edge9" class="edge">
<title>SACBootstrap3ListModule&#45;&gt;SacDropdownComponent </title>
<path fill="none" stroke="black" stroke-dasharray="5,2" d="M809.28,-289.59C838.67,-289.59 864.35,-289.59 864.35,-289.59 864.35,-289.59 864.35,-317.56 864.35,-317.56"/>
<polygon fill="black" stroke="black" points="860.85,-317.56 864.35,-327.56 867.85,-317.56 860.85,-317.56"/>
</g>
<!-- SacDropdownOptionDirective  -->
<g id="node11" class="node">
<title>SacDropdownOptionDirective </title>
<polygon fill="#fb8072" stroke="black" points="819.06,-363.59 628.94,-363.59 628.94,-327.59 819.06,-327.59 819.06,-363.59"/>
<text text-anchor="middle" x="724" y="-341.39" font-family="Times,serif" font-size="14.00">SacDropdownOptionDirective </text>
</g>
<!-- SACBootstrap3ListModule&#45;&gt;SacDropdownOptionDirective  -->
<g id="edge10" class="edge">
<title>SACBootstrap3ListModule&#45;&gt;SacDropdownOptionDirective </title>
<path fill="none" stroke="black" stroke-dasharray="5,2" d="M724,-298.7C724,-298.7 724,-317.58 724,-317.58"/>
<polygon fill="black" stroke="black" points="720.5,-317.58 724,-327.58 727.5,-317.58 720.5,-317.58"/>
</g>
<!-- SacListboxComponent  -->
<g id="node12" class="node">
<title>SacListboxComponent </title>
<polygon fill="#fb8072" stroke="black" points="610.82,-363.59 463.18,-363.59 463.18,-327.59 610.82,-327.59 610.82,-363.59"/>
<text text-anchor="middle" x="537" y="-341.39" font-family="Times,serif" font-size="14.00">SacListboxComponent </text>
</g>
<!-- SACBootstrap3ListModule&#45;&gt;SacListboxComponent  -->
<g id="edge11" class="edge">
<title>SACBootstrap3ListModule&#45;&gt;SacListboxComponent </title>
<path fill="none" stroke="black" stroke-dasharray="5,2" d="M638.78,-289.59C604.53,-289.59 572.99,-289.59 572.99,-289.59 572.99,-289.59 572.99,-317.56 572.99,-317.56"/>
<polygon fill="black" stroke="black" points="569.49,-317.56 572.99,-327.56 576.49,-317.56 569.49,-317.56"/>
</g>
<!-- {
 &#160;&#160;&#160;provide: NG_VALUE_ACCESSOR, multi: true, useExisting: SacDropdownComponent,
} -->
<g id="node5" class="node">
<title>{
 &#160;&#160;&#160;provide: NG_VALUE_ACCESSOR, multi: true, useExisting: SacDropdownComponent,
}</title>
<ellipse fill="#fdb462" stroke="black" cx="1260" cy="-127.3" rx="373.9" ry="41.09"/>
<text text-anchor="middle" x="1260" y="-139.9" font-family="Times,serif" font-size="14.00">{</text>
<text text-anchor="middle" x="1260" y="-123.1" font-family="Times,serif" font-size="14.00"> &#160;&#160;&#160;provide: NG_VALUE_ACCESSOR, multi: true, useExisting: SacDropdownComponent,</text>
<text text-anchor="middle" x="1260" y="-106.3" font-family="Times,serif" font-size="14.00">}</text>
</g>
<!-- {
 &#160;&#160;&#160;provide: NG_VALUE_ACCESSOR, multi: true, useExisting: SacDropdownComponent,
}&#45;&gt;SacDropdownComponent -->
<g id="edge2" class="edge">
<title>{
 &#160;&#160;&#160;provide: NG_VALUE_ACCESSOR, multi: true, useExisting: SacDropdownComponent,
}&#45;&gt;SacDropdownComponent</title>
<path fill="none" stroke="black" d="M1221.9,-168.6C1221.9,-168.6 1221.9,-187.26 1221.9,-187.26"/>
<polygon fill="black" stroke="black" points="1218.4,-187.26 1221.9,-197.26 1225.4,-187.26 1218.4,-187.26"/>
</g>
<!-- {
 &#160;&#160;&#160;provide: NG_VALIDATORS, multi: true, useExisting: forwardRef(() =&gt; SacDropdownComponent),
} -->
<g id="node6" class="node">
<title>{
 &#160;&#160;&#160;provide: NG_VALIDATORS, multi: true, useExisting: forwardRef(() =&gt; SacDropdownComponent),
}</title>
<ellipse fill="#fdb462" stroke="black" cx="446" cy="-127.3" rx="422.41" ry="41.09"/>
<text text-anchor="middle" x="446" y="-139.9" font-family="Times,serif" font-size="14.00">{</text>
<text text-anchor="middle" x="446" y="-123.1" font-family="Times,serif" font-size="14.00"> &#160;&#160;&#160;provide: NG_VALIDATORS, multi: true, useExisting: forwardRef(() =&gt; SacDropdownComponent),</text>
<text text-anchor="middle" x="446" y="-106.3" font-family="Times,serif" font-size="14.00">}</text>
</g>
<!-- {
 &#160;&#160;&#160;provide: NG_VALIDATORS, multi: true, useExisting: forwardRef(() =&gt; SacDropdownComponent),
}&#45;&gt;SacDropdownComponent -->
<g id="edge3" class="edge">
<title>{
 &#160;&#160;&#160;provide: NG_VALIDATORS, multi: true, useExisting: forwardRef(() =&gt; SacDropdownComponent),
}&#45;&gt;SacDropdownComponent</title>
<path fill="none" stroke="black" d="M807.52,-148.9C807.52,-164.77 807.52,-183.59 807.52,-183.59 807.52,-183.59 1168.1,-183.59 1168.1,-183.59 1168.1,-183.59 1168.1,-187.35 1168.1,-187.35"/>
<polygon fill="black" stroke="black" points="1164.6,-187.35 1168.1,-197.35 1171.6,-187.35 1164.6,-187.35"/>
</g>
<!-- SACBootstrap3LayoutModule -->
<g id="node7" class="node">
<title>SACBootstrap3LayoutModule</title>
<polygon fill="#8dd3c7" stroke="black" points="722.87,-233.59 719.87,-237.59 698.87,-237.59 695.87,-233.59 535.13,-233.59 535.13,-197.59 722.87,-197.59 722.87,-233.59"/>
<text text-anchor="middle" x="629" y="-211.39" font-family="Times,serif" font-size="14.00">SACBootstrap3LayoutModule</text>
</g>
<!-- SACBootstrap3LayoutModule&#45;&gt;SACBootstrap3ListModule -->
<g id="edge6" class="edge">
<title>SACBootstrap3LayoutModule&#45;&gt;SACBootstrap3ListModule</title>
<path fill="none" stroke="black" d="M680.97,-233.7C680.97,-233.7 680.97,-252.58 680.97,-252.58"/>
<polygon fill="black" stroke="black" points="677.47,-252.58 680.97,-262.58 684.47,-252.58 677.47,-252.58"/>
</g>
<!-- SACBootstrap3TooltipModule -->
<g id="node8" class="node">
<title>SACBootstrap3TooltipModule</title>
<polygon fill="#8dd3c7" stroke="black" points="516.94,-233.59 513.94,-237.59 492.94,-237.59 489.94,-233.59 327.06,-233.59 327.06,-197.59 516.94,-197.59 516.94,-233.59"/>
<text text-anchor="middle" x="422" y="-211.39" font-family="Times,serif" font-size="14.00">SACBootstrap3TooltipModule</text>
</g>
<!-- SACBootstrap3TooltipModule&#45;&gt;SACBootstrap3ListModule -->
<g id="edge7" class="edge">
<title>SACBootstrap3TooltipModule&#45;&gt;SACBootstrap3ListModule</title>
<path fill="none" stroke="black" d="M489.9,-233.62C489.9,-249.99 489.9,-271.59 489.9,-271.59 489.9,-271.59 628.82,-271.59 628.82,-271.59"/>
<polygon fill="black" stroke="black" points="628.82,-275.09 638.82,-271.59 628.82,-268.09 628.82,-275.09"/>
</g>
<!-- SACCommonListboxOptionModule -->
<g id="node9" class="node">
<title>SACCommonListboxOptionModule</title>
<polygon fill="#8dd3c7" stroke="black" points="309.06,-233.59 306.06,-237.59 285.06,-237.59 282.06,-233.59 88.94,-233.59 88.94,-197.59 309.06,-197.59 309.06,-233.59"/>
<text text-anchor="middle" x="199" y="-211.39" font-family="Times,serif" font-size="14.00">SACCommonListboxOptionModule</text>
</g>
<!-- SACCommonListboxOptionModule&#45;&gt;SACBootstrap3ListModule -->
<g id="edge8" class="edge">
<title>SACCommonListboxOptionModule&#45;&gt;SACBootstrap3ListModule</title>
<path fill="none" stroke="black" d="M199,-233.7C199,-252.93 199,-280.59 199,-280.59 199,-280.59 628.77,-280.59 628.77,-280.59"/>
<polygon fill="black" stroke="black" points="628.77,-284.09 638.77,-280.59 628.77,-277.09 628.77,-284.09"/>
</g>
</g>
</svg>
