<?xml version="1.0" encoding="UTF-8" standalone="no"?>
<!DOCTYPE svg PUBLIC "-//W3C//DTD SVG 1.1//EN"
 "http://www.w3.org/Graphics/SVG/1.1/DTD/svg11.dtd">
<!-- Generated by graphviz version 2.47.0 (20210316.0004)
 -->
<!-- Title: dependencies Pages: 1 -->
<svg width="2490pt" height="396pt"
 viewBox="0.00 0.00 2490.00 395.59" xmlns="http://www.w3.org/2000/svg" xmlns:xlink="http://www.w3.org/1999/xlink">
<g id="graph0" class="graph" transform="scale(1 1) rotate(0) translate(4 391.59)">
<title>dependencies</title>
<polygon fill="white" stroke="transparent" points="-4,4 -4,-391.59 2486,-391.59 2486,4 -4,4"/>
<text text-anchor="start" x="1220.01" y="-42.4" font-family="Times-12" font-weight="bold" font-size="14.00">Legend</text>
<polygon fill="#ffffb3" stroke="transparent" points="1007,-10 1007,-30 1027,-30 1027,-10 1007,-10"/>
<text text-anchor="start" x="1030.63" y="-15.4" font-family="Times-12" font-size="14.00"> &#160;Declarations</text>
<polygon fill="#8dd3c7" stroke="transparent" points="1120,-10 1120,-30 1140,-30 1140,-10 1120,-10"/>
<text text-anchor="start" x="1143.73" y="-15.4" font-family="Times-12" font-size="14.00"> &#160;Module</text>
<polygon fill="#80b1d3" stroke="transparent" points="1206,-10 1206,-30 1226,-30 1226,-10 1206,-10"/>
<text text-anchor="start" x="1229.78" y="-15.4" font-family="Times-12" font-size="14.00"> &#160;Bootstrap</text>
<polygon fill="#fdb462" stroke="transparent" points="1303,-10 1303,-30 1323,-30 1323,-10 1303,-10"/>
<text text-anchor="start" x="1326.67" y="-15.4" font-family="Times-12" font-size="14.00"> &#160;Providers</text>
<polygon fill="#fb8072" stroke="transparent" points="1399,-10 1399,-30 1419,-30 1419,-10 1399,-10"/>
<text text-anchor="start" x="1422.73" y="-15.4" font-family="Times-12" font-size="14.00"> &#160;Exports</text>
<g id="clust1" class="cluster">
<title>cluster_SACBootstrap3ListModule</title>
<polygon fill="none" stroke="black" stroke-dasharray="1,5" points="8,-70 8,-379.59 2474,-379.59 2474,-70 8,-70"/>
</g>
<g id="clust3" class="cluster">
<title>cluster_SACBootstrap3ListModule_SacDropdownComponent_providers</title>
<polygon fill="none" stroke="black" points="840,-78 840,-241.59 2466,-241.59 2466,-78 840,-78"/>
</g>
<g id="clust7" class="cluster">
<title>cluster_SACBootstrap3ListModule_exports</title>
<polygon fill="none" stroke="black" points="277,-319.59 277,-371.59 832,-371.59 832,-319.59 277,-319.59"/>
</g>
<g id="clust2" class="cluster">
<title>cluster_SACBootstrap3ListModule_declarations</title>
<polygon fill="none" stroke="black" points="466,-189.59 466,-241.59 832,-241.59 832,-189.59 466,-189.59"/>
</g>
<g id="clust6" class="cluster">
<title>cluster_SACBootstrap3ListModule_imports</title>
<polygon fill="none" stroke="black" points="16,-189.59 16,-241.59 458,-241.59 458,-189.59 16,-189.59"/>
</g>
<!-- SacDropdownComponent -->
<g id="node1" class="node">
<title>SacDropdownComponent</title>
<polygon fill="#ffffb3" stroke="black" points="1350.92,-233.59 1189.08,-233.59 1189.08,-197.59 1350.92,-197.59 1350.92,-233.59"/>
<text text-anchor="middle" x="1270" y="-211.39" font-family="Times,serif" font-size="14.00">SacDropdownComponent</text>
</g>
<!-- SACBootstrap3ListModule -->
<g id="node4" class="node">
<title>SACBootstrap3ListModule</title>
<polygon fill="#8dd3c7" stroke="black" points="630.99,-298.59 627.99,-302.59 606.99,-302.59 603.99,-298.59 461.01,-298.59 461.01,-262.59 630.99,-262.59 630.99,-298.59"/>
<text text-anchor="middle" x="546" y="-276.39" font-family="Times,serif" font-size="14.00">SACBootstrap3ListModule</text>
</g>
<!-- SacDropdownComponent&#45;&gt;SACBootstrap3ListModule -->
<g id="edge1" class="edge">
<title>SacDropdownComponent&#45;&gt;SACBootstrap3ListModule</title>
<path fill="none" stroke="black" d="M1270,-233.61C1270,-250.96 1270,-274.59 1270,-274.59 1270,-274.59 641.18,-274.59 641.18,-274.59"/>
<polygon fill="black" stroke="black" points="641.18,-271.09 631.18,-274.59 641.18,-278.09 641.18,-271.09"/>
</g>
<!-- SacDropdownOptionDirective -->
<g id="node2" class="node">
<title>SacDropdownOptionDirective</title>
<polygon fill="#ffffb3" stroke="black" points="823.56,-233.59 636.44,-233.59 636.44,-197.59 823.56,-197.59 823.56,-233.59"/>
<text text-anchor="middle" x="730" y="-211.39" font-family="Times,serif" font-size="14.00">SacDropdownOptionDirective</text>
</g>
<!-- SacDropdownOptionDirective&#45;&gt;SACBootstrap3ListModule -->
<g id="edge4" class="edge">
<title>SacDropdownOptionDirective&#45;&gt;SACBootstrap3ListModule</title>
<path fill="none" stroke="black" d="M636.26,-215.59C629.1,-215.59 624.58,-215.59 624.58,-215.59 624.58,-215.59 624.58,-252.48 624.58,-252.48"/>
<polygon fill="black" stroke="black" points="621.08,-252.48 624.58,-262.48 628.08,-252.48 621.08,-252.48"/>
</g>
<!-- SacListboxComponent -->
<g id="node3" class="node">
<title>SacListboxComponent</title>
<polygon fill="#ffffb3" stroke="black" points="618.32,-233.59 473.68,-233.59 473.68,-197.59 618.32,-197.59 618.32,-233.59"/>
<text text-anchor="middle" x="546" y="-211.39" font-family="Times,serif" font-size="14.00">SacListboxComponent</text>
</g>
<!-- SacListboxComponent&#45;&gt;SACBootstrap3ListModule -->
<g id="edge5" class="edge">
<title>SacListboxComponent&#45;&gt;SACBootstrap3ListModule</title>
<path fill="none" stroke="black" d="M546,-233.7C546,-233.7 546,-252.58 546,-252.58"/>
<polygon fill="black" stroke="black" points="542.5,-252.58 546,-262.58 549.5,-252.58 542.5,-252.58"/>
</g>
<!-- SacDropdownComponent  -->
<g id="node9" class="node">
<title>SacDropdownComponent </title>
<polygon fill="#fb8072" stroke="black" points="824.42,-363.59 659.58,-363.59 659.58,-327.59 824.42,-327.59 824.42,-363.59"/>
<text text-anchor="middle" x="742" y="-341.39" font-family="Times,serif" font-size="14.00">SacDropdownComponent </text>
</g>
<!-- SACBootstrap3ListModule&#45;&gt;SacDropdownComponent  -->
<g id="edge8" class="edge">
<title>SACBootstrap3ListModule&#45;&gt;SacDropdownComponent </title>
<path fill="none" stroke="black" stroke-dasharray="5,2" d="M631.2,-286.59C683.89,-286.59 741.53,-286.59 741.53,-286.59 741.53,-286.59 741.53,-317.57 741.53,-317.57"/>
<polygon fill="black" stroke="black" points="738.03,-317.57 741.53,-327.57 745.03,-317.57 738.03,-317.57"/>
</g>
<!-- SacDropdownOptionDirective  -->
<g id="node10" class="node">
<title>SacDropdownOptionDirective </title>
<polygon fill="#fb8072" stroke="black" points="641.06,-363.59 450.94,-363.59 450.94,-327.59 641.06,-327.59 641.06,-363.59"/>
<text text-anchor="middle" x="546" y="-341.39" font-family="Times,serif" font-size="14.00">SacDropdownOptionDirective </text>
</g>
<!-- SACBootstrap3ListModule&#45;&gt;SacDropdownOptionDirective  -->
<g id="edge9" class="edge">
<title>SACBootstrap3ListModule&#45;&gt;SacDropdownOptionDirective </title>
<path fill="none" stroke="black" stroke-dasharray="5,2" d="M546,-298.7C546,-298.7 546,-317.58 546,-317.58"/>
<polygon fill="black" stroke="black" points="542.5,-317.58 546,-327.58 549.5,-317.58 542.5,-317.58"/>
</g>
<!-- SacListboxComponent  -->
<g id="node11" class="node">
<title>SacListboxComponent </title>
<polygon fill="#fb8072" stroke="black" points="432.82,-363.59 285.18,-363.59 285.18,-327.59 432.82,-327.59 432.82,-363.59"/>
<text text-anchor="middle" x="359" y="-341.39" font-family="Times,serif" font-size="14.00">SacListboxComponent </text>
</g>
<!-- SACBootstrap3ListModule&#45;&gt;SacListboxComponent  -->
<g id="edge10" class="edge">
<title>SACBootstrap3ListModule&#45;&gt;SacListboxComponent </title>
<path fill="none" stroke="black" stroke-dasharray="5,2" d="M460.98,-286.59C411.58,-286.59 359,-286.59 359,-286.59 359,-286.59 359,-317.57 359,-317.57"/>
<polygon fill="black" stroke="black" points="355.5,-317.57 359,-327.57 362.5,-317.57 355.5,-317.57"/>
</g>
<!-- {
 &#160;&#160;&#160;provide: NG_VALUE_ACCESSOR, multi: true, useExisting: SacDropdownComponent,
} -->
<g id="node5" class="node">
<title>{
 &#160;&#160;&#160;provide: NG_VALUE_ACCESSOR, multi: true, useExisting: SacDropdownComponent,
}</title>
<ellipse fill="#fdb462" stroke="black" cx="2084" cy="-127.3" rx="373.9" ry="41.09"/>
<text text-anchor="middle" x="2084" y="-139.9" font-family="Times,serif" font-size="14.00">{</text>
<text text-anchor="middle" x="2084" y="-123.1" font-family="Times,serif" font-size="14.00"> &#160;&#160;&#160;provide: NG_VALUE_ACCESSOR, multi: true, useExisting: SacDropdownComponent,</text>
<text text-anchor="middle" x="2084" y="-106.3" font-family="Times,serif" font-size="14.00">}</text>
</g>
<!-- {
 &#160;&#160;&#160;provide: NG_VALUE_ACCESSOR, multi: true, useExisting: SacDropdownComponent,
}&#45;&gt;SacDropdownComponent -->
<g id="edge2" class="edge">
<title>{
 &#160;&#160;&#160;provide: NG_VALUE_ACCESSOR, multi: true, useExisting: SacDropdownComponent,
}&#45;&gt;SacDropdownComponent</title>
<path fill="none" stroke="black" d="M2084,-168.6C2084,-191.58 2084,-215.59 2084,-215.59 2084,-215.59 1361.03,-215.59 1361.03,-215.59"/>
<polygon fill="black" stroke="black" points="1361.03,-212.09 1351.03,-215.59 1361.03,-219.09 1361.03,-212.09"/>
</g>
<!-- {
 &#160;&#160;&#160;provide: NG_VALIDATORS, multi: true, useExisting: forwardRef(() =&gt; SacDropdownComponent),
} -->
<g id="node6" class="node">
<title>{
 &#160;&#160;&#160;provide: NG_VALIDATORS, multi: true, useExisting: forwardRef(() =&gt; SacDropdownComponent),
}</title>
<ellipse fill="#fdb462" stroke="black" cx="1270" cy="-127.3" rx="422.41" ry="41.09"/>
<text text-anchor="middle" x="1270" y="-139.9" font-family="Times,serif" font-size="14.00">{</text>
<text text-anchor="middle" x="1270" y="-123.1" font-family="Times,serif" font-size="14.00"> &#160;&#160;&#160;provide: NG_VALIDATORS, multi: true, useExisting: forwardRef(() =&gt; SacDropdownComponent),</text>
<text text-anchor="middle" x="1270" y="-106.3" font-family="Times,serif" font-size="14.00">}</text>
</g>
<!-- {
 &#160;&#160;&#160;provide: NG_VALIDATORS, multi: true, useExisting: forwardRef(() =&gt; SacDropdownComponent),
}&#45;&gt;SacDropdownComponent -->
<g id="edge3" class="edge">
<title>{
 &#160;&#160;&#160;provide: NG_VALIDATORS, multi: true, useExisting: forwardRef(() =&gt; SacDropdownComponent),
}&#45;&gt;SacDropdownComponent</title>
<path fill="none" stroke="black" d="M1270,-168.6C1270,-168.6 1270,-187.26 1270,-187.26"/>
<polygon fill="black" stroke="black" points="1266.5,-187.26 1270,-197.26 1273.5,-187.26 1266.5,-187.26"/>
</g>
<!-- SACBootstrap3LayoutModule -->
<g id="node7" class="node">
<title>SACBootstrap3LayoutModule</title>
<polygon fill="#8dd3c7" stroke="black" points="449.87,-233.59 446.87,-237.59 425.87,-237.59 422.87,-233.59 262.13,-233.59 262.13,-197.59 449.87,-197.59 449.87,-233.59"/>
<text text-anchor="middle" x="356" y="-211.39" font-family="Times,serif" font-size="14.00">SACBootstrap3LayoutModule</text>
</g>
<!-- SACBootstrap3LayoutModule&#45;&gt;SACBootstrap3ListModule -->
<g id="edge6" class="edge">
<title>SACBootstrap3LayoutModule&#45;&gt;SACBootstrap3ListModule</title>
<path fill="none" stroke="black" d="M450.01,-215.59C460.46,-215.59 467.42,-215.59 467.42,-215.59 467.42,-215.59 467.42,-252.48 467.42,-252.48"/>
<polygon fill="black" stroke="black" points="463.92,-252.48 467.42,-262.48 470.92,-252.48 463.92,-252.48"/>
</g>
<!-- SACCommonListboxOptionModule -->
<g id="node8" class="node">
<title>SACCommonListboxOptionModule</title>
<polygon fill="#8dd3c7" stroke="black" points="244.06,-233.59 241.06,-237.59 220.06,-237.59 217.06,-233.59 23.94,-233.59 23.94,-197.59 244.06,-197.59 244.06,-233.59"/>
<text text-anchor="middle" x="134" y="-211.39" font-family="Times,serif" font-size="14.00">SACCommonListboxOptionModule</text>
</g>
<!-- SACCommonListboxOptionModule&#45;&gt;SACBootstrap3ListModule -->
<g id="edge7" class="edge">
<title>SACCommonListboxOptionModule&#45;&gt;SACBootstrap3ListModule</title>
<path fill="none" stroke="black" d="M134,-233.61C134,-250.96 134,-274.59 134,-274.59 134,-274.59 450.63,-274.59 450.63,-274.59"/>
<polygon fill="black" stroke="black" points="450.63,-278.09 460.63,-274.59 450.63,-271.09 450.63,-278.09"/>
</g>
</g>
</svg>
