<?xml version="1.0" encoding="UTF-8" standalone="no"?>
<!DOCTYPE svg PUBLIC "-//W3C//DTD SVG 1.1//EN"
 "http://www.w3.org/Graphics/SVG/1.1/DTD/svg11.dtd">
<!-- Generated by graphviz version 2.47.0 (20210316.0004)
 -->
<!-- Title: dependencies Pages: 1 -->
<svg width="947pt" height="284pt"
 viewBox="0.00 0.00 947.00 284.00" xmlns="http://www.w3.org/2000/svg" xmlns:xlink="http://www.w3.org/1999/xlink">
<g id="graph0" class="graph" transform="scale(1 1) rotate(0) translate(4 280)">
<title>dependencies</title>
<polygon fill="white" stroke="transparent" points="-4,4 -4,-280 943,-280 943,4 -4,4"/>
<text text-anchor="start" x="448.51" y="-42.4" font-family="Times-12" font-weight="bold" font-size="14.00">Legend</text>
<polygon fill="#ffffb3" stroke="transparent" points="235.5,-10 235.5,-30 255.5,-30 255.5,-10 235.5,-10"/>
<text text-anchor="start" x="259.13" y="-15.4" font-family="Times-12" font-size="14.00"> &#160;Declarations</text>
<polygon fill="#8dd3c7" stroke="transparent" points="348.5,-10 348.5,-30 368.5,-30 368.5,-10 348.5,-10"/>
<text text-anchor="start" x="372.23" y="-15.4" font-family="Times-12" font-size="14.00"> &#160;Module</text>
<polygon fill="#80b1d3" stroke="transparent" points="434.5,-10 434.5,-30 454.5,-30 454.5,-10 434.5,-10"/>
<text text-anchor="start" x="458.28" y="-15.4" font-family="Times-12" font-size="14.00"> &#160;Bootstrap</text>
<polygon fill="#fdb462" stroke="transparent" points="531.5,-10 531.5,-30 551.5,-30 551.5,-10 531.5,-10"/>
<text text-anchor="start" x="555.17" y="-15.4" font-family="Times-12" font-size="14.00"> &#160;Providers</text>
<polygon fill="#fb8072" stroke="transparent" points="627.5,-10 627.5,-30 647.5,-30 647.5,-10 627.5,-10"/>
<text text-anchor="start" x="651.23" y="-15.4" font-family="Times-12" font-size="14.00"> &#160;Exports</text>
<g id="clust1" class="cluster">
<title>cluster_SACBootstrap5LayoutModule</title>
<polygon fill="none" stroke="black" stroke-dasharray="1,5" points="8,-70 8,-268 931,-268 931,-70 8,-70"/>
</g>
<g id="clust4" class="cluster">
<title>cluster_SACBootstrap5LayoutModule_exports</title>
<polygon fill="none" stroke="black" points="16,-208 16,-260 923,-260 923,-208 16,-208"/>
</g>
<g id="clust3" class="cluster">
<title>cluster_SACBootstrap5LayoutModule_imports</title>
<polygon fill="none" stroke="black" points="25,-78 25,-130 914,-130 914,-78 25,-78"/>
</g>
<!-- SacFormLayoutDirective -->
<g id="node1" class="node">
<title>SacFormLayoutDirective</title>
<polygon fill="#8dd3c7" stroke="black" points="906.29,-122 903.29,-126 882.29,-126 879.29,-122 747.71,-122 747.71,-86 906.29,-86 906.29,-122"/>
<text text-anchor="middle" x="827" y="-99.8" font-family="Times,serif" font-size="14.00">SacFormLayoutDirective</text>
</g>
<!-- SACBootstrap5LayoutModule -->
<g id="node6" class="node">
<title>SACBootstrap5LayoutModule</title>
<polygon fill="#8dd3c7" stroke="black" points="560.87,-187 557.87,-191 536.87,-191 533.87,-187 373.13,-187 373.13,-151 560.87,-151 560.87,-187"/>
<text text-anchor="middle" x="467" y="-164.8" font-family="Times,serif" font-size="14.00">SACBootstrap5LayoutModule</text>
</g>
<!-- SacFormLayoutDirective&#45;&gt;SACBootstrap5LayoutModule -->
<g id="edge1" class="edge">
<title>SacFormLayoutDirective&#45;&gt;SACBootstrap5LayoutModule</title>
<path fill="none" stroke="black" d="M855.13,-122.27C855.13,-140.56 855.13,-166 855.13,-166 855.13,-166 570.96,-166 570.96,-166"/>
<polygon fill="black" stroke="black" points="570.96,-162.5 560.96,-166 570.96,-169.5 570.96,-162.5"/>
</g>
<!-- SacToControlHeightPipe -->
<g id="node2" class="node">
<title>SacToControlHeightPipe</title>
<polygon fill="#8dd3c7" stroke="black" points="729.53,-122 726.53,-126 705.53,-126 702.53,-122 572.47,-122 572.47,-86 729.53,-86 729.53,-122"/>
<text text-anchor="middle" x="651" y="-99.8" font-family="Times,serif" font-size="14.00">SacToControlHeightPipe</text>
</g>
<!-- SacToControlHeightPipe&#45;&gt;SACBootstrap5LayoutModule -->
<g id="edge2" class="edge">
<title>SacToControlHeightPipe&#45;&gt;SACBootstrap5LayoutModule</title>
<path fill="none" stroke="black" d="M678.01,-122.01C678.01,-138.05 678.01,-159 678.01,-159 678.01,-159 571.09,-159 571.09,-159"/>
<polygon fill="black" stroke="black" points="571.09,-155.5 561.09,-159 571.09,-162.5 571.09,-155.5"/>
</g>
<!-- SacToControlWidthCssPipe -->
<g id="node3" class="node">
<title>SacToControlWidthCssPipe</title>
<polygon fill="#8dd3c7" stroke="black" points="554.15,-122 551.15,-126 530.15,-126 527.15,-122 379.85,-122 379.85,-86 554.15,-86 554.15,-122"/>
<text text-anchor="middle" x="467" y="-99.8" font-family="Times,serif" font-size="14.00">SacToControlWidthCssPipe</text>
</g>
<!-- SacToControlWidthCssPipe&#45;&gt;SACBootstrap5LayoutModule -->
<g id="edge3" class="edge">
<title>SacToControlWidthCssPipe&#45;&gt;SACBootstrap5LayoutModule</title>
<path fill="none" stroke="black" d="M467,-122.11C467,-122.11 467,-140.99 467,-140.99"/>
<polygon fill="black" stroke="black" points="463.5,-140.99 467,-150.99 470.5,-140.99 463.5,-140.99"/>
</g>
<!-- SacToLabelHeightPipe -->
<g id="node4" class="node">
<title>SacToLabelHeightPipe</title>
<polygon fill="#8dd3c7" stroke="black" points="361.13,-122 358.13,-126 337.13,-126 334.13,-122 214.87,-122 214.87,-86 361.13,-86 361.13,-122"/>
<text text-anchor="middle" x="288" y="-99.8" font-family="Times,serif" font-size="14.00">SacToLabelHeightPipe</text>
</g>
<!-- SacToLabelHeightPipe&#45;&gt;SACBootstrap5LayoutModule -->
<g id="edge4" class="edge">
<title>SacToLabelHeightPipe&#45;&gt;SACBootstrap5LayoutModule</title>
<path fill="none" stroke="black" d="M311.6,-122.01C311.6,-138.05 311.6,-159 311.6,-159 311.6,-159 363.02,-159 363.02,-159"/>
<polygon fill="black" stroke="black" points="363.02,-162.5 373.02,-159 363.02,-155.5 363.02,-162.5"/>
</g>
<!-- SacToLabelWidthCssPipe -->
<g id="node5" class="node">
<title>SacToLabelWidthCssPipe</title>
<polygon fill="#8dd3c7" stroke="black" points="196.75,-122 193.75,-126 172.75,-126 169.75,-122 33.25,-122 33.25,-86 196.75,-86 196.75,-122"/>
<text text-anchor="middle" x="115" y="-99.8" font-family="Times,serif" font-size="14.00">SacToLabelWidthCssPipe</text>
</g>
<!-- SacToLabelWidthCssPipe&#45;&gt;SACBootstrap5LayoutModule -->
<g id="edge5" class="edge">
<title>SacToLabelWidthCssPipe&#45;&gt;SACBootstrap5LayoutModule</title>
<path fill="none" stroke="black" d="M138.79,-122.27C138.79,-140.56 138.79,-166 138.79,-166 138.79,-166 362.95,-166 362.95,-166"/>
<polygon fill="black" stroke="black" points="362.95,-169.5 372.95,-166 362.95,-162.5 362.95,-169.5"/>
</g>
<!-- SacFormLayoutDirective  -->
<g id="node7" class="node">
<title>SacFormLayoutDirective </title>
<polygon fill="#fb8072" stroke="black" points="914.79,-252 753.21,-252 753.21,-216 914.79,-216 914.79,-252"/>
<text text-anchor="middle" x="834" y="-229.8" font-family="Times,serif" font-size="14.00">SacFormLayoutDirective </text>
</g>
<!-- SACBootstrap5LayoutModule&#45;&gt;SacFormLayoutDirective  -->
<g id="edge6" class="edge">
<title>SACBootstrap5LayoutModule&#45;&gt;SacFormLayoutDirective </title>
<path fill="none" stroke="black" stroke-dasharray="5,2" d="M560.91,-173C660.66,-173 804.12,-173 804.12,-173 804.12,-173 804.12,-205.7 804.12,-205.7"/>
<polygon fill="black" stroke="black" points="800.62,-205.7 804.12,-215.7 807.62,-205.7 800.62,-205.7"/>
</g>
<!-- SacToControlHeightPipe  -->
<g id="node8" class="node">
<title>SacToControlHeightPipe </title>
<polygon fill="#fb8072" stroke="black" points="735.53,-252 574.47,-252 574.47,-216 735.53,-216 735.53,-252"/>
<text text-anchor="middle" x="655" y="-229.8" font-family="Times,serif" font-size="14.00">SacToControlHeightPipe </text>
</g>
<!-- SACBootstrap5LayoutModule&#45;&gt;SacToControlHeightPipe  -->
<g id="edge7" class="edge">
<title>SACBootstrap5LayoutModule&#45;&gt;SacToControlHeightPipe </title>
<path fill="none" stroke="black" stroke-dasharray="5,2" d="M561.01,-180C595.49,-180 626.24,-180 626.24,-180 626.24,-180 626.24,-205.72 626.24,-205.72"/>
<polygon fill="black" stroke="black" points="622.74,-205.72 626.24,-215.72 629.74,-205.72 622.74,-205.72"/>
</g>
<!-- SacToControlWidthCssPipe  -->
<g id="node9" class="node">
<title>SacToControlWidthCssPipe </title>
<polygon fill="#fb8072" stroke="black" points="556.15,-252 377.85,-252 377.85,-216 556.15,-216 556.15,-252"/>
<text text-anchor="middle" x="467" y="-229.8" font-family="Times,serif" font-size="14.00">SacToControlWidthCssPipe </text>
</g>
<!-- SACBootstrap5LayoutModule&#45;&gt;SacToControlWidthCssPipe  -->
<g id="edge8" class="edge">
<title>SACBootstrap5LayoutModule&#45;&gt;SacToControlWidthCssPipe </title>
<path fill="none" stroke="black" stroke-dasharray="5,2" d="M467,-187.11C467,-187.11 467,-205.99 467,-205.99"/>
<polygon fill="black" stroke="black" points="463.5,-205.99 467,-215.99 470.5,-205.99 463.5,-205.99"/>
</g>
<!-- SacToLabelHeightPipe  -->
<g id="node10" class="node">
<title>SacToLabelHeightPipe </title>
<polygon fill="#fb8072" stroke="black" points="360.13,-252 209.87,-252 209.87,-216 360.13,-216 360.13,-252"/>
<text text-anchor="middle" x="285" y="-229.8" font-family="Times,serif" font-size="14.00">SacToLabelHeightPipe </text>
</g>
<!-- SACBootstrap5LayoutModule&#45;&gt;SacToLabelHeightPipe  -->
<g id="edge9" class="edge">
<title>SACBootstrap5LayoutModule&#45;&gt;SacToLabelHeightPipe </title>
<path fill="none" stroke="black" stroke-dasharray="5,2" d="M373.13,-180C319.63,-180 263.15,-180 263.15,-180 263.15,-180 263.15,-205.72 263.15,-205.72"/>
<polygon fill="black" stroke="black" points="259.65,-205.72 263.15,-215.72 266.65,-205.72 259.65,-205.72"/>
</g>
<!-- SacToLabelWidthCssPipe  -->
<g id="node11" class="node">
<title>SacToLabelWidthCssPipe </title>
<polygon fill="#fb8072" stroke="black" points="191.75,-252 24.25,-252 24.25,-216 191.75,-216 191.75,-252"/>
<text text-anchor="middle" x="108" y="-229.8" font-family="Times,serif" font-size="14.00">SacToLabelWidthCssPipe </text>
</g>
<!-- SACBootstrap5LayoutModule&#45;&gt;SacToLabelWidthCssPipe  -->
<g id="edge10" class="edge">
<title>SACBootstrap5LayoutModule&#45;&gt;SacToLabelWidthCssPipe </title>
<path fill="none" stroke="black" stroke-dasharray="5,2" d="M372.81,-173C259.97,-173 85.96,-173 85.96,-173 85.96,-173 85.96,-205.7 85.96,-205.7"/>
<polygon fill="black" stroke="black" points="82.46,-205.7 85.96,-215.7 89.46,-205.7 82.46,-205.7"/>
</g>
</g>
</svg>
