<?xml version="1.0" encoding="UTF-8" standalone="no"?>
<!DOCTYPE svg PUBLIC "-//W3C//DTD SVG 1.1//EN"
 "http://www.w3.org/Graphics/SVG/1.1/DTD/svg11.dtd">
<!-- Generated by graphviz version 2.47.0 (20210316.0004)
 -->
<!-- Title: dependencies Pages: 1 -->
<svg width="1722pt" height="396pt"
 viewBox="0.00 0.00 1722.00 395.59" xmlns="http://www.w3.org/2000/svg" xmlns:xlink="http://www.w3.org/1999/xlink">
<g id="graph0" class="graph" transform="scale(1 1) rotate(0) translate(4 391.59)">
<title>dependencies</title>
<polygon fill="white" stroke="transparent" points="-4,4 -4,-391.59 1718,-391.59 1718,4 -4,4"/>
<text text-anchor="start" x="836.01" y="-42.4" font-family="Times-12" font-weight="bold" font-size="14.00">Legend</text>
<polygon fill="#ffffb3" stroke="transparent" points="623,-10 623,-30 643,-30 643,-10 623,-10"/>
<text text-anchor="start" x="646.63" y="-15.4" font-family="Times-12" font-size="14.00"> &#160;Declarations</text>
<polygon fill="#8dd3c7" stroke="transparent" points="736,-10 736,-30 756,-30 756,-10 736,-10"/>
<text text-anchor="start" x="759.73" y="-15.4" font-family="Times-12" font-size="14.00"> &#160;Module</text>
<polygon fill="#80b1d3" stroke="transparent" points="822,-10 822,-30 842,-30 842,-10 822,-10"/>
<text text-anchor="start" x="845.78" y="-15.4" font-family="Times-12" font-size="14.00"> &#160;Bootstrap</text>
<polygon fill="#fdb462" stroke="transparent" points="919,-10 919,-30 939,-30 939,-10 919,-10"/>
<text text-anchor="start" x="942.67" y="-15.4" font-family="Times-12" font-size="14.00"> &#160;Providers</text>
<polygon fill="#fb8072" stroke="transparent" points="1015,-10 1015,-30 1035,-30 1035,-10 1015,-10"/>
<text text-anchor="start" x="1038.73" y="-15.4" font-family="Times-12" font-size="14.00"> &#160;Exports</text>
<g id="clust1" class="cluster">
<title>cluster_SACBootstrap3DateTimeModule</title>
<polygon fill="none" stroke="black" stroke-dasharray="1,5" points="8,-70 8,-379.59 1706,-379.59 1706,-70 8,-70"/>
</g>
<g id="clust2" class="cluster">
<title>cluster_SACBootstrap3DateTimeModule_declarations</title>
<polygon fill="none" stroke="black" points="346,-189.59 346,-241.59 1007,-241.59 1007,-189.59 346,-189.59"/>
</g>
<g id="clust7" class="cluster">
<title>cluster_SACBootstrap3DateTimeModule_imports</title>
<polygon fill="none" stroke="black" points="1015,-189.59 1015,-241.59 1219,-241.59 1219,-189.59 1015,-189.59"/>
</g>
<g id="clust8" class="cluster">
<title>cluster_SACBootstrap3DateTimeModule_exports</title>
<polygon fill="none" stroke="black" points="432,-319.59 432,-371.59 1106,-371.59 1106,-319.59 432,-319.59"/>
</g>
<g id="clust3" class="cluster">
<title>cluster_SACBootstrap3DateTimeModule_SacDateComponent_providers</title>
<polygon fill="none" stroke="black" points="16,-78 16,-176.59 1698,-176.59 1698,-78 16,-78"/>
</g>
<!-- SacDateComponent -->
<g id="node1" class="node">
<title>SacDateComponent</title>
<polygon fill="#ffffb3" stroke="black" points="998.97,-233.59 871.03,-233.59 871.03,-197.59 998.97,-197.59 998.97,-233.59"/>
<text text-anchor="middle" x="935" y="-211.39" font-family="Times,serif" font-size="14.00">SacDateComponent</text>
</g>
<!-- SACBootstrap3DateTimeModule -->
<g id="node5" class="node">
<title>SACBootstrap3DateTimeModule</title>
<polygon fill="#8dd3c7" stroke="black" points="868.19,-298.59 865.19,-302.59 844.19,-302.59 841.19,-298.59 663.81,-298.59 663.81,-262.59 868.19,-262.59 868.19,-298.59"/>
<text text-anchor="middle" x="766" y="-276.39" font-family="Times,serif" font-size="14.00">SACBootstrap3DateTimeModule</text>
</g>
<!-- SacDateComponent&#45;&gt;SACBootstrap3DateTimeModule -->
<g id="edge1" class="edge">
<title>SacDateComponent&#45;&gt;SACBootstrap3DateTimeModule</title>
<path fill="none" stroke="black" d="M870.86,-215.59C864.6,-215.59 860.51,-215.59 860.51,-215.59 860.51,-215.59 860.51,-252.48 860.51,-252.48"/>
<polygon fill="black" stroke="black" points="857.01,-252.48 860.51,-262.48 864.01,-252.48 857.01,-252.48"/>
</g>
<!-- SacDateSelectorComponent -->
<g id="node2" class="node">
<title>SacDateSelectorComponent</title>
<polygon fill="#ffffb3" stroke="black" points="852.84,-233.59 679.16,-233.59 679.16,-197.59 852.84,-197.59 852.84,-233.59"/>
<text text-anchor="middle" x="766" y="-211.39" font-family="Times,serif" font-size="14.00">SacDateSelectorComponent</text>
</g>
<!-- SacDateSelectorComponent&#45;&gt;SACBootstrap3DateTimeModule -->
<g id="edge4" class="edge">
<title>SacDateSelectorComponent&#45;&gt;SACBootstrap3DateTimeModule</title>
<path fill="none" stroke="black" d="M766,-233.7C766,-233.7 766,-252.58 766,-252.58"/>
<polygon fill="black" stroke="black" points="762.5,-252.58 766,-262.58 769.5,-252.58 762.5,-252.58"/>
</g>
<!-- SacDateTimeComponent -->
<g id="node3" class="node">
<title>SacDateTimeComponent</title>
<polygon fill="#ffffb3" stroke="black" points="660.52,-233.59 503.48,-233.59 503.48,-197.59 660.52,-197.59 660.52,-233.59"/>
<text text-anchor="middle" x="582" y="-211.39" font-family="Times,serif" font-size="14.00">SacDateTimeComponent</text>
</g>
<!-- SacDateTimeComponent&#45;&gt;SACBootstrap3DateTimeModule -->
<g id="edge5" class="edge">
<title>SacDateTimeComponent&#45;&gt;SACBootstrap3DateTimeModule</title>
<path fill="none" stroke="black" d="M660.88,-215.59C667.36,-215.59 671.49,-215.59 671.49,-215.59 671.49,-215.59 671.49,-252.48 671.49,-252.48"/>
<polygon fill="black" stroke="black" points="667.99,-252.48 671.49,-262.48 674.99,-252.48 667.99,-252.48"/>
</g>
<!-- SacTimeComponent -->
<g id="node4" class="node">
<title>SacTimeComponent</title>
<polygon fill="#ffffb3" stroke="black" points="485.59,-233.59 354.41,-233.59 354.41,-197.59 485.59,-197.59 485.59,-233.59"/>
<text text-anchor="middle" x="420" y="-211.39" font-family="Times,serif" font-size="14.00">SacTimeComponent</text>
</g>
<!-- SacTimeComponent&#45;&gt;SACBootstrap3DateTimeModule -->
<g id="edge6" class="edge">
<title>SacTimeComponent&#45;&gt;SACBootstrap3DateTimeModule</title>
<path fill="none" stroke="black" d="M462.62,-233.61C462.62,-250.96 462.62,-274.59 462.62,-274.59 462.62,-274.59 653.71,-274.59 653.71,-274.59"/>
<polygon fill="black" stroke="black" points="653.71,-278.09 663.71,-274.59 653.71,-271.09 653.71,-278.09"/>
</g>
<!-- SacDateComponent  -->
<g id="node9" class="node">
<title>SacDateComponent </title>
<polygon fill="#fb8072" stroke="black" points="1097.97,-363.59 966.03,-363.59 966.03,-327.59 1097.97,-327.59 1097.97,-363.59"/>
<text text-anchor="middle" x="1032" y="-341.39" font-family="Times,serif" font-size="14.00">SacDateComponent </text>
</g>
<!-- SACBootstrap3DateTimeModule&#45;&gt;SacDateComponent  -->
<g id="edge8" class="edge">
<title>SACBootstrap3DateTimeModule&#45;&gt;SacDateComponent </title>
<path fill="none" stroke="black" stroke-dasharray="5,2" d="M868.29,-286.59C924.37,-286.59 982.62,-286.59 982.62,-286.59 982.62,-286.59 982.62,-317.57 982.62,-317.57"/>
<polygon fill="black" stroke="black" points="979.13,-317.57 982.62,-327.57 986.13,-317.57 979.13,-317.57"/>
</g>
<!-- SacDateSelectorComponent  -->
<g id="node10" class="node">
<title>SacDateSelectorComponent </title>
<polygon fill="#fb8072" stroke="black" points="948.84,-363.59 771.16,-363.59 771.16,-327.59 948.84,-327.59 948.84,-363.59"/>
<text text-anchor="middle" x="860" y="-341.39" font-family="Times,serif" font-size="14.00">SacDateSelectorComponent </text>
</g>
<!-- SACBootstrap3DateTimeModule&#45;&gt;SacDateSelectorComponent  -->
<g id="edge9" class="edge">
<title>SACBootstrap3DateTimeModule&#45;&gt;SacDateSelectorComponent </title>
<path fill="none" stroke="black" stroke-dasharray="5,2" d="M819.71,-298.7C819.71,-298.7 819.71,-317.58 819.71,-317.58"/>
<polygon fill="black" stroke="black" points="816.21,-317.58 819.71,-327.58 823.21,-317.58 816.21,-317.58"/>
</g>
<!-- SacDateTimeComponent  -->
<g id="node11" class="node">
<title>SacDateTimeComponent </title>
<polygon fill="#fb8072" stroke="black" points="753.52,-363.59 592.48,-363.59 592.48,-327.59 753.52,-327.59 753.52,-363.59"/>
<text text-anchor="middle" x="673" y="-341.39" font-family="Times,serif" font-size="14.00">SacDateTimeComponent </text>
</g>
<!-- SACBootstrap3DateTimeModule&#45;&gt;SacDateTimeComponent  -->
<g id="edge10" class="edge">
<title>SACBootstrap3DateTimeModule&#45;&gt;SacDateTimeComponent </title>
<path fill="none" stroke="black" stroke-dasharray="5,2" d="M708.71,-298.7C708.71,-298.7 708.71,-317.58 708.71,-317.58"/>
<polygon fill="black" stroke="black" points="705.21,-317.58 708.71,-327.58 712.21,-317.58 705.21,-317.58"/>
</g>
<!-- SacTimeComponent  -->
<g id="node12" class="node">
<title>SacTimeComponent </title>
<polygon fill="#fb8072" stroke="black" points="574.09,-363.59 439.91,-363.59 439.91,-327.59 574.09,-327.59 574.09,-363.59"/>
<text text-anchor="middle" x="507" y="-341.39" font-family="Times,serif" font-size="14.00">SacTimeComponent </text>
</g>
<!-- SACBootstrap3DateTimeModule&#45;&gt;SacTimeComponent  -->
<g id="edge11" class="edge">
<title>SACBootstrap3DateTimeModule&#45;&gt;SacTimeComponent </title>
<path fill="none" stroke="black" stroke-dasharray="5,2" d="M663.68,-286.59C603.37,-286.59 538.77,-286.59 538.77,-286.59 538.77,-286.59 538.77,-317.57 538.77,-317.57"/>
<polygon fill="black" stroke="black" points="535.27,-317.57 538.77,-327.57 542.27,-317.57 535.27,-317.57"/>
</g>
<!-- {
 &#160;&#160;&#160;provide: NG_VALUE_ACCESSOR, multi: true, useExisting: forwardRef(() =&gt; SacDateComponent),
} -->
<g id="node6" class="node">
<title>{
 &#160;&#160;&#160;provide: NG_VALUE_ACCESSOR, multi: true, useExisting: forwardRef(() =&gt; SacDateComponent),
}</title>
<ellipse fill="#fdb462" stroke="black" cx="1265" cy="-127.3" rx="424.93" ry="41.09"/>
<text text-anchor="middle" x="1265" y="-139.9" font-family="Times,serif" font-size="14.00">{</text>
<text text-anchor="middle" x="1265" y="-123.1" font-family="Times,serif" font-size="14.00"> &#160;&#160;&#160;provide: NG_VALUE_ACCESSOR, multi: true, useExisting: forwardRef(() =&gt; SacDateComponent),</text>
<text text-anchor="middle" x="1265" y="-106.3" font-family="Times,serif" font-size="14.00">}</text>
</g>
<!-- {
 &#160;&#160;&#160;provide: NG_VALUE_ACCESSOR, multi: true, useExisting: forwardRef(() =&gt; SacDateComponent),
}&#45;&gt;SacDateComponent -->
<g id="edge2" class="edge">
<title>{
 &#160;&#160;&#160;provide: NG_VALUE_ACCESSOR, multi: true, useExisting: forwardRef(() =&gt; SacDateComponent),
}&#45;&gt;SacDateComponent</title>
<path fill="none" stroke="black" d="M956.33,-155.72C956.33,-155.72 956.33,-187.5 956.33,-187.5"/>
<polygon fill="black" stroke="black" points="952.83,-187.5 956.33,-197.5 959.83,-187.5 952.83,-187.5"/>
</g>
<!-- {
 &#160;&#160;&#160;provide: NG_VALIDATORS, multi: true, useExisting: forwardRef(() =&gt; SacDateComponent),
} -->
<g id="node7" class="node">
<title>{
 &#160;&#160;&#160;provide: NG_VALIDATORS, multi: true, useExisting: forwardRef(() =&gt; SacDateComponent),
}</title>
<ellipse fill="#fdb462" stroke="black" cx="423" cy="-127.3" rx="398.61" ry="41.09"/>
<text text-anchor="middle" x="423" y="-139.9" font-family="Times,serif" font-size="14.00">{</text>
<text text-anchor="middle" x="423" y="-123.1" font-family="Times,serif" font-size="14.00"> &#160;&#160;&#160;provide: NG_VALIDATORS, multi: true, useExisting: forwardRef(() =&gt; SacDateComponent),</text>
<text text-anchor="middle" x="423" y="-106.3" font-family="Times,serif" font-size="14.00">}</text>
</g>
<!-- {
 &#160;&#160;&#160;provide: NG_VALIDATORS, multi: true, useExisting: forwardRef(() =&gt; SacDateComponent),
}&#45;&gt;SacDateComponent -->
<g id="edge3" class="edge">
<title>{
 &#160;&#160;&#160;provide: NG_VALIDATORS, multi: true, useExisting: forwardRef(() =&gt; SacDateComponent),
}&#45;&gt;SacDateComponent</title>
<path fill="none" stroke="black" d="M750.32,-151.17C750.32,-166.51 750.32,-183.59 750.32,-183.59 750.32,-183.59 913.67,-183.59 913.67,-183.59 913.67,-183.59 913.67,-187.35 913.67,-187.35"/>
<polygon fill="black" stroke="black" points="910.17,-187.35 913.67,-197.35 917.17,-187.35 910.17,-187.35"/>
</g>
<!-- SACBootstrap3LayoutModule -->
<g id="node8" class="node">
<title>SACBootstrap3LayoutModule</title>
<polygon fill="#8dd3c7" stroke="black" points="1210.87,-233.59 1207.87,-237.59 1186.87,-237.59 1183.87,-233.59 1023.13,-233.59 1023.13,-197.59 1210.87,-197.59 1210.87,-233.59"/>
<text text-anchor="middle" x="1117" y="-211.39" font-family="Times,serif" font-size="14.00">SACBootstrap3LayoutModule</text>
</g>
<!-- SACBootstrap3LayoutModule&#45;&gt;SACBootstrap3DateTimeModule -->
<g id="edge7" class="edge">
<title>SACBootstrap3LayoutModule&#45;&gt;SACBootstrap3DateTimeModule</title>
<path fill="none" stroke="black" d="M1060.4,-233.61C1060.4,-250.96 1060.4,-274.59 1060.4,-274.59 1060.4,-274.59 878.14,-274.59 878.14,-274.59"/>
<polygon fill="black" stroke="black" points="878.14,-271.09 868.14,-274.59 878.14,-278.09 878.14,-271.09"/>
</g>
</g>
</svg>
