<?xml version="1.0" encoding="UTF-8" standalone="no"?>
<!DOCTYPE svg PUBLIC "-//W3C//DTD SVG 1.1//EN"
 "http://www.w3.org/Graphics/SVG/1.1/DTD/svg11.dtd">
<!-- Generated by graphviz version 2.47.0 (20210316.0004)
 -->
<!-- Title: dependencies Pages: 1 -->
<svg width="1722pt" height="396pt"
 viewBox="0.00 0.00 1722.00 395.59" xmlns="http://www.w3.org/2000/svg" xmlns:xlink="http://www.w3.org/1999/xlink">
<g id="graph0" class="graph" transform="scale(1 1) rotate(0) translate(4 391.59)">
<title>dependencies</title>
<polygon fill="white" stroke="transparent" points="-4,4 -4,-391.59 1718,-391.59 1718,4 -4,4"/>
<text text-anchor="start" x="836.01" y="-42.4" font-family="Times-12" font-weight="bold" font-size="14.00">Legend</text>
<polygon fill="#ffffb3" stroke="transparent" points="623,-10 623,-30 643,-30 643,-10 623,-10"/>
<text text-anchor="start" x="646.63" y="-15.4" font-family="Times-12" font-size="14.00"> &#160;Declarations</text>
<polygon fill="#8dd3c7" stroke="transparent" points="736,-10 736,-30 756,-30 756,-10 736,-10"/>
<text text-anchor="start" x="759.73" y="-15.4" font-family="Times-12" font-size="14.00"> &#160;Module</text>
<polygon fill="#80b1d3" stroke="transparent" points="822,-10 822,-30 842,-30 842,-10 822,-10"/>
<text text-anchor="start" x="845.78" y="-15.4" font-family="Times-12" font-size="14.00"> &#160;Bootstrap</text>
<polygon fill="#fdb462" stroke="transparent" points="919,-10 919,-30 939,-30 939,-10 919,-10"/>
<text text-anchor="start" x="942.67" y="-15.4" font-family="Times-12" font-size="14.00"> &#160;Providers</text>
<polygon fill="#fb8072" stroke="transparent" points="1015,-10 1015,-30 1035,-30 1035,-10 1015,-10"/>
<text text-anchor="start" x="1038.73" y="-15.4" font-family="Times-12" font-size="14.00"> &#160;Exports</text>
<g id="clust1" class="cluster">
<title>cluster_SACBootstrap3DateTimeModule</title>
<polygon fill="none" stroke="black" stroke-dasharray="1,5" points="8,-70 8,-379.59 1706,-379.59 1706,-70 8,-70"/>
</g>
<g id="clust2" class="cluster">
<title>cluster_SACBootstrap3DateTimeModule_declarations</title>
<polygon fill="none" stroke="black" points="316,-189.59 316,-241.59 977,-241.59 977,-189.59 316,-189.59"/>
</g>
<g id="clust7" class="cluster">
<title>cluster_SACBootstrap3DateTimeModule_imports</title>
<polygon fill="none" stroke="black" points="985,-189.59 985,-241.59 1397,-241.59 1397,-189.59 985,-189.59"/>
</g>
<g id="clust3" class="cluster">
<title>cluster_SACBootstrap3DateTimeModule_SacDateComponent_providers</title>
<polygon fill="none" stroke="black" points="16,-78 16,-176.59 1698,-176.59 1698,-78 16,-78"/>
</g>
<g id="clust8" class="cluster">
<title>cluster_SACBootstrap3DateTimeModule_exports</title>
<polygon fill="none" stroke="black" points="486,-319.59 486,-371.59 1160,-371.59 1160,-319.59 486,-319.59"/>
</g>
<!-- SacDateComponent -->
<g id="node1" class="node">
<title>SacDateComponent</title>
<polygon fill="#ffffb3" stroke="black" points="968.97,-233.59 841.03,-233.59 841.03,-197.59 968.97,-197.59 968.97,-233.59"/>
<text text-anchor="middle" x="905" y="-211.39" font-family="Times,serif" font-size="14.00">SacDateComponent</text>
</g>
<!-- SACBootstrap3DateTimeModule -->
<g id="node5" class="node">
<title>SACBootstrap3DateTimeModule</title>
<polygon fill="#8dd3c7" stroke="black" points="922.19,-298.59 919.19,-302.59 898.19,-302.59 895.19,-298.59 717.81,-298.59 717.81,-262.59 922.19,-262.59 922.19,-298.59"/>
<text text-anchor="middle" x="820" y="-276.39" font-family="Times,serif" font-size="14.00">SACBootstrap3DateTimeModule</text>
</g>
<!-- SacDateComponent&#45;&gt;SACBootstrap3DateTimeModule -->
<g id="edge1" class="edge">
<title>SacDateComponent&#45;&gt;SACBootstrap3DateTimeModule</title>
<path fill="none" stroke="black" d="M881.55,-233.7C881.55,-233.7 881.55,-252.58 881.55,-252.58"/>
<polygon fill="black" stroke="black" points="878.05,-252.58 881.55,-262.58 885.05,-252.58 878.05,-252.58"/>
</g>
<!-- SacDateSelectorComponent -->
<g id="node2" class="node">
<title>SacDateSelectorComponent</title>
<polygon fill="#ffffb3" stroke="black" points="822.84,-233.59 649.16,-233.59 649.16,-197.59 822.84,-197.59 822.84,-233.59"/>
<text text-anchor="middle" x="736" y="-211.39" font-family="Times,serif" font-size="14.00">SacDateSelectorComponent</text>
</g>
<!-- SacDateSelectorComponent&#45;&gt;SACBootstrap3DateTimeModule -->
<g id="edge4" class="edge">
<title>SacDateSelectorComponent&#45;&gt;SACBootstrap3DateTimeModule</title>
<path fill="none" stroke="black" d="M770.41,-233.7C770.41,-233.7 770.41,-252.58 770.41,-252.58"/>
<polygon fill="black" stroke="black" points="766.91,-252.58 770.41,-262.58 773.91,-252.58 766.91,-252.58"/>
</g>
<!-- SacDateTimeComponent -->
<g id="node3" class="node">
<title>SacDateTimeComponent</title>
<polygon fill="#ffffb3" stroke="black" points="630.52,-233.59 473.48,-233.59 473.48,-197.59 630.52,-197.59 630.52,-233.59"/>
<text text-anchor="middle" x="552" y="-211.39" font-family="Times,serif" font-size="14.00">SacDateTimeComponent</text>
</g>
<!-- SacDateTimeComponent&#45;&gt;SACBootstrap3DateTimeModule -->
<g id="edge5" class="edge">
<title>SacDateTimeComponent&#45;&gt;SACBootstrap3DateTimeModule</title>
<path fill="none" stroke="black" d="M538.57,-233.62C538.57,-249.99 538.57,-271.59 538.57,-271.59 538.57,-271.59 707.6,-271.59 707.6,-271.59"/>
<polygon fill="black" stroke="black" points="707.6,-275.09 717.6,-271.59 707.6,-268.09 707.6,-275.09"/>
</g>
<!-- SacTimeComponent -->
<g id="node4" class="node">
<title>SacTimeComponent</title>
<polygon fill="#ffffb3" stroke="black" points="455.59,-233.59 324.41,-233.59 324.41,-197.59 455.59,-197.59 455.59,-233.59"/>
<text text-anchor="middle" x="390" y="-211.39" font-family="Times,serif" font-size="14.00">SacTimeComponent</text>
</g>
<!-- SacTimeComponent&#45;&gt;SACBootstrap3DateTimeModule -->
<g id="edge6" class="edge">
<title>SacTimeComponent&#45;&gt;SACBootstrap3DateTimeModule</title>
<path fill="none" stroke="black" d="M390,-233.7C390,-252.93 390,-280.59 390,-280.59 390,-280.59 707.82,-280.59 707.82,-280.59"/>
<polygon fill="black" stroke="black" points="707.82,-284.09 717.82,-280.59 707.82,-277.09 707.82,-284.09"/>
</g>
<!-- SacDateComponent  -->
<g id="node10" class="node">
<title>SacDateComponent </title>
<polygon fill="#fb8072" stroke="black" points="1151.97,-363.59 1020.03,-363.59 1020.03,-327.59 1151.97,-327.59 1151.97,-363.59"/>
<text text-anchor="middle" x="1086" y="-341.39" font-family="Times,serif" font-size="14.00">SacDateComponent </text>
</g>
<!-- SACBootstrap3DateTimeModule&#45;&gt;SacDateComponent  -->
<g id="edge9" class="edge">
<title>SACBootstrap3DateTimeModule&#45;&gt;SacDateComponent </title>
<path fill="none" stroke="black" stroke-dasharray="5,2" d="M922.46,-289.59C997.4,-289.59 1086,-289.59 1086,-289.59 1086,-289.59 1086,-317.56 1086,-317.56"/>
<polygon fill="black" stroke="black" points="1082.5,-317.56 1086,-327.56 1089.5,-317.56 1082.5,-317.56"/>
</g>
<!-- SacDateSelectorComponent  -->
<g id="node11" class="node">
<title>SacDateSelectorComponent </title>
<polygon fill="#fb8072" stroke="black" points="1002.84,-363.59 825.16,-363.59 825.16,-327.59 1002.84,-327.59 1002.84,-363.59"/>
<text text-anchor="middle" x="914" y="-341.39" font-family="Times,serif" font-size="14.00">SacDateSelectorComponent </text>
</g>
<!-- SACBootstrap3DateTimeModule&#45;&gt;SacDateSelectorComponent  -->
<g id="edge10" class="edge">
<title>SACBootstrap3DateTimeModule&#45;&gt;SacDateSelectorComponent </title>
<path fill="none" stroke="black" stroke-dasharray="5,2" d="M873.71,-298.7C873.71,-298.7 873.71,-317.58 873.71,-317.58"/>
<polygon fill="black" stroke="black" points="870.21,-317.58 873.71,-327.58 877.21,-317.58 870.21,-317.58"/>
</g>
<!-- SacDateTimeComponent  -->
<g id="node12" class="node">
<title>SacDateTimeComponent </title>
<polygon fill="#fb8072" stroke="black" points="807.52,-363.59 646.48,-363.59 646.48,-327.59 807.52,-327.59 807.52,-363.59"/>
<text text-anchor="middle" x="727" y="-341.39" font-family="Times,serif" font-size="14.00">SacDateTimeComponent </text>
</g>
<!-- SACBootstrap3DateTimeModule&#45;&gt;SacDateTimeComponent  -->
<g id="edge11" class="edge">
<title>SACBootstrap3DateTimeModule&#45;&gt;SacDateTimeComponent </title>
<path fill="none" stroke="black" stroke-dasharray="5,2" d="M762.71,-298.7C762.71,-298.7 762.71,-317.58 762.71,-317.58"/>
<polygon fill="black" stroke="black" points="759.21,-317.58 762.71,-327.58 766.21,-317.58 759.21,-317.58"/>
</g>
<!-- SacTimeComponent  -->
<g id="node13" class="node">
<title>SacTimeComponent </title>
<polygon fill="#fb8072" stroke="black" points="628.09,-363.59 493.91,-363.59 493.91,-327.59 628.09,-327.59 628.09,-363.59"/>
<text text-anchor="middle" x="561" y="-341.39" font-family="Times,serif" font-size="14.00">SacTimeComponent </text>
</g>
<!-- SACBootstrap3DateTimeModule&#45;&gt;SacTimeComponent  -->
<g id="edge12" class="edge">
<title>SACBootstrap3DateTimeModule&#45;&gt;SacTimeComponent </title>
<path fill="none" stroke="black" stroke-dasharray="5,2" d="M717.61,-289.59C653.68,-289.59 583.43,-289.59 583.43,-289.59 583.43,-289.59 583.43,-317.56 583.43,-317.56"/>
<polygon fill="black" stroke="black" points="579.93,-317.56 583.43,-327.56 586.93,-317.56 579.93,-317.56"/>
</g>
<!-- {
 &#160;&#160;&#160;provide: NG_VALUE_ACCESSOR, multi: true, useExisting: forwardRef(() =&gt; SacDateComponent),
} -->
<g id="node6" class="node">
<title>{
 &#160;&#160;&#160;provide: NG_VALUE_ACCESSOR, multi: true, useExisting: forwardRef(() =&gt; SacDateComponent),
}</title>
<ellipse fill="#fdb462" stroke="black" cx="1265" cy="-127.3" rx="424.93" ry="41.09"/>
<text text-anchor="middle" x="1265" y="-139.9" font-family="Times,serif" font-size="14.00">{</text>
<text text-anchor="middle" x="1265" y="-123.1" font-family="Times,serif" font-size="14.00"> &#160;&#160;&#160;provide: NG_VALUE_ACCESSOR, multi: true, useExisting: forwardRef(() =&gt; SacDateComponent),</text>
<text text-anchor="middle" x="1265" y="-106.3" font-family="Times,serif" font-size="14.00">}</text>
</g>
<!-- {
 &#160;&#160;&#160;provide: NG_VALUE_ACCESSOR, multi: true, useExisting: forwardRef(() =&gt; SacDateComponent),
}&#45;&gt;SacDateComponent -->
<g id="edge2" class="edge">
<title>{
 &#160;&#160;&#160;provide: NG_VALUE_ACCESSOR, multi: true, useExisting: forwardRef(() =&gt; SacDateComponent),
}&#45;&gt;SacDateComponent</title>
<path fill="none" stroke="black" d="M905,-149.58C905,-149.58 905,-187.48 905,-187.48"/>
<polygon fill="black" stroke="black" points="901.5,-187.48 905,-197.48 908.5,-187.48 901.5,-187.48"/>
</g>
<!-- {
 &#160;&#160;&#160;provide: NG_VALIDATORS, multi: true, useExisting: forwardRef(() =&gt; SacDateComponent),
} -->
<g id="node7" class="node">
<title>{
 &#160;&#160;&#160;provide: NG_VALIDATORS, multi: true, useExisting: forwardRef(() =&gt; SacDateComponent),
}</title>
<ellipse fill="#fdb462" stroke="black" cx="423" cy="-127.3" rx="398.61" ry="41.09"/>
<text text-anchor="middle" x="423" y="-139.9" font-family="Times,serif" font-size="14.00">{</text>
<text text-anchor="middle" x="423" y="-123.1" font-family="Times,serif" font-size="14.00"> &#160;&#160;&#160;provide: NG_VALIDATORS, multi: true, useExisting: forwardRef(() =&gt; SacDateComponent),</text>
<text text-anchor="middle" x="423" y="-106.3" font-family="Times,serif" font-size="14.00">}</text>
</g>
<!-- {
 &#160;&#160;&#160;provide: NG_VALIDATORS, multi: true, useExisting: forwardRef(() =&gt; SacDateComponent),
}&#45;&gt;SacDateComponent -->
<g id="edge3" class="edge">
<title>{
 &#160;&#160;&#160;provide: NG_VALIDATORS, multi: true, useExisting: forwardRef(() =&gt; SacDateComponent),
}&#45;&gt;SacDateComponent</title>
<path fill="none" stroke="black" d="M821.78,-127.59C828.04,-127.59 831.48,-127.59 831.48,-127.59 831.48,-127.59 831.48,-215.59 831.48,-215.59 831.48,-215.59 832.41,-215.59 832.41,-215.59"/>
<polygon fill="black" stroke="black" points="830.79,-219.09 840.79,-215.59 830.79,-212.09 830.79,-219.09"/>
</g>
<!-- SACBootstrap3LayoutModule -->
<g id="node8" class="node">
<title>SACBootstrap3LayoutModule</title>
<polygon fill="#8dd3c7" stroke="black" points="1388.87,-233.59 1385.87,-237.59 1364.87,-237.59 1361.87,-233.59 1201.13,-233.59 1201.13,-197.59 1388.87,-197.59 1388.87,-233.59"/>
<text text-anchor="middle" x="1295" y="-211.39" font-family="Times,serif" font-size="14.00">SACBootstrap3LayoutModule</text>
</g>
<!-- SACBootstrap3LayoutModule&#45;&gt;SACBootstrap3DateTimeModule -->
<g id="edge7" class="edge">
<title>SACBootstrap3LayoutModule&#45;&gt;SACBootstrap3DateTimeModule</title>
<path fill="none" stroke="black" d="M1295,-233.7C1295,-252.93 1295,-280.59 1295,-280.59 1295,-280.59 932.19,-280.59 932.19,-280.59"/>
<polygon fill="black" stroke="black" points="932.19,-277.09 922.19,-280.59 932.19,-284.09 932.19,-277.09"/>
</g>
<!-- SACBootstrap3TooltipModule -->
<g id="node9" class="node">
<title>SACBootstrap3TooltipModule</title>
<polygon fill="#8dd3c7" stroke="black" points="1182.94,-233.59 1179.94,-237.59 1158.94,-237.59 1155.94,-233.59 993.06,-233.59 993.06,-197.59 1182.94,-197.59 1182.94,-233.59"/>
<text text-anchor="middle" x="1088" y="-211.39" font-family="Times,serif" font-size="14.00">SACBootstrap3TooltipModule</text>
</g>
<!-- SACBootstrap3TooltipModule&#45;&gt;SACBootstrap3DateTimeModule -->
<g id="edge8" class="edge">
<title>SACBootstrap3TooltipModule&#45;&gt;SACBootstrap3DateTimeModule</title>
<path fill="none" stroke="black" d="M997.98,-233.62C997.98,-249.99 997.98,-271.59 997.98,-271.59 997.98,-271.59 932.24,-271.59 932.24,-271.59"/>
<polygon fill="black" stroke="black" points="932.24,-268.09 922.24,-271.59 932.24,-275.09 932.24,-268.09"/>
</g>
</g>
</svg>
