<?xml version="1.0" encoding="UTF-8" standalone="no"?>
<!DOCTYPE svg PUBLIC "-//W3C//DTD SVG 1.1//EN"
 "http://www.w3.org/Graphics/SVG/1.1/DTD/svg11.dtd">
<!-- Generated by graphviz version 2.47.0 (20210316.0004)
 -->
<!-- Title: dependencies Pages: 1 -->
<svg width="861pt" height="284pt"
 viewBox="0.00 0.00 861.00 284.00" xmlns="http://www.w3.org/2000/svg" xmlns:xlink="http://www.w3.org/1999/xlink">
<g id="graph0" class="graph" transform="scale(1 1) rotate(0) translate(4 280)">
<title>dependencies</title>
<polygon fill="white" stroke="transparent" points="-4,4 -4,-280 857,-280 857,4 -4,4"/>
<text text-anchor="start" x="405.51" y="-42.4" font-family="Times-12" font-weight="bold" font-size="14.00">Legend</text>
<polygon fill="#ffffb3" stroke="transparent" points="192.5,-10 192.5,-30 212.5,-30 212.5,-10 192.5,-10"/>
<text text-anchor="start" x="216.13" y="-15.4" font-family="Times-12" font-size="14.00"> &#160;Declarations</text>
<polygon fill="#8dd3c7" stroke="transparent" points="305.5,-10 305.5,-30 325.5,-30 325.5,-10 305.5,-10"/>
<text text-anchor="start" x="329.23" y="-15.4" font-family="Times-12" font-size="14.00"> &#160;Module</text>
<polygon fill="#80b1d3" stroke="transparent" points="391.5,-10 391.5,-30 411.5,-30 411.5,-10 391.5,-10"/>
<text text-anchor="start" x="415.28" y="-15.4" font-family="Times-12" font-size="14.00"> &#160;Bootstrap</text>
<polygon fill="#fdb462" stroke="transparent" points="488.5,-10 488.5,-30 508.5,-30 508.5,-10 488.5,-10"/>
<text text-anchor="start" x="512.17" y="-15.4" font-family="Times-12" font-size="14.00"> &#160;Providers</text>
<polygon fill="#fb8072" stroke="transparent" points="584.5,-10 584.5,-30 604.5,-30 604.5,-10 584.5,-10"/>
<text text-anchor="start" x="608.23" y="-15.4" font-family="Times-12" font-size="14.00"> &#160;Exports</text>
<g id="clust1" class="cluster">
<title>cluster_SACBootstrap3DateTimeModule</title>
<polygon fill="none" stroke="black" stroke-dasharray="1,5" points="8,-70 8,-268 845,-268 845,-70 8,-70"/>
</g>
<g id="clust3" class="cluster">
<title>cluster_SACBootstrap3DateTimeModule_imports</title>
<polygon fill="none" stroke="black" points="16,-78 16,-130 837,-130 837,-78 16,-78"/>
</g>
<g id="clust4" class="cluster">
<title>cluster_SACBootstrap3DateTimeModule_exports</title>
<polygon fill="none" stroke="black" points="90,-208 90,-260 764,-260 764,-208 90,-208"/>
</g>
<!-- SacDateComponent -->
<g id="node1" class="node">
<title>SacDateComponent</title>
<polygon fill="#8dd3c7" stroke="black" points="828.97,-122 825.97,-126 804.97,-126 801.97,-122 701.03,-122 701.03,-86 828.97,-86 828.97,-122"/>
<text text-anchor="middle" x="765" y="-99.8" font-family="Times,serif" font-size="14.00">SacDateComponent</text>
</g>
<!-- SACBootstrap3DateTimeModule -->
<g id="node6" class="node">
<title>SACBootstrap3DateTimeModule</title>
<polygon fill="#8dd3c7" stroke="black" points="514.19,-187 511.19,-191 490.19,-191 487.19,-187 309.81,-187 309.81,-151 514.19,-151 514.19,-187"/>
<text text-anchor="middle" x="412" y="-164.8" font-family="Times,serif" font-size="14.00">SACBootstrap3DateTimeModule</text>
</g>
<!-- SacDateComponent&#45;&gt;SACBootstrap3DateTimeModule -->
<g id="edge1" class="edge">
<title>SacDateComponent&#45;&gt;SACBootstrap3DateTimeModule</title>
<path fill="none" stroke="black" d="M728.38,-122.02C728.38,-139.37 728.38,-163 728.38,-163 728.38,-163 524.28,-163 524.28,-163"/>
<polygon fill="black" stroke="black" points="524.28,-159.5 514.28,-163 524.28,-166.5 524.28,-159.5"/>
</g>
<!-- SacDateSelectorComponent -->
<g id="node2" class="node">
<title>SacDateSelectorComponent</title>
<polygon fill="#8dd3c7" stroke="black" points="682.84,-122 679.84,-126 658.84,-126 655.84,-122 509.16,-122 509.16,-86 682.84,-86 682.84,-122"/>
<text text-anchor="middle" x="596" y="-99.8" font-family="Times,serif" font-size="14.00">SacDateSelectorComponent</text>
</g>
<!-- SacDateSelectorComponent&#45;&gt;SACBootstrap3DateTimeModule -->
<g id="edge2" class="edge">
<title>SacDateSelectorComponent&#45;&gt;SACBootstrap3DateTimeModule</title>
<path fill="none" stroke="black" d="M509.13,-104C503.44,-104 499.92,-104 499.92,-104 499.92,-104 499.92,-140.89 499.92,-140.89"/>
<polygon fill="black" stroke="black" points="496.42,-140.89 499.92,-150.89 503.42,-140.89 496.42,-140.89"/>
</g>
<!-- SacDateTimeComponent -->
<g id="node3" class="node">
<title>SacDateTimeComponent</title>
<polygon fill="#8dd3c7" stroke="black" points="490.52,-122 487.52,-126 466.52,-126 463.52,-122 333.48,-122 333.48,-86 490.52,-86 490.52,-122"/>
<text text-anchor="middle" x="412" y="-99.8" font-family="Times,serif" font-size="14.00">SacDateTimeComponent</text>
</g>
<!-- SacDateTimeComponent&#45;&gt;SACBootstrap3DateTimeModule -->
<g id="edge3" class="edge">
<title>SacDateTimeComponent&#45;&gt;SACBootstrap3DateTimeModule</title>
<path fill="none" stroke="black" d="M412,-122.11C412,-122.11 412,-140.99 412,-140.99"/>
<polygon fill="black" stroke="black" points="408.5,-140.99 412,-150.99 415.5,-140.99 408.5,-140.99"/>
</g>
<!-- SacTimeComponent -->
<g id="node4" class="node">
<title>SacTimeComponent</title>
<polygon fill="#8dd3c7" stroke="black" points="315.59,-122 312.59,-126 291.59,-126 288.59,-122 184.41,-122 184.41,-86 315.59,-86 315.59,-122"/>
<text text-anchor="middle" x="250" y="-99.8" font-family="Times,serif" font-size="14.00">SacTimeComponent</text>
</g>
<!-- SacTimeComponent&#45;&gt;SACBootstrap3DateTimeModule -->
<g id="edge4" class="edge">
<title>SacTimeComponent&#45;&gt;SACBootstrap3DateTimeModule</title>
<path fill="none" stroke="black" d="M315.57,-104C320.96,-104 324.39,-104 324.39,-104 324.39,-104 324.39,-140.89 324.39,-140.89"/>
<polygon fill="black" stroke="black" points="320.89,-140.89 324.39,-150.89 327.89,-140.89 320.89,-140.89"/>
</g>
<!-- SacTooltipComponent -->
<g id="node5" class="node">
<title>SacTooltipComponent</title>
<polygon fill="#8dd3c7" stroke="black" points="166.27,-122 163.27,-126 142.27,-126 139.27,-122 23.73,-122 23.73,-86 166.27,-86 166.27,-122"/>
<text text-anchor="middle" x="95" y="-99.8" font-family="Times,serif" font-size="14.00">SacTooltipComponent</text>
</g>
<!-- SacTooltipComponent&#45;&gt;SACBootstrap3DateTimeModule -->
<g id="edge5" class="edge">
<title>SacTooltipComponent&#45;&gt;SACBootstrap3DateTimeModule</title>
<path fill="none" stroke="black" d="M132.04,-122.02C132.04,-139.37 132.04,-163 132.04,-163 132.04,-163 299.74,-163 299.74,-163"/>
<polygon fill="black" stroke="black" points="299.74,-166.5 309.74,-163 299.74,-159.5 299.74,-166.5"/>
</g>
<!-- SacDateComponent  -->
<g id="node7" class="node">
<title>SacDateComponent </title>
<polygon fill="#fb8072" stroke="black" points="755.97,-252 624.03,-252 624.03,-216 755.97,-216 755.97,-252"/>
<text text-anchor="middle" x="690" y="-229.8" font-family="Times,serif" font-size="14.00">SacDateComponent </text>
</g>
<!-- SACBootstrap3DateTimeModule&#45;&gt;SacDateComponent  -->
<g id="edge6" class="edge">
<title>SACBootstrap3DateTimeModule&#45;&gt;SacDateComponent </title>
<path fill="none" stroke="black" stroke-dasharray="5,2" d="M514.11,-175C580.04,-175 653.59,-175 653.59,-175 653.59,-175 653.59,-205.98 653.59,-205.98"/>
<polygon fill="black" stroke="black" points="650.09,-205.98 653.59,-215.98 657.09,-205.98 650.09,-205.98"/>
</g>
<!-- SacDateSelectorComponent  -->
<g id="node8" class="node">
<title>SacDateSelectorComponent </title>
<polygon fill="#fb8072" stroke="black" points="606.84,-252 429.16,-252 429.16,-216 606.84,-216 606.84,-252"/>
<text text-anchor="middle" x="518" y="-229.8" font-family="Times,serif" font-size="14.00">SacDateSelectorComponent </text>
</g>
<!-- SACBootstrap3DateTimeModule&#45;&gt;SacDateSelectorComponent  -->
<g id="edge7" class="edge">
<title>SACBootstrap3DateTimeModule&#45;&gt;SacDateSelectorComponent </title>
<path fill="none" stroke="black" stroke-dasharray="5,2" d="M471.71,-187.11C471.71,-187.11 471.71,-205.99 471.71,-205.99"/>
<polygon fill="black" stroke="black" points="468.21,-205.99 471.71,-215.99 475.21,-205.99 468.21,-205.99"/>
</g>
<!-- SacDateTimeComponent  -->
<g id="node9" class="node">
<title>SacDateTimeComponent </title>
<polygon fill="#fb8072" stroke="black" points="411.52,-252 250.48,-252 250.48,-216 411.52,-216 411.52,-252"/>
<text text-anchor="middle" x="331" y="-229.8" font-family="Times,serif" font-size="14.00">SacDateTimeComponent </text>
</g>
<!-- SACBootstrap3DateTimeModule&#45;&gt;SacDateTimeComponent  -->
<g id="edge8" class="edge">
<title>SACBootstrap3DateTimeModule&#45;&gt;SacDateTimeComponent </title>
<path fill="none" stroke="black" stroke-dasharray="5,2" d="M360.71,-187.11C360.71,-187.11 360.71,-205.99 360.71,-205.99"/>
<polygon fill="black" stroke="black" points="357.21,-205.99 360.71,-215.99 364.21,-205.99 357.21,-205.99"/>
</g>
<!-- SacTimeComponent  -->
<g id="node10" class="node">
<title>SacTimeComponent </title>
<polygon fill="#fb8072" stroke="black" points="232.09,-252 97.91,-252 97.91,-216 232.09,-216 232.09,-252"/>
<text text-anchor="middle" x="165" y="-229.8" font-family="Times,serif" font-size="14.00">SacTimeComponent </text>
</g>
<!-- SACBootstrap3DateTimeModule&#45;&gt;SacTimeComponent  -->
<g id="edge9" class="edge">
<title>SACBootstrap3DateTimeModule&#45;&gt;SacTimeComponent </title>
<path fill="none" stroke="black" stroke-dasharray="5,2" d="M309.89,-175C259.08,-175 208.38,-175 208.38,-175 208.38,-175 208.38,-205.98 208.38,-205.98"/>
<polygon fill="black" stroke="black" points="204.88,-205.98 208.38,-215.98 211.88,-205.98 204.88,-205.98"/>
</g>
</g>
</svg>
