<?xml version="1.0" encoding="UTF-8" standalone="no"?>
<!DOCTYPE svg PUBLIC "-//W3C//DTD SVG 1.1//EN"
 "http://www.w3.org/Graphics/SVG/1.1/DTD/svg11.dtd">
<!-- Generated by graphviz version 2.47.0 (20210316.0004)
 -->
<!-- Title: dependencies Pages: 1 -->
<svg width="1722pt" height="396pt"
 viewBox="0.00 0.00 1722.00 395.59" xmlns="http://www.w3.org/2000/svg" xmlns:xlink="http://www.w3.org/1999/xlink">
<g id="graph0" class="graph" transform="scale(1 1) rotate(0) translate(4 391.59)">
<title>dependencies</title>
<polygon fill="white" stroke="transparent" points="-4,4 -4,-391.59 1718,-391.59 1718,4 -4,4"/>
<text text-anchor="start" x="836.01" y="-42.4" font-family="Times-12" font-weight="bold" font-size="14.00">Legend</text>
<polygon fill="#ffffb3" stroke="transparent" points="623,-10 623,-30 643,-30 643,-10 623,-10"/>
<text text-anchor="start" x="646.63" y="-15.4" font-family="Times-12" font-size="14.00"> &#160;Declarations</text>
<polygon fill="#8dd3c7" stroke="transparent" points="736,-10 736,-30 756,-30 756,-10 736,-10"/>
<text text-anchor="start" x="759.73" y="-15.4" font-family="Times-12" font-size="14.00"> &#160;Module</text>
<polygon fill="#80b1d3" stroke="transparent" points="822,-10 822,-30 842,-30 842,-10 822,-10"/>
<text text-anchor="start" x="845.78" y="-15.4" font-family="Times-12" font-size="14.00"> &#160;Bootstrap</text>
<polygon fill="#fdb462" stroke="transparent" points="919,-10 919,-30 939,-30 939,-10 919,-10"/>
<text text-anchor="start" x="942.67" y="-15.4" font-family="Times-12" font-size="14.00"> &#160;Providers</text>
<polygon fill="#fb8072" stroke="transparent" points="1015,-10 1015,-30 1035,-30 1035,-10 1015,-10"/>
<text text-anchor="start" x="1038.73" y="-15.4" font-family="Times-12" font-size="14.00"> &#160;Exports</text>
<g id="clust1" class="cluster">
<title>cluster_SACBootstrap4DateTimeModule</title>
<polygon fill="none" stroke="black" stroke-dasharray="1,5" points="8,-70 8,-379.59 1706,-379.59 1706,-70 8,-70"/>
</g>
<g id="clust2" class="cluster">
<title>cluster_SACBootstrap4DateTimeModule_declarations</title>
<polygon fill="none" stroke="black" points="452,-189.59 452,-241.59 1113,-241.59 1113,-189.59 452,-189.59"/>
</g>
<g id="clust3" class="cluster">
<title>cluster_SACBootstrap4DateTimeModule_SacDateComponent_providers</title>
<polygon fill="none" stroke="black" points="16,-78 16,-176.59 1698,-176.59 1698,-78 16,-78"/>
</g>
<g id="clust7" class="cluster">
<title>cluster_SACBootstrap4DateTimeModule_imports</title>
<polygon fill="none" stroke="black" points="240,-189.59 240,-241.59 444,-241.59 444,-189.59 240,-189.59"/>
</g>
<g id="clust8" class="cluster">
<title>cluster_SACBootstrap4DateTimeModule_exports</title>
<polygon fill="none" stroke="black" points="354,-319.59 354,-371.59 1028,-371.59 1028,-319.59 354,-319.59"/>
</g>
<!-- SacDateComponent -->
<g id="node1" class="node">
<title>SacDateComponent</title>
<polygon fill="#ffffb3" stroke="black" points="1104.97,-233.59 977.03,-233.59 977.03,-197.59 1104.97,-197.59 1104.97,-233.59"/>
<text text-anchor="middle" x="1041" y="-211.39" font-family="Times,serif" font-size="14.00">SacDateComponent</text>
</g>
<!-- SACBootstrap4DateTimeModule -->
<g id="node5" class="node">
<title>SACBootstrap4DateTimeModule</title>
<polygon fill="#8dd3c7" stroke="black" points="790.19,-298.59 787.19,-302.59 766.19,-302.59 763.19,-298.59 585.81,-298.59 585.81,-262.59 790.19,-262.59 790.19,-298.59"/>
<text text-anchor="middle" x="688" y="-276.39" font-family="Times,serif" font-size="14.00">SACBootstrap4DateTimeModule</text>
</g>
<!-- SacDateComponent&#45;&gt;SACBootstrap4DateTimeModule -->
<g id="edge1" class="edge">
<title>SacDateComponent&#45;&gt;SACBootstrap4DateTimeModule</title>
<path fill="none" stroke="black" d="M998.38,-233.61C998.38,-250.96 998.38,-274.59 998.38,-274.59 998.38,-274.59 800.49,-274.59 800.49,-274.59"/>
<polygon fill="black" stroke="black" points="800.49,-271.09 790.49,-274.59 800.49,-278.09 800.49,-271.09"/>
</g>
<!-- SacDateSelectorComponent -->
<g id="node2" class="node">
<title>SacDateSelectorComponent</title>
<polygon fill="#ffffb3" stroke="black" points="958.84,-233.59 785.16,-233.59 785.16,-197.59 958.84,-197.59 958.84,-233.59"/>
<text text-anchor="middle" x="872" y="-211.39" font-family="Times,serif" font-size="14.00">SacDateSelectorComponent</text>
</g>
<!-- SacDateSelectorComponent&#45;&gt;SACBootstrap4DateTimeModule -->
<g id="edge4" class="edge">
<title>SacDateSelectorComponent&#45;&gt;SACBootstrap4DateTimeModule</title>
<path fill="none" stroke="black" d="M785.13,-215.59C779.44,-215.59 775.92,-215.59 775.92,-215.59 775.92,-215.59 775.92,-252.48 775.92,-252.48"/>
<polygon fill="black" stroke="black" points="772.42,-252.48 775.92,-262.48 779.42,-252.48 772.42,-252.48"/>
</g>
<!-- SacDateTimeComponent -->
<g id="node3" class="node">
<title>SacDateTimeComponent</title>
<polygon fill="#ffffb3" stroke="black" points="766.52,-233.59 609.48,-233.59 609.48,-197.59 766.52,-197.59 766.52,-233.59"/>
<text text-anchor="middle" x="688" y="-211.39" font-family="Times,serif" font-size="14.00">SacDateTimeComponent</text>
</g>
<!-- SacDateTimeComponent&#45;&gt;SACBootstrap4DateTimeModule -->
<g id="edge5" class="edge">
<title>SacDateTimeComponent&#45;&gt;SACBootstrap4DateTimeModule</title>
<path fill="none" stroke="black" d="M688,-233.7C688,-233.7 688,-252.58 688,-252.58"/>
<polygon fill="black" stroke="black" points="684.5,-252.58 688,-262.58 691.5,-252.58 684.5,-252.58"/>
</g>
<!-- SacTimeComponent -->
<g id="node4" class="node">
<title>SacTimeComponent</title>
<polygon fill="#ffffb3" stroke="black" points="591.59,-233.59 460.41,-233.59 460.41,-197.59 591.59,-197.59 591.59,-233.59"/>
<text text-anchor="middle" x="526" y="-211.39" font-family="Times,serif" font-size="14.00">SacTimeComponent</text>
</g>
<!-- SacTimeComponent&#45;&gt;SACBootstrap4DateTimeModule -->
<g id="edge6" class="edge">
<title>SacTimeComponent&#45;&gt;SACBootstrap4DateTimeModule</title>
<path fill="none" stroke="black" d="M591.57,-215.59C596.96,-215.59 600.39,-215.59 600.39,-215.59 600.39,-215.59 600.39,-252.48 600.39,-252.48"/>
<polygon fill="black" stroke="black" points="596.89,-252.48 600.39,-262.48 603.89,-252.48 596.89,-252.48"/>
</g>
<!-- SacDateComponent  -->
<g id="node9" class="node">
<title>SacDateComponent </title>
<polygon fill="#fb8072" stroke="black" points="1019.97,-363.59 888.03,-363.59 888.03,-327.59 1019.97,-327.59 1019.97,-363.59"/>
<text text-anchor="middle" x="954" y="-341.39" font-family="Times,serif" font-size="14.00">SacDateComponent </text>
</g>
<!-- SACBootstrap4DateTimeModule&#45;&gt;SacDateComponent  -->
<g id="edge8" class="edge">
<title>SACBootstrap4DateTimeModule&#45;&gt;SacDateComponent </title>
<path fill="none" stroke="black" stroke-dasharray="5,2" d="M790.31,-286.59C853.89,-286.59 923.59,-286.59 923.59,-286.59 923.59,-286.59 923.59,-317.57 923.59,-317.57"/>
<polygon fill="black" stroke="black" points="920.09,-317.57 923.59,-327.57 927.09,-317.57 920.09,-317.57"/>
</g>
<!-- SacDateSelectorComponent  -->
<g id="node10" class="node">
<title>SacDateSelectorComponent </title>
<polygon fill="#fb8072" stroke="black" points="870.84,-363.59 693.16,-363.59 693.16,-327.59 870.84,-327.59 870.84,-363.59"/>
<text text-anchor="middle" x="782" y="-341.39" font-family="Times,serif" font-size="14.00">SacDateSelectorComponent </text>
</g>
<!-- SACBootstrap4DateTimeModule&#45;&gt;SacDateSelectorComponent  -->
<g id="edge9" class="edge">
<title>SACBootstrap4DateTimeModule&#45;&gt;SacDateSelectorComponent </title>
<path fill="none" stroke="black" stroke-dasharray="5,2" d="M741.71,-298.7C741.71,-298.7 741.71,-317.58 741.71,-317.58"/>
<polygon fill="black" stroke="black" points="738.21,-317.58 741.71,-327.58 745.21,-317.58 738.21,-317.58"/>
</g>
<!-- SacDateTimeComponent  -->
<g id="node11" class="node">
<title>SacDateTimeComponent </title>
<polygon fill="#fb8072" stroke="black" points="675.52,-363.59 514.48,-363.59 514.48,-327.59 675.52,-327.59 675.52,-363.59"/>
<text text-anchor="middle" x="595" y="-341.39" font-family="Times,serif" font-size="14.00">SacDateTimeComponent </text>
</g>
<!-- SACBootstrap4DateTimeModule&#45;&gt;SacDateTimeComponent  -->
<g id="edge10" class="edge">
<title>SACBootstrap4DateTimeModule&#45;&gt;SacDateTimeComponent </title>
<path fill="none" stroke="black" stroke-dasharray="5,2" d="M630.71,-298.7C630.71,-298.7 630.71,-317.58 630.71,-317.58"/>
<polygon fill="black" stroke="black" points="627.21,-317.58 630.71,-327.58 634.21,-317.58 627.21,-317.58"/>
</g>
<!-- SacTimeComponent  -->
<g id="node12" class="node">
<title>SacTimeComponent </title>
<polygon fill="#fb8072" stroke="black" points="496.09,-363.59 361.91,-363.59 361.91,-327.59 496.09,-327.59 496.09,-363.59"/>
<text text-anchor="middle" x="429" y="-341.39" font-family="Times,serif" font-size="14.00">SacTimeComponent </text>
</g>
<!-- SACBootstrap4DateTimeModule&#45;&gt;SacTimeComponent  -->
<g id="edge11" class="edge">
<title>SACBootstrap4DateTimeModule&#45;&gt;SacTimeComponent </title>
<path fill="none" stroke="black" stroke-dasharray="5,2" d="M585.64,-286.59C532.43,-286.59 478.38,-286.59 478.38,-286.59 478.38,-286.59 478.38,-317.57 478.38,-317.57"/>
<polygon fill="black" stroke="black" points="474.88,-317.57 478.38,-327.57 481.88,-317.57 474.88,-317.57"/>
</g>
<!-- {
 &#160;&#160;&#160;provide: NG_VALUE_ACCESSOR, multi: true, useExisting: forwardRef(() =&gt; SacDateComponent),
} -->
<g id="node6" class="node">
<title>{
 &#160;&#160;&#160;provide: NG_VALUE_ACCESSOR, multi: true, useExisting: forwardRef(() =&gt; SacDateComponent),
}</title>
<ellipse fill="#fdb462" stroke="black" cx="1265" cy="-127.3" rx="424.93" ry="41.09"/>
<text text-anchor="middle" x="1265" y="-139.9" font-family="Times,serif" font-size="14.00">{</text>
<text text-anchor="middle" x="1265" y="-123.1" font-family="Times,serif" font-size="14.00"> &#160;&#160;&#160;provide: NG_VALUE_ACCESSOR, multi: true, useExisting: forwardRef(() =&gt; SacDateComponent),</text>
<text text-anchor="middle" x="1265" y="-106.3" font-family="Times,serif" font-size="14.00">}</text>
</g>
<!-- {
 &#160;&#160;&#160;provide: NG_VALUE_ACCESSOR, multi: true, useExisting: forwardRef(() =&gt; SacDateComponent),
}&#45;&gt;SacDateComponent -->
<g id="edge2" class="edge">
<title>{
 &#160;&#160;&#160;provide: NG_VALUE_ACCESSOR, multi: true, useExisting: forwardRef(() =&gt; SacDateComponent),
}&#45;&gt;SacDateComponent</title>
<path fill="none" stroke="black" d="M1062.33,-163.72C1062.33,-163.72 1062.33,-187.36 1062.33,-187.36"/>
<polygon fill="black" stroke="black" points="1058.83,-187.36 1062.33,-197.36 1065.83,-187.36 1058.83,-187.36"/>
</g>
<!-- {
 &#160;&#160;&#160;provide: NG_VALIDATORS, multi: true, useExisting: forwardRef(() =&gt; SacDateComponent),
} -->
<g id="node7" class="node">
<title>{
 &#160;&#160;&#160;provide: NG_VALIDATORS, multi: true, useExisting: forwardRef(() =&gt; SacDateComponent),
}</title>
<ellipse fill="#fdb462" stroke="black" cx="423" cy="-127.3" rx="398.61" ry="41.09"/>
<text text-anchor="middle" x="423" y="-139.9" font-family="Times,serif" font-size="14.00">{</text>
<text text-anchor="middle" x="423" y="-123.1" font-family="Times,serif" font-size="14.00"> &#160;&#160;&#160;provide: NG_VALIDATORS, multi: true, useExisting: forwardRef(() =&gt; SacDateComponent),</text>
<text text-anchor="middle" x="423" y="-106.3" font-family="Times,serif" font-size="14.00">}</text>
</g>
<!-- {
 &#160;&#160;&#160;provide: NG_VALIDATORS, multi: true, useExisting: forwardRef(() =&gt; SacDateComponent),
}&#45;&gt;SacDateComponent -->
<g id="edge3" class="edge">
<title>{
 &#160;&#160;&#160;provide: NG_VALIDATORS, multi: true, useExisting: forwardRef(() =&gt; SacDateComponent),
}&#45;&gt;SacDateComponent</title>
<path fill="none" stroke="black" d="M803.32,-139.79C803.32,-156.37 803.32,-183.59 803.32,-183.59 803.32,-183.59 1019.67,-183.59 1019.67,-183.59 1019.67,-183.59 1019.67,-187.35 1019.67,-187.35"/>
<polygon fill="black" stroke="black" points="1016.17,-187.35 1019.67,-197.35 1023.17,-187.35 1016.17,-187.35"/>
</g>
<!-- SACBootstrap4LayoutModule -->
<g id="node8" class="node">
<title>SACBootstrap4LayoutModule</title>
<polygon fill="#8dd3c7" stroke="black" points="435.87,-233.59 432.87,-237.59 411.87,-237.59 408.87,-233.59 248.13,-233.59 248.13,-197.59 435.87,-197.59 435.87,-233.59"/>
<text text-anchor="middle" x="342" y="-211.39" font-family="Times,serif" font-size="14.00">SACBootstrap4LayoutModule</text>
</g>
<!-- SACBootstrap4LayoutModule&#45;&gt;SACBootstrap4DateTimeModule -->
<g id="edge7" class="edge">
<title>SACBootstrap4LayoutModule&#45;&gt;SACBootstrap4DateTimeModule</title>
<path fill="none" stroke="black" d="M398.82,-233.61C398.82,-250.96 398.82,-274.59 398.82,-274.59 398.82,-274.59 575.64,-274.59 575.64,-274.59"/>
<polygon fill="black" stroke="black" points="575.64,-278.09 585.64,-274.59 575.64,-271.09 575.64,-278.09"/>
</g>
</g>
</svg>
