<?xml version="1.0" encoding="UTF-8" standalone="no"?>
<!DOCTYPE svg PUBLIC "-//W3C//DTD SVG 1.1//EN"
 "http://www.w3.org/Graphics/SVG/1.1/DTD/svg11.dtd">
<!-- Generated by graphviz version 2.47.0 (20210316.0004)
 -->
<!-- Title: dependencies Pages: 1 -->
<svg width="2665pt" height="396pt"
 viewBox="0.00 0.00 2665.00 395.59" xmlns="http://www.w3.org/2000/svg" xmlns:xlink="http://www.w3.org/1999/xlink">
<g id="graph0" class="graph" transform="scale(1 1) rotate(0) translate(4 391.59)">
<title>dependencies</title>
<polygon fill="white" stroke="transparent" points="-4,4 -4,-391.59 2661,-391.59 2661,4 -4,4"/>
<text text-anchor="start" x="1307.51" y="-42.4" font-family="Times-12" font-weight="bold" font-size="14.00">Legend</text>
<polygon fill="#ffffb3" stroke="transparent" points="1094.5,-10 1094.5,-30 1114.5,-30 1114.5,-10 1094.5,-10"/>
<text text-anchor="start" x="1118.13" y="-15.4" font-family="Times-12" font-size="14.00"> &#160;Declarations</text>
<polygon fill="#8dd3c7" stroke="transparent" points="1207.5,-10 1207.5,-30 1227.5,-30 1227.5,-10 1207.5,-10"/>
<text text-anchor="start" x="1231.23" y="-15.4" font-family="Times-12" font-size="14.00"> &#160;Module</text>
<polygon fill="#80b1d3" stroke="transparent" points="1293.5,-10 1293.5,-30 1313.5,-30 1313.5,-10 1293.5,-10"/>
<text text-anchor="start" x="1317.28" y="-15.4" font-family="Times-12" font-size="14.00"> &#160;Bootstrap</text>
<polygon fill="#fdb462" stroke="transparent" points="1390.5,-10 1390.5,-30 1410.5,-30 1410.5,-10 1390.5,-10"/>
<text text-anchor="start" x="1414.17" y="-15.4" font-family="Times-12" font-size="14.00"> &#160;Providers</text>
<polygon fill="#fb8072" stroke="transparent" points="1486.5,-10 1486.5,-30 1506.5,-30 1506.5,-10 1486.5,-10"/>
<text text-anchor="start" x="1510.23" y="-15.4" font-family="Times-12" font-size="14.00"> &#160;Exports</text>
<g id="clust1" class="cluster">
<title>cluster_SACBootstrap4DateTimeModule</title>
<polygon fill="none" stroke="black" stroke-dasharray="1,5" points="8,-70 8,-379.59 2649,-379.59 2649,-70 8,-70"/>
</g>
<g id="clust7" class="cluster">
<title>cluster_SACBootstrap4DateTimeModule_imports</title>
<polygon fill="none" stroke="black" points="2229,-189.59 2229,-241.59 2641,-241.59 2641,-189.59 2229,-189.59"/>
</g>
<g id="clust3" class="cluster">
<title>cluster_SACBootstrap4DateTimeModule_SacDateComponent_providers</title>
<polygon fill="none" stroke="black" points="539,-78 539,-241.59 2221,-241.59 2221,-78 539,-78"/>
</g>
<g id="clust8" class="cluster">
<title>cluster_SACBootstrap4DateTimeModule_exports</title>
<polygon fill="none" stroke="black" points="357,-319.59 357,-371.59 1031,-371.59 1031,-319.59 357,-319.59"/>
</g>
<g id="clust2" class="cluster">
<title>cluster_SACBootstrap4DateTimeModule_declarations</title>
<polygon fill="none" stroke="black" points="16,-189.59 16,-241.59 531,-241.59 531,-189.59 16,-189.59"/>
</g>
<!-- SacDateComponent -->
<g id="node1" class="node">
<title>SacDateComponent</title>
<polygon fill="#ffffb3" stroke="black" points="1009.97,-233.59 882.03,-233.59 882.03,-197.59 1009.97,-197.59 1009.97,-233.59"/>
<text text-anchor="middle" x="946" y="-211.39" font-family="Times,serif" font-size="14.00">SacDateComponent</text>
</g>
<!-- SACBootstrap4DateTimeModule -->
<g id="node5" class="node">
<title>SACBootstrap4DateTimeModule</title>
<polygon fill="#8dd3c7" stroke="black" points="793.19,-298.59 790.19,-302.59 769.19,-302.59 766.19,-298.59 588.81,-298.59 588.81,-262.59 793.19,-262.59 793.19,-298.59"/>
<text text-anchor="middle" x="691" y="-276.39" font-family="Times,serif" font-size="14.00">SACBootstrap4DateTimeModule</text>
</g>
<!-- SacDateComponent&#45;&gt;SACBootstrap4DateTimeModule -->
<g id="edge1" class="edge">
<title>SacDateComponent&#45;&gt;SACBootstrap4DateTimeModule</title>
<path fill="none" stroke="black" d="M886.64,-233.6C886.64,-249.64 886.64,-270.59 886.64,-270.59 886.64,-270.59 803.12,-270.59 803.12,-270.59"/>
<polygon fill="black" stroke="black" points="803.12,-267.09 793.12,-270.59 803.12,-274.09 803.12,-267.09"/>
</g>
<!-- SacDateSelectorComponent -->
<g id="node2" class="node">
<title>SacDateSelectorComponent</title>
<polygon fill="#ffffb3" stroke="black" points="522.84,-233.59 349.16,-233.59 349.16,-197.59 522.84,-197.59 522.84,-233.59"/>
<text text-anchor="middle" x="436" y="-211.39" font-family="Times,serif" font-size="14.00">SacDateSelectorComponent</text>
</g>
<!-- SacDateSelectorComponent&#45;&gt;SACBootstrap4DateTimeModule -->
<g id="edge4" class="edge">
<title>SacDateSelectorComponent&#45;&gt;SACBootstrap4DateTimeModule</title>
<path fill="none" stroke="black" d="M508.39,-233.6C508.39,-249.64 508.39,-270.59 508.39,-270.59 508.39,-270.59 578.75,-270.59 578.75,-270.59"/>
<polygon fill="black" stroke="black" points="578.75,-274.09 588.75,-270.59 578.75,-267.09 578.75,-274.09"/>
</g>
<!-- SacDateTimeComponent -->
<g id="node3" class="node">
<title>SacDateTimeComponent</title>
<polygon fill="#ffffb3" stroke="black" points="330.52,-233.59 173.48,-233.59 173.48,-197.59 330.52,-197.59 330.52,-233.59"/>
<text text-anchor="middle" x="252" y="-211.39" font-family="Times,serif" font-size="14.00">SacDateTimeComponent</text>
</g>
<!-- SacDateTimeComponent&#45;&gt;SACBootstrap4DateTimeModule -->
<g id="edge5" class="edge">
<title>SacDateTimeComponent&#45;&gt;SACBootstrap4DateTimeModule</title>
<path fill="none" stroke="black" d="M252,-233.86C252,-252.15 252,-277.59 252,-277.59 252,-277.59 578.9,-277.59 578.9,-277.59"/>
<polygon fill="black" stroke="black" points="578.9,-281.09 588.9,-277.59 578.9,-274.09 578.9,-281.09"/>
</g>
<!-- SacTimeComponent -->
<g id="node4" class="node">
<title>SacTimeComponent</title>
<polygon fill="#ffffb3" stroke="black" points="155.59,-233.59 24.41,-233.59 24.41,-197.59 155.59,-197.59 155.59,-233.59"/>
<text text-anchor="middle" x="90" y="-211.39" font-family="Times,serif" font-size="14.00">SacTimeComponent</text>
</g>
<!-- SacTimeComponent&#45;&gt;SACBootstrap4DateTimeModule -->
<g id="edge6" class="edge">
<title>SacTimeComponent&#45;&gt;SACBootstrap4DateTimeModule</title>
<path fill="none" stroke="black" d="M90,-233.72C90,-254.16 90,-284.59 90,-284.59 90,-284.59 578.71,-284.59 578.71,-284.59"/>
<polygon fill="black" stroke="black" points="578.71,-288.09 588.71,-284.59 578.71,-281.09 578.71,-288.09"/>
</g>
<!-- SacDateComponent  -->
<g id="node10" class="node">
<title>SacDateComponent </title>
<polygon fill="#fb8072" stroke="black" points="1022.97,-363.59 891.03,-363.59 891.03,-327.59 1022.97,-327.59 1022.97,-363.59"/>
<text text-anchor="middle" x="957" y="-341.39" font-family="Times,serif" font-size="14.00">SacDateComponent </text>
</g>
<!-- SACBootstrap4DateTimeModule&#45;&gt;SacDateComponent  -->
<g id="edge9" class="edge">
<title>SACBootstrap4DateTimeModule&#45;&gt;SacDateComponent </title>
<path fill="none" stroke="black" stroke-dasharray="5,2" d="M793.24,-291.59C865.89,-291.59 950.62,-291.59 950.62,-291.59 950.62,-291.59 950.62,-317.31 950.62,-317.31"/>
<polygon fill="black" stroke="black" points="947.13,-317.31 950.62,-327.31 954.13,-317.31 947.13,-317.31"/>
</g>
<!-- SacDateSelectorComponent  -->
<g id="node11" class="node">
<title>SacDateSelectorComponent </title>
<polygon fill="#fb8072" stroke="black" points="873.84,-363.59 696.16,-363.59 696.16,-327.59 873.84,-327.59 873.84,-363.59"/>
<text text-anchor="middle" x="785" y="-341.39" font-family="Times,serif" font-size="14.00">SacDateSelectorComponent </text>
</g>
<!-- SACBootstrap4DateTimeModule&#45;&gt;SacDateSelectorComponent  -->
<g id="edge10" class="edge">
<title>SACBootstrap4DateTimeModule&#45;&gt;SacDateSelectorComponent </title>
<path fill="none" stroke="black" stroke-dasharray="5,2" d="M744.71,-298.7C744.71,-298.7 744.71,-317.58 744.71,-317.58"/>
<polygon fill="black" stroke="black" points="741.21,-317.58 744.71,-327.58 748.21,-317.58 741.21,-317.58"/>
</g>
<!-- SacDateTimeComponent  -->
<g id="node12" class="node">
<title>SacDateTimeComponent </title>
<polygon fill="#fb8072" stroke="black" points="678.52,-363.59 517.48,-363.59 517.48,-327.59 678.52,-327.59 678.52,-363.59"/>
<text text-anchor="middle" x="598" y="-341.39" font-family="Times,serif" font-size="14.00">SacDateTimeComponent </text>
</g>
<!-- SACBootstrap4DateTimeModule&#45;&gt;SacDateTimeComponent  -->
<g id="edge11" class="edge">
<title>SACBootstrap4DateTimeModule&#45;&gt;SacDateTimeComponent </title>
<path fill="none" stroke="black" stroke-dasharray="5,2" d="M633.71,-298.7C633.71,-298.7 633.71,-317.58 633.71,-317.58"/>
<polygon fill="black" stroke="black" points="630.21,-317.58 633.71,-327.58 637.21,-317.58 630.21,-317.58"/>
</g>
<!-- SacTimeComponent  -->
<g id="node13" class="node">
<title>SacTimeComponent </title>
<polygon fill="#fb8072" stroke="black" points="499.09,-363.59 364.91,-363.59 364.91,-327.59 499.09,-327.59 499.09,-363.59"/>
<text text-anchor="middle" x="432" y="-341.39" font-family="Times,serif" font-size="14.00">SacTimeComponent </text>
</g>
<!-- SACBootstrap4DateTimeModule&#45;&gt;SacTimeComponent  -->
<g id="edge12" class="edge">
<title>SACBootstrap4DateTimeModule&#45;&gt;SacTimeComponent </title>
<path fill="none" stroke="black" stroke-dasharray="5,2" d="M588.64,-291.59C516.24,-291.59 432,-291.59 432,-291.59 432,-291.59 432,-317.31 432,-317.31"/>
<polygon fill="black" stroke="black" points="428.5,-317.31 432,-327.31 435.5,-317.31 428.5,-317.31"/>
</g>
<!-- {
 &#160;&#160;&#160;provide: NG_VALUE_ACCESSOR, multi: true, useExisting: forwardRef(() =&gt; SacDateComponent),
} -->
<g id="node6" class="node">
<title>{
 &#160;&#160;&#160;provide: NG_VALUE_ACCESSOR, multi: true, useExisting: forwardRef(() =&gt; SacDateComponent),
}</title>
<ellipse fill="#fdb462" stroke="black" cx="1788" cy="-127.3" rx="424.93" ry="41.09"/>
<text text-anchor="middle" x="1788" y="-139.9" font-family="Times,serif" font-size="14.00">{</text>
<text text-anchor="middle" x="1788" y="-123.1" font-family="Times,serif" font-size="14.00"> &#160;&#160;&#160;provide: NG_VALUE_ACCESSOR, multi: true, useExisting: forwardRef(() =&gt; SacDateComponent),</text>
<text text-anchor="middle" x="1788" y="-106.3" font-family="Times,serif" font-size="14.00">}</text>
</g>
<!-- {
 &#160;&#160;&#160;provide: NG_VALUE_ACCESSOR, multi: true, useExisting: forwardRef(() =&gt; SacDateComponent),
}&#45;&gt;SacDateComponent -->
<g id="edge2" class="edge">
<title>{
 &#160;&#160;&#160;provide: NG_VALUE_ACCESSOR, multi: true, useExisting: forwardRef(() =&gt; SacDateComponent),
}&#45;&gt;SacDateComponent</title>
<path fill="none" stroke="black" d="M1788,-168.6C1788,-191.58 1788,-215.59 1788,-215.59 1788,-215.59 1019.98,-215.59 1019.98,-215.59"/>
<polygon fill="black" stroke="black" points="1019.98,-212.09 1009.98,-215.59 1019.98,-219.09 1019.98,-212.09"/>
</g>
<!-- {
 &#160;&#160;&#160;provide: NG_VALIDATORS, multi: true, useExisting: forwardRef(() =&gt; SacDateComponent),
} -->
<g id="node7" class="node">
<title>{
 &#160;&#160;&#160;provide: NG_VALIDATORS, multi: true, useExisting: forwardRef(() =&gt; SacDateComponent),
}</title>
<ellipse fill="#fdb462" stroke="black" cx="946" cy="-127.3" rx="398.61" ry="41.09"/>
<text text-anchor="middle" x="946" y="-139.9" font-family="Times,serif" font-size="14.00">{</text>
<text text-anchor="middle" x="946" y="-123.1" font-family="Times,serif" font-size="14.00"> &#160;&#160;&#160;provide: NG_VALIDATORS, multi: true, useExisting: forwardRef(() =&gt; SacDateComponent),</text>
<text text-anchor="middle" x="946" y="-106.3" font-family="Times,serif" font-size="14.00">}</text>
</g>
<!-- {
 &#160;&#160;&#160;provide: NG_VALIDATORS, multi: true, useExisting: forwardRef(() =&gt; SacDateComponent),
}&#45;&gt;SacDateComponent -->
<g id="edge3" class="edge">
<title>{
 &#160;&#160;&#160;provide: NG_VALIDATORS, multi: true, useExisting: forwardRef(() =&gt; SacDateComponent),
}&#45;&gt;SacDateComponent</title>
<path fill="none" stroke="black" d="M946,-168.6C946,-168.6 946,-187.26 946,-187.26"/>
<polygon fill="black" stroke="black" points="942.5,-187.26 946,-197.26 949.5,-187.26 942.5,-187.26"/>
</g>
<!-- SACBootstrap4LayoutModule -->
<g id="node8" class="node">
<title>SACBootstrap4LayoutModule</title>
<polygon fill="#8dd3c7" stroke="black" points="2632.87,-233.59 2629.87,-237.59 2608.87,-237.59 2605.87,-233.59 2445.13,-233.59 2445.13,-197.59 2632.87,-197.59 2632.87,-233.59"/>
<text text-anchor="middle" x="2539" y="-211.39" font-family="Times,serif" font-size="14.00">SACBootstrap4LayoutModule</text>
</g>
<!-- SACBootstrap4LayoutModule&#45;&gt;SACBootstrap4DateTimeModule -->
<g id="edge7" class="edge">
<title>SACBootstrap4LayoutModule&#45;&gt;SACBootstrap4DateTimeModule</title>
<path fill="none" stroke="black" d="M2539,-233.72C2539,-254.16 2539,-284.59 2539,-284.59 2539,-284.59 803.32,-284.59 803.32,-284.59"/>
<polygon fill="black" stroke="black" points="803.32,-281.09 793.32,-284.59 803.32,-288.09 803.32,-281.09"/>
</g>
<!-- SACBootstrap4TooltipModule -->
<g id="node9" class="node">
<title>SACBootstrap4TooltipModule</title>
<polygon fill="#8dd3c7" stroke="black" points="2426.94,-233.59 2423.94,-237.59 2402.94,-237.59 2399.94,-233.59 2237.06,-233.59 2237.06,-197.59 2426.94,-197.59 2426.94,-233.59"/>
<text text-anchor="middle" x="2332" y="-211.39" font-family="Times,serif" font-size="14.00">SACBootstrap4TooltipModule</text>
</g>
<!-- SACBootstrap4TooltipModule&#45;&gt;SACBootstrap4DateTimeModule -->
<g id="edge8" class="edge">
<title>SACBootstrap4TooltipModule&#45;&gt;SACBootstrap4DateTimeModule</title>
<path fill="none" stroke="black" d="M2332,-233.86C2332,-252.15 2332,-277.59 2332,-277.59 2332,-277.59 803.34,-277.59 803.34,-277.59"/>
<polygon fill="black" stroke="black" points="803.34,-274.09 793.34,-277.59 803.34,-281.09 803.34,-274.09"/>
</g>
</g>
</svg>
